<?xml version="1.0" encoding="UTF-8" standalone="no"?>
<!DOCTYPE svg PUBLIC "-//W3C//DTD SVG 1.1//EN" "http://www.w3.org/Graphics/SVG/1.1/DTD/svg11.dtd">
<svg width="100%" height="100%" viewBox="0 0 3000 3000" version="1.1" xmlns="http://www.w3.org/2000/svg" xmlns:xlink="http://www.w3.org/1999/xlink" xml:space="preserve" xmlns:serif="http://www.serif.com/" style="fill-rule:evenodd;clip-rule:evenodd;stroke-linecap:round;stroke-linejoin:round;stroke-miterlimit:1.5;">
    <g transform="matrix(3.17959,-6.93889e-18,1.38778e-17,3.25941,-618.367,-539.749)">
        <rect x="194.48" y="165.597" width="943.517" height="920.411" style="fill:none;"/>
    </g>
    <g id="bolwer-hat" serif:id="bolwer hat" transform="matrix(0.999913,-0.0132218,0.0132218,0.999913,-35.1371,82.0414)">
        <g transform="matrix(-1.9076,0.11611,-0.0511212,-1.05065,3030.86,1540.71)">
            <path d="M675.4,953.662C695.321,1021.33 741.882,1087.14 816.992,1087.14C892.103,1087.14 943.703,1027.52 957.895,952.592C969.436,891.658 971.702,831.288 972.421,751.877L821.486,708.561L662.692,748.532C662.692,748.532 658.797,897.266 675.4,953.662Z" style="fill:rgb(49,50,61);stroke:rgb(49,50,61);stroke-width:9.2px;"/>
        </g>
        <g transform="matrix(7.82312,-0.367496,0.0322838,0.89508,-7859.15,537.602)">
            <path d="M1221.68,696.003C1221.68,696.003 1196.15,712.994 1183.93,712.994C1171.83,712.994 1147.49,699.136 1147.49,699.136C1146.99,732.009 1146.87,764.897 1147.14,797.802L1222.02,794.67C1222.2,752.807 1222.05,721.158 1221.68,696.003Z" style="fill:rgb(136,124,255);stroke:rgb(49,50,61);stroke-width:0.89px;"/>
        </g>
        <g transform="matrix(1.13032,-0.0480814,0.0583016,1.38523,-223.406,-403.895)">
            <path d="M1818.74,947.802C1818.74,922.414 1797.48,901.802 1771.29,901.802C1537.86,929.833 1302.88,930.862 1066.19,901.802C1040,901.802 1018.74,922.414 1018.74,947.802C1018.74,973.19 1044.16,993.427 1066.19,993.802C1191.97,995.945 1646.26,995.348 1771.29,993.802C1793.32,993.53 1818.74,973.19 1818.74,947.802Z" style="fill:rgb(49,50,61);stroke:rgb(49,50,61);stroke-width:3.93px;"/>
        </g>
        <g transform="matrix(1.37248,0,0,1.42857,-602.539,-378.667)">
            <path d="M1489.66,794L1685.66,770L1688.32,798C1644.73,785.85 1566.03,790.48 1489.66,794" style="fill:white;fill-opacity:0.317647;"/>
        </g>
        <g transform="matrix(1.01064,-0.0496764,0.0490941,0.998794,-26.8383,33.2984)">
            <path d="M1816.32,835.947C1816.32,828.985 1810.67,823.333 1803.71,823.333C1541.92,865.017 1278.29,864.042 1012.94,823.333C1005.98,823.333 1000.32,828.985 1000.32,835.947L1000.32,840.053C1000.32,847.015 1005.98,852.667 1012.94,852.667C1283.96,879.637 1547.81,880.424 1803.71,852.667C1810.67,852.667 1816.32,847.015 1816.32,840.053L1816.32,835.947Z" style="fill:white;fill-opacity:0.0941176;"/>
        </g>
        <g transform="matrix(0.999581,-0.0289551,0.0289551,0.999581,0.449287,-6.01643)">
            <path d="M1435.01,551.726C1462.33,558.483 1522.19,553.195 1622.05,624.089C1655.87,657.788 1671,693.265 1682.29,729.106C1636.23,635.878 1509.11,586.01 1435.01,551.726Z" style="fill:white;fill-opacity:0.227451;"/>
        </g>
    </g>
</svg>
