<?xml version="1.0" encoding="UTF-8" standalone="no"?>
<!DOCTYPE svg PUBLIC "-//W3C//DTD SVG 1.1//EN" "http://www.w3.org/Graphics/SVG/1.1/DTD/svg11.dtd">
<svg width="100%" height="100%" viewBox="0 0 3000 3000" version="1.1" xmlns="http://www.w3.org/2000/svg" xmlns:xlink="http://www.w3.org/1999/xlink" xml:space="preserve" xmlns:serif="http://www.serif.com/" style="fill-rule:evenodd;clip-rule:evenodd;stroke-linecap:round;stroke-linejoin:round;stroke-miterlimit:1.5;">
    <g id="Cateye-glasses" serif:id="Cateye glasses">
        <g transform="matrix(0.13119,0.149877,-1.10235,1.15997,2986.68,-466.733)">
            <path d="M957.806,1135.51C918.363,1131.99 871.763,1129.06 825.403,1132.05L820.55,1357.58C874.757,1362.82 957.31,1353.14 960.037,1353.55L957.806,1135.51Z" style="fill:rgb(223,223,250);fill-opacity:0.301961;"/>
        </g>
        <g transform="matrix(0.0548331,0.0626439,-1.14966,1.20976,3068.59,-475.588)">
            <path d="M970.205,1130.54C911.612,1131.22 860.117,1131.64 826.605,1133.42L827.722,1348.94C869.594,1350.08 929.2,1351.17 976.829,1351.73L970.205,1130.54Z" style="fill:rgb(223,223,250);fill-opacity:0.301961;"/>
        </g>
        <g transform="matrix(0.0668277,0.0696135,-0.963934,1.11253,2324.88,-291.794)">
            <path d="M968.451,1130.47C911.37,1129.69 859.526,1129.44 812.919,1129.72L817.43,1355.97L958.86,1354.93L968.451,1130.47Z" style="fill:rgb(223,223,250);fill-opacity:0.301961;"/>
        </g>
        <g transform="matrix(0.13268,0.138211,-0.937057,1.08151,2199.87,-342.248)">
            <path d="M960.801,1129.18C914.089,1128.5 869.457,1133.14 826.056,1137.91L822.66,1348.34C876.867,1353.57 922.547,1357.34 960.827,1356.22L960.801,1129.18Z" style="fill:rgb(223,223,250);fill-opacity:0.301961;"/>
        </g>
        <g id="Catglasses" transform="matrix(1.04053,-0.0511664,0.0463634,0.942855,-130.851,126.56)">
            <path d="M1454.26,1039.14C1467.59,1038.03 1484.2,1033.96 1498.26,1028.47C1522.71,1018.91 1567.75,988.269 1603.13,975.558C1640.24,962.225 1684.67,951.126 1721.12,944.237C1753.54,938.108 1786.6,940.469 1819.59,940.469C1852.71,940.469 1895.59,945.358 1919.59,948.469C1934.56,950.409 1954.71,953.358 1963.59,959.136C1970.79,963.814 1973.07,974.553 1972.93,983.136C1972.71,996.691 1966.21,1021.83 1960.34,1040.37C1952.12,1066.37 1951.08,1073.59 1938.62,1103.89C1920.67,1147.56 1868.03,1221.85 1840.93,1245.8C1819.28,1264.93 1794.71,1286.47 1771.59,1297.8C1750.3,1308.25 1723.6,1312.55 1702.26,1313.8C1677.13,1315.28 1633.82,1299.58 1610.26,1289.8C1591.7,1282.1 1575.67,1268.8 1560.93,1255.14C1545.82,1241.14 1530.51,1224.27 1519.59,1205.8C1508.04,1186.25 1498.48,1154.69 1491.59,1137.8C1487.08,1126.72 1485.15,1111.36 1478.26,1104.47C1471.4,1097.61 1458.71,1096.69 1450.26,1096.47C1442.39,1096.26 1433.25,1097.66 1427.59,1103.14C1420.71,1109.8 1414.56,1125.05 1408.93,1136.47C1400.93,1152.69 1392.75,1181.03 1379.59,1200.47C1364.71,1222.47 1339.59,1251.58 1319.59,1268.47C1302.11,1283.23 1279.82,1294.69 1259.59,1301.8C1240.09,1308.66 1218.85,1313.1 1198.26,1311.14C1174.93,1308.91 1143.42,1301.77 1119.59,1288.47C1092.93,1273.58 1061.59,1246.25 1038.26,1221.8C1015.43,1197.88 994.164,1165.28 979.877,1135.45C962.1,1098.34 939.817,1027.14 931.594,999.136C929.212,991.022 927.594,981.358 930.261,973.802C932.928,966.247 939.552,957.429 947.594,953.802C958.928,948.691 981.175,945.576 998.261,943.136C1016.93,940.469 1042.26,938.469 1059.59,937.802C1073.81,937.255 1109.3,936.682 1123.45,938.164C1146.78,940.609 1164.09,938.74 1196.04,945.913C1228.71,953.246 1268.42,963.56 1298.64,974.671C1326.85,985.042 1360.93,1010.47 1380.93,1019.14C1393.35,1024.52 1406.04,1031.8 1418.26,1035.14C1429.91,1038.31 1442.23,1040.14 1454.26,1039.14ZM1808.84,980.757C1782.9,975.895 1746.25,982.593 1720.39,985.802C1669.56,992.111 1620.05,1003.8 1574.59,1028C1554.07,1038.92 1526.58,1052.85 1515.01,1075.15C1503.93,1096.53 1510.44,1124.81 1519.06,1145.8C1529.78,1171.9 1541.09,1198.36 1559.06,1220.47C1589.25,1257.6 1624.35,1278.37 1671.04,1286.55C1685.37,1289.07 1714.65,1288.56 1728.15,1285.02C1750.62,1279.13 1765.22,1272.92 1784.86,1260.79C1809.13,1245.8 1827.83,1228.28 1844.54,1205.55C1860.66,1183.63 1874.76,1152.84 1879.83,1125.67C1884.07,1103.02 1887.49,1083.02 1884.4,1058.31C1883.66,1052.44 1877.54,1023.4 1860.48,1006.48C1841.94,988.086 1813.3,981.593 1808.84,980.757ZM1086.17,979.741C1112.11,974.878 1152.41,978.593 1178.26,981.802C1229.09,988.111 1278.61,999.795 1324.07,1024C1344.59,1034.92 1372.08,1048.85 1383.64,1071.15C1394.73,1092.53 1388.21,1120.81 1379.59,1141.8C1368.88,1167.9 1357.56,1194.36 1339.59,1216.47C1309.41,1253.6 1276.69,1272.15 1230.01,1280.33C1215.67,1282.85 1186.2,1282.55 1172.7,1279.01C1150.24,1273.12 1137.56,1271.24 1117.92,1259.11C1093.64,1244.12 1070.83,1224.28 1054.12,1201.55C1038,1179.63 1023.6,1153.38 1020.93,1125.8C1018.52,1100.93 1013.37,1084.85 1016.46,1060.14C1017.19,1054.27 1020.93,1018.57 1037.99,1001.64C1056.52,983.254 1081.71,980.577 1086.17,979.741Z" style="fill:rgb(49,50,61);stroke:rgb(49,50,61);stroke-width:5px;"/>
        </g>
    </g>
    <g transform="matrix(3.17959,-6.93889e-18,1.38778e-17,3.25941,-618.367,-539.749)">
        <rect x="194.48" y="165.597" width="943.517" height="920.411" style="fill:none;"/>
    </g>
</svg>
