<?xml version="1.0" encoding="UTF-8" standalone="no"?>
<!DOCTYPE svg PUBLIC "-//W3C//DTD SVG 1.1//EN" "http://www.w3.org/Graphics/SVG/1.1/DTD/svg11.dtd">
<svg width="100%" height="100%" viewBox="0 0 3000 3000" version="1.1" xmlns="http://www.w3.org/2000/svg" xmlns:xlink="http://www.w3.org/1999/xlink" xml:space="preserve" xmlns:serif="http://www.serif.com/" style="fill-rule:evenodd;clip-rule:evenodd;stroke-linecap:round;stroke-linejoin:round;">
    <g id="Ceiling-cat" serif:id="Ceiling cat">
        <g transform="matrix(0.453786,0.134829,-0.147225,0.495507,216.64,-430.625)">
            <path d="M1934.29,754.835L961.048,859.153L888.066,1576.66L1847.55,1452.83L1934.29,754.835Z" style="fill:rgb(66,65,76);fill-opacity:0.388235;"/>
        </g>
        <g transform="matrix(0.999969,-0.00781584,0.00781584,0.999969,100.709,44.5607)">
            <g id="ceiling2" transform="matrix(0.35229,0.044172,-0.044172,0.35229,591.064,413.41)">
                <clipPath id="_clip1">
                    <rect x="-658.756" y="-809.438" width="1236.65" height="969.623"/>
                </clipPath>
                <g clip-path="url(#_clip1)">
                    <g transform="matrix(1,0,0,1,-1500,-1500)">
                        <g id="tailFur">
                            <clipPath id="_clip2">
                                <path d="M2843.8,1635C2843.8,1635 2840.2,1662 2817.1,1710.5C2785.7,1611.8 2726.1,1513.2 2648.5,1454.5C2646.7,1453.2 2643.9,1451.3 2640.2,1448.9C2478.9,1348 2265.5,1417.1 2193.1,1593.1L2186.4,1609.1C2227.1,1577.3 2282.7,1557.3 2282.7,1557.3C2282.7,1557.3 2262.8,1584.5 2247.6,1604.9C2200.5,1667.9 2169.6,1754.4 2193.5,1833.8C2201,1858.7 2219.9,1882.8 2243.8,1904.8C2122.5,1924.5 2036.6,2048.7 2036.6,2048.7L1920.6,2185.5L2090,2220.8L2186.5,2224.3C2238.1,2239.8 2303.6,2250.9 2385.6,2250.9C2628.1,2250.9 2798.7,2091.9 2834.7,1921C2837.5,1907.6 2840.4,1894.2 2843.5,1880.9C2854.8,1831.3 2877.9,1707.7 2843.8,1635Z"/>
                            </clipPath>
                            <g clip-path="url(#_clip2)">
                                <rect x="1904" y="1331" width="1014.2" height="914.97" style="fill:rgb(247,188,86);fill-rule:nonzero;"/>
                                <g transform="matrix(0.469472,-0.882948,0.882948,0.469472,112.8,3127.6)">
                                    <ellipse cx="2659.7" cy="1469.9" rx="78.8" ry="174.6" style="fill:rgb(196,126,51);"/>
                                </g>
                                <path d="M2198.6,1528.2C2227.96,1508 2263.35,1498.4 2298.9,1501C2315.4,1502.3 2331.7,1506.2 2348.2,1507.4C2364.7,1508.6 2382.2,1506.8 2396.1,1497.8C2410,1488.8 2419.1,1471 2414.2,1455.2C2409.3,1439.4 2393.9,1430.9 2378.9,1425.3C2340.16,1410.77 2297.75,1409.12 2258,1420.6M2581.9,1624.6C2615.9,1644.7 2656.3,1650.4 2695.6,1654.2C2728.2,1657.3 2761.3,1659.3 2793.4,1652.7C2825.5,1646.1 2856.7,1629.8 2875.2,1602.9C2889.99,1636.56 2900.79,1671.83 2907.4,1708C2882.8,1729.8 2850.2,1741 2817.6,1745.2C2785,1749.4 2751.9,1747.1 2719.1,1744.7C2692,1742.8 2664.7,1740.8 2638.3,1734.1C2611.9,1727.4 2586.3,1715.7 2567,1696.5" style="fill:rgb(196,126,51);fill-rule:nonzero;"/>
                                <clipPath id="_clip3">
                                    <path d="M2843.8,1635C2843.8,1635 2840.2,1662 2817.1,1710.5C2785.7,1611.8 2726.1,1513.2 2648.5,1454.5C2646.7,1453.2 2643.9,1451.3 2640.2,1448.9C2478.9,1348 2265.5,1417.1 2193.1,1593.1L2186.4,1609.1C2227.1,1577.3 2282.7,1557.3 2282.7,1557.3C2282.7,1557.3 2262.8,1584.5 2247.6,1604.9C2200.5,1667.9 2169.6,1754.4 2193.5,1833.8C2201,1858.7 2219.9,1882.8 2243.8,1904.8C2122.5,1924.5 2036.6,2048.7 2036.6,2048.7L1920.6,2185.5L2090,2220.8L2186.5,2224.3C2238.1,2239.8 2303.6,2250.9 2385.6,2250.9C2628.1,2250.9 2798.7,2091.9 2834.7,1921C2837.5,1907.6 2840.4,1894.2 2843.5,1880.9C2854.8,1831.3 2877.9,1707.7 2843.8,1635Z"/>
                                </clipPath>
                                <g clip-path="url(#_clip3)">
                                    <path d="M2841.2,2267.2L1903.9,2245.9L2169.5,1329.9L2911.9,1389.9L2841.2,2267.2Z" style="fill:none;"/>
                                </g>
                                <g>
                                    <clipPath id="_clip4">
                                        <path d="M2843.8,1635C2843.8,1635 2840.2,1662 2817.1,1710.5C2785.7,1611.8 2726.1,1513.2 2648.5,1454.5C2646.7,1453.2 2643.9,1451.3 2640.2,1448.9C2478.9,1348 2265.5,1417.1 2193.1,1593.1L2186.4,1609.1C2227.1,1577.3 2282.7,1557.3 2282.7,1557.3C2282.7,1557.3 2262.8,1584.5 2247.6,1604.9C2200.5,1667.9 2169.6,1754.4 2193.5,1833.8C2201,1858.7 2219.9,1882.8 2243.8,1904.8C2122.5,1924.5 2036.6,2048.7 2036.6,2048.7L1920.6,2185.5L2090,2220.8L2186.5,2224.3C2238.1,2239.8 2303.6,2250.9 2385.6,2250.9C2628.1,2250.9 2798.7,2091.9 2834.7,1921C2837.5,1907.6 2840.4,1894.2 2843.5,1880.9C2854.8,1831.3 2877.9,1707.7 2843.8,1635Z"/>
                                    </clipPath>
                                    <g clip-path="url(#_clip4)">
                                        <path d="M2262.3,1500C2262.3,1500 2413.9,1353.6 2640.3,1507.5C2733.3,1574.4 2802.3,1739.7 2802.3,1739.7L2817,1710.5L2757.3,1332.9L2524,1283.4L2373.4,1303.6L2262.3,1500Z" style="fill:url(#_Linear5);fill-rule:nonzero;"/>
                                        <path d="M2374.2,1931.5C2379,1903.6 2395,1887 2417.2,1869.5C2439.4,1852 2464.7,1838.6 2487.2,1821.5C2503.2,1809.4 2515.3,1798.9 2521.3,1782.1C2521.49,1781.66 2521.92,1781.38 2522.4,1781.38C2523.06,1781.38 2523.6,1781.92 2523.6,1782.58C2523.6,1782.59 2523.6,1782.59 2523.6,1782.6L2522.9,1797.3C2522.99,1801.92 2522.66,1806.54 2521.9,1811.1C2520.35,1818.07 2517.32,1824.62 2513,1830.3C2488.2,1864.3 2438.9,1870.8 2409.9,1901.3C2391.2,1921 2383.4,1948.8 2383.5,1975.5C2383.5,1979.5 2386.4,1991.8 2380.9,1990.3C2377.2,1989.3 2372.9,1981.5 2372.2,1976.1C2370.1,1961.3 2371.6,1946.2 2374.2,1931.5Z" style="fill:url(#_Linear6);fill-rule:nonzero;"/>
                                        <path d="M2842.4,1647.5C2848.3,1766.4 2840.8,1785.2 2815.2,1908.8C2795.2,2005.5 2729,2101 2703.7,2135.5C2744.2,2115.9 2763.3,2104.8 2790.4,2068.9C2817.5,2033 2838.1,1992.4 2856,1951.1C2869.7,1919.5 2882.1,1887 2888.6,1853.2C2892.5,1833 2894.3,1812.3 2892.8,1791.8C2891.3,1771.3 2886,1749.4 2880.8,1728.5L2867.9,1676.6" style="fill:url(#_Linear7);fill-rule:nonzero;"/>
                                        <path d="M2616.4,1728.1C2618.9,1724.9 2622.7,1721.4 2626.4,1723.1C2629.8,1735.4 2623.9,1748.2 2618.1,1759.5C2607.5,1780 2596.5,1800.8 2580.2,1817.1C2571.06,1826.22 2560.77,1834.12 2549.6,1840.6C2547.4,1841.9 2526.3,1856.7 2524.2,1852C2523.1,1849.4 2545.4,1831.3 2547.2,1829.1C2565,1808.3 2581.6,1791.7 2595.7,1769.8C2603.7,1757.5 2607.3,1739.9 2616.4,1728.1Z" style="fill:url(#_Linear8);fill-rule:nonzero;"/>
                                    </g>
                                </g>
                            </g>
                        </g>
                        <g id="tail">
                            <path d="M2817.2,1710.6C2785.9,1611.9 2726.2,1513.2 2648.5,1454.5C2646.7,1453.2 2643.9,1451.3 2640.2,1448.9C2478.9,1348 2265.5,1417.1 2193.1,1593.1L2186.4,1609.1C2227.1,1577.3 2282.7,1557.3 2282.7,1557.3C2282.7,1557.3 2262.8,1584.5 2247.6,1604.9C2200.5,1667.9 2169.6,1754.4 2193.5,1833.8C2214.1,1902.5 2322.2,1965.4 2379.8,1992.6C2383.9,1994.6 2388.3,1991 2386.4,1986.9C2376.7,1965.5 2392.7,1926.6 2405.4,1908.9C2421.3,1886.6 2447.6,1874.7 2471.6,1861.5C2495.6,1848.3 2520.2,1830.6 2527.3,1804.2L2522.3,1861.9C2560.2,1843.3 2591.6,1812.2 2611.6,1775C2620.18,1759.08 2626.54,1742.05 2630.5,1724.4" style="fill:none;stroke:rgb(49,50,61);stroke-width:12.5px;"/>
                        </g>
                        <g id="bodyFur">
                            <clipPath id="_clip9">
                                <path d="M2200.5,2195.7C2157.5,2166.3 2068.1,2134 2020.7,2120.2L2019.9,2119.9C2038.72,2070.01 2040.96,2015.36 2026.3,1964.1L1851.5,1395.5C1866.1,1380.3 1874.8,1369.9 1874.8,1369.9C1917.2,1397.1 1984.5,1366.4 2011.9,1351.7C2012.99,1351.19 2013.68,1350.09 2013.68,1348.89C2013.68,1347.19 2012.28,1345.8 2010.58,1345.8C2010.52,1345.8 2010.46,1345.8 2010.4,1345.8C1956.8,1345.8 1880.5,1304.2 1880.5,1304.2C1941.2,1320.3 1964.5,1303.1 1972.3,1293.7C1972.83,1293.13 1973.12,1292.38 1973.12,1291.6C1973.12,1289.9 1971.72,1288.5 1970.02,1288.5C1970.01,1288.5 1970.01,1288.5 1970,1288.5C1950.4,1287.6 1884,1276.2 1835.6,1166.1C1829,1151 1822,1136.1 1814.4,1121.4C1799.8,1093.2 1775.6,1048.6 1747.8,1004.3L1749.1,997.2L1799.1,791.8C1805.7,764.5 1774.6,743.9 1752.1,760.6L1620.9,858L1618.8,860.6L1613.9,857.5C1596.55,848.11 1578.11,840.889 1559,836L1555.7,835.2C1565.7,806.7 1596.6,790.9 1596.6,790.9C1560.7,757.2 1496.6,810.3 1496.6,810.3C1459.6,774.6 1514,707.6 1514,707.6C1449.2,678.2 1401.2,793 1401.2,793C1396.5,736.6 1315.1,728.1 1315.1,728.1C1342.2,757.8 1328.7,811 1328.7,811C1290.6,773.7 1218,808.6 1218,808.6C1247.7,811.5 1266.9,824.3 1278.8,836.6L1275.8,837.4C1247.29,845.427 1220.51,858.649 1196.8,876.4L1065.8,795.2C1042.5,780.8 1013.7,802.5 1021.1,828.9L1078.6,1031.5L1082.8,1046.4C1069.2,1078.9 1058.7,1108.3 1053,1124.9C1049.47,1135.37 1045.43,1145.63 1040.9,1155.7C1000,1262.9 910.6,1299.3 880.8,1308.8C879.462,1309.17 878.529,1310.4 878.529,1311.79C878.529,1313.21 879.514,1314.46 880.9,1314.8C901.5,1320.5 953.7,1332.2 991.9,1293.8C991.9,1293.8 954.6,1345.5 908.7,1364C907.334,1364.35 906.371,1365.59 906.371,1367C906.371,1368.7 907.77,1370.1 909.471,1370.1C909.514,1370.1 909.557,1370.1 909.6,1370.1C926.1,1371.7 957.5,1370.8 997.4,1351.5C997.4,1351.5 975.7,1381.6 956.6,1395.9C955.828,1396.51 955.377,1397.43 955.377,1398.42C955.377,1400.17 956.821,1401.62 958.577,1401.62C958.685,1401.62 958.793,1401.61 958.9,1401.6C974.4,1399.9 993.3,1396.5 1004.4,1389.7L1004.9,1401.9C1005.4,1413.6 1013.5,1426.1 1026.2,1438.6L919.2,1999.6C913.907,2039.21 918.229,2079.51 931.8,2117.1L931.2,2117.4C893.1,2126.5 800.8,2160.8 746.7,2195.7C720.2,2212.8 736.6,2251.6 769.9,2251L1036.8,2245.8C1041.33,2248.53 1045.93,2251.17 1050.6,2253.7L1050.8,2257.1C1051.2,2280.4 1044.1,2299.5 1020.9,2300.7C1005.3,2301.5 992.7,2310.6 990.3,2321.8C985.6,2343.3 996.1,2360.7 1017.5,2362.2L1101.8,2367.2C1128.2,2368.8 1153.7,2355.9 1167.1,2333.1C1171.44,2325.72 1174.42,2317.63 1175.9,2309.2L1180.9,2282.6L1714.5,2282.6L1718,2303.3C1722.06,2327.59 1738.37,2348.14 1761.1,2357.6C1768.16,2360.51 1775.77,2361.87 1783.4,2361.6L1875.2,2358.6C1897.2,2356.4 1905.3,2342.9 1903.1,2321.7C1902.4,2314.8 1896.9,2297.2 1878.6,2296.2C1862.8,2295.3 1853.4,2287.6 1850.5,2274.3C1873.54,2268.14 1895.57,2258.68 1915.9,2246.2L2177.4,2251.3C2210.6,2251.6 2226.6,2213.5 2200.5,2195.7L2200.5,2195.7Z"/>
                            </clipPath>
                            <g clip-path="url(#_clip9)">
                                <path d="M724.1,562.8L2294.18,794.153L1900.35,1671.52L1744.85,1713.24L610.32,1757.31L724.1,562.8Z" style="fill:rgb(247,188,86);fill-rule:nonzero;"/>
                                <path d="M1176.2,898L1247.5,941.4C1332.5,993.2 1322.3,939.2 1315.4,913.7C1308.5,888.2 1271.4,832.6 1271.4,832.6L1213.7,863.8L1176.2,898ZM1311.2,763.5C1338.4,804.1 1346.2,852 1355.5,900C1364,944 1379.9,989.6 1409.8,990.6C1467.8,992.5 1454.2,799.5 1454.2,799.5C1454.2,799.5 1450.6,624.2 1418.6,598.2C1399.7,582.9 1405.2,563.2 1361.6,582.2C1331.3,595.3 1248.5,671.7 1238.4,692.2C1231.6,705.7 1295.5,740.1 1311.2,763.5ZM1548.4,831.6C1548.4,831.6 1491.4,968.7 1529.1,985.9C1566.8,1003.1 1650.4,873.6 1650.4,873.6L1548.4,831.6ZM917.1,1564.5C917.1,1564.5 979.7,1538.5 1013.6,1545.3C1031.2,1561.5 1048.7,1574.8 1064.6,1582.3C1110.3,1605.3 1115.1,1646.6 1094.5,1668.4C1068.6,1695.8 991.8,1667 967,1650.8C942.2,1634.6 852.3,1564.4 852.3,1564.4L917.1,1564.4L917.1,1564.5Z" style="fill:rgb(196,126,51);fill-rule:nonzero;"/>
                                <path d="M2468.6,1238.1C2471.8,1238.1 2471.8,1233.1 2468.6,1233.1C2465.4,1233.1 2465.4,1238.1 2468.6,1238.1Z" style="fill:rgb(247,188,86);fill-rule:nonzero;"/>
                            </g>
                        </g>
                        <g id="shadow">
                            <clipPath id="_clip10">
                                <path d="M2200.5,2195.7C2157.5,2166.3 2068.1,2134 2020.7,2120.2L2019.9,2119.9C2038.72,2070.01 2040.96,2015.36 2026.3,1964.1L1851.5,1395.5C1866.1,1380.3 1874.8,1369.9 1874.8,1369.9C1917.2,1397.1 1984.5,1366.4 2011.9,1351.7C2012.99,1351.19 2013.68,1350.09 2013.68,1348.89C2013.68,1347.19 2012.28,1345.8 2010.58,1345.8C2010.52,1345.8 2010.46,1345.8 2010.4,1345.8C1956.8,1345.8 1880.5,1304.2 1880.5,1304.2C1941.2,1320.3 1964.5,1303.1 1972.3,1293.7C1972.83,1293.13 1973.12,1292.38 1973.12,1291.6C1973.12,1289.9 1971.72,1288.5 1970.02,1288.5C1970.01,1288.5 1970.01,1288.5 1970,1288.5C1950.4,1287.6 1884,1276.2 1835.6,1166.1C1829,1151 1822,1136.1 1814.4,1121.4C1799.8,1093.2 1775.6,1048.6 1747.8,1004.3L1749.1,997.2L1799.1,791.8C1805.7,764.5 1774.6,743.9 1752.1,760.6L1620.9,858L1618.8,860.6L1613.9,857.5C1596.55,848.11 1578.11,840.889 1559,836L1555.7,835.2C1565.7,806.7 1596.6,790.9 1596.6,790.9C1560.7,757.2 1496.6,810.3 1496.6,810.3C1459.6,774.6 1514,707.6 1514,707.6C1449.2,678.2 1401.2,793 1401.2,793C1396.5,736.6 1315.1,728.1 1315.1,728.1C1342.2,757.8 1328.7,811 1328.7,811C1290.6,773.7 1218,808.6 1218,808.6C1247.7,811.5 1266.9,824.3 1278.8,836.6L1275.8,837.4C1247.29,845.427 1220.51,858.649 1196.8,876.4L1065.8,795.2C1042.5,780.8 1013.7,802.5 1021.1,828.9L1078.6,1031.5L1082.8,1046.4C1069.2,1078.9 1058.7,1108.3 1053,1124.9C1049.47,1135.37 1045.43,1145.63 1040.9,1155.7C1000,1262.9 910.6,1299.3 880.8,1308.8C879.462,1309.17 878.529,1310.4 878.529,1311.79C878.529,1313.21 879.514,1314.46 880.9,1314.8C901.5,1320.5 953.7,1332.2 991.9,1293.8C991.9,1293.8 954.6,1345.5 908.7,1364C907.334,1364.35 906.371,1365.59 906.371,1367C906.371,1368.7 907.77,1370.1 909.471,1370.1C909.514,1370.1 909.557,1370.1 909.6,1370.1C926.1,1371.7 957.5,1370.8 997.4,1351.5C997.4,1351.5 975.7,1381.6 956.6,1395.9C955.828,1396.51 955.377,1397.43 955.377,1398.42C955.377,1400.17 956.821,1401.62 958.577,1401.62C958.685,1401.62 958.793,1401.61 958.9,1401.6C974.4,1399.9 993.3,1396.5 1004.4,1389.7L1004.9,1401.9C1005.4,1413.6 1013.5,1426.1 1026.2,1438.6L919.2,1999.6C913.907,2039.21 918.229,2079.51 931.8,2117.1L931.2,2117.4C893.1,2126.5 800.8,2160.8 746.7,2195.7C720.2,2212.8 736.6,2251.6 769.9,2251L1036.8,2245.8C1041.33,2248.53 1045.93,2251.17 1050.6,2253.7L1050.8,2257.1C1051.2,2280.4 1044.1,2299.5 1020.9,2300.7C1005.3,2301.5 992.7,2310.6 990.3,2321.8C985.6,2343.3 996.1,2360.7 1017.5,2362.2L1101.8,2367.2C1128.2,2368.8 1153.7,2355.9 1167.1,2333.1C1171.44,2325.72 1174.42,2317.63 1175.9,2309.2L1180.9,2282.6L1714.5,2282.6L1718,2303.3C1722.06,2327.59 1738.37,2348.14 1761.1,2357.6C1768.16,2360.51 1775.77,2361.87 1783.4,2361.6L1875.2,2358.6C1897.2,2356.4 1905.3,2342.9 1903.1,2321.7C1902.4,2314.8 1896.9,2297.2 1878.6,2296.2C1862.8,2295.3 1853.4,2287.6 1850.5,2274.3C1873.54,2268.14 1895.57,2258.68 1915.9,2246.2L2177.4,2251.3C2210.6,2251.6 2226.6,2213.5 2200.5,2195.7L2200.5,2195.7Z"/>
                            </clipPath>
                            <g clip-path="url(#_clip10)">
                                <path d="M1020.9,1433.2C1015.5,1433.2 1063.6,1468.9 1082.4,1478.8C1057.2,1484.9 1045.1,1547.7 1045,1548C1024.9,1681.2 1011.5,1876 1005.1,1926.8C1001.06,1959.45 998.786,1992.3 998.3,2025.2L998.3,2028.6C1021.8,2054.6 1045.9,2117.4 1050.9,2205.4L1052.2,2254.4C1052.2,2254.4 1020.9,2253.6 971.2,2253.6C909.2,2253.6 860.4,2141.9 892,1975.4M959.5,1395.5C977.784,1390.52 994.29,1380.46 1007.1,1366.5C1007.74,1365.87 1008.6,1365.52 1009.49,1365.52C1011.36,1365.52 1012.89,1367.05 1012.89,1368.92C1012.89,1369.18 1012.86,1369.44 1012.8,1369.7C1008.24,1385.55 1001.65,1400.74 993.2,1414.9C992.762,1415.81 992.066,1416.58 991.2,1417.1C990.923,1417.26 990.608,1417.35 990.286,1417.35C989.624,1417.35 989.013,1416.98 988.7,1416.4M910.2,1367.1C927.3,1362.4 943.4,1354.8 959.4,1347.2C975.4,1339.6 992.7,1331.2 1005.9,1319.3C1006.51,1318.77 1007.3,1318.49 1008.11,1318.49C1009.97,1318.49 1011.51,1320.02 1011.51,1321.88C1011.51,1322.37 1011.4,1322.86 1011.2,1323.3C1001,1343.28 985.892,1360.35 967.3,1372.9M884.9,1312.7C912.5,1309.6 939.9,1303.3 965.2,1291.9C985,1283 1001.2,1269.3 1017.2,1254.4C1017.5,1254.18 1017.85,1254.06 1018.22,1254.06C1019.16,1254.06 1019.92,1254.83 1019.92,1255.76C1019.92,1256.05 1019.85,1256.34 1019.7,1256.6C1010.63,1268.73 1001.13,1280.53 991.2,1292C980,1304.9 967.3,1318.1 950.6,1321.7" style="fill:rgb(127,127,127);fill-opacity:0.2;fill-rule:nonzero;"/>
                                <path d="M1796.7,801.2C1796.7,801.2 1779.2,758 1715.1,825.4C1681.4,865.9 1646.2,879.4 1646.2,879.4L1749,997.2L1796.7,801.2Z" style="fill:url(#_Linear11);fill-rule:nonzero;"/>
                                <path d="M1027.9,853.3C1027.9,853.3 1018.5,814.4 1062.6,832.5C1081.1,840.1 1113.3,873.1 1126.1,888.5L1148.1,923.5L1082.8,1040.8L1027.9,853.3Z" style="fill:url(#_Linear12);fill-rule:nonzero;"/>
                                <path d="M1854.3,2157.4C1854.3,2157.4 1884.2,2066 1920.6,2032.5C1881.2,2107.5 1934.7,2125.2 1948.7,2120.2C2002.4,2101 2023.7,2053.5 2027.9,1970.2L2093.2,2086.5C2093.2,2086.5 2038.2,2342.5 1889.2,2300.5L1850.5,2282.4L1854.3,2157.4ZM1280.9,847.4C1292.72,857.509 1302.44,869.843 1309.5,883.7C1310.23,885.385 1311.89,886.481 1313.73,886.481C1316.25,886.481 1318.33,884.405 1318.33,881.881C1318.33,881.721 1318.32,881.56 1318.3,881.4C1317.4,865.9 1314.5,850.8 1306.5,837.7C1290.9,812.3 1258.1,801 1228.5,804.9C1220.9,805.9 1212.7,807.7 1206,804M1325,802.3C1333.41,821.519 1339.69,841.607 1343.7,862.2C1344.04,864.439 1345.98,866.11 1348.25,866.11C1350.21,866.11 1351.96,864.856 1352.6,863C1360.4,842.2 1364,819.9 1361.3,797.9C1358,770.7 1344.5,744.3 1322.6,727.8C1317.8,724.2 1311.9,720.9 1306.1,722.5M1401.1,775.5C1400.06,786.946 1400.13,798.466 1401.3,809.9C1401.42,812.336 1403.45,814.276 1405.89,814.276C1407.92,814.276 1409.72,812.939 1410.3,811C1418.7,788.6 1432.6,768.3 1449.6,751.4C1471.4,729.8 1498.2,713.7 1526.4,701.8C1504.7,687.9 1475.2,687.6 1453.2,701C1445.8,705.5 1439.1,711.8 1436.4,720M1502.4,779.4C1497.65,796.95 1494.24,814.834 1492.2,832.9C1492.17,833.116 1492.15,833.335 1492.15,833.554C1492.15,836.077 1494.23,838.154 1496.75,838.154C1498.07,838.154 1499.33,837.587 1500.2,836.6C1525.3,809.6 1562.2,793.7 1599.1,794.7C1601.2,794.8 1603.6,794.8 1604.7,791.9C1605.09,790.811 1605.19,789.64 1605,788.5C1603.5,778.6 1595.7,770.9 1587,766.2C1572.96,758.691 1556.37,757.491 1541.4,762.9" style="fill:rgb(127,127,127);fill-opacity:0.2;fill-rule:nonzero;"/>
                                <path d="M1087.2,1037.5C1087.2,1037.5 1131.3,879.6 1278.8,836.8L1295.8,862.2C1214.3,885.8 1128.3,997.5 1113.6,1043.5C1098.9,1089.5 1057.9,1179.2 988.9,1242" style="fill:rgb(127,127,127);fill-opacity:0.2;fill-rule:nonzero;"/>
                            </g>
                        </g>
                        <g id="highlight">
                            <clipPath id="_clip13">
                                <path d="M2200.5,2195.7C2157.5,2166.3 2068.1,2134 2020.7,2120.2L2019.9,2119.9C2038.72,2070.01 2040.96,2015.36 2026.3,1964.1L1851.5,1395.5C1866.1,1380.3 1874.8,1369.9 1874.8,1369.9C1917.2,1397.1 1984.5,1366.4 2011.9,1351.7C2012.99,1351.19 2013.68,1350.09 2013.68,1348.89C2013.68,1347.19 2012.28,1345.8 2010.58,1345.8C2010.52,1345.8 2010.46,1345.8 2010.4,1345.8C1956.8,1345.8 1880.5,1304.2 1880.5,1304.2C1941.2,1320.3 1964.5,1303.1 1972.3,1293.7C1972.83,1293.13 1973.12,1292.38 1973.12,1291.6C1973.12,1289.9 1971.72,1288.5 1970.02,1288.5C1970.01,1288.5 1970.01,1288.5 1970,1288.5C1950.4,1287.6 1884,1276.2 1835.6,1166.1C1829,1151 1822,1136.1 1814.4,1121.4C1799.8,1093.2 1775.6,1048.6 1747.8,1004.3L1749.1,997.2L1799.1,791.8C1805.7,764.5 1774.6,743.9 1752.1,760.6L1620.9,858L1618.8,860.6L1613.9,857.5C1596.55,848.11 1578.11,840.889 1559,836L1555.7,835.2C1565.7,806.7 1596.6,790.9 1596.6,790.9C1560.7,757.2 1496.6,810.3 1496.6,810.3C1459.6,774.6 1514,707.6 1514,707.6C1449.2,678.2 1401.2,793 1401.2,793C1396.5,736.6 1315.1,728.1 1315.1,728.1C1342.2,757.8 1328.7,811 1328.7,811C1290.6,773.7 1218,808.6 1218,808.6C1247.7,811.5 1266.9,824.3 1278.8,836.6L1275.8,837.4C1247.29,845.427 1220.51,858.649 1196.8,876.4L1065.8,795.2C1042.5,780.8 1013.7,802.5 1021.1,828.9L1078.6,1031.5L1082.8,1046.4C1069.2,1078.9 1058.7,1108.3 1053,1124.9C1049.47,1135.37 1045.43,1145.63 1040.9,1155.7C1000,1262.9 910.6,1299.3 880.8,1308.8C879.462,1309.17 878.529,1310.4 878.529,1311.79C878.529,1313.21 879.514,1314.46 880.9,1314.8C901.5,1320.5 953.7,1332.2 991.9,1293.8C991.9,1293.8 954.6,1345.5 908.7,1364C907.334,1364.35 906.371,1365.59 906.371,1367C906.371,1368.7 907.77,1370.1 909.471,1370.1C909.514,1370.1 909.557,1370.1 909.6,1370.1C926.1,1371.7 957.5,1370.8 997.4,1351.5C997.4,1351.5 975.7,1381.6 956.6,1395.9C955.828,1396.51 955.377,1397.43 955.377,1398.42C955.377,1400.17 956.821,1401.62 958.577,1401.62C958.685,1401.62 958.793,1401.61 958.9,1401.6C974.4,1399.9 993.3,1396.5 1004.4,1389.7L1004.9,1401.9C1005.4,1413.6 1013.5,1426.1 1026.2,1438.6L919.2,1999.6C913.907,2039.21 918.229,2079.51 931.8,2117.1L931.2,2117.4C893.1,2126.5 800.8,2160.8 746.7,2195.7C720.2,2212.8 736.6,2251.6 769.9,2251L1036.8,2245.8C1041.33,2248.53 1045.93,2251.17 1050.6,2253.7L1050.8,2257.1C1051.2,2280.4 1044.1,2299.5 1020.9,2300.7C1005.3,2301.5 992.7,2310.6 990.3,2321.8C985.6,2343.3 996.1,2360.7 1017.5,2362.2L1101.8,2367.2C1128.2,2368.8 1153.7,2355.9 1167.1,2333.1C1171.44,2325.72 1174.42,2317.63 1175.9,2309.2L1180.9,2282.6L1714.5,2282.6L1718,2303.3C1722.06,2327.59 1738.37,2348.14 1761.1,2357.6C1768.16,2360.51 1775.77,2361.87 1783.4,2361.6L1875.2,2358.6C1897.2,2356.4 1905.3,2342.9 1903.1,2321.7C1902.4,2314.8 1896.9,2297.2 1878.6,2296.2C1862.8,2295.3 1853.4,2287.6 1850.5,2274.3C1873.54,2268.14 1895.57,2258.68 1915.9,2246.2L2177.4,2251.3C2210.6,2251.6 2226.6,2213.5 2200.5,2195.7L2200.5,2195.7Z"/>
                            </clipPath>
                            <g clip-path="url(#_clip13)">
                                <g opacity="0.3">
                                    <path d="M1822.2,1426.8C1887.7,1619.6 1943,1850.7 1970,1970.4C2016.1,2175.1 1888.8,2256.4 1888.8,2256.4L1949.9,2220.9C1949.9,2220.9 2012.9,2146.1 2022.4,2113.3C2043.2,2041.4 2161.4,2080.3 2139.6,1965.6C2107.9,1799.1 1874.8,1369.8 1874.8,1369.8C1874.8,1369.8 1821,1423.4 1822.2,1426.8Z" style="fill:url(#_Linear14);fill-rule:nonzero;"/>
                                    <path d="M1898.6,1313.5C1879.89,1307.46 1862.02,1299.09 1845.4,1288.6C1844.96,1288.21 1844.39,1287.99 1843.8,1287.99C1842.48,1287.99 1841.39,1289.08 1841.39,1290.4C1841.39,1291.09 1841.69,1291.74 1842.2,1292.2C1869.5,1324.2 1905.2,1350 1946.5,1355.8C1966,1358.5 1985.8,1356.7 2005.4,1354.7C2011.7,1354.1 2018.3,1353.3 2023.4,1349.5" style="fill:url(#_Linear15);fill-rule:nonzero;"/>
                                    <path d="M1985.6,1289.8C1970.59,1292.58 1955.22,1292.91 1940.1,1290.8C1896.5,1284.7 1857.6,1258.3 1828.8,1225C1800,1191.7 1785.1,1151.7 1767.2,1111.5C1748.98,1070.56 1728.14,1030.85 1704.8,992.6C1674.61,943.56 1633.8,901.903 1585.4,870.7C1577.4,865.6 1546,854.3 1540.4,846.7C1540.4,846.7 1539.7,841.7 1545.2,834C1550.7,826.3 1583.6,840.5 1591.5,845C1687.5,900 1680.8,912 1724,975C1761.1,1029.2 1814.1,1121.5 1850.3,1196.4" style="fill:url(#_Linear16);fill-rule:nonzero;"/>
                                    <path d="M1041.7,1452L948.1,1954.5C948.1,1954.5 894.6,2129.5 1050.3,2233.5L1050.6,2253.7C1050.6,2253.7 926.1,2196.5 917.1,2038.5C908.1,1880.5 1017.1,1434.5 1017.1,1434.5L1041.7,1452Z" style="fill:url(#_Linear17);fill-rule:nonzero;"/>
                                </g>
                            </g>
                        </g>
                        <path id="bodyMask" d="M2200.5,2195.7C1948.4,2150.4 196.957,1991.75 2020.7,2120.2L2019.9,2119.9C2038.72,2070.01 1574.47,1924.34 1559.8,1873.08L1851.5,1395.5C1866.1,1380.3 1874.8,1369.9 1874.8,1369.9C1917.2,1397.1 1984.5,1366.4 2011.9,1351.7C2012.99,1351.19 2013.68,1350.09 2013.68,1348.89C2013.68,1347.19 2012.28,1345.8 2010.58,1345.8C2010.52,1345.8 2010.46,1345.8 2010.4,1345.8C1956.8,1345.8 1880.5,1304.2 1880.5,1304.2C1941.2,1320.3 1964.5,1303.1 1972.3,1293.7C1972.83,1293.13 1973.12,1292.38 1973.12,1291.6C1973.12,1289.9 1971.72,1288.5 1970.02,1288.5C1970.01,1288.5 1970.01,1288.5 1970,1288.5C1950.4,1287.6 1884,1276.2 1835.6,1166.1C1829,1151 1822,1136.1 1814.4,1121.4C1799.8,1093.2 1775.6,1048.6 1747.8,1004.3L1749.1,997.2L1799.1,791.8C1805.7,764.5 1774.6,743.9 1752.1,760.6L1620.9,858L1618.8,860.6L1613.9,857.5C1596.55,848.11 1578.11,840.889 1559,836L1555.7,835.2C1565.7,806.7 1596.6,790.9 1596.6,790.9C1560.7,757.2 1496.6,810.3 1496.6,810.3C1459.6,774.6 1514,707.6 1514,707.6C1449.2,678.2 1401.2,793 1401.2,793C1396.5,736.6 1315.1,728.1 1315.1,728.1C1342.2,757.8 1328.7,811 1328.7,811C1290.6,773.7 1218,808.6 1218,808.6C1247.7,811.5 1266.9,824.3 1278.8,836.6L1275.8,837.4C1247.29,845.427 1220.51,858.649 1196.8,876.4L1065.8,795.2C1042.5,780.8 1013.7,802.5 1021.1,828.9L1078.6,1031.5L1082.8,1046.4C1069.2,1078.9 1058.7,1108.3 1053,1124.9C1049.47,1135.37 1045.43,1145.63 1040.9,1155.7C1000,1262.9 910.6,1299.3 880.8,1308.8C879.462,1309.17 878.529,1310.4 878.529,1311.79C878.529,1313.21 879.514,1314.46 880.9,1314.8C901.5,1320.5 953.7,1332.2 991.9,1293.8C991.9,1293.8 954.6,1345.5 908.7,1364C907.334,1364.35 906.371,1365.59 906.371,1367C906.371,1368.7 907.77,1370.1 909.471,1370.1C909.514,1370.1 909.557,1370.1 909.6,1370.1C926.1,1371.7 957.5,1370.8 997.4,1351.5C997.4,1351.5 975.7,1381.6 956.6,1395.9C955.828,1396.51 955.377,1397.43 955.377,1398.42C955.377,1400.17 956.821,1401.62 958.577,1401.62C958.685,1401.62 958.793,1401.61 958.9,1401.6C974.4,1399.9 993.3,1396.5 1004.4,1389.7L1004.9,1401.9C1005.4,1413.6 1013.5,1426.1 1026.2,1438.6L919.2,1999.6C913.907,2039.21 918.229,2079.51 931.8,2117.1L931.2,2117.4C893.1,2126.5 800.8,2160.8 746.7,2195.7C720.2,2212.8 736.6,2251.6 769.9,2251L1036.8,2245.8C1041.33,2248.53 1045.93,2251.17 1050.6,2253.7L1050.8,2257.1C1051.2,2280.4 1044.1,2299.5 1020.9,2300.7C1005.3,2301.5 992.7,2310.6 990.3,2321.8C985.6,2343.3 996.1,2360.7 1017.5,2362.2L1101.8,2367.2C1128.2,2368.8 1153.7,2355.9 1167.1,2333.1C1171.44,2325.72 1174.42,2317.63 1175.9,2309.2L1180.9,2282.6L1714.5,2282.6L1718,2303.3C1722.06,2327.59 1738.37,2348.14 1761.1,2357.6C1768.16,2360.51 1775.77,2361.87 1783.4,2361.6L1875.2,2358.6C1897.2,2356.4 1905.3,2342.9 1903.1,2321.7C1902.4,2314.8 1896.9,2297.2 1878.6,2296.2C1862.8,2295.3 1853.4,2287.6 1850.5,2274.3C1873.54,2268.14 1895.57,2258.68 1915.9,2246.2L2177.4,2251.3C2210.6,2251.6 2226.6,2213.5 2200.5,2195.7L2200.5,2195.7Z" style="fill:none;"/>
                        <g id="body">
                            <path d="M1620.8,858.1L1752,760.7C1774.5,744 1805.7,764.6 1799,791.9L1749,997.3L1747.7,1004.4M1196.8,876.5L1065.8,795.3C1042.5,780.9 1013.7,802.6 1021.1,829L1078.6,1031.6L1082.8,1046.5" style="fill:none;stroke:rgb(49,50,61);stroke-width:12.5px;stroke-linejoin:miter;stroke-miterlimit:10;"/>
                            <path d="M1851.5,1395.4L1893.56,1546.81M1050.7,2253.7C961.5,2206.6 905,2107.5 919.2,1999.6L1025.5,1440.8" style="fill:none;stroke:rgb(49,50,61);stroke-width:12.5px;stroke-linejoin:miter;stroke-miterlimit:10;"/>
                            <path d="M2107.6,2193.7L2108.4,2193.7L2110.7,2194.1L2114.2,2194.9L2118.7,2196.3L2123.9,2198.3C2125.82,2199.13 2127.68,2200.07 2129.5,2201.1C2131.49,2202.22 2133.4,2203.49 2135.2,2204.9C2137.13,2206.42 2138.91,2208.13 2140.5,2210L2141.7,2211.5L2142.8,2213.1C2143.5,2214.16 2144.14,2215.26 2144.7,2216.4C2145,2217 2145.2,2217.6 2145.5,2218.1C2145.8,2218.6 2146,2219.3 2146.2,2219.9L2147.1,2222.6L2147.3,2223.5C2147.58,2224.65 2147.78,2225.82 2147.9,2227C2148.04,2228.13 2148.11,2229.26 2148.1,2230.4C2148.12,2232.47 2147.99,2234.55 2147.7,2236.6C2147.45,2238.28 2147.12,2239.95 2146.7,2241.6C2146.3,2243.1 2146,2244.4 2145.6,2245.3L2144.5,2248.5C2143.43,2250.63 2141.25,2251.97 2138.87,2251.97C2135.41,2251.97 2132.57,2249.13 2132.57,2245.67C2132.57,2245.24 2132.61,2244.82 2132.7,2244.4L2133,2243.7L2133.2,2243.4L2134.4,2241C2134.8,2240.2 2135.1,2239.3 2135.6,2238.2C2136.1,2237.1 2136.4,2235.9 2136.8,2234.5C2137.17,2233.05 2137.44,2231.58 2137.6,2230.1C2137.7,2229.3 2137.73,2228.5 2137.7,2227.7C2137.73,2226.87 2137.7,2226.03 2137.6,2225.2L2137.6,2224L2137.4,2222.7C2137.3,2222.3 2137.2,2221.9 2137,2221.4C2136.89,2220.96 2136.76,2220.53 2136.6,2220.1C2136.29,2219.24 2135.92,2218.41 2135.5,2217.6L2134.8,2216.4L2134,2215.2C2132.92,2213.61 2131.68,2212.14 2130.3,2210.8C2128.93,2209.42 2127.46,2208.15 2125.9,2207C2124.39,2205.92 2122.82,2204.91 2121.2,2204L2116.7,2201.7C2114.39,2200.6 2112.02,2199.63 2109.6,2198.8L2107.6,2198.2L2106.9,2198L2106.8,2198C2105.87,2197.72 2105.24,2196.86 2105.24,2195.89C2105.24,2194.69 2106.23,2193.69 2107.44,2193.69C2107.49,2193.69 2107.55,2193.7 2107.6,2193.7ZM2155.1,2195.7L2155.9,2195.7L2158,2196.1C2160.43,2196.7 2162.8,2197.5 2165.1,2198.5C2166.65,2199.17 2168.15,2199.94 2169.6,2200.8C2171.25,2201.78 2172.82,2202.88 2174.3,2204.1C2175.91,2205.46 2177.38,2206.96 2178.7,2208.6C2180.78,2211.24 2182.41,2214.22 2183.5,2217.4C2183.9,2218.5 2184.1,2219.6 2184.4,2220.6C2184.7,2221.6 2184.8,2222.8 2185,2223.9C2185.2,2225 2185.3,2226.1 2185.2,2227.1C2185.1,2228.1 2185.3,2229.2 2185.2,2230.2L2185,2233.1C2184.7,2234.9 2184.5,2236.7 2184.2,2238.3L2183.7,2240.6L2183.1,2242.6L2182.6,2244.4L2182.1,2245.8L2181.2,2248.5C2180.13,2250.63 2177.95,2251.97 2175.57,2251.97C2172.11,2251.97 2169.27,2249.13 2169.27,2245.67C2169.27,2245.24 2169.31,2244.82 2169.4,2244.4L2169.7,2243.7L2169.7,2243.4L2170.8,2241.2L2171.4,2240L2172,2238.6L2172.7,2237L2173.3,2235.3C2173.8,2234.1 2174.1,2232.7 2174.5,2231.3L2174.9,2229.1C2175.1,2228.4 2175.1,2227.6 2175.2,2226.8C2175.3,2226 2175.3,2225.3 2175.3,2224.5C2175.3,2223.7 2175.2,2222.9 2175.2,2222.1C2175.2,2221.3 2175,2220.5 2174.9,2219.7C2174.74,2218.92 2174.55,2218.15 2174.3,2217.4C2173.81,2215.86 2173.14,2214.38 2172.3,2213C2171.46,2211.61 2170.49,2210.3 2169.4,2209.1C2168.32,2207.95 2167.14,2206.88 2165.9,2205.9C2164.75,2205.03 2163.55,2204.22 2162.3,2203.5C2160.42,2202.37 2158.44,2201.4 2156.4,2200.6L2154.7,2200L2154.1,2199.8L2154,2199.8C2153.32,2199.41 2152.91,2198.68 2152.91,2197.9C2152.91,2196.7 2153.9,2195.7 2155.1,2195.7L2155.1,2195.7ZM1290.8,864.6C1290.13,862.792 1289.36,861.023 1288.5,859.3C1287.6,857.5 1286.7,855.8 1285.6,854.1C1283.54,850.736 1281.23,847.527 1278.7,844.5C1273.67,838.463 1267.77,833.205 1261.2,828.9C1254.7,824.646 1247.63,821.346 1240.2,819.1C1236.5,817.958 1232.72,817.056 1228.9,816.4L1223.1,815.6L1217.3,815.1L1217.2,815.1C1214.04,814.793 1211.6,812.105 1211.6,808.929C1211.6,806.515 1213.01,804.312 1215.2,803.3L1218.8,801.7L1222.3,800.2L1229.4,797.5C1234.13,795.833 1238.97,794.333 1243.9,793C1253.74,790.333 1263.83,788.658 1274,788C1284.46,787.267 1294.97,788.281 1305.1,791C1307.68,791.719 1310.22,792.587 1312.7,793.6C1317.72,795.653 1322.46,798.342 1326.8,801.6C1328.97,803.242 1331.04,805.012 1333,806.9L1322.6,809.8L1323.1,807.4L1323.6,804.9C1323.9,803.2 1324.2,801.5 1324.4,799.8C1324.9,796.4 1325.2,792.9 1325.5,789.4C1325.97,782.535 1325.84,775.642 1325.1,768.8C1324.42,762.096 1322.87,755.508 1320.5,749.2C1318.22,743.129 1314.83,737.534 1310.5,732.7L1310.3,732.4C1309.33,731.274 1308.79,729.835 1308.79,728.347C1308.79,724.946 1311.59,722.147 1314.99,722.147C1315.26,722.147 1315.53,722.165 1315.8,722.2L1319.7,722.8L1323.4,723.5L1330.8,725.1C1335.67,726.3 1340.5,727.7 1345.3,729.3C1354.94,732.503 1364.17,736.833 1372.8,742.2C1381.4,747.7 1389.4,754.7 1395.4,763.4C1396.87,765.583 1398.21,767.854 1399.4,770.2C1400.59,772.562 1401.63,775.001 1402.5,777.5C1403.37,779.984 1404.07,782.523 1404.6,785.1C1405.09,787.678 1405.42,790.282 1405.6,792.9L1397,791.5C1398.3,788.3 1399.7,785.3 1401.1,782.3C1402.5,779.3 1404,776.3 1405.6,773.4C1408.67,767.533 1411.97,761.733 1415.5,756C1419,750.3 1422.8,744.8 1426.8,739.4C1430.85,733.972 1435.22,728.795 1439.9,723.9C1442.2,721.4 1444.7,719.1 1447.3,716.8C1449.88,714.494 1452.59,712.324 1455.4,710.3C1458.25,708.256 1461.22,706.386 1464.3,704.7C1467.41,702.98 1470.66,701.509 1474,700.3C1477.41,699.086 1480.93,698.182 1484.5,697.6C1488.14,697.019 1491.82,696.818 1495.5,697C1499.17,697.14 1502.83,697.643 1506.4,698.5C1509.92,699.387 1513.37,700.557 1516.7,702C1518.98,702.939 1520.48,705.174 1520.48,707.64C1520.48,709.047 1519.99,710.411 1519.1,711.5L1519.1,711.7L1517.1,714.3L1515.1,717.1L1511.2,722.8C1508.67,726.6 1506.3,730.5 1504.1,734.5C1499.67,742.368 1496.09,750.681 1493.4,759.3C1490.8,767.8 1489.6,776.5 1490.6,784.7C1491.11,788.735 1492.29,792.656 1494.1,796.3C1494.99,798.084 1496.03,799.79 1497.2,801.4C1498.42,803.029 1499.76,804.566 1501.2,806L1492.9,805.7L1495.8,803.4L1498.7,801.3L1504.5,797.2C1508.43,794.533 1512.47,792.033 1516.6,789.7C1524.94,784.881 1533.75,780.927 1542.9,777.9C1547.6,776.373 1552.41,775.236 1557.3,774.5C1562.36,773.728 1567.5,773.56 1572.6,774C1577.88,774.464 1583.04,775.781 1587.9,777.9C1590.34,778.963 1592.68,780.234 1594.9,781.7C1597.09,783.173 1599.16,784.811 1601.1,786.6C1602.36,787.772 1603.08,789.417 1603.08,791.137C1603.08,793.58 1601.63,795.805 1599.4,796.8L1599,796.8L1596.6,797.8L1594.1,798.9L1589.1,801.3C1585.77,802.967 1582.53,804.8 1579.4,806.8C1573.06,810.626 1567.1,815.046 1561.6,820C1556.13,824.862 1551.47,830.568 1547.8,836.9C1544.16,843.198 1542.2,850.326 1542.1,857.6C1542.1,857.633 1542.1,857.667 1542.1,857.7C1542.1,859.073 1540.97,860.202 1539.6,860.202C1538.27,860.202 1537.15,859.134 1537.1,857.8C1536.94,855.771 1536.91,853.733 1537,851.7C1537.24,847.585 1538.02,843.518 1539.3,839.6C1539.92,837.659 1540.66,835.756 1541.5,833.9C1545,826.54 1549.66,819.788 1555.3,813.9C1560.81,808.036 1566.88,802.712 1573.4,798C1576.6,795.667 1579.93,793.433 1583.4,791.3L1588.6,788.2L1591.3,786.7L1594.1,785.3L1592.3,795.6C1590.86,794.288 1589.32,793.085 1587.7,792C1586.08,790.921 1584.38,789.985 1582.6,789.2C1578.98,787.623 1575.13,786.644 1571.2,786.3C1563.2,785.6 1554.7,787 1546.5,789.7C1538.15,792.473 1530.11,796.092 1522.5,800.5C1518.63,802.7 1514.87,805.033 1511.2,807.5L1505.7,811.3L1503,813.3L1500.5,815.3L1500.4,815.3C1497.95,817.305 1494.34,817.131 1492.1,814.9C1490.15,813.005 1488.34,810.966 1486.7,808.8C1485.07,806.594 1483.63,804.252 1482.4,801.8C1479.98,796.931 1478.39,791.692 1477.7,786.3C1477.05,781.087 1477.05,775.813 1477.7,770.6C1478.34,765.551 1479.41,760.566 1480.9,755.7C1483.86,746.209 1487.82,737.059 1492.7,728.4C1495.1,724.133 1497.63,719.933 1500.3,715.8L1504.4,709.7L1506.6,706.7L1508.9,703.7L1511.2,713.3C1508.55,712.085 1505.81,711.082 1503,710.3C1500.22,709.555 1497.37,709.086 1494.5,708.9C1491.63,708.699 1488.75,708.799 1485.9,709.2C1483.01,709.609 1480.17,710.279 1477.4,711.2C1474.58,712.147 1471.84,713.317 1469.2,714.7C1466.51,716.109 1463.9,717.678 1461.4,719.4C1458.87,721.139 1456.43,723.008 1454.1,725C1451.7,727 1449.4,729.1 1447.2,731.3C1442.72,735.773 1438.51,740.515 1434.6,745.5C1430.7,750.5 1427,755.7 1423.5,761.1C1420,766.5 1416.7,772 1413.6,777.6C1412.07,780.4 1410.57,783.233 1409.1,786.1C1407.7,788.9 1406.2,791.9 1405,794.7C1404.28,796.33 1402.66,797.388 1400.88,797.388C1398.57,797.388 1396.61,795.604 1396.4,793.3C1396.16,791.08 1395.8,788.876 1395.3,786.7C1394.81,784.527 1394.18,782.388 1393.4,780.3C1392.6,778.241 1391.66,776.236 1390.6,774.3C1389.52,772.362 1388.31,770.492 1387,768.7C1381.52,761.507 1374.65,755.487 1366.8,751C1358.76,746.342 1350.2,742.65 1341.3,740C1336.8,738.6 1332.3,737.5 1327.7,736.5L1320.8,735.2L1317.4,734.7L1314.1,734.3L1319.4,723.9C1324.81,729.896 1329.05,736.849 1331.9,744.4C1334.67,751.703 1336.49,759.332 1337.3,767.1C1338.11,774.707 1338.24,782.37 1337.7,790C1337.43,793.8 1337.03,797.567 1336.5,801.3C1336.23,803.167 1335.93,805.033 1335.6,806.9L1335.1,809.7C1334.9,810.7 1334.7,811.5 1334.4,812.6C1333.72,815.36 1331.22,817.315 1328.38,817.315C1326.79,817.315 1325.25,816.7 1324.1,815.6L1324,815.6C1322.45,814.107 1320.81,812.705 1319.1,811.4C1315.68,808.809 1311.95,806.658 1308,805C1305.94,804.178 1303.84,803.476 1301.7,802.9C1292.9,800.578 1283.78,799.733 1274.7,800.4C1265.37,801.01 1256.12,802.551 1247.1,805C1242.57,806.2 1238.07,807.6 1233.6,809.2L1227,811.7L1223.8,813L1220.7,814.4L1218.6,802.5L1225,803.5L1231.4,804.9C1235.61,805.933 1239.76,807.235 1243.8,808.8C1251.9,811.932 1259.51,816.209 1266.4,821.5C1276.62,829.404 1284.95,839.481 1290.8,851C1291.73,852.933 1292.63,854.867 1293.5,856.8C1294.35,858.789 1295.09,860.826 1295.7,862.9C1295.78,863.143 1295.81,863.396 1295.81,863.65C1295.81,865.029 1294.68,866.164 1293.3,866.164C1292.2,866.164 1291.23,865.447 1290.9,864.4L1290.8,864.6Z" style="fill:rgb(49,50,61);fill-rule:nonzero;"/>
                            <path d="M1784.2,1453.3L1789.9,1448.1L1792.8,1445.5L1795.6,1442.9L1801.2,1437.7L1806.7,1432.4L1809.5,1429.8L1812.3,1427.1L1817.8,1421.7L1823.2,1416.3L1828.6,1410.9L1833.9,1405.4L1839.2,1399.9L1844.5,1394.3L1849.7,1388.7L1854.9,1383L1860,1377.3L1865,1371.6L1869.9,1365.9C1871.9,1363.54 1875.36,1362.98 1878,1364.6C1882.63,1367.52 1887.65,1369.77 1892.9,1371.3C1898.28,1372.84 1903.81,1373.78 1909.4,1374.1C1920.7,1374.8 1932.3,1373.5 1943.6,1371C1955.07,1368.41 1966.3,1364.9 1977.2,1360.5C1982.67,1358.3 1988.1,1355.93 1993.5,1353.4L2001.5,1349.5L2005.4,1347.5L2007.4,1346.5L2008.4,1346L2008.6,1346L2008.4,1346.2L2008.1,1346.4C2007.41,1347.02 2006.99,1347.88 2006.9,1348.8C2006.84,1349.58 2007.05,1350.36 2007.5,1351C2008,1351.74 2008.74,1352.27 2009.6,1352.5L2004,1352.5L1999.1,1352.2C1992.86,1351.63 1986.65,1350.72 1980.5,1349.5C1974.4,1348.3 1968.3,1346.8 1962.4,1345.2C1956.5,1343.6 1950.5,1341.8 1944.7,1339.8C1933,1335.9 1921.6,1331.4 1910.4,1326.5C1904.8,1324.03 1899.23,1321.5 1893.7,1318.9C1888.1,1316.2 1882.7,1313.6 1877.2,1310.6C1874.87,1309.43 1873.39,1307.04 1873.39,1304.43C1873.39,1300.64 1876.5,1297.53 1880.29,1297.53C1880.94,1297.53 1881.58,1297.62 1882.2,1297.8L1882.3,1297.8C1895.6,1301.3 1909.2,1303.8 1922.6,1304.1C1929.17,1304.28 1935.74,1303.74 1942.2,1302.5C1948.32,1301.37 1954.18,1299.13 1959.5,1295.9C1961.97,1294.34 1964.23,1292.46 1966.2,1290.3L1966.9,1289.5L1966.6,1289.8L1966.3,1290.5L1966.3,1290.9C1965.97,1291.97 1966.11,1293.14 1966.7,1294.1C1967.33,1295.08 1968.35,1295.74 1969.5,1295.9L1967.5,1295.9L1961.7,1295.3L1956.1,1294.4C1952.4,1293.7 1948.7,1292.7 1945.1,1291.6C1930.82,1287.13 1917.37,1280.34 1905.3,1271.5C1893.41,1262.78 1882.6,1252.67 1873.1,1241.4C1863.68,1230.25 1855.25,1218.31 1847.9,1205.7C1844.2,1199.4 1840.8,1193.1 1837.5,1186.6C1835.9,1183.4 1834.2,1180.1 1832.8,1176.8L1830.6,1171.9L1829.5,1169.4L1828.4,1167C1822.7,1154.2 1816.8,1141.4 1810.4,1129C1804,1116.6 1797.3,1104 1790.6,1091.6C1783.9,1079.2 1777,1066.9 1769.9,1054.7C1755.8,1030.3 1741.1,1006.2 1725.6,982.8C1717.8,971.067 1709.77,959.567 1701.5,948.3C1693.1,937.1 1684.4,926 1675.3,915.6C1666.15,905.274 1656.11,895.771 1645.3,887.2C1639.9,882.933 1634.33,878.9 1628.6,875.1L1610.9,863.5L1611.3,863.8L1603.8,859.9L1596.2,856.2L1588.4,852.8L1584.5,851.2L1580.5,849.7L1572.5,846.9L1564.4,844.4L1560.3,843.3L1558.3,842.7L1557.6,842.5L1557.1,842.3L1556.1,842L1547.8,839.5C1545.5,838.502 1544.01,836.226 1544.01,833.722C1544.01,830.266 1546.85,827.422 1550.31,827.422C1550.64,827.422 1550.97,827.448 1551.3,827.5L1559.7,829.9L1561.6,830.4L1563.8,831L1568.1,832.2L1576.7,834.8L1585.2,837.7L1593.6,840.9L1601.8,844.4L1609.9,848.2L1617.9,852.3L1618.3,852.5L1618.4,852.5L1636.3,864C1642.37,868 1648.27,872.233 1654,876.7C1665.45,885.686 1676.09,895.657 1685.8,906.5C1695.4,917.3 1704.3,928.5 1712.9,939.9C1721.5,951.3 1729.7,963 1737.6,974.9C1745.5,986.8 1753.2,998.7 1760.7,1010.9C1768.2,1023.1 1775.4,1035.3 1782.6,1047.6C1789.8,1059.9 1796.7,1072.3 1803.5,1084.8C1810.3,1097.3 1817,1109.8 1823.5,1122.5C1830,1135.2 1836.1,1148.2 1841.9,1161.3C1844.8,1167.8 1847.6,1174 1850.8,1180.2C1854,1186.4 1857.2,1192.5 1860.7,1198.4C1867.65,1210.27 1875.61,1221.51 1884.5,1232C1893.26,1242.41 1903.23,1251.74 1914.2,1259.8C1919.66,1263.75 1925.41,1267.3 1931.4,1270.4C1937.34,1273.46 1943.53,1276 1949.9,1278C1953.1,1279 1956.3,1279.8 1959.5,1280.4L1964.3,1281.2L1969,1281.7L1972.3,1281.7C1973.73,1281.94 1975.1,1282.49 1976.3,1283.3C1977.51,1284.11 1978.53,1285.17 1979.3,1286.4C1980.07,1287.62 1980.58,1288.98 1980.8,1290.4C1981,1291.84 1980.9,1293.3 1980.5,1294.7L1980.1,1295.7L1979.5,1297L1979.1,1297.6L1978,1297.6L1977.6,1298.1L1976.5,1299.3C1973.67,1302.38 1970.44,1305.08 1966.9,1307.3C1960.11,1311.46 1952.62,1314.34 1944.8,1315.8C1937.32,1317.22 1929.71,1317.83 1922.1,1317.6C1907.1,1317.2 1892.6,1314.5 1878.6,1310.8L1883.7,1298C1888.8,1300.7 1894.2,1303.4 1899.6,1306C1905,1308.6 1910.4,1311.1 1915.9,1313.4C1926.8,1318.2 1937.9,1322.6 1949.1,1326.4C1954.7,1328.33 1960.33,1330.1 1966,1331.7C1971.7,1333.3 1977.4,1334.7 1983.1,1335.9C1988.78,1337.07 1994.53,1337.93 2000.3,1338.5L2004.5,1338.8L2010.9,1338.8L2012.6,1339C2014.97,1339.56 2017.04,1340.99 2018.4,1343C2019.71,1344.9 2020.31,1347.2 2020.1,1349.5C2019.87,1351.93 2018.73,1354.18 2016.9,1355.8L2016.2,1356.4L2015.7,1356.7L2015.4,1356.9L2014.9,1357.2L2014.6,1357.2L2013.6,1357.7L2011.5,1358.8L2007.4,1360.9L1999.1,1364.9C1993.5,1367.5 1987.83,1369.93 1982.1,1372.2C1970.55,1376.79 1958.64,1380.43 1946.5,1383.1C1934.3,1385.7 1921.6,1387.2 1908.7,1386.3C1902.19,1385.88 1895.76,1384.74 1889.5,1382.9C1883.15,1381.02 1877.09,1378.26 1871.5,1374.7L1879.7,1373.4L1874.5,1379.3L1869.3,1385.1C1865.8,1388.9 1862.2,1392.7 1858.6,1396.4L1853.1,1401.9L1847.5,1407.4L1841.9,1412.8L1836.2,1418.1C1832.4,1421.6 1828.5,1425 1824.6,1428.4L1818.6,1433.4L1812.6,1438.3L1806.5,1443.1L1800.3,1447.8L1797.2,1450.1L1794,1452.3L1787.6,1456.7C1787.23,1456.91 1786.81,1457.02 1786.38,1457.02C1785.01,1457.02 1783.88,1455.89 1783.88,1454.52C1783.88,1454.09 1783.99,1453.67 1784.2,1453.3L1784.2,1453.3ZM1081.1,1481L1074.2,1477.2L1067.4,1473.3C1062.87,1470.63 1058.37,1467.9 1053.9,1465.1C1044.94,1459.42 1036.36,1453.18 1028.2,1446.4C1024.06,1442.96 1020.12,1439.29 1016.4,1435.4C1012.56,1431.4 1009.11,1427.05 1006.1,1422.4C1002.83,1417.44 1000.53,1411.91 999.3,1406.1C999.2,1405.3 999,1404.6 998.9,1403.8C998.8,1403 998.8,1403 998.8,1402.6L998.8,1401.5L998.5,1397.6L997.9,1389.8L1007.4,1394.8C1005.06,1396.21 1002.62,1397.44 1000.1,1398.5C997.633,1399.57 995.167,1400.47 992.7,1401.2C990.2,1402 987.8,1402.6 985.3,1403.3L978,1405C973.1,1405.9 968.2,1406.7 963.2,1407.3L959.5,1407.7L957.3,1407.7C956.37,1407.6 955.46,1407.37 954.6,1407C952.934,1406.29 951.51,1405.11 950.5,1403.6C949.525,1402.14 948.972,1400.45 948.9,1398.7C948.824,1396.83 949.312,1394.99 950.3,1393.4C950.772,1392.66 951.344,1391.99 952,1391.4L952.5,1391L952.7,1391L953.1,1390.7L954.5,1389.6L959.6,1385.2L964.6,1380.4C967.9,1377.1 971.1,1373.6 974.2,1370.1C977.3,1366.6 980.4,1362.9 983.4,1359.2L987.8,1353.6L992,1348L999.8,1357.3L993.7,1360.1C991.7,1361.1 989.6,1361.9 987.5,1362.8L984.4,1364.1L981.2,1365.3L978,1366.5L974.8,1367.6L968.4,1369.7L961.9,1371.5L955.3,1373.1L948.7,1374.5L945.4,1375.1L942,1375.6L935.2,1376.4C930.7,1376.8 926.1,1377.1 921.6,1377.1L914.7,1377.1L911.3,1376.9L908,1376.9L907.3,1376.7L906.7,1376.5C905.105,1375.96 903.688,1374.99 902.6,1373.7C900.462,1371.19 899.779,1367.74 900.8,1364.6C901.316,1363.02 902.249,1361.6 903.5,1360.5C904.111,1359.99 904.782,1359.55 905.5,1359.2L906.2,1358.9L906.6,1358.7L908.1,1358.1L909.6,1357.5L910.4,1357.2L911.1,1356.9C914.7,1355.2 918.4,1353.2 922,1351.2C925.6,1349.2 929.1,1346.8 932.6,1344.4C936.1,1342 939.4,1339.5 942.7,1336.8C946,1334.1 949.2,1331.4 952.4,1328.5C958.7,1322.8 964.7,1316.8 970.5,1310.5C973.367,1307.37 976.167,1304.17 978.9,1300.9L982.9,1296L986.7,1291L996.2,1299.1C984.155,1311.36 969.02,1320.13 952.4,1324.5C935.9,1328.9 918.7,1329 902.3,1326.7C898.167,1326.1 894.1,1325.37 890.1,1324.5L884.1,1323.1L881.1,1322.3L879.6,1321.9L878.5,1321.9C877.721,1321.63 876.981,1321.26 876.3,1320.8C873.783,1319.04 872.28,1316.16 872.28,1313.09C872.28,1309.29 874.585,1305.85 878.1,1304.4L879.2,1304L880.6,1303.5L883.3,1302.6C886.967,1301.33 890.6,1299.97 894.2,1298.5C923.186,1286.75 949.763,1269.77 972.6,1248.4C983.962,1237.71 994.276,1225.95 1003.4,1213.3C1012.54,1200.63 1020.47,1187.14 1027.1,1173C1028.7,1169.5 1030.3,1165.9 1031.8,1162.3L1034,1156.9L1034.5,1155.5L1034.8,1154.8L1035,1154.3L1035,1154.1L1035.2,1153.8L1036.4,1151.1C1039.53,1143.9 1042.43,1136.6 1045.1,1129.2L1047,1123.6L1049,1117.9L1053,1106.5C1055.73,1098.97 1058.5,1091.43 1061.3,1083.9C1066.97,1068.9 1072.97,1054 1079.3,1039.2C1085.6,1024.4 1092.2,1009.7 1099.3,995.3C1106.4,980.9 1114,966.5 1122.3,952.6C1130.6,938.7 1139.7,925.1 1150.5,912.6L1154.6,908L1158.8,903.5L1167.1,894.9L1168.1,893.8L1168.4,893.5L1168.5,893.5L1168.8,893.2L1169.3,892.7L1171.5,890.6L1173.7,888.5L1176,886.4L1180.7,882.3L1185.4,878.4C1211.02,857.739 1240.49,842.374 1272.1,833.2C1272.67,833.034 1273.26,832.95 1273.85,832.95C1277.28,832.95 1280.1,835.771 1280.1,839.2C1280.1,841.97 1278.26,844.424 1275.6,845.2C1245.6,853.909 1217.62,868.492 1193.3,888.1L1188.8,891.8L1184.4,895.6L1182.2,897.5L1180,899.6L1177.8,901.7L1177.3,902.2L1177,902.5L1176,903.6L1167.7,912.2L1163.7,916.4L1159.9,920.7C1149.9,932.5 1141.1,945.5 1133,959C1124.9,972.5 1117.5,986.5 1110.5,1000.7C1103.5,1014.9 1097,1029.4 1090.7,1044C1084.4,1058.6 1078.6,1073.4 1072.9,1088.3C1070.1,1095.77 1067.33,1103.23 1064.6,1110.7L1060.6,1122L1058.7,1127.6L1056.7,1133.3C1053.97,1140.97 1050.97,1148.53 1047.7,1156L1046.5,1158.8L1046.3,1159.1L1046.3,1159.3L1046.4,1159.3L1046.1,1160L1045.5,1161.4L1043.2,1167.1C1041.6,1170.9 1040,1174.6 1038.2,1178.3C1031.27,1193.14 1022.96,1207.3 1013.4,1220.6C1003.8,1233.9 992.952,1246.26 981,1257.5C957.031,1279.94 929.131,1297.77 898.7,1310.1C894.9,1311.63 891.067,1313.07 887.2,1314.4L884.3,1315.4L882.9,1315.9C882.739,1316 882.551,1316.06 882.359,1316.06C881.81,1316.06 881.359,1315.61 881.359,1315.06C881.359,1314.51 881.81,1314.06 882.359,1314.06C882.908,1314.06 883.359,1314.51 883.359,1315.06C883.359,1315.25 883.304,1315.44 883.2,1315.6C883.625,1315.29 883.968,1314.87 884.2,1314.4C884.628,1313.55 884.628,1312.55 884.2,1311.7C883.943,1311.21 883.564,1310.8 883.1,1310.5L882.3,1310.1L882.6,1310.1L884,1310.5L886.8,1311.2L892.4,1312.5C896.2,1313.3 899.967,1314 903.7,1314.6C918.9,1316.8 934.3,1316.6 948.8,1312.7C963.295,1308.92 976.498,1301.28 987,1290.6C988.185,1289.21 989.923,1288.41 991.75,1288.41C995.174,1288.41 997.992,1291.23 997.992,1294.65C997.992,1296.13 997.463,1297.57 996.5,1298.7L992.3,1304.1L988.1,1309.3C985.233,1312.7 982.3,1316.07 979.3,1319.4C973.3,1326 967,1332.3 960.3,1338.3C956.967,1341.3 953.567,1344.2 950.1,1347C946.6,1349.8 943,1352.5 939.3,1355.1C935.6,1357.7 931.8,1360.1 927.9,1362.5C924,1364.9 920,1366.9 915.7,1368.9L914.9,1369.3L914.1,1369.6L912.6,1370.2L911.1,1370.8L910.7,1371L911.3,1370.6C911.755,1370.23 912.101,1369.75 912.3,1369.2C912.46,1368.72 912.495,1368.2 912.4,1367.7C912.29,1367.18 912.049,1366.7 911.7,1366.3C911.33,1365.85 910.847,1365.5 910.3,1365.3L912,1365.3L915.1,1365.5L921.3,1365.5C925.5,1365.5 929.6,1365.2 933.8,1364.8L940,1364L943.1,1363.5L946.2,1362.9L952.4,1361.6L958.5,1360.1L964.6,1358.4L970.6,1356.5L973.6,1355.5L976.6,1354.4L979.6,1353.3L982.5,1352.1C984.4,1351.3 986.4,1350.5 988.3,1349.6L994.1,1346.9L994.2,1346.9C995.058,1346.47 996.004,1346.25 996.962,1346.25C1000.36,1346.25 1003.16,1349.05 1003.16,1352.45C1003.16,1353.81 1002.72,1355.12 1001.9,1356.2L997.4,1362.2L992.8,1368C989.733,1371.8 986.567,1375.57 983.3,1379.3C980,1383 976.7,1386.6 973.1,1390.2L967.6,1395.4C965.7,1397.1 963.8,1398.7 961.7,1400.4L960.3,1401.5L959.9,1401.8L960.5,1401.1C960.837,1400.56 961.01,1399.94 961,1399.3C960.97,1398.76 960.798,1398.25 960.5,1397.8C960.151,1397.3 959.664,1396.92 959.1,1396.7L958.2,1396.5L957.8,1396.5L961.3,1396.1C966,1395.5 970.6,1394.8 975.2,1393.9L982,1392.4L988.6,1390.6C990.8,1389.9 992.8,1389.2 994.9,1388.3C996.83,1387.5 998.701,1386.56 1000.5,1385.5L1000.6,1385.5C1001.57,1384.91 1002.69,1384.59 1003.83,1384.59C1006.04,1384.59 1008.1,1385.78 1009.2,1387.7C1009.73,1388.58 1010.04,1389.57 1010.1,1390.6L1010.1,1404C1010.1,1404 1010.2,1405 1010.2,1405.6C1010.9,1410.08 1012.43,1414.38 1014.7,1418.3C1017.11,1422.56 1019.93,1426.58 1023.1,1430.3C1026.36,1434.16 1029.83,1437.83 1033.5,1441.3C1041.01,1448.3 1048.96,1454.82 1057.3,1460.8C1061.5,1463.87 1065.73,1466.8 1070,1469.6L1076.5,1473.8L1083.1,1477.9C1083.75,1478.37 1084.13,1479.12 1084.13,1479.92C1084.13,1481.29 1083,1482.42 1081.63,1482.42C1081.28,1482.42 1080.92,1482.35 1080.6,1482.2L1081.1,1481Z" style="fill:rgb(49,50,61);fill-rule:nonzero;"/>
                        </g>
                        <g id="eye">
                            <g transform="matrix(0.999743,-0.0226873,0.0226873,0.999743,-24,37.7)">
                                <circle cx="1704.9" cy="1111.9" r="129.7" style="fill:white;"/>
                            </g>
                            <g>
                                <g transform="matrix(0.999743,-0.0226873,0.0226873,0.999743,-24.1,37.7)">
                                    <circle cx="1705.3" cy="1115" r="80.2" style="fill:rgb(124,64,255);"/>
                                </g>
                                <g transform="matrix(0.999743,-0.0226873,0.0226873,0.999743,-24.1,37.7)">
                                    <circle cx="1705.3" cy="1115" r="58" style="fill:rgb(49,50,61);"/>
                                </g>
                                <g transform="matrix(0.999743,-0.0226873,0.0226873,0.999743,-23.1,38.4)">
                                    <circle cx="1735.7" cy="1070.5" r="30.9" style="fill:white;"/>
                                </g>
                            </g>
                            <g transform="matrix(0.999743,-0.0226873,0.0226873,0.999743,-24,37.7)">
                                <circle cx="1704.9" cy="1111.9" r="129.7" style="fill:none;stroke:rgb(49,50,61);stroke-width:10px;stroke-linejoin:miter;stroke-miterlimit:10;"/>
                            </g>
                            <g transform="matrix(0.999743,-0.0226873,0.0226873,0.999743,-24.5,25.8)">
                                <circle cx="1162" cy="1128.5" r="129.7" style="fill:white;"/>
                            </g>
                            <g>
                                <g transform="matrix(0.999743,-0.0226873,0.0226873,0.999743,-24.5,25.7)">
                                    <circle cx="1160.4" cy="1129.9" r="80.2" style="fill:rgb(124,64,255);"/>
                                </g>
                                <g transform="matrix(0.999743,-0.0226873,0.0226873,0.999743,-24.5,25.7)">
                                    <circle cx="1160.4" cy="1129.9" r="58" style="fill:rgb(49,50,61);"/>
                                </g>
                                <g transform="matrix(0.999743,-0.0226873,0.0226873,0.999743,-23.5,26.4)">
                                    <circle cx="1190.8" cy="1085.3" r="30.9" style="fill:white;"/>
                                </g>
                            </g>
                            <g transform="matrix(0.999743,-0.0226873,0.0226873,0.999743,-24.5,25.8)">
                                <circle cx="1162" cy="1128.5" r="129.7" style="fill:none;stroke:rgb(49,50,61);stroke-width:10px;stroke-linejoin:miter;stroke-miterlimit:10;"/>
                            </g>
                        </g>
                        <g id="mouth">
                            <path d="M1387.6,1449.1C1387.6,1449.1 1395.5,1521.3 1456.1,1515.5C1514.8,1509.8 1517.5,1441.6 1517.5,1441.6C1517.5,1441.6 1498.1,1473 1460.1,1475.7C1422.1,1478.4 1387.6,1449.1 1387.6,1449.1Z" style="fill:rgb(89,89,89);fill-opacity:0.2;fill-rule:nonzero;"/>
                            <path d="M1371.7,1227.7C1369.24,1222.36 1370.14,1216.04 1374,1211.6C1382.2,1202.2 1400.4,1187.8 1435.9,1184.8C1471.4,1181.8 1489.2,1192.8 1497.9,1200.9C1502.21,1204.96 1503.71,1211.23 1501.7,1216.8C1499.05,1224.26 1492.36,1229.59 1484.5,1230.5C1474.5,1231.6 1460.9,1235.7 1453.1,1248.9C1452.62,1249.73 1452.05,1250.5 1451.4,1251.2L1451.1,1251.5C1447.75,1255.09 1443.06,1257.13 1438.16,1257.13C1433.54,1257.13 1429.1,1255.32 1425.8,1252.1C1422.5,1248.88 1417.6,1240.2 1390.6,1240.2C1382.56,1240.15 1375.24,1235.42 1371.9,1228.1L1371.7,1227.7Z" style="fill:rgb(49,50,61);fill-rule:nonzero;"/>
                            <path d="M1447.5,1255.1L1447.5,1255.6L1448,1257.3C1448.4,1258.8 1449.1,1261.1 1450.1,1263.9C1452.82,1271.87 1456.07,1279.65 1459.8,1287.2C1462.1,1291.9 1464.8,1296.9 1468,1302C1471.27,1307.36 1474.85,1312.54 1478.7,1317.5C1482.82,1322.77 1487.3,1327.75 1492.1,1332.4C1497.06,1337.21 1502.41,1341.59 1508.1,1345.5C1510.9,1347.5 1513.9,1349.3 1516.9,1351C1519.9,1352.7 1523,1354.2 1526.1,1355.6C1532.26,1358.34 1538.65,1360.51 1545.2,1362.1C1551.35,1363.57 1557.6,1364.54 1563.9,1365C1569.59,1365.41 1575.3,1365.48 1581,1365.2L1588.6,1364.6L1592.1,1364.2L1595.4,1363.7L1601.4,1362.7L1606.5,1361.7L1613.6,1360.1L1616.1,1359.5L1616.2,1359.5C1616.23,1359.5 1616.25,1359.5 1616.28,1359.5C1617.27,1359.5 1618.08,1360.31 1618.08,1361.3C1618.08,1361.97 1617.7,1362.59 1617.1,1362.9L1614.6,1363.7L1607.5,1365.7L1602.4,1367L1596.3,1368.3L1592.9,1368.9L1589.3,1369.5C1586.8,1369.9 1584.2,1370.2 1581.5,1370.5C1575.59,1371.09 1569.64,1371.33 1563.7,1371.2C1557.02,1371.04 1550.37,1370.34 1543.8,1369.1C1536.74,1367.76 1529.81,1365.78 1523.1,1363.2C1519.7,1361.9 1516.3,1360.4 1512.9,1358.7C1509.5,1357 1506.3,1355.2 1503.1,1353.3C1496.78,1349.41 1490.79,1344.99 1485.2,1340.1C1479.79,1335.36 1474.71,1330.25 1470,1324.8C1465.6,1319.7 1461.5,1314.36 1457.7,1308.8C1454.1,1303.5 1450.9,1298.3 1448.2,1293.5C1443.78,1285.63 1439.87,1277.48 1436.5,1269.1C1435.3,1266 1434.4,1263.6 1433.8,1261.9L1433.1,1259.9L1432.9,1259.2C1432.56,1258.34 1432.39,1257.41 1432.39,1256.49C1432.39,1252.37 1435.78,1248.99 1439.89,1248.99C1443.37,1248.99 1446.42,1251.41 1447.2,1254.8L1447.2,1255.1L1447.5,1255.1Z" style="fill:rgb(49,50,61);fill-rule:nonzero;"/>
                            <path d="M1318.9,1385.5L1321.3,1385.5L1328,1385.2C1330.9,1385 1334.4,1384.6 1338.3,1384C1342.2,1383.4 1346.7,1382.5 1351.4,1381.2C1356.51,1379.88 1361.52,1378.21 1366.4,1376.2L1368.4,1375.4L1370.3,1374.5L1374.2,1372.7C1376.8,1371.3 1379.4,1370 1382,1368.4L1383.9,1367.2L1385.8,1365.9L1389.6,1363.2L1391.4,1361.8L1393.2,1360.3C1394.45,1359.36 1395.65,1358.36 1396.8,1357.3L1400.2,1354.1L1403.4,1350.6C1405.6,1348.3 1407.4,1345.7 1409.4,1343.3C1409.9,1342.69 1410.37,1342.06 1410.8,1341.4L1412.1,1339.4L1413.4,1337.4C1413.84,1336.76 1414.24,1336.09 1414.6,1335.4L1416.9,1331.3L1418,1329.3L1419,1327.2C1420.38,1324.43 1421.61,1321.6 1422.7,1318.7C1423.81,1315.88 1424.78,1313.01 1425.6,1310.1C1427.22,1304.57 1428.56,1298.96 1429.6,1293.3L1430.8,1285.3L1431.1,1283.4C1431.2,1282.8 1431.2,1282.1 1431.3,1281.5L1431.6,1277.8C1431.8,1275.4 1432,1273.1 1432.1,1270.9L1432.3,1264.6L1432.3,1259C1432.24,1257.43 1432.28,1255.86 1432.4,1254.3C1432.56,1252.06 1433,1249.84 1433.7,1247.7C1433.97,1246.88 1434.31,1246.07 1434.7,1245.3L1434.7,1245C1435.68,1243.19 1437.57,1242.06 1439.63,1242.06C1441.64,1242.06 1443.51,1243.15 1444.5,1244.9C1444.89,1245.67 1445.23,1246.48 1445.5,1247.3C1446.24,1249.54 1446.71,1251.85 1446.9,1254.2C1447.04,1255.86 1447.07,1257.53 1447,1259.2L1446.6,1265.1L1446.2,1271.8C1446,1274.2 1445.6,1276.6 1445.3,1279.2L1444.8,1283.1C1444.7,1283.8 1444.6,1284.4 1444.5,1285.1L1444.1,1287.2L1442.5,1295.7C1441.8,1298.6 1441,1301.6 1440.2,1304.6L1439.6,1306.9C1439.4,1307.7 1439.1,1308.4 1438.8,1309.2L1437.2,1313.8C1436.2,1316.9 1434.8,1320 1433.5,1323.1C1432.15,1326.24 1430.65,1329.31 1429,1332.3L1427.8,1334.6L1426.4,1336.8L1423.6,1341.2C1423.14,1341.96 1422.64,1342.69 1422.1,1343.4L1420.5,1345.5L1418.9,1347.6C1418.4,1348.33 1417.87,1349.03 1417.3,1349.7C1414.9,1352.3 1412.8,1355.1 1410.2,1357.4L1406.4,1361L1402.4,1364.3C1401.1,1365.4 1399.7,1366.4 1398.3,1367.4C1396.9,1368.4 1395.6,1369.4 1394.1,1370.3L1389.8,1372.9L1387.6,1374.1L1385.4,1375.2C1382.6,1376.8 1379.6,1378 1376.7,1379.3L1372.4,1380.9L1370.3,1381.7L1368.2,1382.4C1362.93,1384.1 1357.55,1385.43 1352.1,1386.4C1347.53,1387.21 1342.93,1387.78 1338.3,1388.1C1334.2,1388.3 1330.6,1388.4 1327.6,1388.3L1320.7,1387.9L1318.9,1387.7L1318.3,1387.7C1317.84,1387.52 1317.53,1387.08 1317.53,1386.58C1317.53,1386.01 1317.94,1385.51 1318.5,1385.4L1318.9,1385.5ZM1520.1,1438.4L1519.7,1440.2C1519.6,1440.8 1519.5,1441.5 1519.2,1442.4L1518.3,1445.5C1517.9,1446.6 1517.5,1447.8 1516.9,1449.1C1516.3,1450.4 1515.7,1451.8 1514.9,1453.3C1513.18,1456.59 1511.14,1459.71 1508.8,1462.6C1506.04,1466.05 1502.92,1469.2 1499.5,1472L1496.6,1474.2L1493.6,1476.3C1491.5,1477.6 1489.3,1478.9 1487,1480.1C1484.7,1481.3 1482.3,1482.3 1479.8,1483.2L1476,1484.5L1472.1,1485.6C1466.8,1486.94 1461.37,1487.71 1455.9,1487.9C1450.48,1488.11 1445.05,1487.77 1439.7,1486.9C1434.55,1486.04 1429.5,1484.7 1424.6,1482.9L1423.7,1482.6L1423.3,1482.4L1422.8,1482.4L1421.2,1481.7L1417.8,1480.2C1415.5,1479.1 1413.5,1478 1411.5,1476.8C1407.76,1474.61 1404.21,1472.1 1400.9,1469.3C1398.12,1466.96 1395.51,1464.42 1393.1,1461.7C1391.27,1459.6 1389.57,1457.4 1388,1455.1C1387.3,1454.2 1386.8,1453.3 1386.3,1452.5L1385.1,1450.5L1384.2,1448.8C1383.88,1448.37 1383.7,1447.84 1383.7,1447.3C1383.7,1445.93 1384.83,1444.8 1386.2,1444.8C1386.99,1444.8 1387.73,1445.17 1388.2,1445.8L1388.3,1445.8L1389.6,1447L1393.2,1450.3C1394.7,1451.7 1396.8,1453.3 1399.1,1455.1C1401.4,1456.9 1404.1,1458.7 1407.1,1460.5C1410.36,1462.44 1413.73,1464.18 1417.2,1465.7L1420,1466.9L1422.9,1468L1425.9,1469L1427.6,1469.5L1429.1,1469.9C1433.36,1471.1 1437.71,1471.97 1442.1,1472.5C1446.61,1473.05 1451.16,1473.21 1455.7,1473C1460.21,1472.78 1464.69,1472.17 1469.1,1471.2L1472.3,1470.4L1475.5,1469.5C1477.6,1468.9 1479.6,1468.1 1481.6,1467.3C1483.6,1466.5 1485.5,1465.6 1487.3,1464.7L1490,1463.3L1492.5,1461.8C1495.61,1459.85 1498.56,1457.64 1501.3,1455.2C1503.67,1453.11 1505.88,1450.84 1507.9,1448.4C1509.5,1446.51 1511,1444.54 1512.4,1442.5L1513.9,1440.2C1514.3,1439.6 1514.7,1438.8 1515,1438.3L1515.9,1436.7C1516.36,1436.27 1516.97,1436.03 1517.6,1436.03C1518.93,1436.03 1520.03,1437.08 1520.1,1438.4Z" style="fill:rgb(49,50,61);fill-rule:nonzero;"/>
                            <path d="M1542.7,1278.1L1546.7,1277.3L1558.1,1275.2C1568,1273.5 1582.1,1271.4 1599.1,1269.8C1618.48,1267.96 1637.94,1267.16 1657.4,1267.4C1668.1,1267.5 1679.1,1268 1690.3,1268.9C1701.5,1269.8 1712.8,1271.2 1724,1273.1C1735.2,1275 1746.4,1277.3 1757.2,1280.2C1767.81,1283.03 1778.26,1286.43 1788.5,1290.4C1798.05,1294.15 1807.36,1298.45 1816.4,1303.3C1824.49,1307.64 1832.31,1312.48 1839.8,1317.8C1846.11,1322.28 1852.15,1327.13 1857.9,1332.3L1861.6,1335.7L1864.9,1338.9L1867.9,1341.9L1870.6,1344.8C1872.3,1346.6 1873.7,1348.3 1875,1349.7L1878.1,1353.4L1880.7,1356.6L1878,1353.5L1874.8,1349.9C1873.5,1348.5 1872,1346.8 1870.3,1345.1L1867.6,1342.3L1864.5,1339.3L1861.1,1336.2L1857.3,1332.9C1851.44,1327.92 1845.29,1323.28 1838.9,1319C1831.36,1313.92 1823.51,1309.31 1815.4,1305.2C1806.34,1300.65 1797.03,1296.65 1787.5,1293.2C1777.28,1289.57 1766.86,1286.5 1756.3,1284C1745.5,1281.4 1734.5,1279.4 1723.3,1277.9C1712.1,1276.4 1701,1275.3 1689.9,1274.7C1678.8,1274.1 1668,1273.9 1657.4,1274.1C1638.21,1274.41 1619.05,1275.74 1600,1278.1C1583.3,1280.1 1569.5,1282.6 1559.9,1284.5L1548.8,1286.9L1544.9,1287.8C1544.65,1287.84 1544.39,1287.86 1544.13,1287.86C1541.39,1287.86 1539.13,1285.6 1539.13,1282.86C1539.13,1280.69 1540.54,1278.76 1542.6,1278.1L1542.7,1278.1ZM1715.6,1228.8L1709,1229.1L1701.4,1229.5L1691.5,1230.2L1679.8,1231.2L1666.8,1232.7C1662.3,1233.3 1657.7,1233.9 1653,1234.7L1645.9,1235.8L1638.8,1237.1L1631.7,1238.5L1624.7,1239.9L1617.8,1241.4L1611.1,1243L1604.7,1244.6L1598.6,1246.2L1587.4,1249.3L1578,1252.1L1570.8,1254.4L1564.6,1256.5L1564.5,1256.5C1563.98,1256.67 1563.44,1256.76 1562.9,1256.76C1560.15,1256.76 1557.89,1254.5 1557.89,1251.75C1557.89,1249.6 1559.27,1247.68 1561.3,1247L1561.6,1247L1568.1,1245.3L1575.6,1243.4L1585.3,1241.1L1596.9,1238.6L1603.2,1237.4L1609.8,1236.2L1616.7,1235L1623.7,1233.9L1630.9,1232.9L1638.1,1232L1645.3,1231.2L1652.5,1230.5C1657.3,1230 1662,1229.8 1666.5,1229.4L1679.6,1228.8L1691.3,1228.5L1709,1228.5L1715.6,1228.8ZM1556.6,1301.2L1564.3,1300L1568.6,1299.6L1573.7,1299.2C1577.3,1299.2 1581.4,1299 1585.8,1299.5L1589.2,1299.7L1592.7,1300.2L1596.3,1300.7L1600,1301.4L1603.8,1302.1L1607.6,1303L1611.5,1304L1615.4,1305.2L1619.3,1306.5L1623.2,1308L1627.1,1309.6L1631,1311.3L1633,1312.2L1634.9,1313.2L1638.8,1315.1L1646.4,1319.3C1651.3,1322.3 1656.2,1325.3 1660.8,1328.6C1665.4,1331.9 1669.8,1335.3 1673.9,1338.7C1678,1342.1 1681.9,1345.6 1685.5,1348.9C1689.1,1352.2 1692.3,1355.6 1695.3,1358.6C1698.3,1361.6 1700.9,1364.6 1703.1,1367.2C1705.3,1369.8 1707.3,1372.1 1708.9,1374.1C1712,1378 1713.7,1380.3 1713.7,1380.3C1713.7,1380.3 1711.9,1378.1 1708.6,1374.4C1706.9,1372.6 1704.9,1370.3 1702.5,1367.9C1700.1,1365.5 1697.3,1362.7 1694.2,1359.8C1691.1,1356.9 1687.7,1353.8 1684,1350.7C1680.3,1347.6 1676.3,1344.4 1672,1341.2C1667.7,1338 1663.3,1334.9 1658.6,1332C1653.9,1329.1 1649,1326.3 1644.1,1323.7L1636.5,1320.1L1632.7,1318.4L1630.8,1317.6L1628.9,1316.9L1625.1,1315.5L1621.3,1314.2L1617.5,1313L1613.7,1312L1610,1311L1606.3,1310.2L1602.7,1309.5L1599.1,1309L1595.6,1308.6L1592.2,1308.3L1588.9,1308L1585.8,1308C1581.7,1307.8 1578,1308.2 1574.6,1308.4L1570.1,1309L1566.3,1309.5L1558.7,1311.1C1558.37,1311.17 1558.04,1311.2 1557.7,1311.2C1554.96,1311.2 1552.7,1308.94 1552.7,1306.2C1552.7,1303.83 1554.38,1301.77 1556.7,1301.3L1557,1301.3L1556.6,1301.2ZM1345.9,1303.2L1330.4,1300.2C1320.6,1298.3 1306.6,1295.5 1289.7,1292.8C1281.3,1291.4 1272.1,1290.1 1262.4,1288.8C1252.7,1287.5 1242.4,1286.5 1231.8,1285.6C1221.2,1284.7 1210.2,1284.2 1199,1284C1187.8,1283.8 1176.4,1284.1 1165.1,1284.8C1153.81,1285.53 1142.56,1286.83 1131.4,1288.7C1125.9,1289.6 1120.4,1290.7 1115.1,1291.9C1109.8,1293.1 1104.5,1294.5 1099.4,1296.1C1080.72,1301.53 1062.94,1309.65 1046.6,1320.2C1040.08,1324.45 1033.86,1329.17 1028,1334.3C1026.7,1335.4 1025.5,1336.6 1024.3,1337.7L1020.9,1340.9L1017.8,1344L1015.1,1346.9C1013.4,1348.7 1012,1350.4 1010.7,1351.9L1009,1354L1007.6,1355.8L1005.1,1359L1007.6,1355.7L1008.9,1353.9L1010.6,1351.8C1011.8,1350.3 1013.2,1348.5 1014.9,1346.7L1017.5,1343.7L1020.5,1340.5L1023.8,1337.1C1025,1336 1026.1,1334.7 1027.5,1333.6C1033.25,1328.28 1039.36,1323.36 1045.8,1318.9C1062.05,1307.75 1079.84,1299.02 1098.6,1293C1103.7,1291.3 1109,1289.8 1114.4,1288.4C1119.8,1287 1125.3,1285.7 1130.8,1284.7C1142.04,1282.49 1153.39,1280.86 1164.8,1279.8C1176.3,1278.7 1187.8,1278.2 1199.1,1278C1210.4,1277.8 1221.6,1278.1 1232.4,1278.7C1243.2,1279.3 1253.6,1280.1 1263.4,1281.1C1273.2,1282.1 1282.5,1283.2 1291.1,1284.4C1308.2,1286.7 1322.3,1289.1 1332.2,1290.8L1347.7,1293.4C1350.1,1293.81 1351.87,1295.91 1351.87,1298.35C1351.87,1301.11 1349.61,1303.37 1346.85,1303.37C1346.57,1303.37 1346.28,1303.35 1346,1303.3L1345.9,1303.3L1345.9,1303.2ZM1171.2,1244.5L1173,1244.2L1178,1243.4L1185.8,1242.3L1195.9,1241.2C1203.3,1240.5 1212.1,1240.1 1221.5,1240.2C1226.2,1240.3 1231,1240.4 1236,1240.7L1243.4,1241.3L1250.8,1242.1L1258.3,1243.1L1265.7,1244.3C1270.6,1245.1 1275.3,1246.2 1279.9,1247.2L1286.7,1248.9L1293.1,1250.7C1297.3,1251.9 1301.2,1253.1 1304.8,1254.3L1314.5,1257.8L1321.9,1260.7L1326.6,1262.7L1328.3,1263.4C1330.13,1264.19 1331.32,1266.01 1331.32,1268C1331.32,1270.75 1329.05,1273.02 1326.3,1273.02C1325.61,1273.02 1324.93,1272.87 1324.3,1272.6L1324,1272.6L1322.4,1271.8L1318,1269.6L1311,1266.3L1301.8,1262.4C1298.4,1261 1294.7,1259.6 1290.7,1258.2L1284.6,1256.1L1278.1,1254.1C1273.7,1252.8 1269.1,1251.5 1264.4,1250.4L1257.3,1248.8L1250.1,1247.4L1242.8,1246.2L1235.6,1245.2C1230.8,1244.6 1226,1244.1 1221.4,1243.8C1212.2,1243.1 1203.5,1243 1196.1,1243.2L1186,1243.6L1178.2,1244.2L1173.2,1244.7L1171.2,1244.5ZM1333.2,1327L1325.6,1325.1L1321.8,1324.5L1319.7,1324.2L1318.6,1324L1317.4,1324L1312.1,1323.6L1303.1,1323.6L1299.8,1323.9C1297.6,1324 1295.3,1324.5 1293,1324.8C1290.7,1325.1 1288.3,1325.8 1285.9,1326.3L1284.1,1326.7L1282.3,1327.2L1278.6,1328.3L1274.9,1329.6L1271.1,1331L1263.6,1334.2C1258.53,1336.58 1253.6,1339.21 1248.8,1342.1L1245.2,1344.3L1241.7,1346.6C1239.3,1348.1 1237.1,1349.8 1234.8,1351.4L1228.2,1356.4C1226.1,1358.1 1223.9,1359.8 1221.9,1361.5L1218.9,1364.1L1216,1366.7L1210.5,1371.8L1205.4,1376.8L1200.7,1381.6C1197.7,1384.7 1195.1,1387.6 1192.8,1390.2L1187,1397.1C1183.8,1401 1182.1,1403.3 1182.1,1403.3C1182.1,1403.3 1183.7,1400.9 1186.6,1396.9C1188.1,1394.9 1189.9,1392.4 1192.1,1389.7C1194.3,1387 1196.7,1383.9 1199.5,1380.6L1203.9,1375.5L1208.8,1370.2L1214.1,1364.8L1216.9,1362L1219.8,1359.2C1221.7,1357.3 1223.8,1355.5 1225.9,1353.7L1232.3,1348.3C1234.5,1346.6 1236.7,1344.7 1239.1,1343L1242.6,1340.4L1246.2,1337.9C1250.98,1334.65 1255.92,1331.64 1261,1328.9L1268.7,1325.1L1272.6,1323.4L1276.5,1321.8L1280.4,1320.4L1282.3,1319.7L1284.2,1319.1C1286.8,1318.4 1289.2,1317.5 1291.7,1317.1C1294.2,1316.7 1296.6,1315.9 1299,1315.7L1302.5,1315.2L1304.2,1315L1305.9,1315L1312.3,1314.6L1320.8,1314.6L1323.3,1314.9L1327.8,1315.4L1335.5,1316.8C1337.67,1317.39 1339.18,1319.38 1339.18,1321.62C1339.18,1324.37 1336.93,1326.62 1334.18,1326.62C1334.02,1326.62 1333.86,1326.62 1333.7,1326.6L1333.4,1326.6L1333.2,1327Z" style="fill:rgb(49,50,61);fill-rule:nonzero;"/>
                        </g>
                    </g>
                </g>
            </g>
            <g transform="matrix(0.946412,0.289267,-0.304065,0.994828,290.552,-846.966)">
                <path d="M864.294,765.795L826.747,1109.36L372.12,1171.25L405.125,820.213L864.294,765.795ZM833.74,793.687L427.824,842.121L396.359,1144.89L803.473,1087.45L833.74,793.687Z" style="fill:white;stroke:rgb(177,177,190);stroke-width:7.56px;stroke-miterlimit:1.5;"/>
            </g>
            <g transform="matrix(0.452718,0.138371,-0.151093,0.494342,84.7541,-560.822)">
                <path d="M1967.87,1583.59L1921.86,1541.14" style="fill:none;stroke:rgb(177,177,190);stroke-width:12.63px;stroke-miterlimit:1.5;"/>
            </g>
            <g transform="matrix(0.452718,0.138371,-0.151093,0.494342,96.8672,-506.584)">
                <path d="M961.596,1611.1L1011.96,1557.24" style="fill:none;stroke:rgb(177,177,190);stroke-width:12.63px;stroke-miterlimit:1.5;"/>
            </g>
            <g transform="matrix(0.452718,0.138371,-0.151093,0.494342,115.804,-465.622)">
                <path d="M1015.98,892.773L978,855.333" style="fill:none;stroke:rgb(177,177,190);stroke-width:12.63px;stroke-miterlimit:1.5;"/>
            </g>
            <g transform="matrix(0.452718,0.138371,-0.151093,0.494342,117.886,-507.71)">
                <path d="M1890.04,865.499L1943.47,825.578" style="fill:none;stroke:rgb(177,177,190);stroke-width:12.63px;stroke-miterlimit:1.5;"/>
            </g>
        </g>
    </g>
    <g transform="matrix(3.17959,0,0,3.25941,-618.367,-539.749)">
        <rect x="194.48" y="165.597" width="943.517" height="920.411" style="fill:none;"/>
    </g>
    <defs>
        <linearGradient id="_Linear5" x1="0" y1="0" x2="1" y2="0" gradientUnits="userSpaceOnUse" gradientTransform="matrix(2.79373e-14,-456.25,456.25,2.79373e-14,2539.72,1739.67)"><stop offset="0" style="stop-color:white;stop-opacity:0"/><stop offset="0.72" style="stop-color:white;stop-opacity:0.3"/><stop offset="1" style="stop-color:white;stop-opacity:0.3"/></linearGradient>
        <linearGradient id="_Linear6" x1="0" y1="0" x2="1" y2="0" gradientUnits="userSpaceOnUse" gradientTransform="matrix(152.38,0,0,152.38,2371.12,1885.86)"><stop offset="0" style="stop-color:white;stop-opacity:0"/><stop offset="0.72" style="stop-color:white;stop-opacity:0.3"/><stop offset="1" style="stop-color:white;stop-opacity:0.3"/></linearGradient>
        <linearGradient id="_Linear7" x1="0" y1="0" x2="1" y2="0" gradientUnits="userSpaceOnUse" gradientTransform="matrix(189.67,0,0,189.67,2703.65,1891.5)"><stop offset="0" style="stop-color:white;stop-opacity:0"/><stop offset="0.72" style="stop-color:white;stop-opacity:0.3"/><stop offset="1" style="stop-color:white;stop-opacity:0.3"/></linearGradient>
        <linearGradient id="_Linear8" x1="0" y1="0" x2="1" y2="0" gradientUnits="userSpaceOnUse" gradientTransform="matrix(103.34,0,0,103.34,2524.03,1787.87)"><stop offset="0" style="stop-color:white;stop-opacity:0"/><stop offset="0.72" style="stop-color:white;stop-opacity:0.3"/><stop offset="1" style="stop-color:white;stop-opacity:0.3"/></linearGradient>
        <linearGradient id="_Linear11" x1="0" y1="0" x2="1" y2="0" gradientUnits="userSpaceOnUse" gradientTransform="matrix(1.28367e-14,209.64,-209.64,1.28367e-14,1721.47,787.6)"><stop offset="0" style="stop-color:rgb(128,128,128);stop-opacity:0.4"/><stop offset="0.14" style="stop-color:rgb(121,121,121);stop-opacity:0.4"/><stop offset="0.35" style="stop-color:rgb(100,100,100);stop-opacity:0.4"/><stop offset="0.6" style="stop-color:rgb(67,67,67);stop-opacity:0.4"/><stop offset="0.89" style="stop-color:rgb(20,20,20);stop-opacity:0.4"/><stop offset="1" style="stop-color:black;stop-opacity:0.4"/></linearGradient>
        <linearGradient id="_Linear12" x1="0" y1="0" x2="1" y2="0" gradientUnits="userSpaceOnUse" gradientTransform="matrix(121.06,0,0,121.06,1027.09,934.24)"><stop offset="0" style="stop-color:rgb(128,128,128);stop-opacity:0.4"/><stop offset="0.14" style="stop-color:rgb(121,121,121);stop-opacity:0.4"/><stop offset="0.35" style="stop-color:rgb(100,100,100);stop-opacity:0.4"/><stop offset="0.6" style="stop-color:rgb(67,67,67);stop-opacity:0.4"/><stop offset="0.89" style="stop-color:rgb(20,20,20);stop-opacity:0.4"/><stop offset="1" style="stop-color:black;stop-opacity:0.4"/></linearGradient>
        <linearGradient id="_Linear14" x1="0" y1="0" x2="1" y2="0" gradientUnits="userSpaceOnUse" gradientTransform="matrix(5.42861e-14,-886.56,886.56,5.42861e-14,1982.16,2256.39)"><stop offset="0" style="stop-color:white;stop-opacity:0"/><stop offset="0.72" style="stop-color:white;stop-opacity:1"/><stop offset="1" style="stop-color:white;stop-opacity:1"/></linearGradient>
        <linearGradient id="_Linear15" x1="0" y1="0" x2="1" y2="0" gradientUnits="userSpaceOnUse" gradientTransform="matrix(181.86,0,0,181.86,1841.6,1322.67)"><stop offset="0" style="stop-color:white;stop-opacity:0"/><stop offset="0.72" style="stop-color:white;stop-opacity:1"/><stop offset="1" style="stop-color:white;stop-opacity:1"/></linearGradient>
        <linearGradient id="_Linear16" x1="0" y1="0" x2="1" y2="0" gradientUnits="userSpaceOnUse" gradientTransform="matrix(445.17,0,0,445.17,1540.47,1061.99)"><stop offset="0" style="stop-color:white;stop-opacity:0"/><stop offset="0.72" style="stop-color:white;stop-opacity:1"/><stop offset="1" style="stop-color:white;stop-opacity:1"/></linearGradient>
        <linearGradient id="_Linear17" x1="0" y1="0" x2="1" y2="0" gradientUnits="userSpaceOnUse" gradientTransform="matrix(134.05,0,0,134.05,916.62,1844.05)"><stop offset="0" style="stop-color:white;stop-opacity:0"/><stop offset="0.72" style="stop-color:white;stop-opacity:1"/><stop offset="1" style="stop-color:white;stop-opacity:1"/></linearGradient>
    </defs>
</svg>
