<?xml version="1.0" encoding="UTF-8" standalone="no"?>
<svg version="1.1" xmlns="http://www.w3.org/2000/svg" xmlns:xlink="http://www.w3.org/1999/xlink" xmlns:i="http://ns.adobe.com/AdobeIllustrator/10.0/" width="3005" height="3005">
	<g id="dp_dp001" transform="matrix(1,0,0,1,-4343.79,-2504.34)">
		<path id="dp_path002" fill="#31323d" fill-rule="evenodd" fill-opacity="0.294118" d="M 4781.69,4818.39 C 4993.11,4827.22 5159.64,4952.04 5153.66,5097.2 C 5147.67,5242.36 4971.43,5352.88 4760.01,5344.05 C 4548.6,5335.23 4382.06,5210.4 4388.05,5065.25 C 4394.03,4920.09 4570.27,4809.57 4781.69,4818.39 Z "/>
		<path id="dp_path003" fill="#e75f5a" fill-rule="evenodd" stroke="#31323d" stroke-width="13.3333" d="M 4703.94,4873.8 C 4672.97,4728.42 4779.95,4636.31 4875.67,4639.93 C 4971.39,4643.54 5055.85,4742.87 5086.82,4888.24 C 5112.72,4994.98 5079.78,5152.36 5041.77,5271.11 C 4919.3,5290.52 4759.67,5298.92 4658.89,5256.66 C 4520.94,5203.38 4436.48,5104.06 4447.74,5008.34 C 4459,4912.63 4565.99,4820.52 4703.94,4873.8 Z "/>
		<path id="dp_path004" fill="#31323d" fill-rule="evenodd" fill-opacity="0.215686" d="M 4703.94,4873.8 C 4672.97,4728.42 4779.95,4636.31 4875.67,4639.93 C 4971.39,4643.54 5055.85,4742.87 5086.82,4888.24 C 5112.72,4994.98 5079.78,5152.36 5041.77,5271.11 C 4919.3,5290.52 4759.67,5298.92 4658.89,5256.66 C 4520.94,5203.38 4436.48,5104.06 4447.74,5008.34 C 4459,4912.63 4565.99,4820.52 4703.94,4873.8 Z "/>
		<path id="dp_path005" fill="#e75f5a" fill-rule="evenodd" stroke="#31323d" stroke-width="13.3333" d="M 4718.92,4838.55 C 4690.53,4700.05 4793.78,4613.11 4885.42,4617.15 C 4977.05,4621.19 5057.08,4716.22 5085.47,4854.72 C 5109.35,4956.42 5076.44,5105.95 5039.01,5218.67 C 4921.56,5236.37 4768.62,5243.35 4672.46,5202.51 C 4540.81,5150.95 4460.79,5055.92 4472.41,4964.93 C 4484.02,4873.95 4587.27,4787 4718.92,4838.55 Z "/>
		<path id="dp_path006" fill="none" fill-rule="evenodd" stroke="#31323d" stroke-width="9.33333" d="M 5041.05,5219.76 C 5039.97,5236.89 5037.81,5271.15 5037.81,5271.15"/>
		<path id="dp_path007" fill="white" fill-rule="evenodd" stroke="#31323d" stroke-width="9.33333" d="M 4663.23,5194.67 L 4964.71,4643.06 C 4987.66,4659.36 5004.28,4673.42 5016.26,4691.95 L 4733.77,5217.34 C 4711.08,5213.84 4687.4,5205.49 4663.23,5194.67 Z "/>
		<path id="dp_path008" fill="white" fill-rule="evenodd" stroke="#31323d" stroke-width="9.33333" d="M 4664.29,5199.78 C 4689.66,5205.69 4708.69,5215.34 4733.52,5219.73 L 4737.2,5274.73 C 4710.96,5273.81 4694.76,5270.58 4668.83,5259.61 Z "/>
		<path id="dp_path009" fill="#31323d" fill-rule="evenodd" fill-opacity="0.388235" d="M 5049.78,4871.32 C 5006.43,4872.25 4970.47,4896.7 4921.17,4912.72 C 4907.68,4917.1 4881.64,4919.65 4878.95,4937.49 C 4877.7,4945.75 4880.03,4954.1 4885.03,4961.32 C 4893.99,4974.26 4931.53,5000.42 4951.31,5008.52 C 4971,5016.58 5046.25,5030.52 5068.7,5028.56 C 5085.18,5027.13 5069.93,5008.96 5068.77,5006.76 C 5066.05,5001.62 5052.51,4977.87 5056.38,4967.98 C 5065.4,4944.89 5124.03,4904.19 5123.03,4888.59 C 5122.06,4873.51 5067.15,4870.9 5049.78,4871.32 Z "/>
		<path id="dp_path010" fill="#31323d" fill-rule="evenodd" fill-opacity="0.360784" d="M 4858.09,4962.22 C 4858.61,4972.26 4859.66,4992.34 4858.51,5007.33 C 4857.33,5022.79 4853.71,5039.16 4850.98,5055.02 C 4847.78,5073.66 4844.7,5098.59 4839.28,5119.18 C 4833.95,5139.45 4831.42,5176.08 4818.49,5178.53 C 4805.55,5180.97 4776.31,5149.54 4761.69,5133.83 C 4753.51,5125.04 4725.27,5140.48 4708.03,5138.89 C 4690.8,5137.3 4665.23,5130.01 4658.22,5124.29 C 4652.74,5119.81 4663.24,5111.06 4665.97,5104.54 C 4669.35,5096.44 4670.51,5082.45 4678.53,5075.7 C 4693.39,5063.22 4729.91,5045.55 4755.09,5029.64 C 4785.02,5010.73 4833.73,4978.39 4858.09,4962.22 Z "/>
		<path id="dp_path011" fill="white" fill-rule="evenodd" stroke="#31323d" stroke-width="8.66667" d="M 4867.05,4952.11 C 4867.58,4962.15 4868.63,4982.22 4867.48,4997.21 C 4866.29,5012.68 4862.67,5029.04 4859.95,5044.9 C 4856.74,5063.54 4853.66,5088.48 4848.25,5109.06 C 4842.91,5129.34 4840.38,5165.97 4827.45,5168.41 C 4814.52,5170.85 4785.27,5139.43 4770.65,5123.71 C 4762.47,5114.93 4734.23,5130.37 4716.99,5128.78 C 4699.76,5127.19 4674.19,5119.89 4667.18,5114.17 C 4661.71,5109.7 4672.2,5100.95 4674.93,5094.43 C 4678.31,5086.33 4679.47,5072.33 4687.49,5065.58 C 4702.35,5053.1 4738.88,5035.43 4764.05,5019.52 C 4793.98,5000.61 4842.69,4968.28 4867.05,4952.11 Z "/>
		<path id="dp_path012" fill="#31323d" fill-rule="evenodd" fill-opacity="0.360784" d="M 4813.95,4905.56 C 4788.93,4897.91 4765.63,4893.29 4734.9,4892.21 C 4705.15,4891.16 4614.87,4900.83 4616.1,4929.63 C 4617.19,4955.04 4639.03,4981.27 4652.04,4990.42 C 4667.44,5001.26 4678.67,5005.79 4684.29,5016.96 C 4688.52,5025.36 4687.91,5034.84 4689.32,5043.15 C 4693.03,5064.92 4701.8,5102.66 4719.75,5112.33 C 4727.75,5116.64 4733.82,5113.45 4737.11,5112.91 C 4771.12,5107.28 4819.02,5056.82 4837.55,4992.46 C 4841.95,4977.17 4845.92,4964.48 4843.03,4949.88 C 4839.4,4931.53 4827.97,4920.91 4813.95,4905.56 Z "/>
		<path id="dp_path013" fill="white" fill-rule="evenodd" stroke="#31323d" stroke-width="8.66667" d="M 5056.35,4861.35 C 5013.01,4862.28 4977.05,4886.73 4927.75,4902.75 C 4914.26,4907.13 4888.21,4909.68 4885.53,4927.52 C 4884.28,4935.78 4886.6,4944.13 4891.6,4951.35 C 4900.57,4964.29 4938.11,4990.45 4957.89,4998.54 C 4977.57,5006.61 5052.83,5020.54 5075.28,5018.59 C 5091.76,5017.16 5076.51,4998.99 5075.35,4996.79 C 5072.63,4991.65 5059.09,4967.9 5062.95,4958.01 C 5071.97,4934.92 5130.61,4894.22 5129.61,4878.62 C 5128.64,4863.54 5073.72,4860.93 5056.35,4861.35 Z "/>
		<path id="dp_path014" fill="white" fill-rule="evenodd" stroke="#31323d" stroke-width="8.66667" d="M 4818,4893.35 C 4792.98,4885.7 4769.68,4881.07 4738.95,4879.99 C 4709.2,4878.95 4618.92,4888.62 4620.15,4917.41 C 4621.23,4942.83 4643.08,4969.05 4656.09,4978.21 C 4671.49,4989.05 4682.72,4993.58 4688.34,5004.75 C 4692.57,5013.15 4691.95,5022.63 4693.37,5030.94 C 4697.08,5052.71 4705.85,5090.45 4723.79,5100.12 C 4731.8,5104.43 4737.87,5101.24 4741.16,5100.69 C 4775.17,5095.07 4823.07,5044.61 4841.6,4980.24 C 4846,4964.96 4849.96,4952.27 4847.07,4937.67 C 4843.45,4919.32 4832.02,4908.7 4818,4893.35 Z "/>
		<path id="dp_path015" fill="white" fill-rule="evenodd" stroke="#31323d" stroke-width="8.66667" d="M 4843.4,4877.15 C 4848.59,4865.13 4851.16,4857.02 4854.49,4846.14 C 4856.66,4839.03 4858.24,4828 4862.3,4821.23 C 4869.13,4809.85 4880.86,4796.62 4887.86,4789.57 C 4904.23,4773.12 4956.29,4730.19 4973.71,4727.53 C 4979.68,4726.61 4983.62,4731.73 4983.69,4731.81 C 4999.66,4747.24 5008.61,4774.99 5004.35,4804.69 C 5003.45,4810.97 4998.79,4817.53 5000.58,4824.88 C 5003.04,4834.95 5028.03,4840.99 5032.98,4844.61 C 5045.99,4854.1 5056,4868.08 5063.75,4881.03 C 5064.88,4882.92 5074.52,4890.32 5067.95,4901.42 C 5055.8,4921.94 4957.24,4947.27 4947.55,4947.82 C 4928.69,4948.89 4901.32,4945.1 4884.77,4935.63 C 4865.71,4924.71 4854.65,4898.87 4843.4,4877.15 Z "/>
		<path id="dp_path016" fill="#31323d" fill-rule="evenodd" fill-opacity="0.356863" d="M 4834.12,4871.41 C 4840.65,4868.11 4848.62,4870.73 4851.92,4877.26 C 4875.83,4895.01 4890.2,4917.89 4888.4,4949.46 C 4891.7,4956 4889.07,4963.97 4882.54,4967.27 L 4860.53,4978.39 C 4854,4981.69 4846.03,4979.07 4842.73,4972.53 C 4813.14,4953.78 4802.99,4929.1 4806.25,4900.33 C 4802.95,4893.8 4805.57,4885.83 4812.11,4882.53 Z "/>
		<path id="dp_path017" fill="white" fill-rule="evenodd" stroke="#31323d" stroke-width="8.66667" d="M 4833.54,4861.87 C 4840.07,4858.57 4848.05,4861.19 4851.35,4867.72 C 4875.25,4885.47 4889.62,4908.36 4887.82,4939.93 C 4891.12,4946.46 4888.5,4954.43 4881.97,4957.73 L 4859.95,4968.85 C 4853.42,4972.15 4845.45,4969.53 4842.15,4962.99 C 4812.56,4944.24 4802.41,4919.56 4805.68,4890.79 C 4802.38,4884.26 4805,4876.29 4811.53,4872.99 Z "/>
	</g>
</svg>