<?xml version="1.0" encoding="UTF-8" standalone="no"?>
<svg version="1.1" xmlns="http://www.w3.org/2000/svg" xmlns:xlink="http://www.w3.org/1999/xlink" xmlns:i="http://ns.adobe.com/AdobeIllustrator/10.0/" width="3005" height="3005">
	<g id="dp_dp001" transform="matrix(1,0,0,1,-4343.79,-2504.34)">
		<path id="dp_path002" fill="none" fill-rule="evenodd" stroke="#f800e5" stroke-width="4.66667" d="M 4346.41,2507.15 L 7346.41,2507.15 L 7346.41,5507.15 L 4346.41,5507.15 Z "/>
		<path id="dp_path003" fill="#fcdf35" fill-rule="evenodd" stroke="black" stroke-width="3.06667" stroke-linecap="round" d="M 6151.92,4829.23 C 6148.14,4811.7 6155.5,4795.25 6168.35,4792.49 C 6181.2,4789.72 6194.68,4801.68 6198.45,4819.21 C 6196.59,4810.55 6184.66,4805.77 6171.81,4808.54 C 6158.96,4811.31 6150.05,4820.57 6151.92,4829.23 Z "/>
		<path id="dp_path004" fill="#ffef85" fill-rule="evenodd" d="M 6162.17,4803.78 C 6163.03,4797.75 6169.8,4793.74 6177.28,4794.81 C 6184.76,4795.88 6190.13,4801.63 6189.27,4807.66 C 6189.61,4805.25 6183.83,4802.43 6176.34,4801.35 C 6168.86,4800.28 6162.52,4801.37 6162.17,4803.78 Z "/>
		<path id="dp_path005" fill="none" fill-rule="evenodd" stroke="#000001" stroke-width="4" stroke-linejoin="round" stroke-linecap="round" d="M 6138.92,4624.32 L 6150.15,4686.69 L 6103.08,4715.85 Z "/>
		<path id="dp_path006" fill="none" fill-rule="evenodd" stroke="#000001" stroke-width="4" stroke-linejoin="round" stroke-linecap="round" d="M 6103.98,4720.87 L 6150.54,4688.92 L 6161.83,4742.07 Z "/>
		<path id="dp_path007" fill="none" fill-rule="evenodd" stroke="#000001" stroke-width="4" stroke-linejoin="round" stroke-linecap="round" d="M 6140.01,4620.35 L 6151.51,4685.83 L 6102.71,4719.01 Z "/>
		<path id="dp_path008" fill="none" fill-rule="evenodd" stroke="#000001" stroke-width="4" stroke-linejoin="round" stroke-linecap="round" d="M 6102.06,4718.56 L 6152.2,4689.67 L 6163.47,4744.41 Z "/>
		<path id="dp_path009" fill="none" fill-rule="evenodd" stroke="#000001" stroke-width="4" stroke-linejoin="round" stroke-linecap="round" d="M 6143.1,4623.52 L 6156.22,4685.52 L 6210.81,4694.79 Z "/>
		<path id="dp_path010" fill="none" fill-rule="evenodd" stroke="#000001" stroke-width="4" stroke-linejoin="round" stroke-linecap="round" d="M 6211.86,4699.77 L 6156.69,4687.73 L 6166.28,4741.22 Z "/>
		<path id="dp_path011" fill="none" fill-rule="evenodd" stroke="#000001" stroke-width="4" stroke-linejoin="round" stroke-linecap="round" d="M 6140.34,4620.58 L 6154.63,4685.23 L 6213.05,4696.61 Z "/>
		<path id="dp_path012" fill="none" fill-rule="evenodd" stroke="#000001" stroke-width="4" stroke-linejoin="round" stroke-linecap="round" d="M 6213.19,4697.43 L 6155.44,4689.06 L 6164.47,4743.66 Z "/>
		<path id="dp_path013" fill="none" fill-rule="evenodd" stroke="#000001" stroke-width="4" stroke-linejoin="round" stroke-linecap="round" d="M 6172.79,4797.79 L 6163.52,4755.75 L 6106.1,4733.16 Z "/>
		<path id="dp_path014" fill="none" fill-rule="evenodd" stroke="#000001" stroke-width="4" stroke-linejoin="round" stroke-linecap="round" d="M 6172.86,4796.82 L 6166.62,4754.22 L 6212.3,4712.74 Z "/>
		<path id="dp_path015" fill="#6ac1e3" fill-rule="evenodd" d="M 6139.85,4627.34 L 6150.48,4686.39 L 6105.21,4714.13 Z "/>
		<path id="dp_path016" fill="#4f90a9" fill-rule="evenodd" d="M 6106.8,4719.65 L 6151.68,4691.37 L 6160.32,4741.68 Z "/>
		<path id="dp_path017" fill="#8ad4eb" fill-rule="evenodd" d="M 6144.42,4626.46 L 6157.02,4686.01 L 6208.9,4695.03 Z "/>
		<path id="dp_path018" fill="#6ac1e3" fill-rule="evenodd" d="M 6209.63,4699.59 L 6157.35,4689.87 L 6167.93,4739.93 Z "/>
		<path id="dp_path019" fill="#8ad4eb" fill-rule="evenodd" d="M 6173.76,4791.49 L 6165.88,4756.8 L 6209.13,4717.44 Z "/>
		<path id="dp_path020" fill="#4f90a9" fill-rule="evenodd" d="M 6170.15,4792.95 L 6162.08,4756.69 L 6112.5,4737.31 Z "/>
		<path id="dp_path021" fill="white" fill-rule="evenodd" stroke="white" stroke-opacity="0.705882" stroke-width="2.53333" stroke-linecap="round" d="M 6158.51,4649.49 C 6158.49,4649.48 6158.5,4649.46 6158.51,4649.45 L 6158.51,4649.45 C 6158.53,4649.43 6158.55,4649.43 6158.56,4649.45 L 6182.21,4675.18 C 6182.23,4675.19 6182.22,4675.22 6182.21,4675.23 L 6182.21,4675.23 C 6182.19,4675.24 6182.17,4675.24 6182.16,4675.23 Z "/>
		<path id="dp_path022" fill="#ffef85" fill-rule="evenodd" d="M 6162.17,4803.78 C 6163.03,4797.75 6169.8,4793.74 6177.28,4794.81 C 6184.76,4795.88 6190.13,4801.63 6189.27,4807.66 C 6189.61,4805.25 6183.83,4802.43 6176.34,4801.35 C 6168.86,4800.28 6162.52,4801.37 6162.17,4803.78 Z "/>
		<path id="dp_path023" fill="none" fill-rule="evenodd" stroke="#000001" stroke-width="4" stroke-linejoin="round" stroke-linecap="round" d="M 6138.92,4624.32 L 6150.15,4686.69 L 6103.08,4715.85 Z "/>
		<path id="dp_path024" fill="none" fill-rule="evenodd" stroke="#000001" stroke-width="4" stroke-linejoin="round" stroke-linecap="round" d="M 6103.98,4720.87 L 6150.54,4688.92 L 6161.83,4742.07 Z "/>
		<path id="dp_path025" fill="none" fill-rule="evenodd" stroke="#000001" stroke-width="4" stroke-linejoin="round" stroke-linecap="round" d="M 6140.01,4620.35 L 6151.51,4685.83 L 6102.71,4719.01 Z "/>
		<path id="dp_path026" fill="none" fill-rule="evenodd" stroke="#000001" stroke-width="4" stroke-linejoin="round" stroke-linecap="round" d="M 6102.06,4718.56 L 6152.2,4689.67 L 6163.47,4744.41 Z "/>
		<path id="dp_path027" fill="none" fill-rule="evenodd" stroke="#000001" stroke-width="4" stroke-linejoin="round" stroke-linecap="round" d="M 6143.1,4623.52 L 6156.22,4685.52 L 6210.81,4694.79 Z "/>
		<path id="dp_path028" fill="none" fill-rule="evenodd" stroke="#000001" stroke-width="4" stroke-linejoin="round" stroke-linecap="round" d="M 6211.86,4699.77 L 6156.69,4687.73 L 6166.28,4741.22 Z "/>
		<path id="dp_path029" fill="none" fill-rule="evenodd" stroke="#000001" stroke-width="4" stroke-linejoin="round" stroke-linecap="round" d="M 6140.34,4620.58 L 6154.63,4685.23 L 6213.05,4696.61 Z "/>
		<path id="dp_path030" fill="none" fill-rule="evenodd" stroke="#000001" stroke-width="4" stroke-linejoin="round" stroke-linecap="round" d="M 6213.19,4697.43 L 6155.44,4689.06 L 6164.47,4743.66 Z "/>
		<path id="dp_path031" fill="none" fill-rule="evenodd" stroke="#000001" stroke-width="4" stroke-linejoin="round" stroke-linecap="round" d="M 6172.79,4797.79 L 6163.52,4755.75 L 6106.1,4733.16 Z "/>
		<path id="dp_path032" fill="none" fill-rule="evenodd" stroke="#000001" stroke-width="4" stroke-linejoin="round" stroke-linecap="round" d="M 6172.86,4796.82 L 6166.62,4754.22 L 6212.3,4712.74 Z "/>
		<path id="dp_path033" fill="#6ac1e3" fill-rule="evenodd" d="M 6139.85,4627.34 L 6150.48,4686.39 L 6105.21,4714.13 Z "/>
		<path id="dp_path034" fill="#4f90a9" fill-rule="evenodd" d="M 6106.8,4719.65 L 6151.68,4691.37 L 6160.32,4741.68 Z "/>
		<path id="dp_path035" fill="#8ad4eb" fill-rule="evenodd" d="M 6144.42,4626.46 L 6157.02,4686.01 L 6208.9,4695.03 Z "/>
		<path id="dp_path036" fill="#6ac1e3" fill-rule="evenodd" d="M 6209.63,4699.59 L 6157.35,4689.87 L 6167.93,4739.93 Z "/>
		<path id="dp_path037" fill="#8ad4eb" fill-rule="evenodd" d="M 6173.76,4791.49 L 6165.88,4756.8 L 6209.13,4717.44 Z "/>
		<path id="dp_path038" fill="#4f90a9" fill-rule="evenodd" d="M 6170.15,4792.95 L 6162.08,4756.69 L 6112.5,4737.31 Z "/>
		<path id="dp_path039" fill="white" fill-rule="evenodd" stroke="white" stroke-opacity="0.705882" stroke-width="2.53333" stroke-linecap="round" d="M 6158.51,4649.49 C 6158.49,4649.48 6158.5,4649.46 6158.51,4649.45 L 6158.51,4649.45 C 6158.53,4649.43 6158.55,4649.43 6158.56,4649.45 L 6182.21,4675.18 C 6182.23,4675.19 6182.22,4675.22 6182.21,4675.23 L 6182.21,4675.23 C 6182.19,4675.24 6182.17,4675.24 6182.16,4675.23 Z "/>
	</g>
</svg>