<?xml version="1.0" encoding="UTF-8" standalone="no"?>
<!DOCTYPE svg PUBLIC "-//W3C//DTD SVG 1.1//EN" "http://www.w3.org/Graphics/SVG/1.1/DTD/svg11.dtd">
<svg width="100%" height="100%" viewBox="0 0 3000 3000" version="1.1" xmlns="http://www.w3.org/2000/svg" xmlns:xlink="http://www.w3.org/1999/xlink" xml:space="preserve" xmlns:serif="http://www.serif.com/" style="fill-rule:evenodd;clip-rule:evenodd;stroke-linecap:round;stroke-linejoin:round;stroke-miterlimit:1.5;">
    <g id="Fez" transform="matrix(1,0,0,1,2.66667,-34.6667)">
        <g transform="matrix(1.50978,-0.127156,0.0802893,0.954976,-871.823,224.63)">
            <path d="M1478.46,556.049C1478.46,556.049 1515.41,560.281 1540.15,571.806C1554.87,578.663 1562.63,593.873 1565.36,609.773C1573.96,660.01 1593.96,890.402 1591.14,910.06C1586.36,943.395 1528.33,998.492 1458.35,997.296C1404.36,996.373 1323.94,949.593 1325.99,909.394C1326.93,890.93 1345.49,655.907 1350.08,609.773C1351.55,595.011 1363.43,576.465 1375.72,570.423C1413.16,552.016 1478.46,556.049 1478.46,556.049Z" style="fill:rgb(49,50,61);fill-opacity:0.2;"/>
        </g>
        <g transform="matrix(1.50978,-0.127156,0.0802893,0.954976,-872.823,212.63)">
            <path d="M1478.46,556.049C1478.46,556.049 1515.41,560.281 1540.15,571.806C1554.87,578.663 1562.63,593.873 1565.36,609.773C1573.96,660.01 1593.96,890.402 1591.14,910.06C1586.36,943.395 1528.33,998.492 1458.35,997.296C1404.36,996.373 1323.94,949.593 1325.99,909.394C1326.93,890.93 1345.49,655.907 1350.08,609.773C1351.55,595.011 1363.43,576.465 1375.72,570.423C1413.16,552.016 1478.46,556.049 1478.46,556.049Z" style="fill:rgb(167,68,64);stroke:rgb(49,50,61);stroke-width:9.47px;"/>
        </g>
        <g transform="matrix(1.01831,0,0,1.0192,-22.0133,37.2334)">
            <path d="M1240.79,750.392C1234.84,785.49 1226.81,842.75 1221.33,878.704C1233.87,885.82 1245.9,891.749 1257.64,897.013C1280.71,904.637 1321.82,916.353 1347.6,917.321L1280.31,885.239L1239.78,865.289C1236.86,839.975 1238.29,796.674 1240.79,750.392Z" style="fill:rgb(49,50,61);fill-opacity:0.196078;"/>
        </g>
        <g transform="matrix(1.01831,0,0,1.06052,-27.4443,-5.15534)">
            <path d="M1225.37,590.79C1239.97,600.153 1259.65,610.336 1274.76,613.721C1256.26,696.655 1241.23,790.767 1226.35,885.364L1213.12,871.505C1215.23,777.084 1221.4,685.324 1225.37,590.79Z" style="fill:rgb(49,50,61);fill-opacity:0.196078;"/>
        </g>
        <g transform="matrix(1.95135,0,0,1.95373,-1451.77,-500.196)">
            <path d="M1475.37,585.869C1497.17,584.66 1517.46,576.625 1529.01,572.333C1536.93,601.436 1548.06,626.596 1549.93,656.239L1550.04,687.404L1527.68,620.333L1515.68,588.333L1475.37,585.869Z" style="fill:white;fill-opacity:0.196078;"/>
        </g>
        <g transform="matrix(1,0,0,1,5,-2)">
            <g transform="matrix(1.01831,0,0,1.0192,-23.7105,23.644)">
                <path d="M1476.68,548C1491.11,545.761 1519.98,541.284 1530.68,556C1546.68,578 1555.35,640.667 1572.68,680C1589.89,719.048 1619.75,767.683 1634.68,792" style="fill:none;stroke:rgb(49,50,61);stroke-width:13.86px;"/>
            </g>
            <g transform="matrix(1.01831,0,0,1.0192,-23.7105,23.644)">
                <path d="M1474.68,548C1499.57,556.667 1549.35,574 1564.68,594C1579.69,613.583 1563.7,643.505 1566.68,668C1569.68,692.667 1572.68,721.333 1582.68,742C1592.35,761.985 1615.24,781.995 1626.68,792" style="fill:none;stroke:rgb(49,50,61);stroke-width:13.86px;"/>
            </g>
            <g transform="matrix(1.01831,0,0,1.0192,-23.7105,23.644)">
                <path d="M1476.68,550C1493.46,551.444 1527.01,554.333 1540.68,566C1554.35,577.667 1553.4,601.775 1558.68,620C1566.01,645.333 1576.01,689.333 1584.68,718C1592.25,743.026 1604.54,775.675 1610.68,792" style="fill:none;stroke:rgb(49,50,61);stroke-width:13.86px;"/>
            </g>
            <g transform="matrix(1.01831,0,0,1.0192,-23.7105,23.644)">
                <path d="M1466.68,556C1482.35,555 1513.68,553 1528.68,556C1539.56,558.176 1552.79,563.611 1556.68,574C1563.68,592.667 1568.01,641.333 1570.68,668C1572.87,689.901 1570.35,714.667 1572.68,734C1574.73,751.016 1576.68,774 1584.68,784C1592.46,793.725 1611.27,793.908 1620.68,794" style="fill:none;stroke:rgb(49,50,61);stroke-width:13.86px;"/>
            </g>
            <g transform="matrix(1.01831,0,0,1.0192,-17.6006,29.7592)">
                <path d="M1476.68,548C1491.11,545.761 1519.98,541.284 1530.68,556C1546.68,578 1555.35,640.667 1572.68,680C1589.89,719.048 1619.75,767.683 1634.68,792" style="fill:none;stroke:rgb(49,50,61);stroke-width:13.86px;"/>
            </g>
            <g transform="matrix(1.01831,0,0,1.0192,-17.6006,29.7592)">
                <path d="M1474.68,548C1499.57,556.667 1549.35,574 1564.68,594C1579.69,613.583 1563.7,643.505 1566.68,668C1569.68,692.667 1572.68,721.333 1582.68,742C1592.35,761.985 1615.24,781.995 1626.68,792" style="fill:none;stroke:rgb(49,50,61);stroke-width:13.86px;"/>
            </g>
            <g transform="matrix(1.01831,0,0,1.0192,-17.6006,29.7592)">
                <path d="M1476.68,550C1493.46,551.444 1527.01,554.333 1540.68,566C1554.35,577.667 1553.4,601.775 1558.68,620C1566.01,645.333 1576.01,689.333 1584.68,718C1592.25,743.026 1604.54,775.675 1610.68,792" style="fill:none;stroke:rgb(49,50,61);stroke-width:13.86px;"/>
            </g>
            <g transform="matrix(1.01831,0,0,1.0192,-17.6006,29.7592)">
                <path d="M1466.68,556C1482.35,555 1513.68,553 1528.68,556C1539.56,558.176 1552.79,563.611 1556.68,574C1563.68,592.667 1568.01,641.333 1570.68,668C1572.87,689.901 1570.35,714.667 1572.68,734C1574.73,751.016 1576.68,774 1584.68,784C1592.46,793.725 1611.27,793.908 1620.68,794" style="fill:none;stroke:rgb(49,50,61);stroke-width:13.86px;"/>
            </g>
            <g transform="matrix(1.01831,0,0,1.0192,-17.6006,17.5288)">
                <path d="M1456.06,552.906C1475.32,547.823 1513.85,537.657 1530.68,556C1550.12,577.182 1553.39,640.854 1572.68,680C1587.19,709.446 1610.52,747.002 1630.05,774.189C1637.3,784.287 1644.88,793.552 1650.07,800.585" style="fill:none;stroke:rgb(49,50,61);stroke-width:13.86px;"/>
            </g>
            <g transform="matrix(1.01831,0,0,1.0192,-17.6006,17.5288)">
                <path d="M1453.08,558.793C1483.97,564.461 1545.75,575.799 1564.68,594C1582.47,611.101 1563.7,643.505 1566.68,668C1569.68,692.667 1572.68,721.333 1582.68,742C1592.35,761.985 1615.24,781.995 1626.68,792" style="fill:none;stroke:rgb(49,50,61);stroke-width:13.86px;"/>
            </g>
            <g transform="matrix(1.01831,0,0,1.0192,-17.6006,17.5288)">
                <path d="M1449.18,554.906C1473.6,554.988 1522.43,555.151 1540.68,566C1556.99,575.696 1553.4,601.775 1558.68,620C1566.01,645.333 1576.01,689.333 1584.68,718C1592.25,743.026 1604.54,775.675 1610.68,792" style="fill:none;stroke:rgb(49,50,61);stroke-width:13.86px;"/>
            </g>
            <g transform="matrix(1.01831,0,0,1.0192,-17.6006,17.5288)">
                <path d="M1451.95,556.981C1471.71,555.709 1511.23,553.164 1528.68,556C1539.63,557.78 1552.79,563.611 1556.68,574C1563.68,592.667 1568.01,641.333 1570.68,668C1572.87,689.901 1570.35,714.667 1572.68,734C1574.73,751.016 1576.68,774 1584.68,784C1592.46,793.725 1611.27,793.908 1620.68,794" style="fill:none;stroke:rgb(49,50,61);stroke-width:13.86px;"/>
            </g>
            <g transform="matrix(1.01831,0,0,1.0192,-17.6006,34.8552)">
                <path d="M1476.68,548C1491.11,545.761 1519.98,541.284 1530.68,556C1546.68,578 1555.35,640.667 1572.68,680C1589.89,719.048 1619.75,767.683 1634.68,792" style="fill:none;stroke:rgb(49,50,61);stroke-width:13.86px;"/>
            </g>
            <g transform="matrix(1.01831,0,0,1.0192,-17.6006,34.8552)">
                <path d="M1474.68,548C1499.57,556.667 1549.35,574 1564.68,594C1579.69,613.583 1563.7,643.505 1566.68,668C1569.68,692.667 1572.68,721.333 1582.68,742C1592.35,761.985 1615.24,781.995 1626.68,792" style="fill:none;stroke:rgb(49,50,61);stroke-width:13.86px;"/>
            </g>
            <g transform="matrix(1.01831,0,0,1.0192,-17.6006,34.8552)">
                <path d="M1476.68,550C1493.46,551.444 1527.01,554.333 1540.68,566C1554.35,577.667 1553.4,601.775 1558.68,620C1566.01,645.333 1576.01,689.333 1584.68,718C1592.25,743.026 1604.54,775.675 1610.68,792" style="fill:none;stroke:rgb(49,50,61);stroke-width:13.86px;"/>
            </g>
            <g transform="matrix(1.01831,0,0,1.0192,-17.6006,34.8552)">
                <path d="M1463.74,541.283C1480.22,544.371 1513.19,550.547 1528.68,556C1539.15,559.684 1552.79,563.611 1556.68,574C1563.68,592.667 1568.01,641.333 1570.68,668C1572.87,689.901 1570.35,714.667 1572.68,734C1574.73,751.016 1576.68,774 1584.68,784C1592.46,793.725 1611.27,793.908 1620.68,794" style="fill:none;stroke:rgb(49,50,61);stroke-width:13.86px;"/>
            </g>
            <g transform="matrix(1.01831,0,0,1.0192,-32.8753,36.5539)">
                <path d="M1476.68,548C1492.31,545.083 1523.57,539.249 1530.68,556C1543.71,586.717 1549.95,656.506 1572.68,680C1602.35,710.669 1623.9,764.89 1634.68,792" style="fill:none;stroke:rgb(49,50,61);stroke-width:13.86px;"/>
            </g>
            <g transform="matrix(1.01831,0,0,1.0192,-32.8753,36.5539)">
                <path d="M1474.68,548C1488.8,537.663 1544.7,565.798 1564.68,594C1578.95,614.133 1563.7,643.505 1566.68,668C1569.68,692.667 1573.34,720.597 1582.68,742C1591.69,762.644 1612.4,785.158 1622.75,796.415" style="fill:none;stroke:rgb(49,50,61);stroke-width:13.86px;"/>
            </g>
            <g transform="matrix(1.01831,0,0,1.0192,-32.8753,36.5539)">
                <path d="M1474.72,539.207C1492.04,543.65 1526.69,552.535 1540.68,566C1554.35,579.156 1553.4,601.775 1558.68,620C1566.01,645.333 1577.16,687.126 1584.68,718C1589.15,736.36 1596,759.71 1599.99,778.574C1602.29,789.43 1602.34,798.144 1603.81,805.246" style="fill:none;stroke:rgb(49,50,61);stroke-width:13.86px;"/>
            </g>
            <g transform="matrix(1.01831,0,0,1.0192,-32.8753,36.5539)">
                <path d="M1466.68,543.245C1482.35,545.788 1513.68,550.874 1528.68,556C1539.18,559.588 1552.79,563.611 1556.68,574C1563.68,592.667 1568.01,641.333 1570.68,668C1572.87,689.901 1570.84,712.067 1572.68,734C1573.77,747.016 1579.81,768.982 1581.89,783.419C1583.48,794.416 1581.13,798.573 1582.23,805.586" style="fill:none;stroke:rgb(49,50,61);stroke-width:13.86px;"/>
            </g>
        </g>
        <g transform="matrix(1.01831,0,0,1.0192,-20.7105,21.644)">
            <path d="M1386.18,561.5C1403.18,558.5 1420.18,555.5 1437.18,552.5" style="fill:none;stroke:rgb(49,50,61);stroke-width:6.87px;"/>
        </g>
        <g transform="matrix(0.950177,-0.10934,0.162329,1.41066,-0.354889,-49.4252)">
            <path d="M1461.01,549C1461.01,549 1417.29,548.809 1407.68,549C1403.03,549.093 1398.27,557.926 1398.27,562.148C1398.27,566.371 1403.35,574.006 1407.68,574.333C1416.9,575.031 1461.01,574.333 1461.01,574.333L1461.01,549Z" style="fill:rgb(49,50,61);stroke:rgb(49,50,61);stroke-width:6.17px;"/>
        </g>
    </g>
    <g transform="matrix(3.17959,-6.93889e-18,1.38778e-17,3.25941,-618.367,-539.749)">
        <rect x="194.48" y="165.597" width="943.517" height="920.411" style="fill:none;"/>
    </g>
</svg>
