<?xml version="1.0" encoding="UTF-8" standalone="no"?>
<!DOCTYPE svg PUBLIC "-//W3C//DTD SVG 1.1//EN" "http://www.w3.org/Graphics/SVG/1.1/DTD/svg11.dtd">
<svg width="100%" height="100%" viewBox="0 0 3000 3000" version="1.1" xmlns="http://www.w3.org/2000/svg" xmlns:xlink="http://www.w3.org/1999/xlink" xml:space="preserve" xmlns:serif="http://www.serif.com/" style="fill-rule:evenodd;clip-rule:evenodd;">
    <g id="hearts2" transform="matrix(1,0,0,1,-4343.79,-2504.34)">
        <g id="dp_path002" transform="matrix(1,0,0,1,-120.402,-132.577)">
            <path d="M4807.47,2820.65C4828.33,2772.04 4882.55,2764.49 4912.78,2783.13C4943.01,2801.77 4949.25,2846.6 4928.39,2895.2C4914.1,2931.47 4869.99,2971.89 4832.45,2999.97C4788.67,2983.22 4735.19,2956.39 4711.53,2925.41C4678.18,2884.36 4671.94,2839.53 4695.92,2813.34C4719.91,2787.14 4774.12,2779.59 4807.47,2820.65Z" style="fill:rgb(255,204,216);stroke:rgb(49,50,61);stroke-width:14px;"/>
        </g>
        <g id="dp_path003" transform="matrix(1,0,0,1,481,84)">
            <path d="M6573.63,3827.89C6582.58,3813.16 6600.47,3813.16 6609.42,3820.53C6618.37,3827.89 6618.37,3842.63 6609.42,3857.37C6603.16,3868.42 6587.05,3879.47 6573.63,3886.84C6560.21,3879.47 6544.1,3868.42 6537.84,3857.37C6528.89,3842.63 6528.89,3827.89 6537.84,3820.53C6546.79,3813.16 6564.68,3813.16 6573.63,3827.89Z" style="fill:rgb(255,204,216);stroke:rgb(49,50,61);stroke-width:14px;"/>
        </g>
        <g id="dp_path004" transform="matrix(1,0,0,1,61,-120)">
            <path d="M6997.63,2936.26C7008.87,2903.69 7046.41,2893.36 7068.96,2901.89C7091.51,2910.42 7099.05,2937.83 7087.82,2970.4C7080.33,2994.57 7052.19,3024.42 7027.8,3045.87C6995.87,3039.92 6956.41,3028.67 6937.61,3011.74C6911.3,2989.51 6903.75,2962.11 6918.76,2943.24C6933.76,2924.37 6971.31,2914.03 6997.63,2936.26Z" style="fill:rgb(255,204,216);stroke:rgb(49,50,61);stroke-width:14px;"/>
        </g>
        <g id="dp_path005" transform="matrix(0.997056,0.076678,-0.076678,0.997056,373.686,-464.907)">
            <path d="M6626.16,3412.23C6607.04,3362.91 6553.12,3353.45 6522.25,3371C6491.38,3388.56 6483.55,3433.14 6502.68,3482.46C6515.68,3519.21 6558.33,3561.16 6594.85,3590.55C6639.2,3575.36 6693.59,3550.45 6718.33,3520.33C6753.11,3480.48 6760.94,3435.9 6737.9,3408.87C6714.86,3381.85 6660.95,3372.38 6626.16,3412.23Z" style="fill:rgb(255,204,216);stroke:rgb(49,50,61);stroke-width:14px;"/>
        </g>
        <g id="dp_path006" transform="matrix(1,0,0,1,290.333,249)">
            <path d="M4578.37,3838.58C4587.31,3823.84 4605.21,3823.84 4614.16,3831.21C4623.1,3838.58 4623.1,3853.31 4614.16,3868.05C4607.89,3879.1 4591.79,3890.16 4578.37,3897.52C4564.95,3890.16 4548.84,3879.1 4542.58,3868.05C4533.63,3853.31 4533.63,3838.58 4542.58,3831.21C4551.52,3823.84 4569.42,3823.84 4578.37,3838.58Z" style="fill:rgb(255,204,216);stroke:rgb(49,50,61);stroke-width:14px;"/>
        </g>
        <g id="dp_path007" transform="matrix(1,0,0,1,36,-60)">
            <path d="M5066.84,3290C5075.79,3275.26 5093.68,3275.26 5102.63,3282.63C5111.58,3290 5111.58,3304.74 5102.63,3319.47C5096.37,3330.53 5080.26,3341.58 5066.84,3348.95C5053.42,3341.58 5037.31,3330.53 5031.05,3319.47C5022.1,3304.74 5022.1,3290 5031.05,3282.63C5040,3275.26 5057.89,3275.26 5066.84,3290Z" style="fill:rgb(255,204,216);stroke:rgb(49,50,61);stroke-width:14px;"/>
        </g>
        <g id="dp_path008" transform="matrix(1,0,0,1,498,-268.667)">
            <path d="M5377.37,2821.05C5386.31,2806.32 5404.21,2806.32 5413.16,2813.68C5422.1,2821.05 5422.1,2835.79 5413.16,2850.53C5406.89,2861.58 5390.79,2872.63 5377.37,2880C5363.95,2872.63 5347.84,2861.58 5341.58,2850.53C5332.63,2835.79 5332.63,2821.05 5341.58,2813.68C5350.52,2806.32 5368.42,2806.32 5377.37,2821.05Z" style="fill:rgb(255,123,123);stroke:rgb(49,50,61);stroke-width:14px;"/>
        </g>
        <g id="dp_path0081" serif:id="dp_path008" transform="matrix(0.994456,0.105157,-0.105157,0.994456,-446.136,1512.25)">
            <path d="M5377.37,2821.05C5386.31,2806.32 5404.21,2806.32 5413.16,2813.68C5422.1,2821.05 5422.1,2835.79 5413.16,2850.53C5406.89,2861.58 5390.79,2872.63 5377.37,2880C5363.95,2872.63 5347.84,2861.58 5341.58,2850.53C5332.63,2835.79 5332.63,2821.05 5341.58,2813.68C5350.52,2806.32 5368.42,2806.32 5377.37,2821.05Z" style="fill:rgb(255,123,123);stroke:rgb(49,50,61);stroke-width:14px;"/>
        </g>
        <g id="dp_path009" transform="matrix(0.998171,0.0604524,-0.0604524,0.998171,235.487,-500.645)">
            <path d="M6630,2794.74C6638.95,2780 6656.84,2780 6665.79,2787.37C6674.74,2794.74 6674.74,2809.47 6665.79,2824.21C6659.53,2835.26 6643.42,2846.32 6630,2853.68C6616.58,2846.32 6600.47,2835.26 6594.21,2824.21C6585.26,2809.47 6585.26,2794.74 6594.21,2787.37C6603.16,2780 6621.05,2780 6630,2794.74Z" style="fill:rgb(255,204,216);stroke:rgb(49,50,61);stroke-width:14px;"/>
        </g>
        <g id="dp_path0091" serif:id="dp_path009" transform="matrix(0.982468,-0.18643,0.18643,0.982468,-188.477,2947.77)">
            <path d="M6630,2794.74C6638.95,2780 6656.84,2780 6665.79,2787.37C6674.74,2794.74 6674.74,2809.47 6665.79,2824.21C6659.53,2835.26 6643.42,2846.32 6630,2853.68C6616.58,2846.32 6600.47,2835.26 6594.21,2824.21C6585.26,2809.47 6585.26,2794.74 6594.21,2787.37C6603.16,2780 6621.05,2780 6630,2794.74Z" style="fill:rgb(255,204,216);stroke:rgb(49,50,61);stroke-width:14px;"/>
        </g>
        <g id="dp_path010" transform="matrix(1,0,0,1,37.3333,72)">
            <path d="M6382.63,3118.79C6391.58,3104.05 6409.47,3104.05 6418.42,3111.42C6427.37,3118.79 6427.37,3133.53 6418.42,3148.26C6412.16,3159.32 6396.05,3170.37 6382.63,3177.74C6369.21,3170.37 6353.1,3159.32 6346.84,3148.26C6337.89,3133.53 6337.89,3118.79 6346.84,3111.42C6355.79,3104.05 6373.68,3104.05 6382.63,3118.79Z" style="fill:rgb(255,123,123);stroke:rgb(49,50,61);stroke-width:14px;"/>
        </g>
        <g id="dp_path012" transform="matrix(0.975312,0.220832,-0.220832,0.975312,561.698,-1573.13)">
            <path d="M5061.58,4309.05C5070.53,4294.32 5088.42,4294.32 5097.37,4301.68C5106.31,4309.05 5106.31,4323.79 5097.37,4338.53C5091.1,4349.58 5075,4360.63 5061.58,4368C5048.16,4360.63 5032.05,4349.58 5025.79,4338.53C5016.84,4323.79 5016.84,4309.05 5025.79,4301.68C5034.73,4294.32 5052.63,4294.32 5061.58,4309.05Z" style="fill:rgb(255,123,123);stroke:rgb(49,50,61);stroke-width:14px;"/>
        </g>
        <g id="dp_path0121" serif:id="dp_path012" transform="matrix(0.991969,-0.126481,0.126481,0.991969,1642.02,704.317)">
            <path d="M5061.58,4309.05C5070.53,4294.32 5088.42,4294.32 5097.37,4301.68C5106.31,4309.05 5106.31,4323.79 5097.37,4338.53C5091.1,4349.58 5075,4360.63 5061.58,4368C5048.16,4360.63 5032.05,4349.58 5025.79,4338.53C5016.84,4323.79 5016.84,4309.05 5025.79,4301.68C5034.73,4294.32 5052.63,4294.32 5061.58,4309.05Z" style="fill:rgb(255,123,123);stroke:rgb(49,50,61);stroke-width:14px;"/>
        </g>
        <g id="dp_path0122" serif:id="dp_path012" transform="matrix(0.993915,0.110152,-0.110152,0.993915,2425.69,-1691.18)">
            <path d="M5061.58,4309.05C5070.53,4294.32 5088.42,4294.32 5097.37,4301.68C5106.31,4309.05 5106.31,4323.79 5097.37,4338.53C5091.1,4349.58 5075,4360.63 5061.58,4368C5048.16,4360.63 5032.05,4349.58 5025.79,4338.53C5016.84,4323.79 5016.84,4309.05 5025.79,4301.68C5034.73,4294.32 5052.63,4294.32 5061.58,4309.05Z" style="fill:rgb(255,123,123);stroke:rgb(49,50,61);stroke-width:14px;"/>
        </g>
        <g id="dp_path013" transform="matrix(1,0,0,1,179.785,114.601)">
            <path d="M5992.87,2760.65C6031.52,2712.28 6096.37,2720.01 6125.68,2749.99C6155,2779.98 6148.77,2832.21 6110.11,2880.58C6082.74,2917.05 6019.7,2949.26 5967.95,2969.58C5922.43,2937.66 5868.73,2891.53 5850.7,2849.65C5824.51,2793.55 5830.73,2741.31 5866.27,2719.06C5901.82,2696.81 5966.67,2704.55 5992.87,2760.65Z" style="fill:rgb(231,95,90);stroke:rgb(49,50,61);stroke-width:14px;"/>
        </g>
        <g id="dp_path014" transform="matrix(0.99869,-0.0511625,0.0511625,0.99869,-241.753,988.653)">
            <path d="M4949.49,3754.45C4966.4,3704.34 5019.83,3692.47 5051.46,3708.63C5083.08,3724.79 5092.89,3768.98 5075.99,3819.1C5064.64,3856.39 5023.91,3900.21 4988.74,3931.2C4943.76,3918.01 4888.31,3895.55 4862.24,3866.56C4825.71,3828.31 4815.9,3784.12 4837.71,3756.09C4859.53,3728.07 4912.96,3716.2 4949.49,3754.45Z" style="fill:rgb(231,95,90);stroke:rgb(49,50,61);stroke-width:14px;"/>
        </g>
        <g id="dp_path0141" serif:id="dp_path014" transform="matrix(0.99869,-0.0511625,0.0511625,0.99869,-522.107,-272.148)">
            <path d="M4949.49,3754.45C4966.4,3704.34 5019.83,3692.47 5051.46,3708.63C5083.08,3724.79 5092.89,3768.98 5075.99,3819.1C5064.64,3856.39 5023.91,3900.21 4988.74,3931.2C4943.76,3918.01 4888.31,3895.55 4862.24,3866.56C4825.71,3828.31 4815.9,3784.12 4837.71,3756.09C4859.53,3728.07 4912.96,3716.2 4949.49,3754.45Z" style="fill:rgb(231,95,90);stroke:rgb(49,50,61);stroke-width:14px;"/>
        </g>
        <g id="dp_path0142" serif:id="dp_path014" transform="matrix(0.99869,-0.0511625,0.0511625,0.99869,147.893,-642.148)">
            <path d="M4949.49,3754.45C4966.4,3704.34 5019.83,3692.47 5051.46,3708.63C5083.08,3724.79 5092.89,3768.98 5075.99,3819.1C5064.64,3856.39 5023.91,3900.21 4988.74,3931.2C4943.76,3918.01 4888.31,3895.55 4862.24,3866.56C4825.71,3828.31 4815.9,3784.12 4837.71,3756.09C4859.53,3728.07 4912.96,3716.2 4949.49,3754.45Z" style="fill:rgb(255,204,216);stroke:rgb(49,50,61);stroke-width:14px;"/>
        </g>
        <g id="dp_path0041" serif:id="dp_path004" transform="matrix(1,0,0,1,-2293.33,354.667)">
            <path d="M6997.63,2936.26C7008.87,2903.69 7046.41,2893.36 7068.96,2901.89C7091.51,2910.42 7099.05,2937.83 7087.82,2970.4C7080.33,2994.57 7052.19,3024.42 7027.8,3045.87C6995.87,3039.92 6956.41,3028.67 6937.61,3011.74C6911.3,2989.51 6903.75,2962.11 6918.76,2943.24C6933.76,2924.37 6971.31,2914.03 6997.63,2936.26Z" style="fill:rgb(255,204,216);stroke:rgb(49,50,61);stroke-width:14px;"/>
        </g>
        <g id="dp_path015" transform="matrix(0.999748,-0.0224347,0.0224347,0.999748,-15.4491,34.5179)">
            <path d="M7035.81,3699.34C7050.01,3667.95 7088.36,3661.14 7110.02,3671.73C7131.68,3682.31 7136.65,3710.3 7122.44,3741.69C7112.75,3765.06 7081.96,3792.17 7055.69,3811.27C7024.44,3802.39 6986.2,3787.53 6969.05,3768.93C6944.91,3744.35 6939.94,3716.36 6956.63,3698.97C6973.32,3681.57 7011.66,3674.76 7035.81,3699.34Z" style="fill:rgb(231,95,90);stroke:rgb(49,50,61);stroke-width:14px;"/>
        </g>
        <g id="dp_path0151" serif:id="dp_path015" transform="matrix(0.999748,-0.0224347,0.0224347,0.999748,-504.189,546.644)">
            <path d="M7035.81,3699.34C7050.01,3667.95 7088.36,3661.14 7110.02,3671.73C7131.68,3682.31 7136.65,3710.3 7122.44,3741.69C7112.75,3765.06 7081.96,3792.17 7055.69,3811.27C7024.44,3802.39 6986.2,3787.53 6969.05,3768.93C6944.91,3744.35 6939.94,3716.36 6956.63,3698.97C6973.32,3681.57 7011.66,3674.76 7035.81,3699.34Z" style="fill:rgb(231,95,90);stroke:rgb(49,50,61);stroke-width:14px;"/>
        </g>
        <g id="dp_path0152" serif:id="dp_path015" transform="matrix(0.999748,-0.0224347,0.0224347,0.999748,-559.845,-88.5556)">
            <path d="M7035.81,3699.34C7050.01,3667.95 7088.36,3661.14 7110.02,3671.73C7131.68,3682.31 7136.65,3710.3 7122.44,3741.69C7112.75,3765.06 7081.96,3792.17 7055.69,3811.27C7024.44,3802.39 6986.2,3787.53 6969.05,3768.93C6944.91,3744.35 6939.94,3716.36 6956.63,3698.97C6973.32,3681.57 7011.66,3674.76 7035.81,3699.34Z" style="fill:rgb(231,95,90);stroke:rgb(49,50,61);stroke-width:14px;"/>
        </g>
        <g id="dp_path011" transform="matrix(0.997269,0.0738557,-0.0738557,0.997269,-34.0773,299.757)">
            <path d="M6987.89,3346.63C6996.84,3331.89 7014.73,3331.89 7023.68,3339.26C7032.63,3346.63 7032.63,3361.37 7023.68,3376.1C7017.42,3387.16 7001.31,3398.21 6987.89,3405.58C6974.47,3398.21 6958.37,3387.16 6952.1,3376.1C6943.15,3361.37 6943.15,3346.63 6952.1,3339.26C6961.05,3331.89 6978.94,3331.89 6987.89,3346.63Z" style="fill:rgb(255,123,123);stroke:rgb(49,50,61);stroke-width:14px;"/>
        </g>
        <g id="dp_path0153" serif:id="dp_path015" transform="matrix(0.957923,0.287024,-0.287024,0.957923,1472.06,-782.979)">
            <path d="M7035.81,3699.34C7050.01,3667.95 7088.36,3661.14 7110.02,3671.73C7131.68,3682.31 7136.65,3710.3 7122.44,3741.69C7112.75,3765.06 7081.96,3792.17 7055.69,3811.27C7024.44,3802.39 6986.2,3787.53 6969.05,3768.93C6944.91,3744.35 6939.94,3716.36 6956.63,3698.97C6973.32,3681.57 7011.66,3674.76 7035.81,3699.34Z" style="fill:rgb(231,95,90);stroke:rgb(49,50,61);stroke-width:14px;"/>
        </g>
        <g id="dp_path0154" serif:id="dp_path015" transform="matrix(0.99348,0.11401,-0.11401,0.99348,-1545.73,-872.563)">
            <path d="M7035.81,3699.34C7050.01,3667.95 7088.36,3661.14 7110.02,3671.73C7131.68,3682.31 7136.65,3710.3 7122.44,3741.69C7112.75,3765.06 7081.96,3792.17 7055.69,3811.27C7024.44,3802.39 6986.2,3787.53 6969.05,3768.93C6944.91,3744.35 6939.94,3716.36 6956.63,3698.97C6973.32,3681.57 7011.66,3674.76 7035.81,3699.34Z" style="fill:rgb(231,95,90);stroke:rgb(49,50,61);stroke-width:14px;"/>
        </g>
        <g id="dp_path0061" serif:id="dp_path006" transform="matrix(1,0,0,1,261.687,771.467)">
            <path d="M4578.37,3838.58C4587.31,3823.84 4605.21,3823.84 4614.16,3831.21C4623.1,3838.58 4623.1,3853.31 4614.16,3868.05C4607.89,3879.1 4591.79,3890.16 4578.37,3897.52C4564.95,3890.16 4548.84,3879.1 4542.58,3868.05C4533.63,3853.31 4533.63,3838.58 4542.58,3831.21C4551.52,3823.84 4569.42,3823.84 4578.37,3838.58Z" style="fill:rgb(255,204,216);stroke:rgb(49,50,61);stroke-width:14px;"/>
        </g>
        <g id="dp_path0092" serif:id="dp_path009" transform="matrix(1,0,0,1,-566.971,175.995)">
            <path d="M6630,2794.74C6638.95,2780 6656.84,2780 6665.79,2787.37C6674.74,2794.74 6674.74,2809.47 6665.79,2824.21C6659.53,2835.26 6643.42,2846.32 6630,2853.68C6616.58,2846.32 6600.47,2835.26 6594.21,2824.21C6585.26,2809.47 6585.26,2794.74 6594.21,2787.37C6603.16,2780 6621.05,2780 6630,2794.74Z" style="fill:rgb(255,204,216);stroke:rgb(49,50,61);stroke-width:14px;"/>
        </g>
        <g id="dp_path016" transform="matrix(0.98842,0.151743,-0.151743,0.98842,596.422,-666.703)">
            <path d="M4632.39,4315.84C4604.97,4294.98 4568,4307.23 4553.98,4326.84C4539.96,4346.45 4548.89,4373.43 4576.31,4394.29C4595.95,4410.24 4635.93,4419.46 4668.12,4423.77C4691.39,4401.09 4717.96,4369.84 4724.2,4345.32C4733.76,4312.22 4724.82,4285.24 4701.87,4277.87C4678.92,4270.5 4641.94,4282.74 4632.39,4315.84Z" style="fill:rgb(255,204,216);stroke:rgb(49,50,61);stroke-width:14px;"/>
        </g>
        <g id="dp_path0161" serif:id="dp_path016" transform="matrix(0.98842,0.151743,-0.151743,0.98842,1521.42,-2126.7)">
            <path d="M4632.39,4315.84C4604.97,4294.98 4568,4307.23 4553.98,4326.84C4539.96,4346.45 4548.89,4373.43 4576.31,4394.29C4595.95,4410.24 4635.93,4419.46 4668.12,4423.77C4691.39,4401.09 4717.96,4369.84 4724.2,4345.32C4733.76,4312.22 4724.82,4285.24 4701.87,4277.87C4678.92,4270.5 4641.94,4282.74 4632.39,4315.84Z" style="fill:rgb(231,95,90);stroke:rgb(49,50,61);stroke-width:14px;"/>
        </g>
    </g>
    <g transform="matrix(3.17959,0,0,3.25941,-618.367,-539.749)">
        <rect x="194.48" y="165.597" width="943.517" height="920.411" style="fill:none;"/>
    </g>
</svg>
