<?xml version="1.0" encoding="UTF-8" standalone="no"?>
<svg version="1.1" xmlns="http://www.w3.org/2000/svg" xmlns:xlink="http://www.w3.org/1999/xlink" xmlns:i="http://ns.adobe.com/AdobeIllustrator/10.0/" width="3005" height="3005">
	<g id="dp_dp001" transform="matrix(1,0,0,1,-4343.79,-2504.34)">
		<path id="dp_path002" fill="#31323d" fill-rule="evenodd" fill-opacity="0.294118" d="M 4760.94,5052.23 C 4958.57,5052.23 5118.78,5077.2 5118.78,5108 C 5118.78,5138.8 4958.57,5163.77 4760.94,5163.77 C 4563.32,5163.77 4403.11,5138.8 4403.11,5108 C 4403.11,5077.2 4563.32,5052.23 4760.94,5052.23 Z "/>
		<path id="dp_path003" fill="#e75f5a" fill-rule="evenodd" stroke="#31323d" stroke-width="12" stroke-linejoin="round" stroke-linecap="round" d="M 4762.72,4438.25 L 5086.26,4768.25 L 4439.18,4768.25 Z "/>
		<path id="dp_path004" fill="#e75f5a" fill-rule="evenodd" stroke="#31323d" stroke-width="12" stroke-linejoin="round" stroke-linecap="round" d="M 4440.74,4770.25 L 5086.25,4770.25 L 5086.25,5131.33 L 4440.74,5131.33 Z "/>
		<path id="dp_path005" fill="#31323d" fill-rule="evenodd" fill-opacity="0.25098" d="M 4714.92,4945.08 L 4845.08,4945.08 L 4845.08,4995.87 L 4714.92,4995.87 Z "/>
		<path id="dp_path006" fill="white" fill-rule="evenodd" stroke="#31323d" stroke-width="10.6667" stroke-linecap="round" d="M 4486.96,4952.54 L 4486.96,4499.03 L 5036.04,4499.03 L 5036.04,4952.54 Z "/>
		<path id="dp_path007" fill="#e75f5a" fill-rule="evenodd" stroke="#31323d" stroke-width="12" stroke-linejoin="round" stroke-linecap="round" d="M 5086.25,4770.25 L 4440.75,5131.33 L 5086.25,5131.33 Z "/>
		<path id="dp_path008" fill="#e75f5a" fill-rule="evenodd" stroke="#31323d" stroke-width="12" stroke-linejoin="round" stroke-linecap="round" d="M 4440.74,4770.25 L 5086.25,5131.33 L 4440.74,5131.33 Z "/>
		<path id="dp_path009" fill="#31323d" fill-rule="evenodd" fill-opacity="0.501961" d="M 4786.57,5117.83 L 4459.61,5117.83 C 4459.61,5117.83 4459.61,5117.83 4459.61,5117.83 L 4459.61,4771.25 L 4442.4,4771.25 L 4442.4,5117.83 C 4442.4,5125.81 4448.87,5132.28 4456.84,5132.28 L 4786.57,5132.28 Z "/>
		<path id="dp_path010" fill="#e75f5a" fill-rule="evenodd" d="M 4737.9,4683.33 C 4737.01,4691.31 4736.43,4695.8 4736.14,4696.8 C 4734.64,4701.95 4731.69,4704.82 4727.3,4705.41 C 4724.91,4705.74 4721.68,4704.9 4717.63,4702.89 C 4713.57,4700.87 4710.52,4700.01 4708.47,4700.29 C 4707.18,4700.46 4705.91,4701.03 4704.67,4701.96 C 4701.3,4701.29 4697.63,4701.23 4693.64,4701.77 C 4690.96,4702.13 4686.99,4703.02 4681.77,4704.4 C 4676.53,4705.8 4672.57,4706.69 4669.88,4707.06 C 4667.08,4707.44 4664.89,4707.61 4663.33,4707.58 C 4662.09,4709.84 4660.21,4711.15 4657.69,4711.49 C 4656.41,4711.66 4654.48,4711.55 4651.93,4711.14 C 4649.37,4710.74 4647.48,4710.63 4646.25,4710.8 C 4645.37,4710.92 4644.55,4711.22 4643.78,4711.67 C 4642.33,4710.68 4640.87,4710.28 4639.42,4710.48 C 4638.25,4710.64 4636.67,4711.33 4634.7,4712.56 C 4632.71,4713.77 4631.16,4714.46 4630.05,4714.61 C 4628.94,4714.76 4627.87,4714.55 4626.84,4713.97 L 4625.66,4715.84 L 4623.86,4714.38 C 4618.52,4716.78 4613.22,4719.17 4607.93,4721.56 C 4601.68,4724.21 4596.13,4725.91 4591.29,4726.69 C 4590.25,4725.17 4589.2,4723.61 4588.16,4722.02 C 4586.91,4720.35 4585.49,4719.14 4583.91,4718.39 C 4583.87,4718.4 4583.8,4717.9 4583.71,4716.89 C 4583.16,4712.86 4584,4709.38 4586.21,4706.45 C 4588.44,4703.53 4591.6,4701.78 4595.69,4701.23 C 4596.63,4701.1 4597.1,4701.04 4597.1,4701.04 C 4600,4702.18 4603.29,4702.51 4606.98,4702.01 C 4608.39,4701.82 4610.45,4701.39 4613.2,4700.73 C 4615.93,4700.05 4618.01,4699.63 4619.41,4699.44 C 4621.11,4699.21 4623.31,4699.25 4625.99,4699.57 C 4628.69,4699.89 4630.71,4699.95 4632.06,4699.76 C 4640.72,4698.59 4644.12,4691.21 4642.28,4677.64 C 4642.21,4677.12 4641.89,4676.15 4641.35,4674.78 C 4640.82,4673.39 4640.48,4672.5 4640.36,4672.09 C 4639.58,4668.98 4638.86,4664.97 4638.19,4660.06 C 4638.01,4658.71 4637.76,4656.65 4637.45,4653.89 C 4637.12,4651.14 4636.87,4649.06 4636.68,4647.65 C 4636.6,4647.07 4636.33,4645.47 4635.86,4642.85 C 4635.56,4642.48 4633.65,4638.98 4630.13,4632.37 C 4627.9,4628.2 4625.12,4625.48 4621.79,4624.2 C 4620.15,4623.59 4618.78,4623.35 4617.67,4623.51 C 4617.26,4623.56 4614.23,4624.46 4608.56,4626.18 C 4596.78,4629.87 4584.58,4634.71 4571.92,4640.72 C 4568.15,4638.49 4566.01,4635.36 4565.46,4631.32 C 4564.86,4626.93 4565.02,4623.06 4565.94,4619.72 C 4566.49,4617.57 4567.77,4616.34 4569.82,4616.07 C 4570.93,4615.91 4572.57,4616.22 4574.72,4616.97 C 4576.88,4617.71 4578.49,4618.01 4579.54,4617.87 C 4579.72,4617.85 4581.25,4617.35 4584.15,4616.36 C 4590.53,4614.12 4594.74,4612.86 4596.79,4612.58 C 4599.25,4612.25 4601.59,4612.37 4603.82,4612.97 C 4606.92,4610.88 4612.11,4608.91 4619.37,4607.06 C 4626.62,4605.2 4631.84,4603.19 4635,4601.04 C 4638.46,4601.53 4642.24,4601.49 4646.33,4600.94 C 4654.4,4599.84 4661.07,4596.87 4666.31,4592.04 C 4667.15,4592.05 4667.88,4592.01 4668.54,4591.92 C 4670.82,4591.61 4674.13,4590.55 4678.51,4588.71 C 4682.88,4586.88 4686.26,4585.79 4688.65,4585.47 C 4690.64,4585.2 4692.22,4585.1 4693.36,4585.18 C 4696.74,4592.07 4698.5,4596.04 4698.64,4597.11 C 4698.93,4599.2 4698,4601.57 4695.85,4604.2 C 4692.46,4608.18 4690.71,4610.27 4690.63,4610.46 C 4688.91,4611.82 4686.53,4612.73 4683.47,4613.14 C 4680.61,4613.53 4676.31,4613.51 4670.56,4613.07 C 4664.81,4612.63 4660.5,4612.59 4657.63,4612.98 C 4650.66,4613.93 4647.71,4618.29 4648.77,4626.08 C 4649.15,4628.88 4649.52,4630.71 4649.87,4631.56 C 4651.69,4635.78 4652.72,4638.71 4652.94,4640.34 C 4653.03,4640.99 4653.13,4641.95 4653.25,4643.21 C 4653.36,4644.48 4653.46,4645.43 4653.55,4646.07 C 4653.97,4649.17 4654.81,4651.87 4656.06,4654.14 C 4655.9,4655.53 4655.9,4656.85 4656.07,4658.07 C 4656.31,4659.89 4657.05,4662.55 4658.26,4666.04 C 4659.48,4669.54 4660.23,4672.23 4660.49,4674.1 C 4660.84,4676.72 4660.62,4679.21 4659.79,4681.52 C 4662.36,4686.89 4665.35,4689.58 4668.76,4689.61 C 4668.76,4689.61 4669.49,4689.5 4670.94,4689.31 C 4671.95,4689.17 4673.45,4689 4675.43,4688.77 C 4677.43,4688.56 4678.93,4688.39 4679.92,4688.25 C 4684.37,4687.65 4687.73,4686.66 4689.98,4685.29 L 4691.99,4685.01 C 4693.06,4684.87 4694.68,4684.68 4696.89,4684.44 C 4699.08,4684.2 4700.73,4684.01 4701.86,4683.85 C 4706.99,4683.16 4711.07,4681.98 4714.07,4680.3 C 4714.57,4679.64 4715.34,4679.25 4716.41,4679.1 C 4717.11,4679.01 4718.18,4679.04 4719.64,4679.2 C 4721.08,4679.35 4722.17,4679.39 4722.87,4679.29 C 4724.26,4679.1 4725.35,4678.42 4726.07,4677.25 C 4727.91,4677.17 4730,4677.88 4732.35,4679.34 C 4734.2,4680.71 4736.04,4682.03 4737.9,4683.33 Z "/>
		<path id="dp_path011" fill="#e75f5a" fill-rule="evenodd" d="M 4832.52,4809.01 C 4832.54,4810.13 4832,4811.18 4830.89,4812.17 C 4831.19,4813.66 4831.36,4815.18 4831.39,4816.74 C 4831.48,4821.81 4830.58,4827.32 4828.71,4833.24 C 4828.36,4834.15 4827.86,4835.53 4827.27,4837.35 C 4826.66,4839.66 4825.25,4843.04 4823.03,4847.46 C 4819.49,4852.4 4813.64,4855.98 4805.49,4858.21 C 4801.72,4859.25 4794.73,4860.39 4784.53,4861.64 C 4780.27,4862.14 4776.05,4862.75 4771.89,4863.47 C 4771.21,4863.59 4770.59,4863.65 4770.06,4863.66 C 4765.19,4863.75 4759.55,4862.65 4753.15,4860.35 C 4747.72,4858.37 4742.3,4856.4 4736.91,4854.47 C 4736.6,4854.57 4736.15,4854.63 4735.56,4854.65 C 4734.44,4854.66 4732.8,4854.3 4730.64,4853.53 C 4727.79,4852.51 4726.15,4851.95 4725.72,4851.85 L 4725.71,4851.37 C 4725.68,4849.71 4724.27,4848.92 4721.49,4848.97 C 4719.95,4849 4718.95,4848.58 4718.51,4847.74 L 4701.63,4836.81 C 4697.38,4829.93 4694.05,4824.41 4691.62,4820.22 C 4689.58,4816.83 4688.5,4811.83 4688.38,4805.19 C 4688.18,4794.08 4692.19,4781.84 4700.4,4768.48 C 4700.11,4767.8 4699.96,4767.05 4699.95,4766.24 C 4699.91,4764.32 4701.26,4762.96 4703.97,4762.15 C 4707.59,4761.08 4709.6,4760.34 4710.04,4759.96 C 4711.96,4760.46 4713.24,4762.13 4713.85,4764.95 C 4714.46,4767.77 4715.54,4769.35 4717.11,4769.71 C 4717.27,4770.08 4717.36,4770.44 4717.36,4770.83 C 4717.39,4772.48 4716.19,4774.27 4713.78,4776.18 C 4710.98,4778.47 4709.37,4780.09 4708.96,4781 C 4708.67,4782.24 4708.22,4784.01 4707.62,4786.32 C 4705.01,4795.88 4703.74,4803.03 4703.83,4807.72 C 4703.91,4812.32 4704.48,4815.5 4705.52,4817.25 C 4707.45,4820.53 4710.52,4824.09 4714.71,4827.91 C 4730.14,4841.86 4753.29,4848.55 4784.14,4847.99 C 4784.79,4845.95 4786.51,4844.97 4789.29,4845.01 C 4792.34,4845.12 4794.32,4844.63 4795.2,4843.55 L 4796.67,4844.96 C 4809.56,4836.6 4815.84,4822.57 4815.49,4802.89 C 4815.39,4797.43 4814.82,4792.28 4813.77,4787.44 C 4812.96,4783.92 4809.89,4780.31 4804.58,4776.61 C 4799.66,4773.11 4797.17,4769.97 4797.12,4767.19 C 4797.08,4765.26 4798.29,4762.29 4800.73,4758.29 C 4802.08,4756.02 4803.65,4754.57 4805.46,4753.95 C 4807.69,4753.12 4809.31,4752.2 4810.31,4751.22 C 4819.15,4755.44 4825.16,4762.28 4828.33,4771.68 C 4830.24,4777.33 4831.53,4786.63 4832.2,4799.62 C 4831.19,4800.56 4830.7,4801.61 4830.73,4802.78 C 4830.74,4803.52 4831.04,4804.57 4831.63,4805.89 C 4832.21,4807.22 4832.51,4808.26 4832.52,4809.01 Z "/>
		<path id="dp_path012" fill="#e75f5a" fill-rule="evenodd" d="M 4871.42,4604.81 C 4898.07,4580.72 4939.6,4597.15 4954.98,4616.62 C 4970.35,4636.1 4959.55,4658.61 4932.91,4682.7 C 4913.88,4701.01 4873.81,4713.88 4841.36,4720.98 S 4787.63,4668.34 4779.87,4643.09 C 4768.26,4609.1 4782.32,4584.04 4805.21,4574.47 C 4828.09,4564.9 4859.81,4570.81 4871.42,4604.81 Z "/>
	</g>
</svg>