<?xml version="1.0" encoding="UTF-8" standalone="no"?>
<!DOCTYPE svg PUBLIC "-//W3C//DTD SVG 1.1//EN" "http://www.w3.org/Graphics/SVG/1.1/DTD/svg11.dtd">
<svg width="100%" height="100%" viewBox="0 0 3000 3000" version="1.1" xmlns="http://www.w3.org/2000/svg" xmlns:xlink="http://www.w3.org/1999/xlink" xml:space="preserve" xmlns:serif="http://www.serif.com/" style="fill-rule:evenodd;clip-rule:evenodd;">
    <g id="pearlnecklace" transform="matrix(1,0,0,1,-4346.8,-2503.34)">
        <path id="dp_path002" d="M6216.4,4053.87C6193.21,4055.48 6175.72,4074.59 6177.35,4096.54C6178.97,4118.49 6199.1,4134.97 6222.29,4133.36C6245.49,4131.74 6262.97,4112.63 6261.35,4090.68C6259.72,4068.73 6239.6,4052.25 6216.4,4053.87Z" style="fill:rgb(0,0,1);fill-opacity:0.576471;"/>
        <path id="dp_path003" d="M6218.58,4044.15C6195.39,4045.76 6177.9,4064.87 6179.53,4086.82C6181.16,4108.77 6201.28,4125.25 6224.47,4123.64C6247.67,4122.02 6265.15,4102.91 6263.53,4080.96C6261.9,4059.01 6241.78,4042.53 6218.58,4044.15Z" style="fill:rgb(249,249,228);stroke:rgb(49,50,61);stroke-width:7px;"/>
        <path id="dp_path006" d="M5368.68,4069.07C5345.42,4069.15 5326.67,4087.06 5326.8,4109.06C5326.92,4131.07 5345.87,4148.85 5369.13,4148.77C5392.38,4148.69 5411.13,4130.78 5411.01,4108.77C5410.88,4086.77 5391.93,4068.99 5368.68,4069.07Z" style="fill:rgb(0,0,1);fill-opacity:0.576471;"/>
        <path id="dp_path007" d="M5373.45,4057.66C5350.2,4057.74 5331.45,4075.64 5331.57,4097.65C5331.7,4119.66 5350.65,4137.43 5373.9,4137.35C5397.16,4137.27 5415.91,4119.37 5415.78,4097.36C5415.66,4075.35 5396.71,4057.58 5373.45,4057.66Z" style="fill:rgb(249,249,228);stroke:rgb(49,50,61);stroke-width:7px;"/>
        <path id="dp_path010" d="M5394.29,4087.5C5401.68,4091.2 5405.78,4097.99 5403.44,4102.67C5401.1,4107.34 5393.21,4108.13 5385.81,4104.42C5378.41,4100.72 5374.31,4093.93 5376.65,4089.25C5379,4084.58 5386.89,4083.79 5394.29,4087.5Z" style="fill:white;"/>
        <path id="dp_path011" d="M5439.31,4111.5C5416.06,4111.58 5397.31,4129.49 5397.43,4151.5C5397.56,4173.5 5416.51,4191.28 5439.76,4191.2C5463.02,4191.12 5481.77,4173.21 5481.64,4151.2C5481.52,4129.2 5462.57,4111.42 5439.31,4111.5Z" style="fill:rgb(0,0,1);fill-opacity:0.576471;"/>
        <path id="dp_path012" d="M5446.07,4103.1C5422.82,4103.18 5404.07,4121.09 5404.19,4143.09C5404.32,4165.1 5423.27,4182.88 5446.52,4182.8C5469.78,4182.72 5488.53,4164.81 5488.4,4142.8C5488.28,4120.79 5469.33,4103.02 5446.07,4103.1Z" style="fill:rgb(249,249,228);stroke:rgb(49,50,61);stroke-width:7px;"/>
        <path id="dp_path015" d="M5518.18,4154.52C5494.93,4154.6 5476.18,4172.51 5476.3,4194.52C5476.43,4216.53 5495.38,4234.3 5518.63,4234.22C5541.89,4234.14 5560.64,4216.23 5560.51,4194.23C5560.39,4172.22 5541.44,4154.44 5518.18,4154.52Z" style="fill:rgb(0,0,1);fill-opacity:0.576471;"/>
        <path id="dp_path016" d="M5521.95,4144.1C5498.7,4144.18 5479.95,4162.09 5480.07,4184.1C5480.2,4206.11 5499.15,4223.88 5522.41,4223.8C5545.66,4223.72 5564.41,4205.81 5564.29,4183.81C5564.16,4161.8 5545.21,4144.02 5521.95,4144.1Z" style="fill:rgb(249,249,228);stroke:rgb(49,50,61);stroke-width:7px;"/>
        <path id="dp_path019" d="M5599.95,4181.74C5576.7,4181.82 5557.95,4199.72 5558.08,4221.73C5558.2,4243.74 5577.15,4261.52 5600.41,4261.43C5623.66,4261.35 5642.41,4243.45 5642.29,4221.44C5642.16,4199.43 5623.21,4181.66 5599.95,4181.74Z" style="fill:rgb(0,0,1);fill-opacity:0.576471;"/>
        <path id="dp_path020" d="M5603.73,4171.32C5580.47,4171.4 5561.72,4189.31 5561.85,4211.31C5561.97,4233.32 5580.92,4251.1 5604.18,4251.02C5627.43,4250.94 5646.18,4233.03 5646.06,4211.02C5645.93,4189.01 5626.98,4171.24 5603.73,4171.32Z" style="fill:rgb(249,249,228);stroke:rgb(49,50,61);stroke-width:7px;"/>
        <path id="dp_path023" d="M6143.72,4095.25C6120.47,4095.33 6101.72,4113.23 6101.84,4135.24C6101.97,4157.25 6120.92,4175.03 6144.17,4174.95C6167.43,4174.87 6186.18,4156.96 6186.05,4134.95C6185.93,4112.94 6166.98,4095.17 6143.72,4095.25Z" style="fill:rgb(0,0,1);fill-opacity:0.576471;"/>
        <path id="dp_path024" d="M6146.49,4085.82C6123.23,4085.9 6104.49,4103.81 6104.61,4125.82C6104.73,4147.83 6123.69,4165.6 6146.94,4165.52C6170.19,4165.44 6188.94,4147.53 6188.82,4125.53C6188.69,4103.52 6169.74,4085.74 6146.49,4085.82Z" style="fill:rgb(249,249,228);stroke:rgb(49,50,61);stroke-width:7px;"/>
        <path id="dp_path027" d="M6066.76,4134.3C6043.51,4134.38 6024.76,4152.28 6024.88,4174.29C6025.01,4196.3 6043.96,4214.07 6067.21,4213.99C6090.47,4213.91 6109.22,4196.01 6109.09,4174C6108.97,4151.99 6090.01,4134.22 6066.76,4134.3Z" style="fill:rgb(0,0,1);fill-opacity:0.576471;"/>
        <path id="dp_path028" d="M6068.53,4124.87C6045.27,4124.95 6026.52,4142.85 6026.65,4164.86C6026.77,4186.87 6045.72,4204.65 6068.98,4204.56C6092.23,4204.48 6110.98,4186.58 6110.86,4164.57C6110.73,4142.56 6091.78,4124.79 6068.53,4124.87Z" style="fill:rgb(249,249,228);stroke:rgb(49,50,61);stroke-width:7px;"/>
        <path id="dp_path031" d="M5982.94,4167.64C5959.69,4167.72 5940.94,4185.63 5941.07,4207.64C5941.19,4229.64 5960.14,4247.42 5983.4,4247.34C6006.65,4247.26 6025.4,4229.35 6025.28,4207.34C6025.15,4185.34 6006.2,4167.56 5982.94,4167.64Z" style="fill:rgb(0,0,1);fill-opacity:0.576471;"/>
        <path id="dp_path032" d="M5985.71,4158.22C5962.46,4158.3 5943.71,4176.2 5943.83,4198.21C5943.96,4220.22 5962.91,4237.99 5986.16,4237.91C6009.42,4237.83 6028.17,4219.93 6028.04,4197.92C6027.92,4175.91 6008.97,4158.14 5985.71,4158.22Z" style="fill:rgb(249,249,228);stroke:rgb(49,50,61);stroke-width:7px;"/>
        <path id="dp_path035" d="M5795.03,4211.54C5768.12,4211.63 5746.41,4232.36 5746.56,4257.84C5746.7,4283.31 5768.64,4303.89 5795.55,4303.79C5822.47,4303.7 5844.17,4282.97 5844.03,4257.5C5843.89,4232.03 5821.95,4211.45 5795.03,4211.54Z" style="fill:rgb(0,0,1);fill-opacity:0.576471;"/>
        <path id="dp_path036" d="M5796.51,4201.77C5769.6,4201.87 5747.89,4222.59 5748.04,4248.07C5748.18,4273.54 5770.12,4294.12 5797.03,4294.03C5823.95,4293.93 5845.65,4273.21 5845.51,4247.73C5845.36,4222.26 5823.43,4201.68 5796.51,4201.77Z" style="fill:rgb(249,249,228);stroke:rgb(49,50,61);stroke-width:7px;"/>
        <path id="dp_path039" d="M6236.04,4063.97C6243.44,4067.68 6247.54,4074.47 6245.19,4079.14C6242.85,4083.82 6234.96,4084.61 6227.56,4080.9C6220.17,4077.2 6216.07,4070.41 6218.41,4065.73C6220.75,4061.06 6228.64,4060.27 6236.04,4063.97Z" style="fill:white;"/>
        <path id="dp_path040" d="M6159.83,4101.87C6167.23,4105.57 6171.33,4112.37 6168.99,4117.04C6166.65,4121.71 6158.75,4122.5 6151.36,4118.8C6143.96,4115.09 6139.86,4108.3 6142.2,4103.63C6144.55,4098.95 6152.44,4098.17 6159.83,4101.87Z" style="fill:white;"/>
        <path id="dp_path041" d="M6082.54,4141.53C6089.94,4145.23 6094.04,4152.02 6091.7,4156.7C6089.35,4161.37 6081.46,4162.16 6074.07,4158.46C6066.67,4154.75 6062.57,4147.96 6064.91,4143.29C6067.25,4138.61 6075.15,4137.83 6082.54,4141.53Z" style="fill:white;"/>
        <path id="dp_path042" d="M6000.32,4183.01C6007.71,4186.71 6011.81,4193.5 6009.47,4198.18C6007.13,4202.85 5999.24,4203.64 5991.84,4199.93C5984.44,4196.23 5980.35,4189.44 5982.69,4184.77C5985.03,4180.09 5992.92,4179.3 6000.32,4183.01Z" style="fill:white;"/>
        <path id="dp_path043" d="M5818.17,4225.69C5827.76,4230.49 5832.74,4239.97 5829.29,4246.87C5825.84,4253.76 5815.26,4255.45 5805.67,4250.65C5796.07,4245.84 5791.09,4236.36 5794.55,4229.47C5798,4222.58 5808.57,4220.88 5818.17,4225.69Z" style="fill:white;"/>
        <path id="dp_path044" d="M5618.56,4193.87C5625.96,4197.57 5630.05,4204.36 5627.71,4209.04C5625.37,4213.71 5617.48,4214.5 5610.08,4210.79C5602.69,4207.09 5598.59,4200.3 5600.93,4195.62C5603.27,4190.95 5611.16,4190.16 5618.56,4193.87Z" style="fill:white;"/>
        <path id="dp_path045" d="M5540.94,4166.29C5548.33,4170 5552.43,4176.79 5550.09,4181.46C5547.75,4186.14 5539.86,4186.92 5532.46,4183.22C5525.07,4179.51 5520.97,4172.72 5523.31,4168.05C5525.65,4163.37 5533.54,4162.59 5540.94,4166.29Z" style="fill:white;"/>
        <path id="dp_path046" d="M5463.05,4130.87C5470.45,4134.57 5474.55,4141.37 5472.21,4146.04C5469.87,4150.71 5461.97,4151.5 5454.58,4147.8C5447.18,4144.09 5443.08,4137.3 5445.42,4132.63C5447.76,4127.95 5455.66,4127.17 5463.05,4130.87Z" style="fill:white;"/>
        <path id="dp_path047" d="M5893.2,4192.77C5866.29,4192.86 5844.58,4213.59 5844.73,4239.06C5844.87,4264.53 5866.81,4285.11 5893.73,4285.02C5920.64,4284.92 5942.34,4264.2 5942.2,4238.72C5942.05,4213.25 5920.12,4192.67 5893.2,4192.77Z" style="fill:rgb(0,0,1);fill-opacity:0.576471;"/>
        <path id="dp_path048" d="M5894.68,4183C5867.77,4183.09 5846.06,4203.82 5846.21,4229.29C5846.35,4254.77 5868.29,4275.34 5895.2,4275.25C5922.12,4275.16 5943.82,4254.43 5943.68,4228.95C5943.53,4203.48 5921.6,4182.9 5894.68,4183Z" style="fill:rgb(249,249,228);stroke:rgb(49,50,61);stroke-width:7px;"/>
        <path id="dp_path051" d="M5818.17,4225.69C5827.76,4230.49 5832.74,4239.97 5829.29,4246.87C5825.84,4253.76 5815.26,4255.45 5805.67,4250.65C5796.07,4245.84 5791.09,4236.36 5794.55,4229.47C5798,4222.58 5808.57,4220.88 5818.17,4225.69Z" style="fill:white;"/>
        <path id="dp_path052" d="M5694.1,4198.38C5667.18,4198.47 5645.48,4219.2 5645.62,4244.68C5645.77,4270.15 5667.7,4290.73 5694.62,4290.63C5721.54,4290.54 5743.24,4269.81 5743.09,4244.34C5742.95,4218.86 5721.01,4198.29 5694.1,4198.38Z" style="fill:rgb(0,0,1);fill-opacity:0.576471;"/>
        <path id="dp_path053" d="M5695.58,4188.61C5668.66,4188.71 5646.96,4209.43 5647.1,4234.91C5647.25,4260.38 5669.18,4280.96 5696.1,4280.87C5723.01,4280.77 5744.72,4260.05 5744.57,4234.57C5744.43,4209.1 5722.49,4188.52 5695.58,4188.61Z" style="fill:rgb(249,249,228);stroke:rgb(49,50,61);stroke-width:7px;"/>
        <path id="dp_path056" d="M5916.28,4204.14C5925.87,4208.95 5930.85,4218.43 5927.4,4225.32C5923.95,4232.21 5913.37,4233.91 5903.78,4229.1C5894.19,4224.3 5889.21,4214.81 5892.66,4207.92C5896.11,4201.03 5906.69,4199.34 5916.28,4204.14Z" style="fill:white;"/>
        <path id="dp_path057" d="M5717.15,4213.6C5726.74,4218.41 5731.72,4227.89 5728.27,4234.78C5724.82,4241.67 5714.24,4243.37 5704.65,4238.56C5695.05,4233.76 5690.07,4224.28 5693.53,4217.38C5696.98,4210.49 5707.55,4208.8 5717.15,4213.6Z" style="fill:white;"/>
    </g>
    <g transform="matrix(3.17959,0,0,3.25941,-618.367,-539.749)">
        <rect x="194.48" y="165.597" width="943.517" height="920.411" style="fill:none;"/>
    </g>
</svg>
