<?xml version="1.0" encoding="UTF-8" standalone="no"?>
<!DOCTYPE svg PUBLIC "-//W3C//DTD SVG 1.1//EN" "http://www.w3.org/Graphics/SVG/1.1/DTD/svg11.dtd">
<svg width="100%" height="100%" viewBox="0 0 3000 3000" version="1.1" xmlns="http://www.w3.org/2000/svg" xmlns:xlink="http://www.w3.org/1999/xlink" xml:space="preserve" xmlns:serif="http://www.serif.com/" style="fill-rule:evenodd;clip-rule:evenodd;stroke-linejoin:round;">
    <g transform="matrix(3.17959,0,0,3.25941,-618.367,-539.749)">
        <rect x="194.48" y="165.597" width="943.517" height="920.411" style="fill:none;"/>
    </g>
    <g id="pirate-hat1" serif:id="pirate hat1" transform="matrix(1,0,0,1,1,0)">
        <g id="dp_path002" transform="matrix(1.03863,-0.0135235,0.0130194,0.999915,-72.6591,39.1131)">
            <path d="M1237.67,648.511C1271.59,577.077 1326.42,531.869 1406.48,531.89C1490.12,531.907 1545.41,575.002 1578.39,647.482C1581.99,643.363 1587.87,655.238 1588.02,655.51C1605.03,686.891 1625.03,722.438 1662.31,731.904C1695.51,740.332 1728.9,722.059 1760.63,715.24C1763.36,714.653 1766.2,714.499 1768.99,714.686C1771.95,714.884 1774.99,715.234 1777.73,716.386C1786.5,720.078 1704.5,775.228 1663.05,820.704C1647.76,837.488 1655.08,866.999 1650.06,872.01C1650.02,872.047 1649.98,872.083 1649.94,872.117C1649.99,872.214 1649.94,872.253 1649.79,872.229C1646.55,874.343 1633.24,868.693 1618.4,861.617C1568.05,848.406 1477.35,835.467 1409.42,836.07C1336.81,836.721 1247.6,856.885 1202.68,876.138C1199.66,877.598 1196.68,878.974 1193.86,880.193C1189.74,882.233 1185.92,884.921 1181.62,886.514C1180.86,886.795 1182.16,884.959 1182.67,884.332C1175.64,886.293 1174.28,837.834 1159.11,819.909C1118.44,771.846 1051.12,715.28 1057.4,716.74C1085.41,723.261 1113.24,735.146 1142.57,734.876C1185.87,734.477 1210.66,689.961 1228.51,657.01C1231.58,651.482 1231.8,649.825 1237.67,648.511" style="fill:rgb(49,50,61);stroke:rgb(49,50,61);stroke-opacity:0.301961;stroke-width:16.55px;"/>
        </g>
        <g id="dp_path0021" serif:id="dp_path002" transform="matrix(1.03828,0,0,1.05639,-58.0752,-37.9949)">
            <path d="M1237.67,648.511C1271.59,577.077 1326.42,531.869 1406.48,531.89C1490.12,531.907 1544.77,578.157 1578.39,647.482C1580.65,652.136 1625.03,722.438 1662.31,731.904C1695.51,740.332 1728.9,722.059 1760.63,715.24C1763.36,714.653 1766.2,714.499 1768.99,714.686C1771.95,714.884 1774.99,715.234 1777.73,716.386C1789.74,721.441 1785.62,733.956 1779.17,741.97C1773.78,748.676 1768.01,755.072 1762.24,761.45C1753.66,770.92 1745.07,780.379 1736.13,789.507C1726.74,799.098 1716.96,808.3 1707.27,817.589C1688.27,835.802 1668.69,853.421 1650.06,872.01C1650.02,872.047 1649.98,872.083 1649.94,872.117C1649.99,872.214 1649.94,872.253 1649.79,872.229C1646.55,874.343 1633.24,868.693 1618.4,861.617C1568.05,848.406 1477.35,835.467 1409.42,836.07C1336.81,836.721 1247.6,856.885 1202.68,876.138C1199.66,877.598 1196.68,878.974 1193.86,880.193C1189.74,882.233 1172.41,893.014 1179.78,890.958C1175.91,892.036 1141.71,860.308 1129.26,844.107C1124.16,837.461 1119.11,830.733 1113.41,824.589C1102.5,812.823 1090.57,802.036 1079.48,790.439C1068.38,778.841 1057.52,767.02 1046.87,755.017C1041.41,748.867 1028.36,736.269 1030.61,725.516C1033.12,713.502 1048.79,714.736 1057.4,716.74C1085.41,723.261 1113.24,735.146 1142.57,734.876C1185.87,734.477 1235.49,652.034 1237.67,648.511" style="fill:rgb(49,50,61);stroke:rgb(49,50,61);stroke-width:16.55px;"/>
        </g>
        <g transform="matrix(1,0,0,1,111.749,-3587.49)">
            <path id="dp_path005" d="M1268.01,4251.5C1280.45,4248.8 1289.27,4247.14 1298.89,4247.25C1307.15,4247.35 1318.4,4252.11 1324.75,4249.91C1341.81,4243.99 1359.17,4224.35 1371.73,4218.68C1391.15,4209.93 1388.35,4228.68 1384.36,4239.87C1383.77,4241.51 1382.48,4244.68 1380.89,4248.12C1378.06,4254.23 1376.6,4259.04 1373.17,4262.86C1371.48,4264.75 1369.84,4261.71 1368.76,4264C1367.87,4266.91 1371.23,4266.45 1370.53,4269.41C1369.21,4275.05 1363.44,4277.45 1362.95,4285.29C1362.61,4290.63 1367.2,4295.74 1367.82,4298.25C1371.25,4312.25 1366.64,4332.91 1359.51,4341.25C1355,4346.52 1349.19,4347.88 1341.66,4354.37C1339.76,4356.01 1336.83,4360.47 1333.51,4362.75C1329.17,4365.74 1324.07,4366.63 1319.18,4369.76C1314.38,4372.82 1311.71,4376.85 1304.82,4379.32C1288.95,4385 1267.31,4370.39 1256.36,4361.21C1253.54,4358.83 1250.61,4359.31 1247.92,4357.98C1243.17,4355.63 1239.34,4349.11 1237.33,4344.15C1235.54,4339.75 1226.21,4309.84 1225.93,4305.15C1225.33,4294.93 1232.82,4290.48 1229.01,4281.5C1227.54,4278.03 1224.86,4277.41 1223.98,4272.86C1223.1,4268.3 1227.06,4268.18 1224.91,4263.48C1223.25,4259.84 1221.29,4261.82 1219.38,4259.19C1213.96,4251.7 1209.97,4243.55 1208.31,4237.48C1206.91,4232.34 1206.02,4228.56 1205.71,4223.29C1205.64,4222.16 1205.53,4218.39 1207.99,4216.9C1210.87,4215.15 1214.36,4215.6 1216.68,4216.57C1235.2,4224.27 1249.75,4243.22 1268.01,4251.5Z" style="fill:white;stroke:white;stroke-width:3.07px;stroke-linejoin:miter;"/>
            <path id="dp_path006" d="M1317.51,4307C1317.3,4306.16 1316.88,4304.48 1317.51,4303.5C1318.64,4301.75 1321.97,4298.33 1324.26,4296.5C1326.36,4294.82 1328.76,4293.46 1331.26,4292.5C1333.76,4291.54 1337.26,4290.21 1339.26,4290.75C1341.26,4291.29 1342.39,4293.8 1343.26,4295.75C1344.14,4297.71 1344.89,4300.24 1344.51,4302.5C1344.09,4304.96 1342.64,4308.46 1340.76,4310.5C1338.89,4312.54 1335.8,4313.92 1333.26,4314.75C1330.79,4315.56 1327.84,4316.65 1325.51,4315.5C1322.89,4314.21 1319.3,4309.4 1317.51,4307Z" style="fill:rgb(49,50,61);stroke:rgb(49,50,61);stroke-width:3.07px;stroke-linejoin:miter;"/>
            <path id="dp_path007" d="M1276.76,4309.75C1277.39,4308.22 1278.64,4305.17 1278.01,4303.25C1277.39,4301.33 1274.84,4299.73 1273.01,4298.25C1270.59,4296.29 1266.55,4292.63 1263.51,4291.5C1260.78,4290.49 1256.68,4290.37 1254.76,4291.5C1252.84,4292.63 1252.49,4295.87 1252.01,4298.25C1251.47,4300.96 1250.59,4305.04 1251.51,4307.75C1252.43,4310.46 1254.82,4313.15 1257.51,4314.5C1260.35,4315.92 1265.3,4317.04 1268.51,4316.25C1271.72,4315.46 1275.08,4311.65 1276.76,4309.75Z" style="fill:rgb(49,50,61);stroke:rgb(49,50,61);stroke-width:3.07px;stroke-linejoin:miter;"/>
            <path id="dp_path008" d="M1285.51,4342.75C1292.35,4342.51 1306.01,4342.04 1309.76,4342.75C1311.27,4343.03 1309.01,4346.17 1308.01,4347C1307.01,4347.83 1304.72,4346.83 1303.76,4347.75C1302.8,4348.67 1303.1,4351.07 1302.26,4352.5C1301.26,4354.21 1299.47,4358.13 1297.76,4358C1296.05,4357.87 1292.8,4353.17 1292.01,4351.75C1291.61,4351.03 1293.57,4350.1 1293.01,4349.5C1291.68,4348.08 1285.26,4344.37 1284.01,4343.25C1283.62,4342.9 1284.88,4342.8 1285.51,4342.75Z" style="fill:rgb(49,50,61);stroke:rgb(49,50,61);stroke-width:3.07px;stroke-linejoin:miter;"/>
            <path id="dp_path009" d="M1363.11,4292.18C1369.78,4289.56 1380.45,4286.45 1384.35,4281.83C1387.41,4278.2 1385.77,4276.24 1386.25,4273.78C1388.29,4263.29 1394.17,4255.16 1403.82,4253.24C1416.4,4250.73 1415.09,4269.39 1414.02,4274.37C1413.34,4277.52 1409.76,4278.35 1411.17,4280.99C1412.67,4283.83 1415.2,4283.28 1416.13,4283.61C1422.69,4285.94 1432.09,4293.66 1432.2,4302.24C1432.22,4303.64 1432.58,4305.21 1430.77,4307.18C1424.08,4314.47 1408.1,4311.19 1401.41,4307.88C1399.19,4306.78 1398.94,4303.56 1395.45,4304.01C1390.53,4304.65 1387.36,4308.21 1384.38,4309.66C1379.94,4311.8 1374.9,4313.24 1369.68,4316.26C1368.06,4317.19 1363.99,4321.85 1361.31,4321.45C1359.74,4321 1360.01,4318.73 1360.11,4315.93C1360.35,4309.06 1361.67,4301.04 1363.11,4292.18Z" style="fill:white;stroke:white;stroke-width:3.07px;stroke-linejoin:miter;"/>
            <path id="dp_path010" d="M1384.76,4391.02C1380.9,4384.84 1379.97,4383.4 1378.77,4378.57C1377.89,4375.07 1379.72,4371.98 1376.83,4368.6C1373.54,4364.77 1363.34,4362.27 1358.51,4360.12C1357.44,4359.64 1350.43,4354.63 1348.53,4351.57C1345.68,4347.03 1350.98,4332.26 1351.22,4331.23C1352.07,4327.6 1355.3,4327.89 1357.17,4328.55C1360.67,4329.79 1385.19,4345.43 1387.51,4345.35C1390.39,4345.25 1389.79,4343.67 1392.55,4342.84C1400.83,4340.34 1415.71,4334.97 1422.69,4343.75C1424.62,4346.17 1424.71,4349.24 1424.3,4351.59C1423.72,4354.9 1421.71,4357.35 1420.01,4358.98C1417.96,4360.95 1416.62,4362.48 1413.02,4363.96C1411.51,4364.58 1403.96,4364.5 1402.09,4367.09C1400.87,4368.78 1405.79,4373.17 1405.92,4376.21C1406.31,4385.93 1402.61,4398.17 1395.67,4397.17C1390.74,4396.46 1389.15,4394.12 1384.76,4391.02Z" style="fill:white;stroke:white;stroke-width:3.07px;stroke-linejoin:miter;"/>
            <path id="dp_path011" d="M1234.91,4333.75C1230.87,4336.02 1225.61,4338.97 1222.59,4340.97C1218.37,4343.75 1212.71,4349.34 1207.84,4350.35C1204.55,4351.02 1204.42,4348.9 1201.77,4348.44C1194.6,4347.21 1177.57,4345.11 1172.16,4349.51C1160.37,4359.1 1177.3,4370.99 1181.6,4373.2C1183.24,4374.04 1189.54,4373.53 1190.23,4374.83C1191.96,4378.14 1188.96,4382.37 1188.97,4385.13C1188.97,4391.24 1190.15,4392.1 1191.98,4396.04C1193.98,4400.37 1199.15,4403.87 1203.16,4403.66C1212.03,4403.21 1218.31,4381.3 1219.07,4377.34C1219.48,4375.21 1217.37,4375.23 1218.4,4372.98C1219.33,4370.94 1225.68,4366.77 1229.58,4364.91C1230.45,4364.49 1241.45,4360.43 1242.47,4357.55C1244.53,4351.73 1235.7,4341.41 1234.91,4333.75Z" style="fill:white;stroke:white;stroke-width:3.07px;stroke-linejoin:miter;"/>
            <path id="dp_path012" d="M1230.55,4287.96C1225.18,4286.79 1212.12,4285.27 1208.82,4281.08C1206.51,4278.15 1208.77,4273.7 1208.44,4270.76C1207.54,4262.62 1198.34,4255.48 1190.12,4253.27C1182.65,4251.26 1178.84,4258.69 1177.64,4261.93C1174.7,4269.87 1184.2,4278.51 1182.4,4283.52C1181.39,4286.35 1177.45,4285.11 1175.57,4286.24C1172.62,4288 1169.4,4289.29 1166.51,4292.67C1163.26,4296.47 1160.7,4300.61 1162.88,4306.73C1163.41,4308.2 1163.35,4309.75 1166.46,4312.33C1169.04,4314.47 1172.53,4314.33 1172.56,4314.34C1173.01,4314.39 1173.45,4314.42 1173.9,4314.45C1179.75,4314.81 1180.87,4315.16 1185.52,4313.35C1189.39,4311.84 1197.16,4303.84 1203.8,4305.84C1206.17,4306.55 1219.59,4311.24 1222.88,4313.45C1225.38,4315.14 1225.95,4316.4 1227.64,4317.95C1228.27,4318.52 1229.19,4319.41 1229.95,4319.03C1231.91,4317.73 1230.79,4293.35 1230.55,4287.96Z" style="fill:white;stroke:white;stroke-width:3.07px;stroke-linejoin:miter;"/>
        </g>
    </g>
</svg>
