<?xml version="1.0" encoding="UTF-8" standalone="no"?>
<!DOCTYPE svg PUBLIC "-//W3C//DTD SVG 1.1//EN" "http://www.w3.org/Graphics/SVG/1.1/DTD/svg11.dtd">
<svg width="100%" height="100%" viewBox="0 0 3000 3000" version="1.1" xmlns="http://www.w3.org/2000/svg" xmlns:xlink="http://www.w3.org/1999/xlink" xml:space="preserve" xmlns:serif="http://www.serif.com/" style="fill-rule:evenodd;clip-rule:evenodd;stroke-linecap:round;stroke-linejoin:round;stroke-miterlimit:1.5;">
    <g transform="matrix(3.17959,0,0,3.25941,-618.367,-539.749)">
        <rect x="194.48" y="165.597" width="943.517" height="920.411" style="fill:none;"/>
    </g>
    <g transform="matrix(1,0,0,1,-1501.93,15.5853)">
        <g id="soccerball">
            <g>
                <g transform="matrix(1.01639,0,0,0.851852,808.875,445.993)">
                    <ellipse cx="1410.63" cy="2915.95" rx="244" ry="54" style="fill:rgb(49,50,61);fill-opacity:0.294118;"/>
                </g>
                <g transform="matrix(0.961545,0,0,0.961545,1584.48,181.349)">
                    <g transform="matrix(1.106,-0.0792114,0.080872,1.12918,-399.735,-329.483)">
                        <ellipse cx="813.567" cy="2586.07" rx="324.667" ry="318" style="fill:white;stroke:rgb(49,50,61);stroke-width:9.28px;"/>
                    </g>
                    <g transform="matrix(0.997445,-0.071437,0.071437,0.997445,-227.542,65.4473)">
                        <path d="M689.682,2277.62C729.899,2251.38 771.996,2228.07 816.348,2208.29" style="fill:none;stroke:rgb(177,177,190);stroke-width:5.17px;stroke-dasharray:5.17,5.17;"/>
                        <path d="M552.348,2226.29C553.461,2244.63 557.755,2263.05 562.348,2281.62" style="fill:none;stroke:rgb(177,177,190);stroke-width:5.17px;stroke-dasharray:5.17,5.17;"/>
                        <path d="M415.682,2487.62C437.665,2459.23 462.819,2434.54 493.682,2411.62" style="fill:none;stroke:rgb(177,177,190);stroke-width:5.17px;stroke-dasharray:5.17,5.17;"/>
                        <path d="M585.015,2484.95C583.349,2540.55 587.515,2596.11 603.015,2651.62" style="fill:none;stroke:rgb(177,177,190);stroke-width:5.17px;stroke-dasharray:5.17,5.17;"/>
                        <path d="M528.348,2718.95C490.163,2703.29 460.16,2675.61 433.015,2636.29" style="fill:none;stroke:rgb(177,177,190);stroke-width:5.17px;stroke-dasharray:5.17,5.17;"/>
                        <path d="M597.015,2841.62C604.108,2837.39 608.454,2832.83 611.015,2824.95" style="fill:none;stroke:rgb(177,177,190);stroke-width:5.17px;stroke-dasharray:5.17,5.17;"/>
                        <path d="M743.682,2818.95C784.805,2833.24 826.234,2840.69 867.682,2846.29" style="fill:none;stroke:rgb(177,177,190);stroke-width:5.17px;stroke-dasharray:5.17,5.17;"/>
                        <path d="M713.015,2398.29L863.015,2468.29" style="fill:none;stroke:rgb(177,177,190);stroke-width:5.17px;stroke-dasharray:5.17,5.17;"/>
                        <path d="M743.015,2714.29C793.393,2689.11 836.805,2658.08 875.682,2620.95" style="fill:none;stroke:rgb(177,177,190);stroke-width:5.17px;stroke-dasharray:5.17,5.17;"/>
                        <path d="M1001.68,2650.95C1005.81,2680.95 1002.41,2717.57 994.348,2758.29" style="fill:none;stroke:rgb(177,177,190);stroke-width:5.17px;stroke-dasharray:5.17,5.17;"/>
                        <path d="M978.348,2405.62C975.867,2353.42 968.02,2307.85 951.015,2273.62" style="fill:none;stroke:rgb(177,177,190);stroke-width:5.17px;stroke-dasharray:5.17,5.17;"/>
                        <path d="M1065.02,2515.62C1084.59,2511.33 1103.87,2503.42 1115.85,2496.95" style="fill:none;stroke:rgb(177,177,190);stroke-width:5.17px;stroke-dasharray:5.17,5.17;"/>
                    </g>
                    <g transform="matrix(0.997445,-0.071437,0.071437,0.997445,-227.542,65.4473)">
                        <g transform="matrix(1,0,0,1,1.04124,0.956981)">
                            <path d="M560.901,2280.07C587.5,2271.39 643.541,2272.52 690.234,2276.07L711.567,2399.4L584.901,2485.4L494.234,2410.07C510.634,2364.99 533.264,2321.44 560.901,2280.07Z" style="fill:rgb(49,50,61);stroke:rgb(49,50,61);stroke-width:10.4px;"/>
                        </g>
                        <path d="M861.567,2467.4L976.901,2406.73C1008.99,2442 1038.13,2478.22 1062.23,2516.07C1046.04,2562.08 1025.71,2606.14 1000.9,2648.07C958.943,2643.79 917.212,2634.25 875.567,2622.73L861.567,2467.4Z" style="fill:rgb(49,50,61);stroke:rgb(49,50,61);stroke-width:10.4px;"/>
                        <path d="M528.901,2717.4C553.519,2693.05 577.958,2670.43 602.234,2649.4C648.134,2677.48 694.92,2698.28 742.234,2714.73C744.636,2749.43 744.775,2784.4 743.567,2817.4C727.883,2826.79 683.02,2827.98 613.567,2824.73C576.449,2789.28 548.296,2753.49 528.901,2717.4Z" style="fill:rgb(49,50,61);stroke:rgb(49,50,61);stroke-width:10.4px;"/>
                        <path d="M403.567,2460.07C406.608,2470.97 410.165,2481.14 415.567,2488.73C415.188,2537.24 419.536,2587.47 431.567,2634.07L423.567,2650.73C401.113,2584.73 395.168,2521.29 403.567,2460.07Z" style="fill:rgb(49,50,61);stroke:rgb(49,50,61);stroke-width:10.4px;"/>
                        <path d="M801.567,2164.73L818.234,2210.07L951.567,2272.73C969.678,2267.8 989.451,2267.14 1006.9,2262.73C947.226,2203.74 876.998,2176.43 801.567,2164.73Z" style="fill:rgb(49,50,61);stroke:rgb(49,50,61);stroke-width:10.4px;"/>
                        <path d="M867.567,2864.07L867.567,2845.4L994.901,2758.73C1011.62,2755.4 1027.76,2749.2 1043.57,2741.4C996.226,2796.62 938.04,2838.12 867.567,2864.07Z" style="fill:rgb(49,50,61);stroke:rgb(49,50,61);stroke-width:10.4px;"/>
                    </g>
                    <g transform="matrix(1.03952,-0.0313276,0.0333133,1.10541,-885.327,-303.863)">
                        <path d="M1136.46,2717.91C1129.84,2706.48 1144.05,2772.73 1163.97,2777.95C1163.38,2788.81 1241.12,2863.91 1273.3,2877.95C1313.46,2895.47 1349.26,2914.5 1381.3,2919.29C1409.02,2923.43 1443.97,2923.51 1465.3,2923.29C1480.07,2923.13 1549.5,2911.24 1539.06,2908.58C1528.61,2905.91 1427.64,2911.72 1402.63,2907.29C1363.16,2900.29 1305.81,2882.01 1296.9,2877.22C1276.81,2866.41 1218.42,2818.4 1212.89,2814.23C1202.35,2806.28 1142.54,2728.43 1136.46,2717.91Z" style="fill:rgb(49,50,61);fill-opacity:0.290196;"/>
                    </g>
                    <g transform="matrix(0.968392,-0.0754042,0.0807351,1.03685,-865.808,-20.1088)">
                        <path d="M1564.46,2258.56C1567.94,2258.08 1628.49,2291.39 1649.3,2305.95C1664.75,2316.77 1677.06,2331.61 1689.3,2345.95C1704.86,2364.18 1728.86,2393.73 1742.63,2415.29C1754.62,2434.05 1761.97,2456.01 1771.97,2475.29C1786.5,2503.3 1797.72,2589.98 1789.3,2584.62C1787.42,2583.42 1765.97,2502.62 1754.63,2473.95C1746.08,2452.31 1734.36,2431.88 1721.3,2412.62C1707.74,2392.62 1688.78,2371.24 1673.3,2353.95C1659.16,2338.16 1644.37,2322.86 1628.42,2308.88C1610.28,2292.98 1560.98,2259.05 1564.46,2258.56Z" style="fill:white;fill-opacity:0.290196;"/>
                    </g>
                    <g transform="matrix(1.106,-0.0792114,0.080872,1.12918,-399.735,-329.483)">
                        <ellipse cx="813.567" cy="2586.07" rx="324.667" ry="318" style="fill:none;stroke:rgb(49,50,61);stroke-width:9.28px;"/>
                    </g>
                </g>
            </g>
        </g>
    </g>
</svg>
