<?xml version="1.0" encoding="UTF-8" standalone="no"?>
<!DOCTYPE svg PUBLIC "-//W3C//DTD SVG 1.1//EN" "http://www.w3.org/Graphics/SVG/1.1/DTD/svg11.dtd">
<svg width="100%" height="100%" viewBox="0 0 3000 3000" version="1.1" xmlns="http://www.w3.org/2000/svg" xmlns:xlink="http://www.w3.org/1999/xlink" xml:space="preserve" xmlns:serif="http://www.serif.com/" style="fill-rule:evenodd;clip-rule:evenodd;stroke-linejoin:round;">
    <g id="stars-background" serif:id="stars background" transform="matrix(1,0,0,1,-32.287,-3577.95)">
        <g id="dp_path002" transform="matrix(1,0,0,1,-171.439,-113.305)">
            <path d="M379.604,3890.51C357.495,3874.7 471.667,3906.65 495.476,3890.52C519.285,3874.38 513.201,3793.69 522.461,3793.69C531.721,3793.69 529.075,3872 551.032,3890.51C572.989,3909.03 651.276,3896.41 654.207,3904.8C657.645,3914.65 581.024,3927.52 568.492,3947.66C553.644,3971.52 616.951,4055.07 611.349,4061.94C604.331,4070.56 550.768,3990.78 522.461,3988.93C494.155,3987.08 449.709,4056.92 441.508,4050.83C433.307,4044.75 486.427,3976.11 473.255,3952.42C462.448,3932.98 402.577,3906.95 379.604,3890.51Z" style="fill:url(#_Radial1);stroke:rgb(49,50,61);stroke-width:11px;"/>
        </g>
        <g id="dp_path0021" serif:id="dp_path002" transform="matrix(1,0,0,1,1736,520)">
            <path d="M379.604,3890.51C357.495,3874.7 471.667,3906.65 495.476,3890.52C519.285,3874.38 513.201,3793.69 522.461,3793.69C531.721,3793.69 529.075,3872 551.032,3890.51C572.989,3909.03 651.276,3896.41 654.207,3904.8C657.645,3914.65 581.024,3927.52 568.492,3947.66C553.644,3971.52 616.951,4055.07 611.349,4061.94C604.331,4070.56 550.768,3990.78 522.461,3988.93C494.155,3987.08 449.709,4056.92 441.508,4050.83C433.307,4044.75 486.427,3976.11 473.255,3952.42C462.448,3932.98 402.577,3906.95 379.604,3890.51Z" style="fill:url(#_Radial2);stroke:rgb(49,50,61);stroke-width:11px;"/>
        </g>
        <g id="dp_path004" transform="matrix(1,0,0,1,129.305,134.463)">
            <path d="M1505,3817.5C1482.89,3801.68 1609.02,3838.43 1639.23,3821.77C1669.43,3805.1 1676.99,3717.5 1686.25,3717.5C1695.51,3717.5 1672.91,3803.01 1694.78,3821.76C1716.66,3840.51 1814.57,3821.6 1817.5,3830C1820.94,3839.85 1724.77,3858.77 1712.24,3878.91C1697.39,3902.77 1791.85,3998.12 1786.25,4005C1779.23,4013.62 1702.67,3917.05 1666.21,3920.18C1629.75,3923.3 1575.7,4029.83 1567.5,4023.75C1559.3,4017.66 1630.18,3907.36 1617,3883.67C1606.2,3864.23 1527.97,3833.94 1505,3817.5Z" style="fill:rgb(250,221,16);stroke:rgb(49,50,61);stroke-width:11px;"/>
        </g>
        <g id="dp_path006" transform="matrix(1,0,0,1,129.219,-149.426)">
            <path d="M2284.15,3850.75C2275.41,3844.49 2320.59,3857.13 2330.01,3850.75C2339.43,3844.36 2337.03,3812.44 2340.69,3812.44C2344.35,3812.44 2343.31,3843.42 2352,3850.75C2360.69,3858.07 2391.67,3853.08 2392.83,3856.4C2394.19,3860.3 2363.87,3865.39 2358.91,3873.35C2353.03,3882.79 2378.09,3915.85 2375.87,3918.57C2373.09,3921.98 2351.89,3890.41 2340.69,3889.68C2329.49,3888.95 2311.9,3916.58 2308.65,3914.17C2305.41,3911.77 2326.43,3884.61 2321.22,3875.24C2316.94,3867.55 2293.25,3857.25 2284.15,3850.75Z" style="fill:rgb(255,239,133);stroke:rgb(49,50,61);stroke-width:11px;"/>
        </g>
        <g id="dp_path007" transform="matrix(1,0,0,1,377.279,-189.512)">
            <path d="M721.652,4357C712.903,4350.74 758.085,4363.38 767.508,4357C776.931,4350.61 774.523,4318.69 778.188,4318.69C781.852,4318.69 780.805,4349.67 789.495,4357C798.184,4364.32 829.167,4359.33 830.327,4362.65C831.687,4366.55 801.364,4371.64 796.404,4379.6C790.528,4389.04 815.583,4422.1 813.365,4424.82C810.588,4428.23 789.391,4396.66 778.188,4395.93C766.985,4395.2 749.396,4422.83 746.151,4420.42C742.905,4418.01 763.927,4390.86 758.715,4381.49C754.437,4373.8 730.744,4363.5 721.652,4357Z" style="fill:rgb(255,239,133);stroke:rgb(49,50,61);stroke-width:11px;"/>
        </g>
        <g id="dp_path008" transform="matrix(1,0,0,1,36,-96)">
            <path d="M2640.4,4407C2631.65,4400.74 2676.84,4413.38 2686.26,4407C2695.68,4400.61 2693.27,4368.69 2696.94,4368.69C2700.6,4368.69 2699.56,4399.67 2708.25,4407C2716.93,4414.32 2747.92,4409.33 2749.08,4412.65C2750.44,4416.55 2720.11,4421.64 2715.15,4429.6C2709.28,4439.04 2734.33,4472.1 2732.12,4474.82C2729.34,4478.23 2708.14,4446.66 2696.94,4445.93C2685.74,4445.2 2668.15,4472.83 2664.9,4470.42C2661.66,4468.01 2682.68,4440.86 2677.47,4431.49C2673.19,4423.8 2649.49,4413.5 2640.4,4407Z" style="fill:rgb(250,221,16);stroke:rgb(49,50,61);stroke-width:11px;"/>
        </g>
        <g id="dp_path009" transform="matrix(1,0,0,1,-77.7193,-1.45133)">
            <path d="M227.904,4888.25C219.155,4881.99 264.337,4894.63 273.76,4888.25C283.183,4881.86 280.775,4849.94 284.44,4849.94C288.104,4849.94 287.057,4880.92 295.747,4888.25C304.436,4895.57 335.419,4890.58 336.579,4893.9C337.939,4897.8 307.616,4902.89 302.656,4910.85C296.78,4920.29 321.835,4953.35 319.617,4956.07C316.84,4959.48 295.643,4927.91 284.44,4927.18C273.237,4926.45 255.648,4954.08 252.403,4951.67C249.157,4949.26 270.179,4922.11 264.967,4912.74C260.689,4905.05 236.996,4894.75 227.904,4888.25Z" style="fill:rgb(255,239,133);stroke:rgb(49,50,61);stroke-width:11px;"/>
        </g>
        <g id="dp_path011" transform="matrix(1,0,0,1,-36,16)">
            <path d="M715.405,5375.74C706.656,5369.49 751.839,5382.13 761.261,5375.74C770.684,5369.36 768.276,5337.44 771.941,5337.44C775.605,5337.44 774.559,5368.42 783.248,5375.74C791.937,5383.07 822.92,5378.07 824.08,5381.4C825.44,5385.29 795.117,5390.38 790.157,5398.35C784.281,5407.79 809.336,5440.85 807.119,5443.57C804.341,5446.98 783.144,5415.41 771.941,5414.68C760.739,5413.95 743.149,5441.58 739.904,5439.17C736.659,5436.76 757.68,5409.61 752.468,5400.23C748.191,5392.55 724.497,5382.25 715.405,5375.74Z" style="fill:rgb(255,239,133);stroke:rgb(49,50,61);stroke-width:11px;"/>
        </g>
        <g id="dp_path0111" serif:id="dp_path011" transform="matrix(1,0,0,1,-144,-436)">
            <path d="M715.405,5375.74C706.656,5369.49 751.839,5382.13 761.261,5375.74C770.684,5369.36 768.276,5337.44 771.941,5337.44C775.605,5337.44 774.559,5368.42 783.248,5375.74C791.937,5383.07 822.92,5378.07 824.08,5381.4C825.44,5385.29 795.117,5390.38 790.157,5398.35C784.281,5407.79 809.336,5440.85 807.119,5443.57C804.341,5446.98 783.144,5415.41 771.941,5414.68C760.739,5413.95 743.149,5441.58 739.904,5439.17C736.659,5436.76 757.68,5409.61 752.468,5400.23C748.191,5392.55 724.497,5382.25 715.405,5375.74Z" style="fill:rgb(250,221,16);stroke:rgb(49,50,61);stroke-width:11px;"/>
        </g>
        <g id="dp_path0112" serif:id="dp_path011" transform="matrix(1,0,0,1,1648,-504)">
            <path d="M715.405,5375.74C706.656,5369.49 751.839,5382.13 761.261,5375.74C770.684,5369.36 768.276,5337.44 771.941,5337.44C775.605,5337.44 774.559,5368.42 783.248,5375.74C791.937,5383.07 822.92,5378.07 824.08,5381.4C825.44,5385.29 795.117,5390.38 790.157,5398.35C784.281,5407.79 809.336,5440.85 807.119,5443.57C804.341,5446.98 783.144,5415.41 771.941,5414.68C760.739,5413.95 743.149,5441.58 739.904,5439.17C736.659,5436.76 757.68,5409.61 752.468,5400.23C748.191,5392.55 724.497,5382.25 715.405,5375.74Z" style="fill:rgb(255,239,133);stroke:rgb(49,50,61);stroke-width:11px;"/>
        </g>
        <g id="dp_path0113" serif:id="dp_path011" transform="matrix(1,0,0,1,-596,-1068)">
            <path d="M715.405,5375.74C706.656,5369.49 751.839,5382.13 761.261,5375.74C770.684,5369.36 768.276,5337.44 771.941,5337.44C775.605,5337.44 774.559,5368.42 783.248,5375.74C791.937,5383.07 822.92,5378.07 824.08,5381.4C825.44,5385.29 795.117,5390.38 790.157,5398.35C784.281,5407.79 809.336,5440.85 807.119,5443.57C804.341,5446.98 783.144,5415.41 771.941,5414.68C760.739,5413.95 743.149,5441.58 739.904,5439.17C736.659,5436.76 757.68,5409.61 752.468,5400.23C748.191,5392.55 724.497,5382.25 715.405,5375.74Z" style="fill:rgb(250,221,16);stroke:rgb(49,50,61);stroke-width:11px;"/>
        </g>
        <g id="dp_path013" transform="matrix(1,0,0,1,-104,344)">
            <path d="M2234.15,4913.25C2225.4,4906.99 2270.59,4919.63 2280.01,4913.25C2289.43,4906.86 2287.02,4874.94 2290.69,4874.94C2294.35,4874.94 2293.31,4905.92 2301.99,4913.25C2310.68,4920.57 2341.67,4915.58 2342.83,4918.9C2344.19,4922.8 2313.86,4927.89 2308.9,4935.85C2303.03,4945.29 2328.08,4978.35 2325.87,4981.07C2323.09,4984.48 2301.89,4952.91 2290.69,4952.18C2279.49,4951.45 2261.9,4979.08 2258.65,4976.67C2255.41,4974.27 2276.43,4947.11 2271.21,4937.74C2266.94,4930.05 2243.24,4919.75 2234.15,4913.25Z" style="fill:rgb(250,221,16);stroke:rgb(49,50,61);stroke-width:11px;"/>
        </g>
        <g id="dp_path0131" serif:id="dp_path013" transform="matrix(1,0,0,1,-71.6966,-912.329)">
            <path d="M2234.15,4913.25C2225.4,4906.99 2270.59,4919.63 2280.01,4913.25C2289.43,4906.86 2287.02,4874.94 2290.69,4874.94C2294.35,4874.94 2293.31,4905.92 2301.99,4913.25C2310.68,4920.57 2341.67,4915.58 2342.83,4918.9C2344.19,4922.8 2313.86,4927.89 2308.9,4935.85C2303.03,4945.29 2328.08,4978.35 2325.87,4981.07C2323.09,4984.48 2301.89,4952.91 2290.69,4952.18C2279.49,4951.45 2261.9,4979.08 2258.65,4976.67C2255.41,4974.27 2276.43,4947.11 2271.21,4937.74C2266.94,4930.05 2243.24,4919.75 2234.15,4913.25Z" style="fill:rgb(250,221,16);stroke:rgb(49,50,61);stroke-width:11px;"/>
        </g>
        <g id="dp_path0132" serif:id="dp_path013" transform="matrix(1,0,0,1,-792.303,-1284.01)">
            <path d="M2234.15,4913.25C2225.4,4906.99 2270.59,4919.63 2280.01,4913.25C2289.43,4906.86 2287.02,4874.94 2290.69,4874.94C2294.35,4874.94 2293.31,4905.92 2301.99,4913.25C2310.68,4920.57 2341.67,4915.58 2342.83,4918.9C2344.19,4922.8 2313.86,4927.89 2308.9,4935.85C2303.03,4945.29 2328.08,4978.35 2325.87,4981.07C2323.09,4984.48 2301.89,4952.91 2290.69,4952.18C2279.49,4951.45 2261.9,4979.08 2258.65,4976.67C2255.41,4974.27 2276.43,4947.11 2271.21,4937.74C2266.94,4930.05 2243.24,4919.75 2234.15,4913.25Z" style="fill:rgb(250,221,16);stroke:rgb(49,50,61);stroke-width:11px;"/>
        </g>
        <g id="dp_path014" transform="matrix(1,0,0,1,-76,32)">
            <path d="M248.468,5388.78C234.58,5378.83 314.129,5391.56 330.899,5376.55C347.669,5361.55 343.269,5298.75 349.087,5298.75C354.904,5298.75 348.147,5360.66 365.8,5376.55C383.452,5392.44 453.16,5388.79 455.001,5394.07C457.161,5400.27 384.64,5399.83 376.767,5412.49C367.44,5427.5 421.451,5500.96 417.931,5505.29C413.521,5510.71 368.007,5443.1 347.851,5438.45C327.695,5433.81 302.148,5481.22 296.996,5477.39C291.844,5473.57 325.215,5430.39 316.94,5415.49C310.151,5403.26 262.9,5399.12 248.468,5388.78Z" style="fill:rgb(250,221,16);stroke:rgb(49,50,61);stroke-width:11px;"/>
        </g>
        <g id="dp_path015" transform="matrix(1,0,0,1,2.13401,-107.171)">
            <path d="M2828.46,4013.78C2842.34,4003.83 2762.79,4016.56 2746.03,4001.55C2729.25,3986.55 2733.65,3923.75 2727.84,3923.75C2722.02,3923.75 2728.78,3985.66 2711.12,4001.55C2693.47,4017.44 2623.76,4013.79 2621.92,4019.07C2619.76,4025.27 2692.28,4024.83 2700.16,4037.49C2709.48,4052.5 2655.47,4125.96 2658.99,4130.29C2663.4,4135.71 2708.92,4068.1 2729.07,4063.45C2749.23,4058.81 2774.78,4106.22 2779.93,4102.39C2785.08,4098.57 2751.71,4055.39 2759.98,4040.49C2766.77,4028.26 2814.02,4024.12 2828.46,4013.78Z" style="fill:rgb(250,221,16);stroke:rgb(49,50,61);stroke-width:11px;"/>
        </g>
        <g id="dp_path016" transform="matrix(1,0,0,1,232,-72)">
            <path d="M428.455,4482.53C442.343,4472.58 362.793,4485.31 346.024,4470.3C329.253,4455.3 333.653,4392.5 327.836,4392.5C322.019,4392.5 328.776,4454.41 311.123,4470.3C293.471,4486.19 223.763,4482.54 221.921,4487.83C219.761,4494.02 292.283,4493.58 300.156,4506.25C309.483,4521.25 255.472,4594.71 258.992,4599.04C263.401,4604.46 308.916,4536.85 329.072,4532.21C349.228,4527.56 374.775,4574.97 379.927,4571.14C385.079,4567.32 351.708,4524.14 359.983,4509.24C366.772,4497.01 414.023,4492.87 428.455,4482.53Z" style="fill:rgb(250,221,16);stroke:rgb(49,50,61);stroke-width:11px;"/>
        </g>
        <g id="dp_path0114" serif:id="dp_path011" transform="matrix(1,0,0,1,2020,-164)">
            <path d="M715.405,5375.74C706.656,5369.49 751.839,5382.13 761.261,5375.74C770.684,5369.36 768.276,5337.44 771.941,5337.44C775.605,5337.44 774.559,5368.42 783.248,5375.74C791.937,5383.07 822.92,5378.07 824.08,5381.4C825.44,5385.29 795.117,5390.38 790.157,5398.35C784.281,5407.79 809.336,5440.85 807.119,5443.57C804.341,5446.98 783.144,5415.41 771.941,5414.68C760.739,5413.95 743.149,5441.58 739.904,5439.17C736.659,5436.76 757.68,5409.61 752.468,5400.23C748.191,5392.55 724.497,5382.25 715.405,5375.74Z" style="fill:rgb(250,221,16);stroke:rgb(49,50,61);stroke-width:11px;"/>
        </g>
        <g id="dp_path0161" serif:id="dp_path016" transform="matrix(1,0,0,1,2300,1048)">
            <path d="M428.455,4482.53C442.343,4472.58 362.793,4485.31 346.024,4470.3C329.253,4455.3 333.653,4392.5 327.836,4392.5C322.019,4392.5 328.776,4454.41 311.123,4470.3C293.471,4486.19 223.763,4482.54 221.921,4487.83C219.761,4494.02 292.283,4493.58 300.156,4506.25C309.483,4521.25 255.472,4594.71 258.992,4599.04C263.401,4604.46 308.916,4536.85 329.072,4532.21C349.228,4527.56 374.775,4574.97 379.927,4571.14C385.079,4567.32 351.708,4524.14 359.983,4509.24C366.772,4497.01 414.023,4492.87 428.455,4482.53Z" style="fill:rgb(250,221,16);stroke:rgb(49,50,61);stroke-width:11px;"/>
        </g>
        <g id="dp_path017" transform="matrix(1,0,0,1,120.89,-24.2073)">
            <path d="M2648.47,4782.53C2634.58,4772.58 2714.13,4785.31 2730.9,4770.3C2747.67,4755.3 2743.27,4692.5 2749.09,4692.5C2754.9,4692.5 2748.15,4754.41 2765.8,4770.3C2783.45,4786.19 2853.16,4782.54 2855,4787.82C2857.16,4794.02 2784.64,4793.58 2776.77,4806.24C2767.44,4821.25 2821.45,4894.71 2817.93,4899.04C2813.52,4904.46 2768.01,4836.85 2747.85,4832.2C2727.69,4827.55 2702.15,4874.97 2697,4871.14C2691.84,4867.31 2725.21,4824.14 2716.94,4809.24C2710.15,4797.01 2662.9,4792.87 2648.47,4782.53Z" style="fill:rgb(250,221,16);stroke:rgb(49,50,61);stroke-width:11px;"/>
        </g>
        <g id="dp_path0171" serif:id="dp_path017" transform="matrix(1,0,0,1,-1862.73,-880.207)">
            <path d="M2648.47,4782.53C2634.58,4772.58 2714.13,4785.31 2730.9,4770.3C2747.67,4755.3 2743.27,4692.5 2749.09,4692.5C2754.9,4692.5 2748.15,4754.41 2765.8,4770.3C2783.45,4786.19 2853.16,4782.54 2855,4787.82C2857.16,4794.02 2784.64,4793.58 2776.77,4806.24C2767.44,4821.25 2821.45,4894.71 2817.93,4899.04C2813.52,4904.46 2768.01,4836.85 2747.85,4832.2C2727.69,4827.55 2702.15,4874.97 2697,4871.14C2691.84,4867.31 2725.21,4824.14 2716.94,4809.24C2710.15,4797.01 2662.9,4792.87 2648.47,4782.53Z" style="fill:rgb(250,221,16);stroke:rgb(49,50,61);stroke-width:11px;"/>
        </g>
    </g>
    <g transform="matrix(3.17959,0,0,3.25941,-618.367,-539.749)">
        <rect x="194.48" y="165.597" width="943.517" height="920.411" style="fill:none;"/>
    </g>
    <defs>
        <radialGradient id="_Radial1" cx="0" cy="0" r="1" gradientUnits="userSpaceOnUse" gradientTransform="matrix(274.992,0,0,274.992,515.549,3928.14)"><stop offset="0" style="stop-color:rgb(252,223,54);stop-opacity:1"/><stop offset="1" style="stop-color:rgb(255,240,159);stop-opacity:1"/></radialGradient>
        <radialGradient id="_Radial2" cx="0" cy="0" r="1" gradientUnits="userSpaceOnUse" gradientTransform="matrix(274.992,0,0,274.992,515.549,3928.14)"><stop offset="0" style="stop-color:rgb(252,223,54);stop-opacity:1"/><stop offset="1" style="stop-color:rgb(255,240,159);stop-opacity:1"/></radialGradient>
    </defs>
</svg>
