<?xml version="1.0" encoding="UTF-8" standalone="no"?>
<!DOCTYPE svg PUBLIC "-//W3C//DTD SVG 1.1//EN" "http://www.w3.org/Graphics/SVG/1.1/DTD/svg11.dtd">
<svg width="100%" height="100%" viewBox="0 0 3000 3000" version="1.1" xmlns="http://www.w3.org/2000/svg" xmlns:xlink="http://www.w3.org/1999/xlink" xml:space="preserve" xmlns:serif="http://www.serif.com/" style="fill-rule:evenodd;clip-rule:evenodd;stroke-linecap:round;stroke-linejoin:round;stroke-miterlimit:1.5;">
    <g transform="matrix(3.17959,0,0,3.25941,-618.367,-539.749)">
        <rect x="194.48" y="165.597" width="943.517" height="920.411" style="fill:none;"/>
    </g>
    <g id="Too-many-vuves" serif:id="Too many vuves">
        <g transform="matrix(0.829609,0.0364771,-0.0268219,0.610017,469.776,831.134)">
            <path d="M2254.72,2385.71C2338.88,2385.71 2407.22,2401.39 2407.22,2420.71C2407.22,2440.03 2338.88,2455.71 2254.72,2455.71C2170.55,2455.71 2017.09,2436.04 2017.09,2416.73C2017.09,2397.41 2170.55,2385.71 2254.72,2385.71Z" style="fill:rgb(49,50,61);fill-opacity:0.301961;"/>
        </g>
        <g transform="matrix(0.405677,-0.86941,0.86941,0.405677,-873.67,1931.56)">
            <g transform="matrix(1.17822,0.0525678,-0.0492707,1.10432,-99.1369,-250.833)">
                <path d="M354.38,1469C455.337,1520.17 561.677,1662.07 688.105,1812.77C711.152,1840.24 718.511,1814.76 744.165,1797.63C764.058,1784.35 805.425,1781.25 790.439,1744.97C719.459,1573.15 624.344,1372.77 618.438,1262.74C529.014,1210.47 304.441,1200.1 354.38,1469Z" style="fill:rgb(244,230,93);stroke:rgb(49,50,61);stroke-width:9.12px;"/>
            </g>
            <g transform="matrix(1.15758,0.0516466,-0.0485487,1.08814,-74.9645,-220.776)">
                <path d="M354.38,1469C454.747,1527.91 572.385,1675.85 701.081,1837.32C733.387,1877.85 708.691,1841.31 714.622,1838.69C718.263,1837.08 763.429,1885.88 717.302,1828.21C570.186,1644.28 420.322,1457.48 366.617,1420.51C314.715,1455.61 424.71,1384.97 354.38,1469Z" style="fill:rgb(217,205,83);"/>
            </g>
            <g transform="matrix(-0.69097,-0.227588,-0.234425,0.711727,2226.87,649.172)">
                <path d="M1458.39,2011.51C1552.29,1913.3 1867.09,1549.61 1932.05,1431.01C1936.7,1467.4 1949.39,1470.41 1966.47,1503.04C1878.66,1635.91 1592.43,1884.31 1458.39,2011.51Z" style="fill:rgb(255,239,133);"/>
            </g>
            <g transform="matrix(1.91248,0.0853274,-0.0682706,1.53017,-230.645,-883.952)">
                <path d="M414.182,1260.04C455.576,1268.07 475.439,1313.95 470.151,1350.34C464.504,1389.19 441.746,1425.28 414.297,1452.08C395.88,1470.05 371.848,1481.7 346.22,1486.07C333.969,1488.16 324.129,1487.85 312.076,1484.77C306.375,1483.31 300.663,1481.67 295.473,1478.77C256.151,1456.77 258.855,1416.41 267.094,1380.56C283.572,1308.86 356.401,1253.93 414.182,1260.04" style="fill:rgb(255,239,133);stroke:rgb(49,50,61);stroke-width:4.81px;"/>
            </g>
            <g transform="matrix(1.87916,0.136203,-0.105743,1.45891,-163.763,-800.14)">
                <path d="M403.703,1270.64C408.435,1270.24 422.65,1273.51 426.397,1275.4C455.602,1290.09 450.499,1329.8 439.846,1353.4C425.578,1385 402.533,1410.5 374.912,1431.03C358.797,1443 338.714,1451.46 318.415,1451.62C313.905,1451.65 309.359,1451.2 304.957,1450.22C301.425,1449.43 297.974,1448.12 294.811,1446.36C267.668,1431.28 274.448,1393.07 285.099,1369.86C301.063,1335.08 328.047,1306.31 360.549,1286.33C373.604,1278.31 388.282,1271.97 403.703,1270.64" style="fill:rgb(244,230,93);"/>
            </g>
            <g transform="matrix(1.84409,0.434753,-0.317189,1.34542,143.245,-745.854)">
                <path d="M415.582,1261.31C418.168,1264.55 441.131,1283.97 438.054,1317.71C434.629,1355.27 412.659,1408.77 380.408,1437.94C359.128,1457.19 347.196,1466.88 325.561,1468.9C266.979,1474.37 278.495,1395.83 289.572,1369.63C306.71,1329.11 390.689,1230.04 415.582,1261.31Z" style="fill:rgb(217,205,83);"/>
            </g>
            <g transform="matrix(-0.99,-0.326081,-0.326081,0.99,2946.07,444.643)">
                <path d="M1387.66,2076.01C1390.33,2063.53 1395.18,2055.46 1404.49,2060.35C1410.46,2082.21 1424.03,2097 1450.16,2104.01C1446.69,2113.03 1443.53,2118.3 1435.33,2116.85C1406.26,2115.94 1392.39,2100.38 1387.66,2076.01Z" style="fill:rgb(210,85,81);stroke:rgb(210,85,81);stroke-width:5px;"/>
            </g>
            <g transform="matrix(-0.69432,-0.228691,-0.281247,0.85388,2478.88,664.342)">
                <path d="M1387.66,2076.01C1390.33,2063.53 1395.18,2055.46 1404.49,2060.35C1410.46,2082.21 1425.94,2098.55 1452.06,2105.56C1451.6,2115.95 1446.18,2117.19 1435.33,2114.53C1406.26,2113.62 1392.39,2100.38 1387.66,2076.01Z" style="fill:rgb(210,85,81);stroke:rgb(210,85,81);stroke-width:6.36px;"/>
            </g>
        </g>
        <g transform="matrix(0.955672,-0.0844895,0.0844895,0.955672,-47.8633,170.666)">
            <g transform="matrix(1.17822,0.0525678,-0.0492707,1.10432,-99.1369,-250.833)">
                <path d="M354.38,1469C503.9,1544.79 681.228,1806.8 863.047,2045.67C860.185,2059.05 865.836,2064.93 875.047,2067.67L911.047,2111.67C907.654,2123.9 912.421,2128.52 923.047,2127.67L982.074,2205.09L983.851,2127.8L968.047,2100.17C971.123,2085.77 968.571,2079.76 958.547,2081.17L936.547,2037.67C935.143,2017.1 931.086,2009.48 919.38,2011C896.588,1953.22 628.958,1458.74 618.438,1262.74C529.014,1210.47 304.441,1200.1 354.38,1469Z" style="fill:rgb(139,225,121);stroke:rgb(49,50,61);stroke-width:9.12px;"/>
            </g>
            <g transform="matrix(1.15758,0.0516466,-0.0485487,1.08814,-74.9645,-220.776)">
                <path d="M354.38,1469C498.808,1550.3 676.302,1812.13 863.047,2045.67C860.185,2059.05 865.836,2064.93 875.047,2067.67L911.047,2111.67C907.654,2123.9 912.421,2128.52 923.047,2127.67L973.804,2193.28C995.547,2197.45 481.639,1499.68 366.617,1420.51C314.715,1455.61 424.71,1384.97 354.38,1469Z" style="fill:rgb(117,190,102);"/>
            </g>
            <g transform="matrix(-0.99,-0.326081,-0.326081,0.99,2946.07,444.643)">
                <path d="M1497.43,1969.04C1591.33,1870.83 1867.09,1549.61 1932.05,1431.01C1936.7,1467.4 1936.97,1436.39 1954.05,1469.01C1866.24,1601.88 1631.47,1841.84 1497.43,1969.04Z" style="fill:white;fill-opacity:0.192157;"/>
            </g>
            <g transform="matrix(1.91248,0.0853274,-0.0682706,1.53017,-230.645,-883.952)">
                <path d="M414.182,1260.04C455.576,1268.07 475.439,1313.95 470.151,1350.34C464.504,1389.19 441.746,1425.28 414.297,1452.08C395.88,1470.05 371.848,1481.7 346.22,1486.07C333.969,1488.16 324.129,1487.85 312.076,1484.77C306.375,1483.31 300.663,1481.67 295.473,1478.77C256.151,1456.77 258.855,1416.41 267.094,1380.56C283.572,1308.86 356.401,1253.93 414.182,1260.04" style="fill:rgb(174,234,157);stroke:rgb(49,50,61);stroke-width:4.81px;"/>
            </g>
            <g transform="matrix(1.87916,0.136203,-0.105743,1.45891,-163.763,-800.14)">
                <path d="M403.703,1270.64C408.435,1270.24 422.65,1273.51 426.397,1275.4C455.602,1290.09 450.499,1329.8 439.846,1353.4C425.578,1385 402.533,1410.5 374.912,1431.03C358.797,1443 338.714,1451.46 318.415,1451.62C313.905,1451.65 309.359,1451.2 304.957,1450.22C301.425,1449.43 297.974,1448.12 294.811,1446.36C267.668,1431.28 274.448,1393.07 285.099,1369.86C301.063,1335.08 328.047,1306.31 360.549,1286.33C373.604,1278.31 388.282,1271.97 403.703,1270.64" style="fill:rgb(139,225,121);"/>
            </g>
            <g transform="matrix(1.84409,0.434753,-0.317189,1.34542,143.245,-745.854)">
                <path d="M417.263,1269.09C421.398,1268.74 441.131,1283.97 438.054,1317.71C434.629,1355.27 412.659,1408.77 380.408,1437.94C359.128,1457.19 347.048,1465.67 325.561,1468.9C274.153,1476.64 279.554,1406.03 295.707,1380.29C302.49,1369.48 401.842,1270.42 417.263,1269.09Z" style="fill:rgb(117,190,102);"/>
            </g>
            <g transform="matrix(-0.99,-0.326081,-0.326081,0.99,2946.07,444.643)">
                <path d="M1387.66,2076.01C1390.33,2063.53 1395.18,2055.46 1404.49,2060.35C1410.46,2082.21 1424.03,2097 1450.16,2104.01C1446.69,2113.03 1443.53,2118.3 1435.33,2116.85C1406.26,2115.94 1392.39,2100.38 1387.66,2076.01Z" style="fill:rgb(117,190,102);stroke:rgb(117,190,102);stroke-width:5px;"/>
            </g>
            <g transform="matrix(-0.69432,-0.228691,-0.281247,0.85388,2478.88,664.342)">
                <path d="M1387.66,2076.01C1390.33,2063.53 1395.18,2055.46 1404.49,2060.35C1410.46,2082.21 1425.94,2098.55 1452.06,2105.56C1451.6,2115.95 1446.18,2117.19 1435.33,2114.53C1406.26,2113.62 1392.39,2100.38 1387.66,2076.01Z" style="fill:rgb(117,190,102);stroke:rgb(117,190,102);stroke-width:6.36px;"/>
            </g>
        </g>
        <g transform="matrix(0.59086,0.755865,-0.755865,0.59086,2015.37,-699.103)">
            <g transform="matrix(-1.16524,0.087415,0.0818837,1.0924,2871.61,-336.904)">
                <path d="M354.38,1469C452.895,1518.93 688.17,1819.08 688.17,1819.08L794.237,1763.77C794.237,1763.77 789.344,1732.52 778.815,1720.14C776.811,1717.79 774.008,1715.94 772.871,1713C710.567,1551.53 623.958,1365.58 618.438,1262.74C529.014,1210.47 304.441,1200.1 354.38,1469Z" style="fill:rgb(247,188,86);stroke:rgb(49,50,61);stroke-width:9.2px;"/>
            </g>
            <g transform="matrix(-1.14482,0.0858831,0.0806838,1.07639,2848.57,-306.406)">
                <path d="M354.38,1469C498.808,1550.3 674.25,1803.35 674.25,1803.35C695.993,1807.51 481.639,1499.68 366.617,1420.51C314.715,1455.61 424.71,1384.97 354.38,1469Z" style="fill:rgb(222,169,77);"/>
            </g>
            <g transform="matrix(0.970648,-0.352695,0.352589,0.970855,-123.283,443.344)">
                <path d="M1617.34,1836.27C1711.23,1738.06 1867.09,1549.61 1932.05,1431.01C1936.7,1467.4 1936.97,1436.39 1954.05,1469.01C1885.05,1535.08 1757.7,1686.6 1617.34,1836.27Z" style="fill:white;fill-opacity:0.192157;"/>
            </g>
            <g transform="matrix(-1.89141,0.141891,0.11346,1.51365,2982.88,-967.98)">
                <path d="M414.182,1260.04C455.576,1268.07 475.439,1313.95 470.151,1350.34C464.504,1389.19 441.746,1425.28 414.297,1452.08C395.88,1470.05 371.848,1481.7 346.22,1486.07C333.969,1488.16 324.129,1487.85 312.076,1484.77C306.375,1483.31 300.663,1481.67 295.473,1478.77C256.151,1456.77 258.855,1416.41 267.094,1380.56C283.572,1308.86 356.401,1253.93 414.182,1260.04" style="fill:rgb(249,208,112);stroke:rgb(49,50,61);stroke-width:4.85px;"/>
            </g>
            <g transform="matrix(-1.85689,0.191286,0.148434,1.44194,2919.15,-882.954)">
                <path d="M403.703,1270.64C408.435,1270.24 422.65,1273.51 426.397,1275.4C455.602,1290.09 450.499,1329.8 439.846,1353.4C425.578,1385 402.533,1410.5 374.912,1431.03C358.797,1443 338.714,1451.46 318.415,1451.62C313.905,1451.65 309.359,1451.2 304.957,1450.22C301.425,1449.43 297.974,1448.12 294.811,1446.36C267.668,1431.28 274.448,1393.07 285.099,1369.86C301.063,1335.08 328.047,1306.31 360.549,1286.33C373.604,1278.31 388.282,1271.97 403.703,1270.64" style="fill:rgb(247,188,86);"/>
            </g>
            <g transform="matrix(-1.81321,0.48596,0.354433,1.32318,2616.74,-819.972)">
                <path d="M417.263,1269.09C421.398,1268.74 441.131,1283.97 438.054,1317.71C434.629,1355.27 412.659,1408.77 380.408,1437.94C359.128,1457.19 347.048,1465.67 325.561,1468.9C274.153,1476.64 279.554,1406.03 295.707,1380.29C302.49,1369.48 401.842,1270.42 417.263,1269.09Z" style="fill:rgb(222,169,77);"/>
            </g>
        </g>
        <g transform="matrix(0.955347,0.0880823,-0.0880823,0.955347,227.391,-32.2219)">
            <g transform="matrix(-1.16524,0.087415,0.0818837,1.0924,2871.61,-336.904)">
                <path d="M354.38,1469C503.9,1544.79 681.228,1806.8 863.047,2045.67C860.185,2059.05 865.836,2064.93 875.047,2067.67L911.047,2111.67C907.654,2123.9 912.421,2128.52 923.047,2127.67L1014.24,2262.66C1013.65,2279.15 983.185,2158.52 981.281,2149.9L968.047,2100.17C971.123,2085.77 968.571,2079.76 958.547,2081.17L936.547,2037.67C935.143,2017.1 931.086,2009.48 919.38,2011C896.588,1953.22 628.958,1458.74 618.438,1262.74C529.014,1210.47 304.441,1200.1 354.38,1469Z" style="fill:rgb(90,176,241);stroke:rgb(49,50,61);stroke-width:9.2px;"/>
            </g>
            <g transform="matrix(-1.14482,0.0858831,0.0806838,1.07639,2848.57,-306.406)">
                <path d="M354.38,1469C498.808,1550.3 676.302,1812.13 863.047,2045.67C860.185,2059.05 865.836,2064.93 875.047,2067.67L911.047,2111.67C907.654,2123.9 912.421,2128.52 923.047,2127.67L996.844,2233.68C1018.59,2237.85 481.639,1499.68 366.617,1420.51C314.715,1455.61 424.71,1384.97 354.38,1469Z" style="fill:rgb(77,150,206);"/>
            </g>
            <g transform="matrix(0.970648,-0.352695,0.352589,0.970855,-123.283,443.344)">
                <path d="M1544.05,1917.01C1637.94,1818.8 1867.09,1549.61 1932.05,1431.01C1936.7,1467.4 1936.97,1436.39 1954.05,1469.01C1885.05,1535.08 1684.41,1767.34 1544.05,1917.01Z" style="fill:white;fill-opacity:0.192157;"/>
            </g>
            <g transform="matrix(-1.89141,0.141891,0.11346,1.51365,2982.88,-967.98)">
                <path d="M414.182,1260.04C455.576,1268.07 475.439,1313.95 470.151,1350.34C464.504,1389.19 441.746,1425.28 414.297,1452.08C395.88,1470.05 371.848,1481.7 346.22,1486.07C333.969,1488.16 324.129,1487.85 312.076,1484.77C306.375,1483.31 300.663,1481.67 295.473,1478.77C256.151,1456.77 258.855,1416.41 267.094,1380.56C283.572,1308.86 356.401,1253.93 414.182,1260.04" style="fill:rgb(117,200,245);stroke:rgb(49,50,61);stroke-width:4.85px;"/>
            </g>
            <g transform="matrix(-1.85689,0.191286,0.148434,1.44194,2919.15,-882.954)">
                <path d="M403.703,1270.64C408.435,1270.24 422.65,1273.51 426.397,1275.4C455.602,1290.09 450.499,1329.8 439.846,1353.4C425.578,1385 402.533,1410.5 374.912,1431.03C358.797,1443 338.714,1451.46 318.415,1451.62C313.905,1451.65 309.359,1451.2 304.957,1450.22C301.425,1449.43 297.974,1448.12 294.811,1446.36C267.668,1431.28 274.448,1393.07 285.099,1369.86C301.063,1335.08 328.047,1306.31 360.549,1286.33C373.604,1278.31 388.282,1271.97 403.703,1270.64" style="fill:rgb(90,176,241);"/>
            </g>
            <g transform="matrix(-1.81321,0.48596,0.354433,1.32318,2616.74,-819.972)">
                <path d="M417.263,1269.09C421.398,1268.74 441.131,1283.97 438.054,1317.71C434.629,1355.27 412.659,1408.77 380.408,1437.94C359.128,1457.19 347.048,1465.67 325.561,1468.9C274.153,1476.64 279.554,1406.03 295.707,1380.29C302.49,1369.48 401.842,1270.42 417.263,1269.09Z" style="fill:rgb(77,150,206);"/>
            </g>
            <g transform="matrix(0.970648,-0.352695,0.352589,0.970855,-123.283,443.344)">
                <path d="M1387.66,2076.01C1390.33,2063.53 1395.18,2055.46 1404.49,2060.35C1410.46,2082.21 1424.03,2097 1450.16,2104.01C1446.69,2113.03 1443.53,2118.3 1435.33,2116.85C1406.26,2115.94 1392.39,2100.38 1387.66,2076.01Z" style="fill:rgb(77,150,206);stroke:rgb(77,150,206);stroke-width:5.05px;"/>
            </g>
            <g transform="matrix(0.680748,-0.247357,0.30411,0.837368,345.967,646.95)">
                <path d="M1387.66,2076.01C1390.33,2063.53 1395.18,2055.46 1404.49,2060.35C1410.46,2082.21 1425.94,2098.55 1452.06,2105.56C1451.6,2115.95 1446.18,2117.19 1435.33,2114.53C1406.26,2113.62 1392.39,2100.38 1387.66,2076.01Z" style="fill:rgb(77,150,206);stroke:rgb(77,150,206);stroke-width:6.42px;"/>
            </g>
        </g>
        <g transform="matrix(0.838101,-0.46694,0.46694,0.838101,-138.901,842.487)">
            <g transform="matrix(1.17822,0.0525678,-0.0492707,1.10432,-99.1369,-250.833)">
                <path d="M354.38,1469C503.9,1544.79 681.228,1806.8 863.047,2045.67C860.185,2059.05 865.836,2064.93 875.047,2067.67L911.047,2111.67C907.654,2123.9 912.421,2128.52 923.047,2127.67L1059.72,2260.43C1060.78,2277.01 1067.05,2266.88 1059.72,2260.43L968.047,2100.17C971.123,2085.77 968.571,2079.76 958.547,2081.17L936.547,2037.67C935.143,2017.1 931.086,2009.48 919.38,2011C896.588,1953.22 628.958,1458.74 618.438,1262.74C529.014,1210.47 304.441,1200.1 354.38,1469Z" style="fill:rgb(234,95,90);stroke:rgb(49,50,61);stroke-width:9.12px;"/>
            </g>
            <g transform="matrix(1.15758,0.0516466,-0.0485487,1.08814,-74.9645,-220.776)">
                <path d="M354.38,1469C498.808,1550.3 676.302,1812.13 863.047,2045.67C860.185,2059.05 865.836,2064.93 875.047,2067.67L911.047,2111.67C907.654,2123.9 912.421,2128.52 923.047,2127.67L1026.69,2252.44C1048.43,2256.61 481.639,1499.68 366.617,1420.51C314.715,1455.61 424.71,1384.97 354.38,1469Z" style="fill:rgb(210,85,81);"/>
            </g>
            <g transform="matrix(-0.99,-0.326081,-0.326081,0.99,2946.07,444.643)">
                <path d="M1458.39,2011.51C1552.29,1913.3 1867.09,1549.61 1932.05,1431.01C1936.7,1467.4 1949.39,1470.41 1966.47,1503.04C1878.66,1635.91 1592.43,1884.31 1458.39,2011.51Z" style="fill:white;fill-opacity:0.192157;"/>
            </g>
            <g transform="matrix(1.91248,0.0853274,-0.0682706,1.53017,-230.645,-883.952)">
                <path d="M414.182,1260.04C455.576,1268.07 475.439,1313.95 470.151,1350.34C464.504,1389.19 441.746,1425.28 414.297,1452.08C395.88,1470.05 371.848,1481.7 346.22,1486.07C333.969,1488.16 324.129,1487.85 312.076,1484.77C306.375,1483.31 300.663,1481.67 295.473,1478.77C256.151,1456.77 258.855,1416.41 267.094,1380.56C283.572,1308.86 356.401,1253.93 414.182,1260.04" style="fill:rgb(240,120,114);stroke:rgb(49,50,61);stroke-width:4.81px;"/>
            </g>
            <g transform="matrix(1.87916,0.136203,-0.105743,1.45891,-163.763,-800.14)">
                <path d="M403.703,1270.64C408.435,1270.24 422.65,1273.51 426.397,1275.4C455.602,1290.09 450.499,1329.8 439.846,1353.4C425.578,1385 402.533,1410.5 374.912,1431.03C358.797,1443 338.714,1451.46 318.415,1451.62C313.905,1451.65 309.359,1451.2 304.957,1450.22C301.425,1449.43 297.974,1448.12 294.811,1446.36C267.668,1431.28 274.448,1393.07 285.099,1369.86C301.063,1335.08 328.047,1306.31 360.549,1286.33C373.604,1278.31 388.282,1271.97 403.703,1270.64" style="fill:rgb(234,95,90);"/>
            </g>
            <g transform="matrix(1.84409,0.434753,-0.317189,1.34542,143.245,-745.854)">
                <path d="M417.263,1269.09C421.398,1268.74 441.131,1283.97 438.054,1317.71C434.629,1355.27 412.659,1408.77 380.408,1437.94C359.128,1457.19 347.048,1465.67 325.561,1468.9C274.153,1476.64 279.554,1406.03 295.707,1380.29C302.49,1369.48 401.842,1270.42 417.263,1269.09Z" style="fill:rgb(210,85,81);"/>
            </g>
            <g transform="matrix(-0.99,-0.326081,-0.326081,0.99,2946.07,444.643)">
                <path d="M1387.66,2076.01C1390.33,2063.53 1395.18,2055.46 1404.49,2060.35C1410.46,2082.21 1424.03,2097 1450.16,2104.01C1446.69,2113.03 1443.53,2118.3 1435.33,2116.85C1406.26,2115.94 1392.39,2100.38 1387.66,2076.01Z" style="fill:rgb(210,85,81);stroke:rgb(210,85,81);stroke-width:5px;"/>
            </g>
            <g transform="matrix(-0.69432,-0.228691,-0.281247,0.85388,2478.88,664.342)">
                <path d="M1387.66,2076.01C1390.33,2063.53 1395.18,2055.46 1404.49,2060.35C1410.46,2082.21 1425.94,2098.55 1452.06,2105.56C1451.6,2115.95 1446.18,2117.19 1435.33,2114.53C1406.26,2113.62 1392.39,2100.38 1387.66,2076.01Z" style="fill:rgb(210,85,81);stroke:rgb(210,85,81);stroke-width:6.36px;"/>
            </g>
        </g>
        <g transform="matrix(0.959399,0,0,0.959399,53.3677,61.1316)">
            <g transform="matrix(-0.726103,-0.929379,-0.871089,0.680562,3889.22,1738.92)">
                <path d="M354.38,1469C503.9,1544.79 681.228,1806.8 863.047,2045.67C860.185,2059.05 865.836,2064.93 875.047,2067.67L911.047,2111.67C907.654,2123.9 912.421,2128.52 923.047,2127.67L1017.57,2259.47C1011.36,2274.83 1041.93,2239.7 1043.85,2235.26L968.047,2100.17C971.123,2085.77 968.571,2079.76 958.547,2081.17L936.547,2037.67C935.143,2017.1 931.086,2009.48 919.38,2011C896.588,1953.22 628.958,1458.74 618.438,1262.74C529.014,1210.47 304.441,1200.1 354.38,1469Z" style="fill:rgb(207,92,232);stroke:rgb(49,50,61);stroke-width:9.12px;"/>
            </g>
            <g transform="matrix(-0.713379,-0.913093,-0.858324,0.670589,3830.89,1736.07)">
                <path d="M354.38,1469C498.808,1550.3 676.302,1812.13 863.047,2045.67C860.185,2059.05 865.836,2064.93 875.047,2067.67L911.047,2111.67C907.654,2123.9 912.421,2128.52 923.047,2127.67L1014.67,2253.21C1036.41,2257.38 491.562,1491.44 376.541,1412.27C324.639,1447.36 424.71,1384.97 354.38,1469Z" style="fill:rgb(182,81,204);"/>
            </g>
            <g transform="matrix(0.839772,0.617423,-0.617423,0.839772,1536.83,-339.184)">
                <path d="M1406.1,2064.77C1500.83,1978.1 1896.15,1548.23 1948.73,1415.44C1953.38,1451.83 1961.1,1478.22 1978.18,1510.84C1909.19,1576.91 1555.44,1928.14 1406.1,2064.77Z" style="fill:white;fill-opacity:0.192157;"/>
            </g>
            <g transform="matrix(-1.1786,-1.50856,-1.207,0.943001,4481.27,1478.9)">
                <path d="M414.182,1260.04C455.576,1268.07 475.439,1313.95 470.151,1350.34C464.504,1389.19 441.746,1425.28 414.297,1452.08C395.88,1470.05 371.848,1481.7 346.22,1486.07C333.969,1488.16 324.129,1487.85 312.076,1484.77C306.375,1483.31 300.663,1481.67 295.473,1478.77C256.151,1456.77 258.855,1416.41 267.094,1380.56C283.572,1308.86 356.401,1253.93 414.182,1260.04" style="fill:rgb(216,124,237);stroke:rgb(49,50,61);stroke-width:4.81px;"/>
            </g>
            <g transform="matrix(-1.26424,-1.3653,-1.08454,0.959272,4339.37,1408.78)">
                <path d="M403.703,1270.64C408.435,1270.24 422.65,1273.51 426.397,1275.4C455.602,1290.09 450.499,1329.8 439.846,1353.4C425.578,1385 402.533,1410.5 374.912,1431.03C358.797,1443 338.714,1451.46 318.415,1451.62C313.905,1451.65 309.359,1451.2 304.957,1450.22C301.425,1449.43 297.974,1448.12 294.811,1446.36C267.668,1431.28 274.448,1393.07 285.099,1369.86C301.063,1335.08 328.047,1306.31 360.549,1286.33C373.604,1278.31 388.282,1271.97 403.703,1270.64" style="fill:rgb(207,92,232);"/>
            </g>
            <g transform="matrix(-1.54822,-1.06735,-0.796777,1.10396,4048.01,1103.35)">
                <path d="M324.351,1319.4C334.248,1311.34 441.131,1283.97 438.054,1317.71C434.629,1355.27 412.659,1408.77 380.408,1437.94C359.128,1457.19 347.069,1465.81 325.561,1468.9C250.993,1479.62 289.823,1347.5 324.351,1319.4Z" style="fill:rgb(182,81,204);"/>
            </g>
            <g transform="matrix(0.839772,0.617423,-0.617423,0.839772,1536.83,-339.184)">
                <path d="M1387.66,2076.01C1390.33,2063.53 1395.18,2055.46 1404.49,2060.35C1410.46,2082.21 1424.03,2097 1450.16,2104.01C1446.69,2113.03 1443.53,2118.3 1435.33,2116.85C1406.26,2115.94 1392.39,2100.38 1387.66,2076.01Z" style="fill:rgb(182,81,204);stroke:rgb(182,81,204);stroke-width:5px;"/>
            </g>
            <g transform="matrix(0.58896,0.43302,-0.532531,0.724308,1628.78,168.829)">
                <path d="M1387.66,2076.01C1390.33,2063.53 1395.18,2055.46 1404.49,2060.35C1410.46,2082.21 1425.94,2098.55 1452.06,2105.56C1451.6,2115.95 1446.18,2117.19 1435.33,2114.53C1406.26,2113.62 1392.39,2100.38 1387.66,2076.01Z" style="fill:rgb(182,81,204);stroke:rgb(182,81,204);stroke-width:6.36px;"/>
            </g>
            <g transform="matrix(1.03512,-0.122297,0.122297,1.03512,-323.015,225.009)">
                <path d="M2230.73,2289.37C2237.63,2335.4 2283.91,2399.25 2334.41,2412.43C2376.76,2426.64 2412.42,2401.82 2428.78,2381.55C2370.18,2430.54 2302.35,2399.94 2230.73,2289.37Z" style="fill:rgb(182,81,204);"/>
            </g>
        </g>
    </g>
</svg>
