<?xml version="1.0" encoding="UTF-8" standalone="no"?>
<svg version="1.1" xmlns="http://www.w3.org/2000/svg" xmlns:xlink="http://www.w3.org/1999/xlink" xmlns:i="http://ns.adobe.com/AdobeIllustrator/10.0/" width="3005" height="3005">
	<g id="dp_dp001" transform="matrix(1,0,0,1,-4343.79,-2504.34)">
		<path id="dp_path002" fill="#31323d" fill-rule="evenodd" fill-opacity="0.294118" d="M 4871.25,5183.18 C 5118.88,5183.18 5319.63,5216.47 5319.63,5257.54 C 5319.63,5298.61 5118.88,5331.9 4871.25,5331.9 C 4623.62,5331.9 4422.87,5298.61 4422.87,5257.54 C 4422.87,5216.47 4623.62,5183.18 4871.25,5183.18 Z "/>
		<path id="dp_path003" fill="#e75f5a" fill-rule="evenodd" stroke="#31323d" stroke-width="12" stroke-linejoin="round" stroke-linecap="round" d="M 4470.03,4811.2 L 5278.87,4811.2 L 5278.87,5292.64 L 4470.03,5292.64 Z "/>
		<path id="dp_path004" fill="#e75f5a" fill-rule="evenodd" stroke="#31323d" stroke-width="12" stroke-linejoin="round" stroke-linecap="round" d="M 4873.47,5111.05 L 5278.87,4806.19 L 4468.07,4806.19 Z "/>
		<path id="dp_path005" fill="#31323d" fill-rule="evenodd" fill-opacity="0.501961" d="M 5273.63,5279.47 L 4488.14,5279.47 C 4488.14,5279.47 4488.14,5279.47 4488.14,5279.47 L 4488.14,4812.53 L 4472.11,4812.53 L 4472.11,5279.47 C 4472.11,5287.44 4478.57,5293.91 4486.55,5293.91 L 5273.63,5293.91 Z "/>
		<path id="dp_path006" fill="#ffccd8" fill-rule="evenodd" stroke="#31323d" stroke-width="10" stroke-linejoin="round" stroke-linecap="round" d="M 4875.44,5043.05 C 4898.14,5003.48 4943.55,5003.48 4966.25,5019.97 C 4988.95,5036.45 4988.95,5069.43 4966.25,5102.4 C 4950.36,5127.13 4909.5,5151.86 4875.44,5168.34 C 4841.39,5151.86 4800.52,5127.13 4784.63,5102.4 C 4761.93,5069.43 4761.93,5036.45 4784.63,5019.97 C 4807.33,5003.48 4852.74,5003.48 4875.44,5043.05 Z "/>
		<path id="dp_path007" fill="white" fill-rule="evenodd" fill-opacity="0.494118" d="M 4927.61,5030.35 C 4940.04,5023.92 4956.23,5030.54 4963.77,5045.12 C 4971.3,5059.7 4967.33,5076.73 4954.89,5083.16 C 4959.87,5080.59 4957.79,5066.68 4950.26,5052.1 C 4942.72,5037.51 4932.58,5027.77 4927.61,5030.35 Z "/>
		<path id="dp_path008" fill="#ffccd8" fill-rule="evenodd" stroke="#ffccd8" stroke-width="6" d="M 5140.98,5169.68 C 5146,5150.67 5157.29,5143.41 5174.53,5148.56 C 5191.76,5153.7 5216.07,5179.98 5197.38,5181.38 C 5184.66,5182.34 5159.63,5189.77 5152.3,5207.85 C 5145.28,5225.16 5135.95,5188.7 5140.98,5169.68 Z "/>
		<path id="dp_path009" fill="#ffccd8" fill-rule="evenodd" stroke="#ffccd8" stroke-width="6" d="M 5103.47,5155.8 C 5105.25,5151.39 5112.31,5150.37 5119.23,5153.53 C 5126.16,5156.69 5130.32,5162.83 5128.54,5167.24 C 5126.76,5171.66 5119.7,5172.68 5112.78,5169.52 C 5105.86,5166.36 5101.69,5160.22 5103.47,5155.8 Z "/>
		<path id="dp_path010" fill="#ffccd8" fill-rule="evenodd" stroke="#ffccd8" stroke-width="6" d="M 5117.45,5125.67 C 5120.19,5121.85 5127.27,5122.68 5133.26,5127.53 C 5139.26,5132.38 5141.9,5139.41 5139.16,5143.23 C 5136.42,5147.06 5129.34,5146.23 5123.35,5141.38 C 5117.35,5136.53 5114.71,5129.5 5117.45,5125.67 Z "/>
		<path id="dp_path011" fill="#ffccd8" fill-rule="evenodd" stroke="#ffccd8" stroke-width="6" d="M 5151.55,5104.63 C 5156.02,5103.92 5160.55,5109.77 5161.66,5117.69 C 5162.77,5125.61 5160.04,5132.61 5155.57,5133.31 C 5151.1,5134.02 5146.57,5128.17 5145.46,5120.25 C 5144.35,5112.33 5147.08,5105.34 5151.55,5104.63 Z "/>
		<path id="dp_path012" fill="#ffccd8" fill-rule="evenodd" stroke="#ffccd8" stroke-width="6" d="M 5186.11,5108.93 C 5190.33,5110.65 5191.58,5118.1 5188.9,5125.58 C 5186.21,5133.07 5180.61,5137.75 5176.39,5136.03 C 5172.17,5134.32 5170.92,5126.87 5173.6,5119.38 C 5176.29,5111.9 5181.89,5107.22 5186.11,5108.93 Z "/>
	</g>
</svg>