<?xml version="1.0" encoding="UTF-8" standalone="no"?>
<svg version="1.1" xmlns="http://www.w3.org/2000/svg" xmlns:xlink="http://www.w3.org/1999/xlink" xmlns:i="http://ns.adobe.com/AdobeIllustrator/10.0/" width="3005" height="3005">
	<g id="dp_dp001" transform="matrix(1,0,0,1,-4343.79,-2504.34)">
		<path id="dp_path002" fill="#31323d" fill-rule="evenodd" fill-opacity="0.294118" d="M 4758.58,5009.83 C 4895.69,5033.53 4997.63,5106.17 4986.28,5172.06 C 4974.92,5237.95 4854.56,5272.14 4717.44,5248.43 C 4580.33,5224.72 4478.39,5152.09 4489.74,5086.2 C 4501.1,5020.31 4621.46,4986.12 4758.58,5009.83 Z "/>
		<path id="dp_path003" fill="#f7ebda" fill-rule="evenodd" stroke="#31323d" stroke-width="8" d="M 4696.68,4714.23 C 4563.75,5095.95 4623.29,5183.11 4806.14,5208.03 S 5107.42,4971.55 4946.24,4737.63 C 4850.9,4733.51 4791.71,4718.34 4696.68,4714.23 Z "/>
		<path id="dp_path004" fill="#31323d" fill-rule="evenodd" fill-opacity="0.282353" d="M 4701.87,4873.73 C 4566.74,5027.42 4628.51,5196 4782.12,5205.32 S 4846.95,5208.2 4765.36,5126.12 C 4668.45,5124.46 4798.47,4875.39 4701.87,4873.73 Z "/>
		<path id="dp_path005" fill="white" fill-rule="evenodd" stroke="#31323d" stroke-width="6.66667" d="M 4735.79,4716.49 C 4636.28,5034.93 4752.1,5120.27 4827.94,5127.63 S 5078.1,5026.79 4955.77,4695.09 C 4876.08,4689.7 4815.23,4721.87 4735.79,4716.49 Z "/>
		<path id="dp_path006" fill="#f7ebda" fill-rule="evenodd" stroke="#31323d" stroke-width="8" d="M 4891.5,4679.33 C 4874.43,4645.88 4874.31,4617.3 4907.76,4600.23 C 4941.21,4583.15 4968.72,4597.95 4985.79,4631.4 C 5033.65,4703.89 5088.87,4779.15 5118.86,4864.23 C 5135.93,4897.68 5122.65,4938.64 5089.2,4955.71 C 5055.75,4972.78 5014.79,4959.51 4997.72,4926.06 Z "/>
		<path id="dp_path007" fill="#e75f5a" fill-rule="evenodd" stroke="#31323d" stroke-width="13.3333" stroke-linejoin="round" stroke-linecap="round" d="M 4828.04,4794.1 C 4886.4,4713.6 5024.96,4710.2 5079.45,4763.73 S 5129.17,4892.79 5070.81,4973.29 C 5030.02,5033.62 4899.6,5175.82 4840.03,5178.54 S 4636.64,5039.95 4593.98,4980.97 C 4533.13,4902.39 4533.47,4828.38 4584.81,4776.08 S 4767.19,4715.52 4828.04,4794.1 Z "/>
		<path id="dp_path008" fill="#31323d" fill-rule="evenodd" fill-opacity="0.501961" d="M 4840.03,5178.53 C 4843.21,5196.33 4634.41,5057.93 4593.98,4980.97 C 4509.58,4868.6 4572.55,4789.26 4584.81,4776.08 S 4547.76,4823.13 4594.7,4909.73 C 4661.35,5032.71 4836.84,5160.74 4840.03,5178.53 Z "/>
		<path id="dp_path009" fill="#f7ebda" fill-rule="evenodd" stroke="#31323d" stroke-width="8" d="M 4647.67,4644.72 C 4663.13,4662.29 4694.05,4697.44 4707.45,4711.1 C 4713.4,4717.17 4728.58,4718.42 4728.07,4726.67 C 4727.37,4738.11 4718.42,4767.41 4703.24,4779.77 C 4688.06,4792.12 4656.01,4791.59 4637,4800.79 C 4619.17,4809.41 4601.96,4829.13 4589.2,4834.93 C 4580.54,4838.86 4567.52,4841.35 4560.44,4835.57 C 4552.08,4828.74 4539.25,4809.41 4539.01,4793.95 C 4538.71,4774.42 4542.85,4740.01 4558.62,4718.36 C 4576.73,4693.48 4624.02,4660.97 4647.67,4644.72 Z "/>
		<path id="dp_path010" fill="#f7ebda" fill-rule="evenodd" stroke="#31323d" stroke-width="8" stroke-linejoin="round" stroke-linecap="round" d="M 5042.91,4389.2 C 5035.03,4425.22 4996.38,4492.71 4991.09,4509.95 S 4858.98,4423.2 4850.45,4405.25 S 4876.3,4381.34 4921.15,4370.59 C 4977.21,4357.15 5050.96,4352.48 5042.91,4389.2 Z "/>
		<path id="dp_path011" fill="white" fill-rule="evenodd" stroke="#31323d" stroke-width="8" stroke-linejoin="round" stroke-linecap="round" d="M 5021.59,4400.51 C 5016.24,4424.67 4990.68,4470.1 4987.13,4481.68 S 4966.3,4464.92 4943.87,4443.96 C 4924.46,4425.83 4898.82,4418.01 4896.29,4412.46 S 4913.26,4396.29 4942.5,4388.81 C 4979.06,4379.47 5027.05,4375.88 5021.59,4400.51 Z "/>
		<path id="dp_path012" fill="#f7ebda" fill-rule="evenodd" stroke="#31323d" stroke-width="8" stroke-linejoin="round" stroke-linecap="round" d="M 4523.59,4443.42 C 4559.36,4434.51 4636.99,4439.21 4654.79,4436.3 S 4635.64,4593.19 4623.34,4608.8 S 4590.44,4596.23 4560.91,4560.8 C 4524,4516.52 4487.11,4452.5 4523.59,4443.42 Z "/>
		<path id="dp_path013" fill="#f7ebda" fill-rule="evenodd" stroke="#31323d" stroke-width="8" d="M 4771.05,4376.38 C 4875.62,4358.59 4973.8,4423.05 4990.35,4520.34 C 5006.89,4617.64 4935.53,4710.92 4830.95,4728.7 C 4726.38,4746.48 4628.2,4682.03 4611.65,4584.74 C 4595.11,4487.44 4666.47,4394.16 4771.05,4376.38 Z "/>
		<path id="dp_path014" fill="white" fill-rule="evenodd" stroke="#31323d" stroke-width="7.33333" d="M 4814.77,4566.48 C 4874.19,4556.38 4928.91,4586.68 4936.98,4634.16 C 4945.05,4681.64 4903.43,4728.32 4844,4738.43 C 4784.58,4748.53 4729.86,4718.23 4721.79,4670.75 C 4713.72,4623.27 4755.34,4576.58 4814.77,4566.48 Z "/>
		<path id="dp_path015" fill="#31323d" fill-rule="evenodd" stroke="#31323d" stroke-width="8" d="M 4755.88,4577.58 C 4769.86,4575.2 4782.8,4582.72 4784.78,4594.37 C 4786.76,4606.02 4777.03,4617.4 4763.05,4619.77 C 4749.07,4622.15 4736.13,4614.63 4734.15,4602.98 C 4732.17,4591.33 4741.89,4579.96 4755.88,4577.58 Z "/>
		<path id="dp_path016" fill="#31323d" fill-rule="evenodd" stroke="#31323d" stroke-width="8" d="M 4871.03,4555.83 C 4884.72,4553.5 4897.42,4561.06 4899.4,4572.71 C 4901.38,4584.36 4891.89,4595.69 4878.2,4598.02 C 4864.51,4600.35 4851.81,4592.79 4849.82,4581.14 C 4847.84,4569.49 4857.33,4558.16 4871.03,4555.83 Z "/>
		<path id="dp_path017" fill="white" fill-rule="evenodd" stroke="#31323d" stroke-width="8" stroke-linejoin="round" stroke-linecap="round" d="M 4542.94,4466.25 C 4566.97,4460.34 4619.02,4463.1 4630.97,4461.14 S 4625.19,4487.25 4616.36,4516.64 C 4608.71,4542.08 4613.08,4568.53 4609.23,4573.25 S 4587.21,4565.22 4567.54,4542.33 C 4542.95,4513.71 4518.44,4472.29 4542.94,4466.25 Z "/>
		<path id="dp_path018" fill="none" fill-rule="evenodd" stroke="#31323d" stroke-width="8" stroke-linejoin="round" stroke-linecap="round" d="M 4839.79,4688.13 C 4838.71,4679.63 4836.55,4662.63 4836.55,4662.63"/>
		<path id="dp_path019" fill="none" fill-rule="evenodd" stroke="#31323d" stroke-width="8" stroke-linejoin="round" stroke-linecap="round" d="M 4872.9,4697.69 C 4863.01,4699.15 4841.72,4693.09 4841.03,4689"/>
		<path id="dp_path020" fill="none" fill-rule="evenodd" stroke="#31323d" stroke-width="8" stroke-linejoin="round" stroke-linecap="round" d="M 4820.39,4704.45 C 4826.87,4703.36 4838.64,4694.1 4838.22,4691.65"/>
		<path id="dp_path021" fill="#ffccd8" fill-rule="evenodd" stroke="#31323d" stroke-width="6" d="M 4832.83,4635.05 C 4849.91,4631.58 4865.57,4637.69 4867.81,4648.7 C 4870.04,4659.7 4858,4671.43 4840.91,4674.9 C 4823.83,4678.36 4808.17,4672.25 4805.94,4661.25 C 4803.71,4650.25 4815.75,4638.52 4832.83,4635.05 Z "/>
		<path id="dp_path022" fill="white" fill-rule="evenodd" stroke="white" stroke-width="3.33333" d="M 4879.88,4565.3 C 4888.59,4568.36 4890.68,4568.35 4892.17,4570.19 C 4896,4574.36 4881.58,4578.78 4882.41,4573.18 C 4882.62,4570.83 4884.35,4569.66 4879.88,4565.3 Z "/>
		<path id="dp_path023" fill="white" fill-rule="evenodd" stroke="white" stroke-width="3.33333" d="M 4879.88,4565.3 C 4888.59,4568.36 4890.68,4568.35 4892.17,4570.19 C 4896,4574.36 4881.58,4578.78 4882.41,4573.18 C 4882.62,4570.83 4884.35,4569.66 4879.88,4565.3 Z "/>
		<path id="dp_path024" fill="white" fill-rule="evenodd" stroke="white" stroke-width="3.33333" d="M 4765.35,4586.25 C 4774.06,4589.31 4776.15,4589.3 4777.64,4591.13 C 4781.47,4595.31 4767.05,4599.73 4767.89,4594.13 C 4768.09,4591.78 4769.82,4590.61 4765.35,4586.25 Z "/>
		<path id="dp_path025" fill="#f7ebda" fill-rule="evenodd" stroke="#31323d" stroke-width="8" d="M 5081.77,5075.05 C 5114.52,5114.94 5095.91,5165.56 5056.49,5220.48 C 5014.2,5279.41 4923.07,5288.89 4885.18,5243.08 C 4852.29,5203.31 4869.89,5133.23 4924.18,5086.83 C 4978.47,5040.43 5049.02,5035.15 5081.77,5075.05 Z "/>
		<path id="dp_path026" fill="white" fill-rule="evenodd" stroke="white" stroke-width="3.33333" d="M 5061.11,5094.1 C 5085.37,5124.64 5073.37,5164.47 5042.69,5205.17 C 5015,5241.91 4947.89,5256.33 4916.17,5222.12 C 4889.66,5193.52 4904.67,5138.16 4944.7,5102.81 C 4984.72,5067.46 5036.84,5063.55 5061.11,5094.1 Z "/>
		<path id="dp_path027" fill="#ffccd8" fill-rule="evenodd" stroke="#ffccd8" stroke-width="6" d="M 4973.77,5136.86 C 4999.28,5135.62 5013.1,5147.37 5014.29,5171.94 C 5015.48,5196.5 4993.81,5238.93 4983.96,5215.15 C 4977.25,5198.96 4957.25,5169.38 4931.88,5167.22 C 4907.59,5165.15 4948.26,5138.09 4973.77,5136.86 Z "/>
		<path id="dp_path028" fill="#ffccd8" fill-rule="evenodd" stroke="#ffccd8" stroke-width="6" d="M 4986.82,5092.79 C 4991.53,5094.53 4993.02,5102.3 4990.13,5110.16 C 4987.25,5118.02 4981.09,5122.99 4976.37,5121.25 C 4971.65,5119.52 4970.17,5111.75 4973.06,5103.89 C 4975.94,5096.03 4982.1,5091.06 4986.82,5092.79 Z "/>
		<path id="dp_path029" fill="#ffccd8" fill-rule="evenodd" stroke="#ffccd8" stroke-width="6" d="M 5016.8,5099.61 C 5021.11,5102.19 5021.12,5110.1 5016.82,5117.29 C 5012.52,5124.47 5005.54,5128.2 5001.23,5125.62 C 4996.92,5123.04 4996.91,5115.13 5001.21,5107.94 C 5005.51,5100.76 5012.49,5097.03 5016.8,5099.61 Z "/>
		<path id="dp_path030" fill="#ffccd8" fill-rule="evenodd" stroke="#ffccd8" stroke-width="6" d="M 5044.85,5118.71 C 5048.18,5122.47 5045.79,5130.01 5039.52,5135.56 C 5033.24,5141.1 5025.46,5142.54 5022.13,5138.78 C 5018.81,5135.01 5021.2,5127.47 5027.47,5121.92 C 5033.75,5116.38 5041.53,5114.94 5044.85,5118.71 Z "/>
		<path id="dp_path031" fill="#ffccd8" fill-rule="evenodd" stroke="#ffccd8" stroke-width="6" d="M 5053.15,5149.37 C 5055.77,5153.67 5052.08,5160.67 5044.93,5165.02 C 5037.77,5169.37 5029.86,5169.42 5027.25,5165.12 C 5024.64,5160.83 5028.32,5153.83 5035.48,5149.48 C 5042.63,5145.13 5050.55,5145.08 5053.15,5149.37 Z "/>
		<path id="dp_path032" fill="#f7ebda" fill-rule="evenodd" stroke="#31323d" stroke-width="8" d="M 4579.15,5071.12 C 4614.46,5033.48 4667.06,5045.37 4726.63,5077.33 C 4790.54,5111.63 4811.76,5200.76 4771.25,5244.27 C 4736.08,5282.04 4664.31,5273.67 4611.26,5225.86 C 4558.21,5178.05 4543.83,5108.77 4579.15,5071.12 Z "/>
		<path id="dp_path033" fill="white" fill-rule="evenodd" stroke="white" stroke-width="3.33333" d="M 4605.03,5092.49 C 4631.72,5064.93 4672.1,5071.56 4715.69,5096.28 C 4755.06,5118.6 4777.68,5182.21 4748.36,5217.5 C 4723.85,5247.01 4667.95,5239.42 4628.37,5204.9 C 4588.8,5170.38 4578.35,5120.05 4605.03,5092.49 Z "/>
		<path id="dp_path034" fill="#ffccd8" fill-rule="evenodd" stroke="#ffccd8" stroke-width="6" d="M 4654.44,5170.2 C 4649.91,5145.07 4659.77,5129.84 4683.97,5125.48 C 4708.17,5121.11 4753.05,5137.1 4730.75,5149.95 C 4715.57,5158.7 4688.83,5182.37 4689.98,5207.8 C 4691.08,5232.16 4658.97,5195.33 4654.44,5170.2 Z "/>
		<path id="dp_path035" fill="#ffccd8" fill-rule="evenodd" stroke="#ffccd8" stroke-width="6" d="M 4609.05,5162.98 C 4610.16,5158.08 4617.67,5155.6 4625.84,5157.44 C 4634.01,5159.28 4639.73,5164.75 4638.63,5169.65 C 4637.52,5174.55 4630.01,5177.03 4621.84,5175.18 C 4613.67,5173.34 4607.95,5167.88 4609.05,5162.98 Z "/>
		<path id="dp_path036" fill="#ffccd8" fill-rule="evenodd" stroke="#ffccd8" stroke-width="6" d="M 4611.92,5132.36 C 4613.92,5127.76 4621.77,5126.72 4629.45,5130.05 C 4637.13,5133.38 4641.74,5139.82 4639.74,5144.43 C 4637.74,5149.04 4629.89,5150.07 4622.21,5146.74 C 4614.53,5143.41 4609.93,5136.97 4611.92,5132.36 Z "/>
		<path id="dp_path037" fill="#ffccd8" fill-rule="evenodd" stroke="#ffccd8" stroke-width="6" d="M 4627.22,5102.07 C 4630.52,5098.28 4638.31,5099.67 4644.62,5105.18 C 4650.93,5110.68 4653.37,5118.21 4650.07,5122 C 4646.77,5125.78 4638.98,5124.39 4632.67,5118.89 C 4626.36,5113.39 4623.92,5105.86 4627.22,5102.07 Z "/>
		<path id="dp_path038" fill="#ffccd8" fill-rule="evenodd" stroke="#ffccd8" stroke-width="6" d="M 4656.55,5089.86 C 4660.47,5086.72 4667.9,5089.46 4673.14,5095.99 C 4678.38,5102.52 4679.45,5110.36 4675.53,5113.51 C 4671.61,5116.65 4664.19,5113.91 4658.95,5107.38 C 4653.71,5100.85 4652.64,5093.01 4656.55,5089.86 Z "/>
		<path id="dp_path039" fill="white" fill-rule="evenodd" fill-opacity="0.290196" d="M 4985.68,4779.51 C 5007.45,4763.09 5044.05,4774.9 5067.41,4805.88 C 5090.78,4836.87 5092.06,4875.3 5070.29,4891.72 C 5082.87,4882.23 5074.14,4849.41 5050.77,4818.43 C 5027.41,4787.45 4998.26,4770.02 4985.68,4779.51 Z "/>
	</g>
</svg>