<?xml version="1.0" encoding="UTF-8" standalone="no"?>
<!DOCTYPE svg PUBLIC "-//W3C//DTD SVG 1.1//EN" "http://www.w3.org/Graphics/SVG/1.1/DTD/svg11.dtd">
<svg width="100%" height="100%" viewBox="0 0 3000 3000" version="1.1" xmlns="http://www.w3.org/2000/svg" xmlns:xlink="http://www.w3.org/1999/xlink" xml:space="preserve" xmlns:serif="http://www.serif.com/" style="fill-rule:evenodd;clip-rule:evenodd;stroke-linecap:round;stroke-linejoin:round;stroke-miterlimit:1.5;">
    <g transform="matrix(3.17959,0,0,3.25941,-618.367,-539.749)">
        <rect x="194.48" y="165.597" width="943.517" height="920.411" style="fill:none;"/>
    </g>
    <g id="Vuvzela-and-Glasses" serif:id="Vuvzela and Glasses" transform="matrix(0.959399,0,0,0.959399,53.3677,61.1316)">
        <g transform="matrix(1,0,0,1,0,-2.08464)">
            <g transform="matrix(0.910785,-0.011296,0.0117078,0.943989,120.713,69.2407)">
                <path d="M644.321,940.3C737.708,873.755 1117.08,839.878 1374.32,982.3C1415.35,972.862 1466.63,968.4 1502.32,980.3C1738.82,830.367 2076.28,875.643 2216.32,940.3C2243.67,952.924 2227.65,1009.63 2224.32,1030.3C2221.98,1044.79 2200.82,1050.86 2196.32,1064.3C2130.04,1293.97 2049.81,1390.9 1930.32,1398.3C1612.53,1417.99 1476.15,1230.65 1472.32,1042.3C1448.32,1022.97 1424.32,1023.63 1400.32,1044.3C1383.66,1292.44 1208.23,1386.03 988.321,1398.3C846.503,1406.21 741.43,1308.08 686.321,1090.3C679.229,1071.71 648.581,1058.66 642.321,1036.3C635.321,1011.3 626.947,952.68 644.321,940.3ZM1026.18,926.844C1178.93,932.844 1320.32,973.567 1320.32,1098.3C1320.32,1223.03 1182.88,1338.5 1026.62,1351.89C824.618,1369.21 744.321,1191.03 744.321,1066.3C744.321,941.567 869.562,920.691 1026.18,926.844ZM1847.33,925.06C1694.52,928.89 1552.71,965.492 1550.94,1090.21C1549.16,1214.93 1680.02,1317.68 1834.61,1343.63C2042.87,1378.6 2125.56,1191.12 2127.33,1066.4C2129.11,941.678 2004.03,921.133 1847.33,925.06Z" style="fill:rgb(244,230,94);stroke:rgb(49,50,61);stroke-width:8.99px;"/>
            </g>
            <g transform="matrix(0.995501,-1.38154e-17,-1.38154e-17,0.995501,14.5835,-21.4036)">
                <path d="M1768.32,910.3C1852.06,899.685 2009.82,912.216 2084.06,940.505C2106.12,948.908 2128.78,955.154 2150.32,964.3C2163.32,993.698 2154.7,1019.01 2146.32,1048.3C2102.15,941.12 1897.11,929.872 1768.32,910.3Z" style="fill:white;fill-opacity:0.4;"/>
            </g>
            <g transform="matrix(0.11981,-0.0144488,0.0187025,0.155082,1999.48,715.26)">
                <g transform="matrix(1.17373,5.09024e-19,0,1.00943,-151.659,-40.8322)">
                    <ellipse cx="700.366" cy="1743.17" rx="236" ry="212" style="fill:white;stroke:rgb(49,50,61);stroke-width:27.82px;"/>
                </g>
                <path d="M946.96,1720.67L931.96,1711.67C918.215,1731.23 900.87,1748.44 878.96,1762.67C881.66,1791.38 881.363,1820.04 879.96,1848.67C909.213,1843.98 942.254,1774.67 946.96,1720.67Z" style="fill:rgb(49,50,61);stroke:rgb(49,50,61);stroke-width:29.87px;"/>
                <path d="M741.96,1520.67C765.804,1534.14 786.117,1550.11 799.96,1570.67C829.24,1573.68 862.068,1584.43 896.96,1599.67C864.041,1550.59 816.561,1518.97 750.969,1515.96C747.361,1515.79 745.692,1520.7 741.96,1520.67Z" style="fill:rgb(49,50,61);stroke:rgb(49,50,61);stroke-width:29.87px;"/>
                <path d="M393.96,1717.67L417.96,1698.67L465.96,1749.67L463.96,1821.67L431.96,1824.67C415.374,1800.1 403.188,1765.01 393.96,1717.67Z" style="fill:rgb(49,50,61);stroke:rgb(49,50,61);stroke-width:29.87px;"/>
                <path d="M458.96,1582.67C485.578,1567.73 513.489,1559.54 543.96,1564.67C557.526,1543.81 582.21,1524.32 612.96,1508.67C547.158,1510.79 458.96,1582.67 458.96,1582.67Z" style="fill:rgb(49,50,61);stroke:rgb(49,50,61);stroke-width:29.87px;"/>
                <path d="M610.96,1638.67L728.96,1638.67L765.96,1721.67L674.96,1777.67L577.96,1724.67L610.96,1638.67Z" style="fill:rgb(49,50,61);stroke:rgb(49,50,61);stroke-width:29.87px;"/>
                <g transform="matrix(1,0,0,-1,-3.51746,3664.32)">
                    <path d="M599.065,1743.7C648.571,1732.87 698.926,1733.72 748.373,1743.41L674.96,1777.67L599.065,1743.7Z" style="fill:rgb(49,50,61);stroke:rgb(49,50,61);stroke-width:29.87px;"/>
                </g>
            </g>
            <g transform="matrix(0.11981,-0.0144488,0.0187025,0.155082,650.903,730.541)">
                <g transform="matrix(1.17373,5.09024e-19,0,1.00943,-151.659,-40.8322)">
                    <ellipse cx="700.366" cy="1743.17" rx="236" ry="212" style="fill:white;stroke:rgb(49,50,61);stroke-width:27.82px;"/>
                </g>
                <path d="M946.96,1720.67L931.96,1711.67C918.215,1731.23 900.87,1748.44 878.96,1762.67C881.66,1791.38 881.363,1820.04 879.96,1848.67C909.213,1843.98 942.254,1774.67 946.96,1720.67Z" style="fill:rgb(49,50,61);stroke:rgb(49,50,61);stroke-width:29.87px;"/>
                <path d="M741.96,1520.67C765.804,1534.14 786.117,1550.11 799.96,1570.67C829.24,1573.68 862.068,1584.43 896.96,1599.67C864.041,1550.59 816.561,1518.97 750.969,1515.96C747.361,1515.79 745.692,1520.7 741.96,1520.67Z" style="fill:rgb(49,50,61);stroke:rgb(49,50,61);stroke-width:29.87px;"/>
                <path d="M393.96,1717.67L417.96,1698.67L465.96,1749.67L463.96,1821.67L431.96,1824.67C415.374,1800.1 403.188,1765.01 393.96,1717.67Z" style="fill:rgb(49,50,61);stroke:rgb(49,50,61);stroke-width:29.87px;"/>
                <path d="M458.96,1582.67C485.578,1567.73 513.489,1559.54 543.96,1564.67C557.526,1543.81 582.21,1524.32 612.96,1508.67C547.158,1510.79 458.96,1582.67 458.96,1582.67Z" style="fill:rgb(49,50,61);stroke:rgb(49,50,61);stroke-width:29.87px;"/>
                <path d="M610.96,1638.67L728.96,1638.67L765.96,1721.67L674.96,1777.67L577.96,1724.67L610.96,1638.67Z" style="fill:rgb(49,50,61);stroke:rgb(49,50,61);stroke-width:29.87px;"/>
                <g transform="matrix(1,0,0,-1,-3.51746,3664.32)">
                    <path d="M599.065,1743.7C648.571,1732.87 698.926,1733.72 748.373,1743.41L674.96,1777.67L599.065,1743.7Z" style="fill:rgb(49,50,61);stroke:rgb(49,50,61);stroke-width:29.87px;"/>
                </g>
            </g>
            <g transform="matrix(0.915984,0.081626,-0.0637286,0.715145,932.847,270.482)">
                <path d="M815.602,1298.97C876.135,1406 1123.2,1416.48 1173.99,1387.88C1173.99,1387.88 1063.87,1416.42 979.236,1403.64C866.704,1386.63 815.602,1298.97 815.602,1298.97Z" style="fill:rgb(49,50,61);fill-opacity:0.2;"/>
            </g>
        </g>
        <g transform="matrix(0.864717,0.0380208,-0.027957,0.635832,434.03,802.588)">
            <path d="M2254.72,2385.71C2338.88,2385.71 2407.22,2401.39 2407.22,2420.71C2407.22,2440.03 2338.88,2455.71 2254.72,2455.71C2170.55,2455.71 2017.09,2436.04 2017.09,2416.73C2017.09,2397.41 2170.55,2385.71 2254.72,2385.71Z" style="fill:rgb(49,50,61);fill-opacity:0.301961;"/>
        </g>
        <g>
            <g transform="matrix(-0.726103,-0.929379,-0.871089,0.680562,3889.22,1738.92)">
                <path d="M354.38,1469C503.9,1544.79 681.228,1806.8 863.047,2045.67C860.185,2059.05 865.836,2064.93 875.047,2067.67L911.047,2111.67C907.654,2123.9 912.421,2128.52 923.047,2127.67L1017.57,2259.47C1011.36,2274.83 1041.93,2239.7 1043.85,2235.26L968.047,2100.17C971.123,2085.77 968.571,2079.76 958.547,2081.17L936.547,2037.67C935.143,2017.1 931.086,2009.48 919.38,2011C896.588,1953.22 628.958,1458.74 618.438,1262.74C529.014,1210.47 304.441,1200.1 354.38,1469Z" style="fill:rgb(207,92,232);stroke:rgb(49,50,61);stroke-width:9.12px;"/>
            </g>
            <g transform="matrix(-0.713379,-0.913093,-0.858324,0.670589,3830.89,1736.07)">
                <path d="M354.38,1469C498.808,1550.3 676.302,1812.13 863.047,2045.67C860.185,2059.05 865.836,2064.93 875.047,2067.67L911.047,2111.67C907.654,2123.9 912.421,2128.52 923.047,2127.67L1014.67,2253.21C1031.38,2256.41 678.294,1755.76 493.12,1502.93C436.705,1425.9 392.325,1390.98 365.73,1372.68C313.828,1407.77 424.71,1384.97 354.38,1469Z" style="fill:rgb(182,81,204);"/>
            </g>
            <g transform="matrix(0.839772,0.617423,-0.617423,0.839772,1536.83,-339.184)">
                <path d="M1406.1,2064.77C1500.83,1978.1 1896.15,1548.23 1948.73,1415.44C1953.38,1451.83 2019.49,1395.57 2036.57,1428.2C2018.88,1448.78 1978.02,1503.7 1918.14,1565.65C1764.75,1724.36 1517.65,1971.5 1406.1,2064.77Z" style="fill:white;fill-opacity:0.192157;"/>
            </g>
            <g transform="matrix(-1.1786,-1.50856,-1.207,0.943001,4481.27,1478.9)">
                <path d="M414.182,1260.04C455.576,1268.07 475.439,1313.95 470.151,1350.34C464.504,1389.19 441.746,1425.28 414.297,1452.08C395.88,1470.05 371.848,1481.7 346.22,1486.07C333.969,1488.16 324.129,1487.85 312.076,1484.77C306.375,1483.31 300.663,1481.67 295.473,1478.77C256.151,1456.77 258.855,1416.41 267.094,1380.56C283.572,1308.86 356.401,1253.93 414.182,1260.04" style="fill:rgb(216,124,237);stroke:rgb(49,50,61);stroke-width:4.81px;"/>
            </g>
            <g transform="matrix(-1.26424,-1.3653,-1.08454,0.959272,4332.07,1396.27)">
                <path d="M403.703,1270.64C408.435,1270.24 422.65,1273.51 426.397,1275.4C455.602,1290.09 450.499,1329.8 439.846,1353.4C425.578,1385 402.533,1410.5 374.912,1431.03C358.797,1443 338.714,1451.46 318.415,1451.62C313.905,1451.65 309.359,1451.2 304.957,1450.22C301.425,1449.43 297.974,1448.12 294.811,1446.36C267.668,1431.28 274.448,1393.07 285.099,1369.86C301.063,1335.08 328.047,1306.31 360.549,1286.33C373.604,1278.31 388.282,1271.97 403.703,1270.64" style="fill:rgb(207,92,232);"/>
            </g>
            <g transform="matrix(-1.5599,-0.949337,-0.717366,1.12339,3936.91,1025.92)">
                <path d="M324.351,1319.4C334.248,1311.34 428.053,1304.44 423.258,1337.99C418.056,1374.39 407.75,1405.58 380.408,1437.94C361.891,1459.86 347.069,1465.81 325.561,1468.9C250.993,1479.62 289.823,1347.5 324.351,1319.4Z" style="fill:rgb(182,81,204);"/>
            </g>
            <g transform="matrix(0.839772,0.617423,-0.617423,0.839772,1536.83,-339.184)">
                <path d="M1387.66,2076.01C1390.33,2063.53 1395.18,2055.46 1404.49,2060.35C1410.46,2082.21 1424.03,2097 1450.16,2104.01C1446.69,2113.03 1443.53,2118.3 1435.33,2116.85C1406.26,2115.94 1392.39,2100.38 1387.66,2076.01Z" style="fill:rgb(182,81,204);stroke:rgb(182,81,204);stroke-width:5px;"/>
            </g>
            <g transform="matrix(0.58896,0.43302,-0.532531,0.724308,1628.78,168.829)">
                <path d="M1387.66,2076.01C1390.33,2063.53 1395.18,2055.46 1404.49,2060.35C1410.46,2082.21 1425.94,2098.55 1452.06,2105.56C1451.6,2115.95 1446.18,2117.19 1435.33,2114.53C1406.26,2113.62 1392.39,2100.38 1387.66,2076.01Z" style="fill:rgb(182,81,204);stroke:rgb(182,81,204);stroke-width:6.36px;"/>
            </g>
            <g transform="matrix(1.03512,-0.122297,0.122297,1.03512,-323.015,225.009)">
                <path d="M2230.73,2289.37C2237.63,2335.4 2283.91,2399.25 2334.41,2412.43C2376.76,2426.64 2412.42,2401.82 2428.78,2381.55C2370.18,2430.54 2302.35,2399.94 2230.73,2289.37Z" style="fill:rgb(182,81,204);"/>
            </g>
        </g>
    </g>
</svg>
