<?xml version="1.0" encoding="UTF-8" standalone="no"?>
<svg version="1.1" xmlns="http://www.w3.org/2000/svg" xmlns:xlink="http://www.w3.org/1999/xlink" xmlns:i="http://ns.adobe.com/AdobeIllustrator/10.0/" width="3005" height="3005">
	<g id="dp_dp001" transform="matrix(1,0,0,1,-4343.79,-2504.34)">
		<path id="dp_path002" fill="#31323d" fill-rule="evenodd" fill-opacity="0.294118" d="M 4760.94,5052.23 C 4958.57,5052.23 5118.78,5077.2 5118.78,5108 C 5118.78,5138.8 4958.57,5163.77 4760.94,5163.77 C 4563.32,5163.77 4403.11,5138.8 4403.11,5108 C 4403.11,5077.2 4563.32,5052.23 4760.94,5052.23 Z "/>
		<path id="dp_path003" fill="#e75f5a" fill-rule="evenodd" stroke="#31323d" stroke-width="12" stroke-linejoin="round" stroke-linecap="round" d="M 4762.72,4438.25 L 5086.26,4768.25 L 4439.18,4768.25 Z "/>
		<path id="dp_path004" fill="#e75f5a" fill-rule="evenodd" stroke="#31323d" stroke-width="12" stroke-linejoin="round" stroke-linecap="round" d="M 4440.74,4770.25 L 5086.25,4770.25 L 5086.25,5131.33 L 4440.74,5131.33 Z "/>
		<path id="dp_path005" fill="#31323d" fill-rule="evenodd" fill-opacity="0.25098" d="M 4714.92,4945.08 L 4845.08,4945.08 L 4845.08,4995.87 L 4714.92,4995.87 Z "/>
		<path id="dp_path006" fill="white" fill-rule="evenodd" stroke="#31323d" stroke-width="10.6667" stroke-linecap="round" d="M 4486.96,4952.54 L 4486.96,4499.03 L 5036.04,4499.03 L 5036.04,4952.54 Z "/>
		<path id="dp_path007" fill="#e75f5a" fill-rule="evenodd" d="M 4752.61,4807.64 C 4752.61,4810.97 4751.75,4813.36 4750.05,4814.8 C 4748.72,4815.98 4746.46,4816.56 4743.25,4816.56 C 4741.49,4816.56 4739.01,4816.31 4735.79,4815.81 C 4732.58,4815.3 4730.22,4815.04 4728.72,4815.04 C 4725.17,4815.04 4722.09,4816.07 4719.47,4818.16 C 4716.39,4817.34 4714.13,4816.93 4712.67,4816.93 C 4711.13,4816.93 4709.67,4817.22 4708.28,4817.79 C 4708.15,4818.64 4707.24,4819.8 4705.55,4821.28 C 4703.86,4822.76 4702.37,4823.49 4701.07,4823.49 C 4700.45,4823.49 4699.04,4823.21 4696.85,4822.66 C 4691.57,4821.53 4688.52,4818.51 4687.73,4813.6 C 4688.8,4811.18 4689.92,4808.72 4691.08,4806.22 C 4692.16,4803.76 4693.56,4801.69 4695.24,4799.99 C 4696.28,4799.62 4697.32,4799.44 4698.37,4799.44 C 4699.35,4799.44 4700.67,4799.67 4702.37,4800.14 C 4704.06,4800.61 4705.28,4800.84 4706.04,4800.84 C 4707.15,4800.84 4708.07,4800.44 4708.79,4799.62 C 4707.85,4795.83 4706.89,4791.86 4705.93,4787.7 C 4704.79,4782.89 4703.42,4778.85 4701.81,4775.58 C 4702.12,4774.57 4702.28,4773.7 4702.28,4772.96 C 4702.28,4771.91 4701.71,4770.35 4700.58,4768.29 C 4699.44,4766.23 4698.88,4764.57 4698.88,4763.3 C 4698.88,4762.18 4699.19,4761.25 4699.79,4760.48 L 4696.87,4753.33 C 4694.96,4756.92 4692.46,4758.7 4689.36,4758.7 C 4685.39,4758.7 4681.84,4756.63 4678.68,4752.47 C 4678.8,4748.82 4678.93,4745.28 4679.09,4741.84 C 4680.01,4737.48 4682.38,4735.48 4686.19,4735.86 C 4687.02,4734.1 4687.98,4732.06 4689.05,4729.74 C 4690.26,4727.08 4690.85,4724.81 4690.85,4722.94 C 4690.85,4721.11 4690.14,4719.22 4688.71,4717.28 C 4689.07,4715.16 4690.02,4713.98 4691.58,4713.74 C 4693.13,4713.51 4693.91,4713.25 4693.91,4712.98 C 4693.91,4712.44 4693.87,4711.55 4693.79,4710.28 C 4695.49,4710.6 4696.63,4710.76 4697.21,4710.76 C 4697.81,4710.76 4698.8,4710.57 4700.19,4710.19 C 4701.57,4709.82 4702.65,4709.62 4703.44,4709.62 C 4706.63,4709.62 4708.63,4711.53 4709.47,4715.35 C 4710.41,4719.49 4711.38,4722.12 4712.39,4723.22 C 4710.27,4726.17 4709.22,4730.05 4709.22,4734.83 C 4709.22,4736.24 4709.25,4737.99 4709.33,4740.11 C 4709.41,4742.23 4709.44,4743.66 4709.44,4744.38 C 4709.44,4745.75 4709.41,4746.74 4709.33,4747.37 L 4711.29,4749.42 C 4712.61,4761.65 4715.61,4774.67 4720.26,4788.48 C 4721.73,4789.35 4723.58,4791.13 4725.78,4793.81 C 4726.66,4794.6 4728.07,4795.97 4729.99,4797.93 C 4731.32,4798.45 4735.16,4798.71 4741.52,4798.71 C 4744.94,4798.71 4747.92,4799.26 4750.47,4800.38 C 4750.32,4801.27 4750.24,4801.82 4750.24,4802.01 C 4750.24,4802.27 4750.57,4802.7 4751.23,4803.3 C 4751.89,4803.91 4752.31,4804.53 4752.48,4805.13 C 4752.56,4805.69 4752.61,4806.52 4752.61,4807.64 Z "/>
		<path id="dp_path008" fill="#e75f5a" fill-rule="evenodd" d="M 4833.99,4807.64 C 4833.99,4810.97 4833.14,4813.36 4831.44,4814.8 C 4830.11,4815.98 4827.84,4816.56 4824.64,4816.56 C 4822.87,4816.56 4820.39,4816.31 4817.18,4815.81 C 4813.97,4815.3 4811.6,4815.04 4810.1,4815.04 C 4806.56,4815.04 4803.47,4816.07 4800.85,4818.16 C 4797.78,4817.34 4795.51,4816.93 4794.05,4816.93 C 4792.51,4816.93 4791.05,4817.22 4789.67,4817.79 C 4789.53,4818.64 4788.63,4819.8 4786.94,4821.28 C 4785.24,4822.76 4783.75,4823.49 4782.45,4823.49 C 4781.84,4823.49 4780.42,4823.21 4778.24,4822.66 C 4772.95,4821.53 4769.91,4818.51 4769.12,4813.6 C 4770.19,4811.18 4771.3,4808.72 4772.46,4806.22 C 4773.55,4803.76 4774.94,4801.69 4776.62,4799.99 C 4777.67,4799.62 4778.71,4799.44 4779.75,4799.44 C 4780.73,4799.44 4782.06,4799.67 4783.75,4800.14 C 4785.45,4800.61 4786.67,4800.84 4787.43,4800.84 C 4788.53,4800.84 4789.46,4800.44 4790.18,4799.62 C 4789.23,4795.83 4788.28,4791.86 4787.32,4787.7 C 4786.18,4782.89 4784.81,4778.85 4783.2,4775.58 C 4783.51,4774.57 4783.67,4773.7 4783.67,4772.96 C 4783.67,4771.91 4783.09,4770.35 4781.97,4768.29 C 4780.83,4766.23 4780.26,4764.57 4780.26,4763.3 C 4780.26,4762.18 4780.57,4761.25 4781.18,4760.48 L 4778.25,4753.33 C 4776.35,4756.92 4773.85,4758.7 4770.75,4758.7 C 4766.78,4758.7 4763.23,4756.63 4760.07,4752.47 C 4760.18,4748.82 4760.32,4745.28 4760.48,4741.84 C 4761.4,4737.48 4763.77,4735.48 4767.58,4735.86 C 4768.41,4734.1 4769.37,4732.06 4770.44,4729.74 C 4771.64,4727.08 4772.24,4724.81 4772.24,4722.94 C 4772.24,4721.11 4771.53,4719.22 4770.1,4717.28 C 4770.45,4715.16 4771.41,4713.98 4772.96,4713.74 C 4774.52,4713.51 4775.29,4713.25 4775.29,4712.98 C 4775.29,4712.44 4775.26,4711.55 4775.18,4710.28 C 4776.88,4710.6 4778.02,4710.76 4778.59,4710.76 C 4779.2,4710.76 4780.19,4710.57 4781.57,4710.19 C 4782.96,4709.82 4784.04,4709.62 4784.83,4709.62 C 4788.02,4709.62 4790.02,4711.53 4790.85,4715.35 C 4791.8,4719.49 4792.77,4722.12 4793.78,4723.22 C 4791.66,4726.17 4790.61,4730.05 4790.61,4734.83 C 4790.61,4736.24 4790.64,4737.99 4790.71,4740.11 C 4790.8,4742.23 4790.83,4743.66 4790.83,4744.38 C 4790.83,4745.75 4790.8,4746.74 4790.71,4747.37 L 4792.68,4749.42 C 4794,4761.65 4796.99,4774.67 4801.64,4788.48 C 4803.12,4789.35 4804.96,4791.13 4807.17,4793.81 C 4808.05,4794.6 4809.45,4795.97 4811.38,4797.93 C 4812.71,4798.45 4816.55,4798.71 4822.9,4798.71 C 4826.33,4798.71 4829.31,4799.26 4831.85,4800.38 C 4831.71,4801.27 4831.63,4801.82 4831.63,4802.01 C 4831.63,4802.27 4831.96,4802.7 4832.62,4803.3 C 4833.28,4803.91 4833.69,4804.53 4833.87,4805.13 C 4833.95,4805.69 4833.99,4806.52 4833.99,4807.64 Z "/>
		<path id="dp_path009" fill="#e75f5a" fill-rule="evenodd" d="M 4906.69,4710.18 C 4906.69,4714.29 4905.61,4718.56 4903.47,4723.02 C 4902.91,4724.15 4901.03,4727.24 4897.87,4732.27 C 4897.27,4733.37 4896,4735.53 4894.06,4738.74 C 4890.52,4744.92 4887.87,4749.79 4886.13,4753.32 C 4881.02,4763.52 4877.72,4769.89 4876.22,4772.41 C 4872.09,4779.5 4867.62,4785.29 4862.81,4789.78 C 4862.81,4789.78 4862.43,4789.78 4861.67,4789.78 C 4859.17,4789.78 4857.91,4788.71 4857.91,4786.57 L 4858.05,4786.15 C 4858.4,4782.58 4860.01,4777.86 4862.88,4771.97 C 4865.85,4765.99 4867.61,4761.41 4868.13,4758.21 C 4869.9,4756.54 4871.16,4754.34 4871.92,4751.59 C 4872.98,4747.65 4873.79,4745.18 4874.35,4744.2 C 4874.82,4743.47 4875.49,4742.43 4876.33,4741.07 C 4878.03,4738.29 4879.92,4734.48 4882.02,4729.67 C 4884.97,4722.86 4886.67,4719.03 4887.11,4718.19 C 4886.96,4717.8 4886.88,4717.02 4886.88,4715.88 C 4886.88,4711.07 4889.32,4706.86 4894.19,4703.24 C 4896.32,4703.94 4898.16,4704.9 4899.71,4706.11 C 4903.14,4708.1 4905.46,4709.46 4906.69,4710.18 Z M 4859.55,4809.79 C 4856.83,4815.4 4854.32,4819.38 4852.02,4821.73 C 4848.61,4825.25 4844.47,4827 4839.58,4827 L 4838.42,4827 C 4836.61,4823.18 4835.71,4819.37 4835.71,4815.58 C 4835.71,4812.59 4836.15,4809.34 4837.06,4805.79 C 4837.33,4805.65 4839.47,4803.52 4843.48,4799.39 C 4845.13,4797.23 4847.63,4795.98 4851.01,4795.66 C 4851.73,4797.06 4853.26,4799.3 4855.59,4802.42 C 4857.52,4805.01 4858.84,4807.46 4859.55,4809.79 Z "/>
		<path id="dp_path010" fill="#e75f5a" fill-rule="evenodd" d="M 4626.23,4637.6 C 4626.31,4638.54 4626.05,4639.28 4625.44,4639.83 C 4625.64,4640.39 4625.78,4641.12 4625.85,4642.06 C 4626.09,4645.06 4625.76,4648.38 4624.84,4652.04 C 4624.68,4652.54 4624.46,4653.32 4624.18,4654.36 C 4623.93,4655.69 4623.21,4657.75 4622.02,4660.51 C 4620.04,4663.66 4616.65,4666.06 4611.85,4667.69 C 4609.72,4668.42 4605.72,4669.33 4599.85,4670.43 C 4597.51,4670.85 4595.14,4671.34 4592.73,4671.91 C 4592.33,4672.01 4591.94,4672.07 4591.55,4672.1 C 4588.64,4672.33 4585.05,4671.8 4580.77,4670.51 C 4577.58,4669.51 4574.74,4668.68 4572.24,4668 C 4572.18,4668.06 4571.93,4668.12 4571.49,4668.15 C 4570.72,4668.21 4569.66,4668.05 4568.29,4667.65 C 4566.72,4667.2 4565.55,4666.91 4564.79,4666.79 L 4564.71,4665.75 C 4564.68,4665.44 4564.19,4665.32 4563.24,4665.4 C 4561.96,4665.5 4561.11,4665.23 4560.71,4664.57 L 4550.69,4658.92 C 4548.04,4655.17 4545.99,4652.2 4544.53,4650 C 4542.97,4647.75 4542.03,4644.63 4541.71,4640.65 C 4541.19,4634.14 4543.05,4626.97 4547.28,4619.14 C 4547.11,4618.93 4547,4618.54 4546.95,4617.95 C 4546.83,4616.42 4547.76,4615.3 4549.74,4614.59 C 4551.61,4613.9 4552.73,4613.37 4553.11,4612.99 C 4554.98,4613.34 4556.14,4614.31 4556.59,4615.89 C 4557.04,4617.48 4557.67,4618.33 4558.49,4618.46 C 4558.8,4619.05 4558.97,4619.51 4558.99,4619.8 C 4559.1,4621.06 4558.48,4622.28 4557.15,4623.47 C 4555.52,4625 4554.64,4625.93 4554.5,4626.27 C 4554.36,4627.08 4554.18,4628.09 4553.94,4629.29 C 4552.81,4634.75 4552.34,4638.78 4552.55,4641.4 C 4552.75,4643.9 4553.13,4645.56 4553.69,4646.36 C 4554.87,4648.11 4556.81,4650.34 4559.53,4653.05 C 4568.4,4659.6 4581.28,4662.2 4598.19,4660.85 C 4598.49,4659.61 4599.69,4658.96 4601.79,4658.92 C 4603.2,4658.84 4604.27,4658.45 4605,4657.78 L 4606.1,4658.52 C 4612.48,4653.67 4615.23,4645.79 4614.35,4634.85 C 4614.11,4631.82 4613.63,4629.01 4612.9,4626.45 C 4612.35,4624.59 4610.59,4622.76 4607.64,4620.95 C 4604.42,4618.96 4602.73,4617 4602.58,4615.09 C 4602.48,4613.82 4603.2,4611.75 4604.73,4608.88 C 4605.31,4607.71 4606.13,4606.92 4607.16,4606.49 C 4608.45,4605.9 4609.48,4605.24 4610.25,4604.48 C 4616.15,4606.77 4620.26,4611.07 4622.59,4617.36 C 4623.82,4619.8 4624.87,4624.9 4625.74,4632.67 C 4625.21,4633.24 4624.95,4633.72 4624.98,4634.1 C 4625.01,4634.43 4625.21,4634.97 4625.59,4635.71 C 4625.98,4636.44 4626.19,4637.07 4626.23,4637.6 Z "/>
		<path id="dp_path011" fill="#e75f5a" fill-rule="evenodd" d="M 4777.45,4652.89 C 4777.53,4653.97 4777.23,4655.1 4776.55,4656.28 C 4776.06,4656.53 4775.23,4657.28 4774.06,4658.49 C 4772.89,4659.7 4771.73,4660.35 4770.58,4660.44 C 4769.7,4660.51 4768.98,4660.41 4768.42,4660.13 C 4767.93,4659.8 4767.22,4659.36 4766.3,4658.82 C 4764.25,4657.63 4762.58,4656.71 4761.28,4656.07 C 4757.8,4655.35 4752.78,4654.7 4746.21,4654.11 C 4740.82,4653.61 4736.67,4652.85 4733.79,4651.86 C 4733.56,4652 4733.11,4652.1 4732.42,4652.15 C 4731.71,4652.21 4730.79,4652.11 4729.65,4651.87 C 4728.51,4651.62 4727.71,4651.52 4727.25,4651.55 C 4726.68,4651.6 4725.93,4651.93 4724.98,4652.56 C 4724.17,4652.07 4723.3,4651.87 4722.39,4651.94 C 4720.55,4652.09 4719.63,4652.16 4719.63,4652.16 C 4718.68,4652.61 4717.39,4654.15 4715.76,4656.77 C 4713.95,4660.2 4711.93,4662 4709.7,4662.18 C 4708.86,4662.24 4708.02,4661.87 4707.19,4661.06 C 4706.62,4660.5 4706.33,4660.24 4706.32,4660.25 C 4706.18,4658.47 4704.77,4656.38 4702.09,4654 C 4699.4,4651.62 4697.99,4649.53 4697.85,4647.72 C 4697.71,4646.1 4698.19,4644.53 4699.27,4643.04 C 4697.85,4640.02 4696.42,4635.48 4694.95,4629.42 C 4693.84,4625.08 4692.73,4621.03 4691.63,4617.27 C 4691.66,4616.96 4691.67,4616.6 4691.63,4616.21 C 4691.53,4614.95 4690.52,4614.41 4688.59,4614.56 C 4687.32,4614.66 4686.38,4614.94 4685.76,4615.41 C 4684.03,4616.61 4682.92,4617.4 4682.43,4617.79 C 4681.12,4618.87 4680.23,4619.84 4679.78,4620.72 C 4679.01,4620.99 4678.39,4621.14 4677.91,4621.18 C 4676.8,4621.27 4675.62,4621.04 4674.36,4620.5 C 4673.34,4619.99 4672.26,4619.46 4671.12,4618.9 C 4670.29,4617.51 4669.78,4615.75 4669.61,4613.59 C 4669.71,4610.65 4669.61,4609.35 4669.3,4609.69 C 4670.3,4608.29 4672.23,4607.12 4675.08,4606.2 C 4676.41,4605.68 4677.72,4605.38 4678.99,4605.27 C 4679.27,4605.25 4679.64,4605.26 4680.12,4605.32 C 4680.6,4605.37 4680.95,4605.39 4681.17,4605.37 C 4681.45,4605.35 4681.8,4605.16 4682.22,4604.81 C 4683.15,4604.03 4683.97,4603.53 4684.66,4603.3 C 4685.16,4603.91 4685.51,4604.2 4685.69,4604.19 C 4685.91,4604.17 4686.34,4603.87 4687.01,4603.3 C 4687.68,4602.73 4688.14,4602.41 4688.4,4602.34 C 4688.99,4601.46 4689.62,4600.5 4690.31,4599.46 C 4691.32,4597.92 4692.55,4597.1 4694.01,4596.98 C 4695.27,4596.88 4696.81,4597.65 4698.63,4599.3 C 4700.45,4600.95 4701.68,4601.75 4702.33,4601.7 C 4702.85,4601.66 4703.62,4601.12 4704.61,4600.1 C 4706.93,4600.79 4710.82,4601.17 4716.28,4601.27 C 4721.08,4601.32 4724.51,4601.96 4726.56,4603.19 L 4727.2,4602.26 C 4736.66,4604.15 4744.08,4606.91 4749.45,4610.53 C 4750.82,4611.48 4751.79,4612.26 4752.36,4612.88 C 4753.31,4613.84 4753.86,4615.22 4754,4616.99 C 4754.16,4619.02 4753.45,4621.35 4751.86,4623.94 C 4750.61,4625.78 4749.39,4627.57 4748.19,4629.32 C 4746.25,4632.37 4742.86,4634.87 4738.02,4636.82 C 4733.33,4638.71 4730.35,4640.16 4729.09,4641.16 C 4733.93,4641.84 4741.61,4642.71 4752.12,4643.79 C 4753.25,4644.57 4755.15,4645.09 4757.84,4645.34 C 4760.52,4645.58 4762.32,4646.05 4763.21,4646.75 C 4763.74,4646.24 4764.63,4645.93 4765.9,4645.83 C 4766.9,4645.75 4768.24,4645.91 4769.94,4646.3 C 4771.64,4646.7 4773,4646.87 4774.04,4646.83 C 4776.16,4649.04 4777.3,4651.06 4777.45,4652.89 Z M 4738.19,4618.12 L 4738.21,4618.32 C 4737.89,4618.21 4735.85,4617.21 4732.1,4615.28 C 4729.5,4613.97 4727.37,4613.27 4725.71,4613.2 C 4724.46,4613.2 4722.56,4613.2 4720.03,4613.19 C 4713.11,4612.92 4709.13,4612.83 4708.11,4612.91 C 4705.94,4613.08 4704.22,4613.41 4702.93,4613.89 C 4703.59,4615.46 4704.24,4618.02 4704.89,4621.59 C 4705.68,4626.12 4706.21,4628.94 4706.49,4630.06 C 4707.66,4630.52 4708.32,4631.74 4708.47,4633.73 C 4708.27,4635.08 4708.34,4635.91 4708.67,4636.2 C 4708.9,4636.58 4709.64,4636.72 4710.88,4636.63 C 4711.5,4636.57 4712.45,4636.35 4713.73,4635.98 C 4715,4635.6 4716,4635.38 4716.73,4635.32 C 4717.38,4635.27 4718.11,4634.75 4718.9,4633.77 C 4719.7,4632.78 4720.55,4632.25 4721.46,4632.18 C 4722.05,4632.13 4722.44,4632.18 4722.65,4632.33 C 4723.44,4631.63 4725.66,4630.4 4729.3,4628.63 C 4732.39,4627.13 4734.58,4625.75 4735.87,4624.49 C 4737.62,4622.77 4738.39,4620.65 4738.19,4618.12 Z "/>
		<path id="dp_path012" fill="#e75f5a" fill-rule="evenodd" d="M 4909.37,4631.64 C 4909.25,4633.93 4908.62,4635.67 4907.48,4636.86 C 4907.15,4637.21 4906.07,4638.09 4904.26,4639.51 C 4903.84,4639.92 4903.16,4640.48 4902.25,4641.2 C 4901.35,4641.92 4900.03,4642.35 4898.3,4642.49 C 4896.89,4642.6 4894.95,4642.34 4892.45,4641.69 C 4889.96,4641.04 4888.11,4640.77 4886.92,4640.86 C 4886.64,4640.88 4886.16,4641 4885.48,4641.21 C 4884.81,4641.41 4884.24,4641.54 4883.79,4641.58 C 4881.78,4641.74 4879.26,4640.93 4876.24,4639.15 C 4873.23,4637.39 4871.17,4636.54 4870.07,4636.63 C 4868.66,4636.74 4867.27,4637.86 4865.9,4639.97 C 4864,4643.64 4860.03,4645.88 4853.99,4646.69 C 4853.32,4646.74 4852.39,4646.85 4851.23,4646.99 C 4850.43,4647.24 4849.25,4647.57 4847.72,4647.97 C 4845.14,4648.24 4841.26,4648.86 4836.07,4649.83 C 4836.07,4649.83 4835.92,4649.84 4835.61,4649.87 C 4831.66,4650.18 4826.83,4648.31 4821.12,4644.26 C 4820.25,4642.44 4819.74,4640.51 4819.57,4638.46 C 4819.36,4635.83 4819.56,4633.92 4820.18,4632.73 C 4820.3,4632.51 4820.81,4631.99 4821.71,4631.15 C 4823.79,4628.51 4826.6,4625.9 4830.12,4623.32 C 4832.9,4621.38 4835.74,4619.39 4838.65,4617.34 C 4840.41,4616.85 4843.38,4615.38 4847.53,4612.91 C 4851.42,4610.6 4854.53,4609.35 4856.89,4609.16 C 4859.17,4608.98 4861.33,4609.59 4863.38,4610.99 C 4863.58,4611.1 4863.87,4611.31 4864.24,4611.62 C 4864.21,4611.69 4865.47,4613.56 4868.05,4617.23 C 4867.98,4617.98 4867.96,4618.52 4867.99,4618.9 C 4868.12,4620.49 4869.09,4622 4870.9,4623.42 C 4874.05,4625.86 4875.68,4627.16 4875.82,4627.31 C 4877.98,4627.99 4882.45,4628.62 4889.23,4629.21 C 4890.31,4627.43 4892.29,4626.11 4895.17,4625.22 C 4898.06,4624.53 4900.59,4623.89 4902.76,4623.28 C 4903.31,4624.67 4904.47,4625.98 4906.22,4627.21 C 4908.2,4628.57 4909.24,4630.03 4909.37,4631.59 C 4909.34,4631.63 4909.34,4631.64 4909.37,4631.64 Z M 4856.95,4632.41 C 4855.69,4632.06 4854.39,4631.03 4853.06,4629.35 C 4852.04,4627.83 4851.17,4626.49 4850.45,4625.33 C 4841.93,4628.03 4836.33,4632.17 4833.62,4637.75 C 4834.11,4638.16 4834.77,4638.34 4835.6,4638.28 C 4836.03,4638.24 4836.7,4638.08 4837.63,4637.79 C 4838.56,4637.5 4839.31,4637.33 4839.91,4637.28 C 4841,4637.2 4841.84,4637.35 4842.44,4637.74 C 4843.82,4637.07 4845.49,4636.65 4847.45,4636.49 C 4847.67,4636.48 4848.27,4636.45 4849.24,4636.4 C 4850.22,4636.35 4851.02,4636.31 4851.67,4636.25 C 4851.84,4636.18 4852.2,4636 4852.75,4635.72 C 4855.11,4634.61 4856.51,4633.5 4856.95,4632.41 Z "/>
		<path id="dp_path013" fill="#e75f5a" fill-rule="evenodd" d="M 4973.03,4629.79 C 4973.18,4631.57 4972.41,4633.39 4970.73,4635.29 C 4969.55,4636.63 4968.33,4637.35 4967.06,4637.46 C 4966,4637.54 4964.71,4637.33 4963.2,4636.82 C 4961.99,4636.33 4960.82,4635.87 4959.67,4635.44 C 4958.55,4633.15 4956.28,4630.32 4952.87,4626.96 C 4949.46,4623.6 4947.27,4620.87 4946.31,4618.76 C 4945.14,4618.14 4943.56,4616.61 4941.57,4614.18 C 4939.83,4612.05 4938.54,4610.7 4937.73,4610.15 C 4933.74,4615.13 4931.46,4623.66 4930.9,4635.75 C 4929.43,4638.97 4926.38,4641.83 4921.76,4644.34 C 4919.91,4643.37 4918.39,4641.59 4917.2,4639.02 C 4916.09,4636.62 4915.13,4635.07 4914.34,4634.4 C 4913.9,4634.51 4913.57,4633.01 4913.33,4629.89 C 4913.17,4627.98 4912.52,4626.46 4911.36,4625.33 C 4910.27,4615.94 4907.89,4606.19 4904.24,4596.09 C 4903.98,4595.32 4903.83,4594.72 4903.79,4594.26 C 4903.67,4592.73 4904.21,4591.18 4905.43,4589.61 C 4906.64,4588.03 4908.04,4587.17 4909.62,4587.05 C 4911.31,4586.91 4913.25,4588.48 4915.44,4591.75 C 4915.1,4592.54 4914.95,4593.14 4914.98,4593.54 C 4915.02,4594.07 4915.3,4594.84 4915.8,4595.82 C 4916.13,4596.31 4916.5,4596.96 4916.92,4597.77 C 4916.99,4597.88 4917.23,4598.69 4917.64,4600.2 C 4917.79,4600.57 4918.01,4601.12 4918.28,4601.87 C 4918.58,4602.93 4918.8,4604.43 4918.96,4606.36 L 4919.3,4610.66 C 4919.57,4614.09 4920.1,4616.4 4920.86,4617.59 C 4921.46,4617.07 4922.03,4616 4922.58,4614.41 C 4922.96,4612.83 4923.35,4611.22 4923.73,4609.59 C 4923.84,4609.11 4924.11,4608.34 4924.55,4607.3 C 4924.73,4607.06 4924.97,4606.73 4925.28,4606.31 C 4925.69,4605.73 4926.2,4604.9 4926.8,4603.83 C 4928.81,4600.18 4930.05,4598.04 4930.53,4597.4 C 4932.39,4594.96 4934.63,4593.64 4937.25,4593.43 C 4938.26,4593.35 4939.45,4593.46 4940.82,4593.76 C 4942.72,4595.28 4945.01,4597.7 4947.7,4601.03 C 4950.39,4604.38 4952.64,4606.85 4954.45,4608.47 C 4954.26,4609.15 4954.17,4609.61 4954.19,4609.86 C 4954.23,4610.31 4954.75,4611.14 4955.76,4612.35 C 4956.76,4613.55 4957.27,4614.33 4957.3,4614.68 C 4956.82,4614.71 4956.69,4614.71 4956.89,4614.7 C 4957.95,4614.61 4958.85,4615.38 4959.61,4617 C 4960.14,4618.06 4960.43,4618.61 4960.49,4618.66 C 4961.27,4619.4 4962.95,4619.84 4965.51,4619.97 C 4968.39,4620.13 4970.15,4620.96 4970.77,4622.44 C 4970.87,4622.84 4971.05,4623.56 4971.33,4624.58 C 4972.44,4627.67 4973,4629.41 4973.03,4629.79 Z "/>
		<path id="dp_path014" fill="#e75f5a" fill-rule="evenodd" stroke="#31323d" stroke-width="12" stroke-linejoin="round" stroke-linecap="round" d="M 5086.25,4770.25 L 4440.75,5131.33 L 5086.25,5131.33 Z "/>
		<path id="dp_path015" fill="#e75f5a" fill-rule="evenodd" stroke="#31323d" stroke-width="12" stroke-linejoin="round" stroke-linecap="round" d="M 4440.74,4770.25 L 5086.25,5131.33 L 4440.74,5131.33 Z "/>
		<path id="dp_path016" fill="#31323d" fill-rule="evenodd" fill-opacity="0.501961" d="M 4786.57,5117.83 L 4459.61,5117.83 C 4459.61,5117.83 4459.61,5117.83 4459.61,5117.83 L 4459.61,4771.25 L 4442.4,4771.25 L 4442.4,5117.83 C 4442.4,5125.81 4448.87,5132.28 4456.84,5132.28 L 4786.57,5132.28 Z "/>
		<path id="dp_path017" fill="#e75f5a" fill-rule="evenodd" stroke="#31323d" stroke-width="8" stroke-linejoin="round" stroke-linecap="round" d="M 5840.78,3760 C 5857.48,3785.71 5862.49,3788.57 5864.72,3798.86 C 5870.84,3822.86 5832.99,3822.86 5839.11,3798.86 C 5841.34,3788.57 5846.35,3785.71 5840.78,3760 Z "/>
		<path id="dp_path018" fill="#e75f5a" fill-rule="evenodd" stroke="#31323d" stroke-width="8" stroke-linejoin="round" stroke-linecap="round" d="M 5870.01,3844.09 C 5870.62,3873.24 5867.43,3878.54 5869.71,3888.91 C 5874.22,3913.62 5907.19,3892.8 5892.01,3874.83 C 5885.85,3866.9 5880.32,3867.12 5870.01,3844.09 Z "/>
		<path id="dp_path019" fill="#e75f5a" fill-rule="evenodd" stroke="#31323d" stroke-width="8" stroke-linejoin="round" stroke-linecap="round" d="M 5891.51,3916.25 C 5904.36,3945.07 5908.89,3948.93 5909.65,3959.53 C 5912.31,3984.45 5875.01,3976.57 5884.41,3954.19 C 5888.05,3944.52 5893.39,3942.75 5891.51,3916.25 Z "/>
		<path id="dp_path020" fill="#e75f5a" fill-rule="evenodd" stroke="#31323d" stroke-width="8" stroke-linejoin="round" stroke-linecap="round" d="M 5744.41,3782 C 5727.71,3807.71 5722.7,3810.57 5720.47,3820.86 C 5714.35,3844.86 5752.2,3844.86 5746.08,3820.86 C 5743.85,3810.57 5738.84,3807.71 5744.41,3782 Z "/>
		<path id="dp_path021" fill="#e75f5a" fill-rule="evenodd" stroke="#31323d" stroke-width="8" stroke-linejoin="round" stroke-linecap="round" d="M 5718.46,3866.95 C 5717.85,3896.1 5721.04,3901.39 5718.76,3911.77 C 5714.25,3936.48 5681.29,3915.66 5696.46,3897.68 C 5702.62,3889.76 5708.16,3889.97 5718.46,3866.95 Z "/>
		<path id="dp_path022" fill="#e75f5a" fill-rule="evenodd" stroke="#31323d" stroke-width="8" stroke-linejoin="round" stroke-linecap="round" d="M 5711.62,3964.6 C 5702.67,3994.86 5698.68,3999.28 5699.32,4009.88 C 5699.95,4034.94 5735.89,4022.23 5723.64,4001.28 C 5718.76,3992.17 5713.24,3991.12 5711.62,3964.6 Z "/>
	</g>
</svg>