<?xml version="1.0" encoding="UTF-8" standalone="no"?>
<svg version="1.1" xmlns="http://www.w3.org/2000/svg" xmlns:xlink="http://www.w3.org/1999/xlink" xmlns:i="http://ns.adobe.com/AdobeIllustrator/10.0/" width="3258.55" height="3005.45">
	<g id="dp_dp001" transform="matrix(1,0,0,1,-4090.45,-2504.52)">
		<path id="dp_path002" fill="#e75f5a" fill-rule="evenodd" stroke="#31323d" stroke-width="12" stroke-linejoin="round" stroke-linecap="round" d="M 4762.72,4438.25 L 5086.26,4768.25 L 4439.18,4768.25 Z "/>
		<path id="dp_path003" fill="#e75f5a" fill-rule="evenodd" stroke="#31323d" stroke-width="12" stroke-linejoin="round" stroke-linecap="round" d="M 4440.74,4770.25 L 5086.25,4770.25 L 5086.25,5131.33 L 4440.74,5131.33 Z "/>
		<path id="dp_path004" fill="#31323d" fill-rule="evenodd" fill-opacity="0.25098" d="M 4714.92,4945.08 L 4845.08,4945.08 L 4845.08,4995.87 L 4714.92,4995.87 Z "/>
		<path id="dp_path005" fill="white" fill-rule="evenodd" stroke="#31323d" stroke-width="10.6667" stroke-linecap="round" d="M 4486.96,4952.54 L 4486.96,4499.03 L 5036.04,4499.03 L 5036.04,4952.54 Z "/>
		<path id="dp_path006" fill="#e75f5a" fill-rule="evenodd" stroke="#31323d" stroke-width="12" stroke-linejoin="round" stroke-linecap="round" d="M 5083.8,4766.29 C 4892.8,4766.29 4737.4,4927.58 4735.4,5127.9 L 5083.8,5131.73 Z "/>
		<path id="dp_path007" fill="#e75f5a" fill-rule="evenodd" stroke="#31323d" stroke-width="12" stroke-linejoin="round" stroke-linecap="round" d="M 4439.4,4768.29 C 4630.4,4768.29 4785.8,4929.58 4787.8,5129.9 L 4439.4,5133.73 Z "/>
	</g>
	<text id="dp_text001" transform="matrix(0.996821,-0.079677,0.079677,0.996821,448.028,2167.01)" xml:space="preserve" fill="#e75f5a" font-family="Undercurrent BTN" font-size="96" font-weight="700" x="0" y="0">U R an</text>
	<text id="dp_text002" transform="matrix(0.944524,0,0,1,576.837,2302.69)" xml:space="preserve" fill="#e75f5a" font-family="Undercurrent BTN" font-size="128" font-weight="700" x="0" y="0.00133333">11!</text>
	<g id="dp_dp010" transform="matrix(1,0,0,1,-4090.45,-2504.52)">
		<path id="dp_path011" fill="#31323d" fill-rule="evenodd" fill-opacity="0.501961" d="M 4786.57,5117.83 L 4459.61,5117.83 C 4459.61,5117.83 4459.61,5117.83 4459.61,5117.83 L 4459.61,4771.25 L 4442.4,4771.25 L 4442.4,5117.83 C 4442.4,5125.81 4448.87,5132.28 4456.84,5132.28 L 4786.57,5132.28 Z "/>
		<path id="dp_path012" fill="#e75f5a" fill-rule="evenodd" stroke="#31323d" stroke-width="8" stroke-linejoin="round" stroke-linecap="round" d="M 5840.78,3760 C 5857.48,3785.71 5862.49,3788.57 5864.72,3798.86 C 5870.84,3822.86 5832.99,3822.86 5839.11,3798.86 C 5841.34,3788.57 5846.35,3785.71 5840.78,3760 Z "/>
		<path id="dp_path013" fill="#e75f5a" fill-rule="evenodd" stroke="#31323d" stroke-width="8" stroke-linejoin="round" stroke-linecap="round" d="M 5870.01,3844.09 C 5870.62,3873.24 5867.43,3878.54 5869.71,3888.91 C 5874.22,3913.62 5907.19,3892.8 5892.01,3874.83 C 5885.85,3866.9 5880.32,3867.12 5870.01,3844.09 Z "/>
		<path id="dp_path014" fill="#e75f5a" fill-rule="evenodd" stroke="#31323d" stroke-width="8" stroke-linejoin="round" stroke-linecap="round" d="M 5891.51,3916.25 C 5904.36,3945.07 5908.89,3948.93 5909.65,3959.53 C 5912.31,3984.45 5875.01,3976.57 5884.41,3954.19 C 5888.05,3944.52 5893.39,3942.75 5891.51,3916.25 Z "/>
		<path id="dp_path015" fill="#e75f5a" fill-rule="evenodd" stroke="#31323d" stroke-width="8" stroke-linejoin="round" stroke-linecap="round" d="M 5744.41,3782 C 5727.71,3807.71 5722.7,3810.57 5720.47,3820.86 C 5714.35,3844.86 5752.2,3844.86 5746.08,3820.86 C 5743.85,3810.57 5738.84,3807.71 5744.41,3782 Z "/>
		<path id="dp_path016" fill="#e75f5a" fill-rule="evenodd" stroke="#31323d" stroke-width="8" stroke-linejoin="round" stroke-linecap="round" d="M 5718.46,3866.95 C 5717.85,3896.1 5721.04,3901.39 5718.76,3911.77 C 5714.25,3936.48 5681.29,3915.66 5696.46,3897.68 C 5702.62,3889.76 5708.16,3889.97 5718.46,3866.95 Z "/>
		<path id="dp_path017" fill="#e75f5a" fill-rule="evenodd" stroke="#31323d" stroke-width="8" stroke-linejoin="round" stroke-linecap="round" d="M 5711.62,3964.6 C 5702.67,3994.86 5698.68,3999.28 5699.32,4009.88 C 5699.95,4034.94 5735.89,4022.23 5723.64,4001.28 C 5718.76,3992.17 5713.24,3991.12 5711.62,3964.6 Z "/>
	</g>
</svg>