<?xml version="1.0" encoding="UTF-8" standalone="no"?>
<svg version="1.1" xmlns="http://www.w3.org/2000/svg" xmlns:xlink="http://www.w3.org/1999/xlink" xmlns:i="http://ns.adobe.com/AdobeIllustrator/10.0/" width="364.8" height="364.8">
	<g id="dp_dp001" transform="matrix(1,0,0,1,-7673.96,-2504.36)">
		<path id="dp_path002" fill="white" fill-rule="evenodd" d="M 7676.41,2507.15 L 8036.41,2507.15 L 8036.41,2867.15 L 7676.41,2867.15 Z "/>
		<path id="dp_path003" fill="#e5e5e5" fill-rule="evenodd" stroke="#e5e5e5" stroke-width="8" d="M 7860,2759 C 7935.11,2759 7996,2771.54 7996,2787 C 7996,2802.46 7935.11,2815 7860,2815 C 7784.89,2815 7724,2802.46 7724,2787 C 7724,2771.54 7784.89,2759 7860,2759 Z "/>
		<path id="dp_path004" fill="#ffccd8" fill-rule="evenodd" stroke="#31323d" stroke-width="7.33333" stroke-linejoin="round" stroke-linecap="round" d="M 7851.94,2629.58 C 7863.79,2611.97 7892,2611.16 7903.11,2622.84 S 7913.29,2651.02 7901.44,2668.63 C 7893.16,2681.83 7866.66,2712.96 7854.53,2713.58 S 7813.07,2683.38 7804.36,2670.51 C 7791.95,2653.37 7791.98,2637.19 7802.42,2625.74 S 7839.52,2612.43 7851.94,2629.58 Z "/>
		<path id="dp_path005" fill="#31323d" fill-rule="evenodd" fill-opacity="0.501961" d="M 7854.53,2713.58 C 7855.19,2716.67 7812.62,2686.67 7804.36,2670.51 C 7787.14,2645.99 7799.93,2628.63 7802.42,2625.74 S 7794.89,2636.04 7804.48,2654.94 C 7818.1,2681.79 7853.88,2710.49 7854.53,2713.58 Z "/>
		<path id="dp_path006" fill="#31323d" fill-rule="evenodd" fill-opacity="0.501961" d="M 7857.73,2710.05 C 7870.19,2687.98 7883.96,2682.47 7878.99,2683.96 C 7874.75,2685.23 7874.43,2707.16 7862.06,2709.62 C 7860.28,2709.97 7856.79,2711.7 7857.73,2710.05 Z "/>
	</g>
	<text id="dp_text001" transform="matrix(0.929439,0,0,1,152.108,157.005)" xml:space="preserve" fill="#e75f5a" stroke="#e75f5a" stroke-width="1.2" font-family="Accord Heavy SF" font-size="22" font-weight="700" x="-8.232" y="-0.00133333">QT CAT</text>
	<path id="dp_path008" transform="matrix(1,0,0,1,-7673.96,-2504.36)" fill="#9eeec5" fill-rule="evenodd" stroke="#31323d" stroke-width="7.33333" stroke-linejoin="round" stroke-linecap="round" d="M 7919.84,2676.59 C 7931.69,2658.97 7959.9,2658.17 7971.01,2669.85 S 7981.19,2698.03 7969.34,2715.64 C 7961.06,2728.84 7934.56,2759.97 7922.43,2760.59 S 7880.97,2730.39 7872.27,2717.52 C 7859.85,2700.37 7859.88,2684.2 7870.32,2672.75 S 7907.42,2659.44 7919.84,2676.59 Z "/>
	<g id="dp_dp009" transform="matrix(1,0,0,1,221.765,197.704)">
		<text id="dp_text002" transform="matrix(0.929569,0,0,1,1.05552,0)" xml:space="preserve" fill="#e75f5a" font-family="Accord Heavy SF" font-size="22" font-weight="700" x="14.9867" y="0">BE</text>
		<text id="dp_text003" transform="matrix(0.929396,0,0,1,-0.0425508,0)" xml:space="preserve" fill="#e75f5a" font-family="Accord Heavy SF" font-size="22" font-weight="700" x="-0.602667" y="22.3947">MINE</text>
	</g>
	<g id="dp_dp012" transform="matrix(1,0,0,1,-7673.96,-2504.36)">
		<path id="dp_path013" fill="#31323d" fill-rule="evenodd" fill-opacity="0.501961" d="M 7922.43,2760.59 C 7923.09,2763.68 7880.52,2733.68 7872.27,2717.52 C 7855.04,2693 7867.83,2675.64 7870.32,2672.75 S 7862.79,2683.05 7872.38,2701.95 C 7886,2728.8 7921.78,2757.5 7922.43,2760.59 Z "/>
		<path id="dp_path014" fill="#afd0f7" fill-rule="evenodd" stroke="#31323d" stroke-width="7.33333" stroke-linejoin="round" stroke-linecap="round" d="M 7788.26,2702.25 C 7800.11,2684.64 7828.32,2683.84 7839.44,2695.51 S 7849.61,2723.69 7837.76,2741.31 C 7829.48,2754.51 7802.98,2785.63 7790.85,2786.25 S 7749.39,2756.05 7740.69,2743.19 C 7728.27,2726.04 7728.31,2709.87 7738.74,2698.42 S 7775.85,2685.11 7788.26,2702.25 Z "/>
	</g>
	<g id="dp_dp015" transform="matrix(1,0,0,1,89.8938,221.16)">
		<text id="dp_text004" transform="matrix(0.929483,0,0,1,0.51656,0)" xml:space="preserve" fill="#e75f5a" font-family="Accord Heavy SF" font-size="22" font-weight="700" x="7.32533" y="0">HOT</text>
		<text id="dp_text005" transform="matrix(0.929452,0,0,1,-0.254537,0)" xml:space="preserve" fill="#e75f5a" font-family="Accord Heavy SF" font-size="22" font-weight="700" x="-3.608" y="22.3947">STUFF</text>
	</g>
	<path id="dp_path018" transform="matrix(1,0,0,1,-7673.96,-2504.36)" fill="#31323d" fill-rule="evenodd" fill-opacity="0.501961" d="M 7790.85,2786.25 C 7791.51,2789.34 7748.95,2759.35 7740.69,2743.19 C 7723.46,2718.67 7736.25,2701.3 7738.74,2698.42 S 7731.22,2708.71 7740.81,2727.62 C 7754.42,2754.46 7790.2,2783.16 7790.85,2786.25 Z "/>
</svg>