<?xml version="1.0" encoding="UTF-8" standalone="no"?>
<svg version="1.1" xmlns="http://www.w3.org/2000/svg" xmlns:xlink="http://www.w3.org/1999/xlink" xmlns:i="http://ns.adobe.com/AdobeIllustrator/10.0/" width="360" height="360">
	<g id="dp_dp001" transform="matrix(1,0,0,1,-7673.96,-2504.36)">
		<path id="dp_path002" fill="white" fill-rule="evenodd" d="M 7676.41,2507.15 L 8036.41,2507.15 L 8036.41,2867.15 L 7676.41,2867.15 Z "/>
		<path id="dp_path003" fill="#e5e5e5" fill-rule="evenodd" stroke="#e5e5e5" stroke-width="8" d="M 7858,2761 C 7933.11,2761 7994,2773.54 7994,2789 C 7994,2804.46 7933.11,2817 7858,2817 C 7782.89,2817 7722,2804.46 7722,2789 C 7722,2773.54 7782.89,2761 7858,2761 Z "/>
		<path id="dp_path004" fill="#e75f5a" fill-rule="evenodd" stroke="#31323d" stroke-width="8" d="M 7828.2,2636.64 C 7822.41,2586.86 7861.24,2559.33 7893.25,2563.57 C 7925.27,2567.81 7950.48,2603.83 7956.27,2653.61 C 7961.58,2690.26 7945.54,2742.05 7929.02,2780.71 C 7887.29,2783.35 7833.44,2781.11 7800.95,2763.73 C 7756.33,2741.48 7731.12,2705.46 7737.93,2673.69 C 7744.75,2641.92 7783.58,2614.39 7828.2,2636.64 Z "/>
		<path id="dp_path005" fill="#31323d" fill-rule="evenodd" fill-opacity="0.215686" d="M 7828.2,2636.64 C 7822.41,2586.86 7861.24,2559.33 7893.25,2563.57 C 7925.27,2567.81 7950.48,2603.83 7956.27,2653.61 C 7961.58,2690.26 7945.54,2742.05 7929.02,2780.71 C 7887.29,2783.35 7833.44,2781.11 7800.95,2763.73 C 7756.33,2741.48 7731.12,2705.46 7737.93,2673.69 C 7744.75,2641.92 7783.58,2614.39 7828.2,2636.64 Z "/>
		<path id="dp_path006" fill="#e75f5a" fill-rule="evenodd" stroke="#31323d" stroke-width="8" d="M 7834.34,2625.28 C 7829.2,2577.89 7866.61,2551.97 7897.25,2556.23 C 7927.88,2560.49 7951.73,2594.92 7956.88,2642.32 C 7961.67,2677.21 7945.89,2726.37 7929.75,2763.02 C 7889.77,2765.24 7838.21,2762.74 7807.22,2745.98 C 7764.66,2724.51 7740.81,2690.07 7747.59,2659.9 C 7754.37,2629.72 7791.78,2603.8 7834.34,2625.28 Z "/>
		<path id="dp_path007" fill="none" fill-rule="evenodd" stroke="#31323d" stroke-width="8" d="M 7930.41,2763.45 C 7929.5,2769.17 7927.69,2780.6 7927.69,2780.6"/>
		<path id="dp_path008" fill="white" fill-rule="evenodd" stroke="#31323d" stroke-width="8" d="M 7804.37,2743.06 L 7923.04,2567.44 C 7930.23,2573.64 7935.37,2578.89 7938.8,2585.48 L 7827.33,2752.9 C 7819.83,2751.01 7812.14,2747.46 7804.37,2743.06 Z "/>
		<path id="dp_path009" fill="white" fill-rule="evenodd" stroke="#31323d" stroke-width="8" d="M 7804.56,2744.81 C 7812.89,2747.6 7818.98,2751.44 7827.17,2753.7 L 7826.67,2772.28 C 7817.89,2771.14 7812.55,2769.54 7804.19,2765.04 Z "/>
		<path id="dp_path010" fill="#31323d" fill-rule="evenodd" fill-opacity="0.388235" d="M 7943.75,2645.13 C 7929.14,2644.46 7916.49,2651.87 7899.55,2656.14 C 7894.91,2657.31 7886.09,2657.58 7884.78,2663.52 C 7884.17,2666.27 7884.77,2669.13 7886.29,2671.68 C 7889.01,2676.23 7901.05,2685.88 7907.52,2689.05 C 7913.96,2692.21 7938.96,2698.61 7946.55,2698.46 C 7952.13,2698.35 7947.41,2691.89 7947.07,2691.12 C 7946.27,2689.33 7942.26,2681.04 7943.78,2677.79 C 7947.34,2670.23 7967.99,2657.87 7968,2652.6 C 7968.02,2647.5 7949.6,2645.38 7943.75,2645.13 Z "/>
		<path id="dp_path011" fill="#31323d" fill-rule="evenodd" fill-opacity="0.360784" d="M 7877.2,2671.37 C 7877.15,2674.76 7877.05,2681.54 7876.33,2686.55 C 7875.58,2691.73 7873.99,2697.15 7872.71,2702.43 C 7871.21,2708.63 7869.61,2716.95 7867.32,2723.75 C 7865.07,2730.45 7863.39,2742.71 7858.98,2743.24 C 7854.58,2743.77 7845.45,2732.54 7840.89,2726.92 C 7838.33,2723.78 7828.49,2728.33 7822.72,2727.41 C 7816.96,2726.48 7808.52,2723.45 7806.29,2721.37 C 7804.55,2719.74 7808.28,2717.03 7809.35,2714.9 C 7810.67,2712.25 7811.37,2707.57 7814.23,2705.48 C 7819.51,2701.62 7832.2,2696.5 7841.03,2691.72 C 7851.52,2686.03 7868.64,2676.26 7877.2,2671.37 Z "/>
		<path id="dp_path012" fill="white" fill-rule="evenodd" stroke="#31323d" stroke-width="8" d="M 7880.45,2668.17 C 7880.4,2671.56 7880.29,2678.34 7879.57,2683.35 C 7878.82,2688.53 7877.23,2693.95 7875.96,2699.23 C 7874.46,2705.43 7872.86,2713.75 7870.57,2720.55 C 7868.31,2727.25 7866.63,2739.51 7862.23,2740.04 C 7857.82,2740.57 7848.69,2729.34 7844.13,2723.72 C 7841.58,2720.58 7831.73,2725.13 7825.96,2724.21 C 7820.2,2723.28 7811.77,2720.25 7809.54,2718.17 C 7807.8,2716.54 7811.53,2713.83 7812.59,2711.7 C 7813.91,2709.05 7814.62,2704.37 7817.47,2702.28 C 7822.75,2698.42 7835.44,2693.3 7844.27,2688.52 C 7854.77,2682.83 7871.89,2673.06 7880.45,2668.17 Z "/>
		<path id="dp_path013" fill="#31323d" fill-rule="evenodd" fill-opacity="0.360784" d="M 7863.64,2651.31 C 7855.39,2648.17 7847.66,2646.09 7837.35,2645.03 C 7827.36,2644 7796.77,2645.21 7796.53,2654.93 C 7796.32,2663.5 7803.08,2672.82 7807.25,2676.19 C 7812.18,2680.19 7815.86,2681.97 7817.5,2685.85 C 7818.73,2688.77 7818.31,2691.95 7818.59,2694.78 C 7819.35,2702.18 7821.45,2715.08 7827.26,2718.74 C 7829.86,2720.37 7831.97,2719.43 7833.09,2719.32 C 7844.66,2718.2 7861.92,2702.31 7869.61,2681.08 C 7871.43,2676.03 7873.06,2671.85 7872.42,2666.88 C 7871.61,2660.62 7868.01,2656.79 7863.64,2651.31 Z "/>
		<path id="dp_path014" fill="white" fill-rule="evenodd" stroke="#31323d" stroke-width="8" d="M 7946.19,2641.92 C 7931.58,2641.25 7918.93,2648.67 7901.99,2652.94 C 7897.35,2654.11 7888.53,2654.37 7887.22,2660.32 C 7886.61,2663.07 7887.21,2665.93 7888.72,2668.47 C 7891.45,2673.03 7903.49,2682.68 7909.95,2685.85 C 7916.4,2689.01 7941.4,2695.4 7948.99,2695.25 C 7954.57,2695.14 7949.85,2688.68 7949.51,2687.92 C 7948.71,2686.13 7944.69,2677.83 7946.22,2674.59 C 7949.78,2667.03 7970.42,2654.66 7970.44,2649.39 C 7970.46,2644.3 7952.04,2642.17 7946.19,2641.92 Z "/>
		<path id="dp_path015" fill="white" fill-rule="evenodd" stroke="#31323d" stroke-width="8" d="M 7865.28,2647.29 C 7857.03,2644.15 7849.3,2642.07 7838.98,2641.01 C 7829,2639.98 7798.41,2641.19 7798.17,2650.91 C 7797.96,2659.48 7804.72,2668.8 7808.88,2672.17 C 7813.82,2676.17 7817.49,2677.95 7819.13,2681.83 C 7820.37,2684.75 7819.95,2687.93 7820.23,2690.76 C 7820.99,2698.17 7823.09,2711.06 7828.9,2714.72 C 7831.5,2716.35 7833.61,2715.42 7834.73,2715.31 C 7846.3,2714.18 7863.56,2698.29 7871.25,2677.06 C 7873.07,2672.02 7874.7,2667.84 7874.05,2662.86 C 7873.25,2656.6 7869.65,2652.77 7865.28,2647.29 Z "/>
		<path id="dp_path016" fill="white" fill-rule="evenodd" stroke="#31323d" stroke-width="8" d="M 7874.19,2642.42 C 7876.21,2638.49 7877.25,2635.82 7878.62,2632.24 C 7879.51,2629.89 7880.29,2626.22 7881.81,2624.03 C 7884.37,2620.36 7888.61,2616.17 7891.13,2613.96 C 7897.01,2608.79 7915.49,2595.53 7921.41,2595.03 C 7923.44,2594.86 7924.65,2596.67 7924.67,2596.7 C 7929.7,2602.25 7932.08,2611.79 7929.97,2621.69 C 7929.53,2623.77 7927.81,2625.88 7928.25,2628.39 C 7928.85,2631.84 7937.12,2634.43 7938.7,2635.76 C 7942.87,2639.25 7945.91,2644.18 7948.23,2648.71 C 7948.57,2649.37 7951.64,2652.08 7949.18,2655.67 C 7944.63,2662.29 7910.9,2668.59 7907.63,2668.55 C 7901.25,2668.48 7892.13,2666.59 7886.78,2663.03 C 7880.61,2658.92 7877.48,2649.98 7874.19,2642.42 Z "/>
		<path id="dp_path017" fill="#31323d" fill-rule="evenodd" fill-opacity="0.356863" d="M 7871.2,2640.27 C 7873.47,2639.31 7876.09,2640.37 7877.05,2642.65 C 7884.69,2649.16 7889.01,2657.18 7887.69,2667.76 C 7888.65,2670.04 7887.59,2672.66 7885.32,2673.62 L 7877.66,2676.86 C 7875.39,2677.83 7872.76,2676.76 7871.8,2674.49 C 7862.27,2667.51 7859.42,2658.98 7861.17,2649.37 C 7860.2,2647.1 7861.27,2644.48 7863.54,2643.52 Z "/>
		<path id="dp_path018" fill="white" fill-rule="evenodd" stroke="#31323d" stroke-width="8" d="M 7871.22,2637.05 C 7873.49,2636.09 7876.11,2637.15 7877.07,2639.43 C 7884.71,2645.94 7889.03,2653.96 7887.71,2664.54 C 7888.67,2666.81 7887.61,2669.44 7885.34,2670.4 L 7877.68,2673.64 C 7875.41,2674.6 7872.79,2673.54 7871.82,2671.27 C 7862.29,2664.29 7859.44,2655.76 7861.19,2646.15 C 7860.23,2643.88 7861.29,2641.26 7863.56,2640.29 Z "/>
	</g>
</svg>