<?xml version="1.0" encoding="UTF-8" standalone="no"?>
<!DOCTYPE svg PUBLIC "-//W3C//DTD SVG 1.1//EN" "http://www.w3.org/Graphics/SVG/1.1/DTD/svg11.dtd">
<svg width="100%" height="100%" viewBox="0 0 360 360" version="1.1" xmlns="http://www.w3.org/2000/svg" xmlns:xlink="http://www.w3.org/1999/xlink" xml:space="preserve" xmlns:serif="http://www.serif.com/" style="fill-rule:evenodd;clip-rule:evenodd;stroke-linecap:round;stroke-linejoin:round;stroke-miterlimit:1.5;">
    <g id="Confetti" transform="matrix(0.200586,0,0,0.200586,8.81745,-41.6972)">
        <g transform="matrix(1,0,0,1,174.423,-447.306)">
            <rect x="157.396" y="853.35" width="41.719" height="87.231" style="fill:white;stroke:rgb(50,51,62);stroke-width:1.99px;stroke-dasharray:1.99,1.99;"/>
        </g>
        <g transform="matrix(0.844168,-0.536079,0.536079,0.844168,96.8297,277.283)">
            <rect x="157.396" y="853.35" width="41.719" height="87.231" style="fill:white;stroke:rgb(50,51,62);stroke-width:1.99px;stroke-dasharray:1.99,1.99;"/>
        </g>
        <g transform="matrix(0.962439,0.271499,-0.271499,0.962439,276.729,186.535)">
            <rect x="157.396" y="853.35" width="41.719" height="87.231" style="fill:white;stroke:rgb(50,51,62);stroke-width:1.99px;stroke-dasharray:1.99,1.99;"/>
        </g>
        <g transform="matrix(-0.859407,0.511293,-0.511293,-0.859407,1070.66,1496.66)">
            <rect x="157.396" y="853.35" width="41.719" height="87.231" style="fill:rgb(69,225,146);stroke:rgb(50,51,62);stroke-width:1.99px;stroke-dasharray:1.99,1.99;"/>
        </g>
        <g transform="matrix(-0.786512,0.617575,-0.617575,-0.786512,899.81,1441.83)">
            <rect x="157.396" y="853.35" width="41.719" height="87.231" style="fill:rgb(69,225,146);stroke:rgb(50,51,62);stroke-width:1.99px;stroke-dasharray:1.99,1.99;"/>
        </g>
        <g transform="matrix(0.553586,-0.432024,0.424587,0.536388,165.431,757.163)">
            <rect x="157.396" y="853.35" width="41.719" height="87.231" style="fill:rgb(131,213,255);stroke:rgb(50,51,62);stroke-width:2.87px;stroke-dasharray:2.87,2.87;"/>
        </g>
        <g transform="matrix(-0.552539,0.422286,-0.433858,-0.537801,999.005,1003.49)">
            <rect x="157.396" y="853.35" width="41.719" height="87.231" style="fill:rgb(131,213,255);stroke:rgb(50,51,62);stroke-width:2.84px;stroke-dasharray:2.84,2.84;"/>
        </g>
        <g transform="matrix(0.610489,0.346995,-0.333933,0.597055,589.13,548.712)">
            <rect x="157.396" y="853.35" width="41.719" height="87.231" style="fill:rgb(207,85,81);stroke:rgb(50,51,62);stroke-width:2.87px;stroke-dasharray:2.87,2.87;"/>
        </g>
        <g transform="matrix(0.594408,-0.371882,0.355167,0.585941,273.571,255.761)">
            <rect x="157.396" y="853.35" width="41.719" height="87.231" style="fill:rgb(207,85,81);stroke:rgb(50,51,62);stroke-width:2.9px;stroke-dasharray:2.9,2.9;"/>
        </g>
        <g transform="matrix(0.569469,0.399162,-0.381617,0.576048,308.401,368.833)">
            <rect x="157.396" y="853.35" width="41.719" height="87.231" style="fill:rgb(207,85,81);stroke:rgb(50,51,62);stroke-width:2.84px;stroke-dasharray:2.84,2.84;"/>
        </g>
        <g transform="matrix(-0.965942,0.25876,-0.25876,-0.965942,1161.52,1300.59)">
            <rect x="157.396" y="853.35" width="41.719" height="87.231" style="fill:rgb(69,225,146);stroke:rgb(50,51,62);stroke-width:1.99px;stroke-dasharray:1.99,1.99;"/>
        </g>
        <g transform="matrix(0.928165,0.37217,-0.37217,0.928165,489.402,-191.642)">
            <rect x="157.396" y="853.35" width="41.719" height="87.231" style="fill:rgb(255,239,133);stroke:rgb(50,51,62);stroke-width:1.99px;stroke-dasharray:1.99,1.99;"/>
        </g>
        <g transform="matrix(0.968322,0.249707,-0.249707,0.968322,625.744,71.7657)">
            <rect x="157.396" y="853.35" width="41.719" height="87.231" style="fill:rgb(255,239,133);stroke:rgb(50,51,62);stroke-width:1.99px;stroke-dasharray:1.99,1.99;"/>
        </g>
        <g transform="matrix(-0.992856,-0.119322,0.119322,-0.992856,881.87,1705.48)">
            <rect x="157.396" y="853.35" width="41.719" height="87.231" style="fill:rgb(255,239,133);stroke:rgb(50,51,62);stroke-width:1.99px;stroke-dasharray:1.99,1.99;"/>
        </g>
        <g transform="matrix(0.21871,-0.97579,-0.97579,-0.21871,1415.37,821.755)">
            <rect x="157.396" y="853.35" width="41.719" height="87.231" style="fill:white;stroke:rgb(50,51,62);stroke-width:1.99px;stroke-dasharray:1.99,1.99;"/>
        </g>
        <g transform="matrix(-0.686875,0.726776,0.726776,0.686875,389.581,197.143)">
            <rect x="157.396" y="853.35" width="41.719" height="87.231" style="fill:rgb(69,225,146);stroke:rgb(50,51,62);stroke-width:1.99px;stroke-dasharray:1.99,1.99;"/>
        </g>
        <g transform="matrix(-0.774642,0.6324,0.6324,0.774642,-322.48,-265.11)">
            <rect x="157.396" y="853.35" width="41.719" height="87.231" style="fill:rgb(69,225,146);stroke:rgb(50,51,62);stroke-width:1.99px;stroke-dasharray:1.99,1.99;"/>
        </g>
        <g transform="matrix(0.492882,-0.498683,-0.494077,-0.474719,1547.47,1007.4)">
            <rect x="157.396" y="853.35" width="41.719" height="87.231" style="fill:rgb(207,85,81);stroke:rgb(50,51,62);stroke-width:2.9px;stroke-dasharray:2.9,2.9;"/>
        </g>
        <g transform="matrix(-0.532908,0.446804,0.429892,0.540977,188.062,119.186)">
            <rect x="157.396" y="853.35" width="41.719" height="87.231" style="fill:rgb(207,85,81);stroke:rgb(50,51,62);stroke-width:2.84px;stroke-dasharray:2.84,2.84;"/>
        </g>
        <g transform="matrix(-0.16016,-0.987091,-0.987091,0.16016,980.676,761.899)">
            <rect x="157.396" y="853.35" width="41.719" height="87.231" style="fill:rgb(255,239,133);stroke:rgb(50,51,62);stroke-width:1.99px;stroke-dasharray:1.99,1.99;"/>
        </g>
        <g transform="matrix(-0.0318797,-0.999492,-0.999492,0.0318797,1887.47,681.235)">
            <rect x="157.396" y="853.35" width="41.719" height="87.231" style="fill:rgb(255,239,133);stroke:rgb(50,51,62);stroke-width:1.99px;stroke-dasharray:1.99,1.99;"/>
        </g>
        <g transform="matrix(-0.996352,0.0853405,0.0853405,0.996352,532.27,439.692)">
            <rect x="157.396" y="853.35" width="41.719" height="87.231" style="fill:white;stroke:rgb(50,51,62);stroke-width:1.99px;stroke-dasharray:1.99,1.99;"/>
        </g>
        <g transform="matrix(0.899905,0.436085,0.436085,-0.899905,-274.448,2054.82)">
            <rect x="157.396" y="853.35" width="41.719" height="87.231" style="fill:rgb(69,225,146);stroke:rgb(50,51,62);stroke-width:1.99px;stroke-dasharray:1.99,1.99;"/>
        </g>
        <g transform="matrix(-0.588436,-0.383205,-0.377262,0.570665,1018.53,608.416)">
            <rect x="157.396" y="853.35" width="41.719" height="87.231" style="fill:rgb(131,213,255);stroke:rgb(50,51,62);stroke-width:2.87px;stroke-dasharray:2.87,2.87;"/>
        </g>
        <g transform="matrix(-0.578649,0.397829,0.383667,0.566379,578.584,436.884)">
            <rect x="157.396" y="853.35" width="41.719" height="87.231" style="fill:rgb(207,85,81);stroke:rgb(50,51,62);stroke-width:2.87px;stroke-dasharray:2.87,2.87;"/>
        </g>
        <g transform="matrix(0.586561,0.373592,0.386379,-0.572865,210.388,1766.36)">
            <rect x="157.396" y="853.35" width="41.719" height="87.231" style="fill:rgb(207,85,81);stroke:rgb(50,51,62);stroke-width:2.84px;stroke-dasharray:2.84,2.84;"/>
        </g>
        <g transform="matrix(0.733955,-0.679198,-0.679198,-0.733955,543.957,1971.72)">
            <rect x="157.396" y="853.35" width="41.719" height="87.231" style="fill:rgb(69,225,146);stroke:rgb(50,51,62);stroke-width:1.99px;stroke-dasharray:1.99,1.99;"/>
        </g>
        <g transform="matrix(-0.893018,0.450022,0.450022,0.893018,312.319,584.769)">
            <rect x="157.396" y="853.35" width="41.719" height="87.231" style="fill:rgb(255,239,133);stroke:rgb(50,51,62);stroke-width:1.99px;stroke-dasharray:1.99,1.99;"/>
        </g>
        <g transform="matrix(-1,0,0,1,636.099,-489.026)">
            <rect x="157.396" y="853.35" width="41.719" height="87.231" style="fill:white;stroke:rgb(50,51,62);stroke-width:1.99px;stroke-dasharray:1.99,1.99;"/>
        </g>
        <g transform="matrix(-0.844168,-0.536079,-0.536079,0.844168,713.692,235.564)">
            <rect x="157.396" y="853.35" width="41.719" height="87.231" style="fill:white;stroke:rgb(50,51,62);stroke-width:1.99px;stroke-dasharray:1.99,1.99;"/>
        </g>
        <g transform="matrix(-0.962439,0.271499,0.271499,0.962439,533.793,144.815)">
            <rect x="157.396" y="853.35" width="41.719" height="87.231" style="fill:white;stroke:rgb(50,51,62);stroke-width:1.99px;stroke-dasharray:1.99,1.99;"/>
        </g>
        <g transform="matrix(0.859407,0.511293,0.511293,-0.859407,-260.141,1454.94)">
            <rect x="157.396" y="853.35" width="41.719" height="87.231" style="fill:rgb(69,225,146);stroke:rgb(50,51,62);stroke-width:1.99px;stroke-dasharray:1.99,1.99;"/>
        </g>
        <g transform="matrix(0.786512,0.617575,0.617575,-0.786512,-89.2881,1400.11)">
            <rect x="157.396" y="853.35" width="41.719" height="87.231" style="fill:rgb(69,225,146);stroke:rgb(50,51,62);stroke-width:1.99px;stroke-dasharray:1.99,1.99;"/>
        </g>
        <g transform="matrix(-0.553586,-0.432024,-0.424587,0.536388,645.091,715.444)">
            <rect x="157.396" y="853.35" width="41.719" height="87.231" style="fill:rgb(131,213,255);stroke:rgb(50,51,62);stroke-width:2.87px;stroke-dasharray:2.87,2.87;"/>
        </g>
        <g transform="matrix(-0.676131,0.185646,0.190733,0.658097,391.827,307.84)">
            <rect x="157.396" y="853.35" width="41.719" height="87.231" style="fill:rgb(131,213,255);stroke:rgb(50,51,62);stroke-width:2.9px;stroke-dasharray:2.9,2.9;"/>
        </g>
        <g transform="matrix(0.552539,0.422286,0.433858,-0.537801,-188.483,961.774)">
            <rect x="157.396" y="853.35" width="41.719" height="87.231" style="fill:rgb(131,213,255);stroke:rgb(50,51,62);stroke-width:2.84px;stroke-dasharray:2.84,2.84;"/>
        </g>
        <g transform="matrix(-0.610489,0.346995,0.333933,0.597055,221.392,506.992)">
            <rect x="157.396" y="853.35" width="41.719" height="87.231" style="fill:rgb(207,85,81);stroke:rgb(50,51,62);stroke-width:2.87px;stroke-dasharray:2.87,2.87;"/>
        </g>
        <g transform="matrix(-0.594408,-0.371882,-0.355167,0.585941,536.951,214.042)">
            <rect x="157.396" y="853.35" width="41.719" height="87.231" style="fill:rgb(207,85,81);stroke:rgb(50,51,62);stroke-width:2.9px;stroke-dasharray:2.9,2.9;"/>
        </g>
        <g transform="matrix(0.552539,0.422286,0.433858,-0.537801,118.723,935.225)">
            <rect x="157.396" y="853.35" width="41.719" height="87.231" style="fill:rgb(207,85,81);stroke:rgb(50,51,62);stroke-width:2.84px;stroke-dasharray:2.84,2.84;"/>
        </g>
        <g transform="matrix(-0.928165,0.37217,0.37217,0.928165,321.12,-233.361)">
            <rect x="157.396" y="853.35" width="41.719" height="87.231" style="fill:rgb(255,239,133);stroke:rgb(50,51,62);stroke-width:1.99px;stroke-dasharray:1.99,1.99;"/>
        </g>
        <g transform="matrix(-0.968322,0.249707,0.249707,0.968322,184.778,30.0464)">
            <rect x="157.396" y="853.35" width="41.719" height="87.231" style="fill:rgb(255,239,133);stroke:rgb(50,51,62);stroke-width:1.99px;stroke-dasharray:1.99,1.99;"/>
        </g>
        <g transform="matrix(-1,0,0,-1,904.413,1975.99)">
            <rect x="157.396" y="853.35" width="41.719" height="87.231" style="fill:white;stroke:rgb(50,51,62);stroke-width:1.99px;stroke-dasharray:1.99,1.99;"/>
        </g>
        <g transform="matrix(-0.962439,-0.271499,0.271499,-0.962439,499.659,2236.2)">
            <rect x="157.396" y="853.35" width="41.719" height="87.231" style="fill:white;stroke:rgb(50,51,62);stroke-width:1.99px;stroke-dasharray:1.99,1.99;"/>
        </g>
        <g transform="matrix(-0.553586,0.432024,-0.424587,-0.536388,610.957,1665.57)">
            <rect x="157.396" y="853.35" width="41.719" height="87.231" style="fill:rgb(131,213,255);stroke:rgb(50,51,62);stroke-width:2.87px;stroke-dasharray:2.87,2.87;"/>
        </g>
        <g transform="matrix(-0.676131,-0.185646,0.190733,-0.658097,357.693,2073.17)">
            <rect x="157.396" y="853.35" width="41.719" height="87.231" style="fill:rgb(131,213,255);stroke:rgb(50,51,62);stroke-width:2.9px;stroke-dasharray:2.9,2.9;"/>
        </g>
        <g transform="matrix(-0.610489,-0.346995,0.333933,-0.597055,187.258,1874.02)">
            <rect x="157.396" y="853.35" width="41.719" height="87.231" style="fill:rgb(207,85,81);stroke:rgb(50,51,62);stroke-width:2.87px;stroke-dasharray:2.87,2.87;"/>
        </g>
        <g transform="matrix(0.556628,-0.416882,0.428597,0.542004,567.927,1044.27)">
            <rect x="157.396" y="853.35" width="41.719" height="87.231" style="fill:rgb(207,85,81);stroke:rgb(50,51,62);stroke-width:2.84px;stroke-dasharray:2.84,2.84;"/>
        </g>
        <g transform="matrix(0.733955,-0.679198,-0.679198,-0.733955,2114.23,2004.08)">
            <rect x="157.396" y="853.35" width="41.719" height="87.231" style="fill:rgb(69,225,146);stroke:rgb(50,51,62);stroke-width:1.99px;stroke-dasharray:1.99,1.99;"/>
        </g>
        <g transform="matrix(-0.968322,-0.249707,0.249707,-0.968322,150.644,2350.97)">
            <rect x="157.396" y="853.35" width="41.719" height="87.231" style="fill:rgb(255,239,133);stroke:rgb(50,51,62);stroke-width:1.99px;stroke-dasharray:1.99,1.99;"/>
        </g>
        <g transform="matrix(-0.899905,0.436085,-0.436085,-0.899905,1955.48,1605.89)">
            <rect x="157.396" y="853.35" width="41.719" height="87.231" style="fill:rgb(69,225,146);stroke:rgb(50,51,62);stroke-width:1.99px;stroke-dasharray:1.99,1.99;"/>
        </g>
        <g transform="matrix(0.623976,-0.319799,0.303866,0.614114,1172.38,456.996)">
            <rect x="157.396" y="853.35" width="41.719" height="87.231" style="fill:rgb(207,85,81);stroke:rgb(50,51,62);stroke-width:2.9px;stroke-dasharray:2.9,2.9;"/>
        </g>
        <g transform="matrix(-0.733955,-0.679198,0.679198,-0.733955,1141.08,1470.79)">
            <rect x="157.396" y="853.35" width="41.719" height="87.231" style="fill:rgb(69,225,146);stroke:rgb(50,51,62);stroke-width:1.99px;stroke-dasharray:1.99,1.99;"/>
        </g>
        <g transform="matrix(0.553586,0.432024,0.424587,-0.536388,1070.08,1216.64)">
            <rect x="157.396" y="853.35" width="41.719" height="87.231" style="fill:rgb(131,213,255);stroke:rgb(50,51,62);stroke-width:2.87px;stroke-dasharray:2.87,2.87;"/>
        </g>
        <g transform="matrix(0.968322,-0.249707,-0.249707,-0.968322,1530.39,1902.04)">
            <rect x="157.396" y="853.35" width="41.719" height="87.231" style="fill:rgb(255,239,133);stroke:rgb(50,51,62);stroke-width:1.99px;stroke-dasharray:1.99,1.99;"/>
        </g>
        <g transform="matrix(-0.920802,-0.390031,-0.390031,0.920802,1366.66,-292.633)">
            <rect x="157.396" y="853.35" width="41.719" height="87.231" style="fill:white;stroke:rgb(50,51,62);stroke-width:1.99px;stroke-dasharray:1.99,1.99;"/>
        </g>
        <g transform="matrix(3.16438,0,8.96852e-17,1.81401,-3620.2,-3491.96)">
            <ellipse cx="1410.63" cy="2915.95" rx="244" ry="54" style="fill:rgb(49,50,61);fill-opacity:0.294118;"/>
        </g>
        <g transform="matrix(-0.992108,-0.125385,-0.125385,0.992108,1025.24,251.107)">
            <rect x="157.396" y="853.35" width="41.719" height="87.231" style="fill:white;stroke:rgb(50,51,62);stroke-width:1.99px;stroke-dasharray:1.99,1.99;"/>
        </g>
        <g transform="matrix(0.591923,0.805994,0.805994,-0.591923,-23.3824,1826.7)">
            <rect x="157.396" y="853.35" width="41.719" height="87.231" style="fill:rgb(69,225,146);stroke:rgb(50,51,62);stroke-width:1.99px;stroke-dasharray:1.99,1.99;"/>
        </g>
        <g transform="matrix(0.483348,0.875429,0.875429,-0.483348,-38.1029,1163.97)">
            <rect x="157.396" y="853.35" width="41.719" height="87.231" style="fill:rgb(69,225,146);stroke:rgb(50,51,62);stroke-width:1.99px;stroke-dasharray:1.99,1.99;"/>
        </g>
        <g transform="matrix(-0.34124,-0.613724,-0.600168,0.328304,905.157,819.952)">
            <rect x="157.396" y="853.35" width="41.719" height="87.231" style="fill:rgb(131,213,255);stroke:rgb(50,51,62);stroke-width:2.87px;stroke-dasharray:2.87,2.87;"/>
        </g>
        <g transform="matrix(-0.69499,-0.0927693,-0.0810512,0.680368,830.93,345.849)">
            <rect x="157.396" y="853.35" width="41.719" height="87.231" style="fill:rgb(131,213,255);stroke:rgb(50,51,62);stroke-width:2.9px;stroke-dasharray:2.9,2.9;"/>
        </g>
        <g transform="matrix(0.344074,0.604349,0.609256,-0.32599,41.5242,721.653)">
            <rect x="157.396" y="853.35" width="41.719" height="87.231" style="fill:rgb(131,213,255);stroke:rgb(50,51,62);stroke-width:2.84px;stroke-dasharray:2.84,2.84;"/>
        </g>
        <g transform="matrix(-0.697478,0.081404,0.0746156,0.680013,596.317,462.754)">
            <rect x="157.396" y="853.35" width="41.719" height="87.231" style="fill:rgb(207,85,81);stroke:rgb(50,51,62);stroke-width:2.87px;stroke-dasharray:2.87,2.87;"/>
        </g>
        <g transform="matrix(-0.402286,-0.574268,-0.555573,0.40101,1001.14,316.082)">
            <rect x="157.396" y="853.35" width="41.719" height="87.231" style="fill:rgb(207,85,81);stroke:rgb(50,51,62);stroke-width:2.9px;stroke-dasharray:2.9,2.9;"/>
        </g>
        <g transform="matrix(0.788516,0.615014,0.615014,-0.788516,-151.89,1024.16)">
            <rect x="157.396" y="853.35" width="41.719" height="87.231" style="fill:rgb(69,225,146);stroke:rgb(50,51,62);stroke-width:1.99px;stroke-dasharray:1.99,1.99;"/>
        </g>
        <g transform="matrix(-0.999813,-0.0193188,-0.0193188,0.999813,976.908,-180.068)">
            <rect x="157.396" y="853.35" width="41.719" height="87.231" style="fill:rgb(255,239,133);stroke:rgb(50,51,62);stroke-width:1.99px;stroke-dasharray:1.99,1.99;"/>
        </g>
        <g transform="matrix(-0.989025,-0.147745,-0.147745,0.989025,1082.38,547.859)">
            <rect x="157.396" y="853.35" width="41.719" height="87.231" style="fill:rgb(255,239,133);stroke:rgb(50,51,62);stroke-width:1.99px;stroke-dasharray:1.99,1.99;"/>
        </g>
        <g transform="matrix(0.676131,0.185646,-0.190733,0.658097,1445.6,253.348)">
            <rect x="157.396" y="853.35" width="41.719" height="87.231" style="fill:rgb(131,213,255);stroke:rgb(50,51,62);stroke-width:2.9px;stroke-dasharray:2.9,2.9;"/>
        </g>
        <g transform="matrix(0.836347,0.548201,0.548201,-0.836347,694.241,2113.17)">
            <rect x="157.396" y="853.35" width="41.719" height="87.231" style="fill:rgb(69,225,146);stroke:rgb(50,51,62);stroke-width:1.99px;stroke-dasharray:1.99,1.99;"/>
        </g>
        <g transform="matrix(0.591923,0.805994,0.805994,-0.591923,624.256,1157.79)">
            <rect x="157.396" y="853.35" width="41.719" height="87.231" style="fill:rgb(69,225,146);stroke:rgb(50,51,62);stroke-width:1.99px;stroke-dasharray:1.99,1.99;"/>
        </g>
        <g transform="matrix(-0.989025,-0.147745,-0.147745,0.989025,1730.02,-121.045)">
            <rect x="157.396" y="853.35" width="41.719" height="87.231" style="fill:rgb(255,239,133);stroke:rgb(50,51,62);stroke-width:1.99px;stroke-dasharray:1.99,1.99;"/>
        </g>
        <g transform="matrix(-1,0,0,1,1479.24,-122.532)">
            <rect x="157.396" y="853.35" width="41.719" height="87.231" style="fill:white;stroke:rgb(50,51,62);stroke-width:1.99px;stroke-dasharray:1.99,1.99;"/>
        </g>
        <g transform="matrix(-0.962439,0.271499,0.271499,0.962439,1376.93,511.309)">
            <rect x="157.396" y="853.35" width="41.719" height="87.231" style="fill:white;stroke:rgb(50,51,62);stroke-width:1.99px;stroke-dasharray:1.99,1.99;"/>
        </g>
        <g transform="matrix(0.859407,0.511293,0.511293,-0.859407,582.997,1821.43)">
            <rect x="157.396" y="853.35" width="41.719" height="87.231" style="fill:rgb(69,225,146);stroke:rgb(50,51,62);stroke-width:1.99px;stroke-dasharray:1.99,1.99;"/>
        </g>
        <g transform="matrix(0.786512,0.617575,0.617575,-0.786512,753.85,1766.61)">
            <rect x="157.396" y="853.35" width="41.719" height="87.231" style="fill:rgb(69,225,146);stroke:rgb(50,51,62);stroke-width:1.99px;stroke-dasharray:1.99,1.99;"/>
        </g>
        <g transform="matrix(0.552539,0.422286,0.433858,-0.537801,654.655,1328.27)">
            <rect x="157.396" y="853.35" width="41.719" height="87.231" style="fill:rgb(131,213,255);stroke:rgb(50,51,62);stroke-width:2.84px;stroke-dasharray:2.84,2.84;"/>
        </g>
        <g transform="matrix(-0.569469,0.399162,0.381617,0.576048,1345.26,693.608)">
            <rect x="157.396" y="853.35" width="41.719" height="87.231" style="fill:rgb(207,85,81);stroke:rgb(50,51,62);stroke-width:2.84px;stroke-dasharray:2.84,2.84;"/>
        </g>
        <g transform="matrix(-0.928165,0.37217,0.37217,0.928165,1164.26,133.133)">
            <rect x="157.396" y="853.35" width="41.719" height="87.231" style="fill:rgb(255,239,133);stroke:rgb(50,51,62);stroke-width:1.99px;stroke-dasharray:1.99,1.99;"/>
        </g>
        <g transform="matrix(0.768442,0.639919,-0.639919,0.768442,1055.41,441.756)">
            <rect x="157.396" y="853.35" width="41.719" height="87.231" style="fill:rgb(69,225,146);stroke:rgb(50,51,62);stroke-width:1.99px;stroke-dasharray:1.99,1.99;"/>
        </g>
        <g transform="matrix(0.532908,0.446804,-0.429892,0.540977,1465.6,443.961)">
            <rect x="157.396" y="853.35" width="41.719" height="87.231" style="fill:rgb(207,85,81);stroke:rgb(50,51,62);stroke-width:2.84px;stroke-dasharray:2.84,2.84;"/>
        </g>
        <g transform="matrix(0.16016,-0.987091,0.987091,0.16016,672.984,1086.67)">
            <rect x="157.396" y="853.35" width="41.719" height="87.231" style="fill:rgb(255,239,133);stroke:rgb(50,51,62);stroke-width:1.99px;stroke-dasharray:1.99,1.99;"/>
        </g>
        <g transform="matrix(0.891298,-0.453418,0.453418,0.891298,349.402,474.474)">
            <rect x="157.396" y="853.35" width="41.719" height="87.231" style="fill:white;stroke:rgb(50,51,62);stroke-width:1.99px;stroke-dasharray:1.99,1.99;"/>
        </g>
        <g transform="matrix(0.592142,-0.377452,0.371683,0.574314,462.548,1016.48)">
            <rect x="157.396" y="853.35" width="41.719" height="87.231" style="fill:rgb(131,213,255);stroke:rgb(50,51,62);stroke-width:2.87px;stroke-dasharray:2.87,2.87;"/>
        </g>
        <g transform="matrix(0.639599,-0.289855,0.286667,0.621134,221.723,938.667)">
            <rect x="157.396" y="853.35" width="41.719" height="87.231" style="fill:rgb(207,85,81);stroke:rgb(50,51,62);stroke-width:2.87px;stroke-dasharray:2.87,2.87;"/>
        </g>
        <g transform="matrix(0.940204,0.340611,-0.340611,0.940204,895.455,320.158)">
            <rect x="157.396" y="853.35" width="41.719" height="87.231" style="fill:rgb(255,239,133);stroke:rgb(50,51,62);stroke-width:1.99px;stroke-dasharray:1.99,1.99;"/>
        </g>
        <g transform="matrix(-0.97702,-0.213149,0.213149,-0.97702,995.145,1970.82)">
            <rect x="157.396" y="853.35" width="41.719" height="87.231" style="fill:rgb(255,239,133);stroke:rgb(50,51,62);stroke-width:1.99px;stroke-dasharray:1.99,1.99;"/>
        </g>
        <g transform="matrix(1,0,0,1,1017.56,-164.251)">
            <rect x="157.396" y="853.35" width="41.719" height="87.231" style="fill:white;stroke:rgb(50,51,62);stroke-width:1.99px;stroke-dasharray:1.99,1.99;"/>
        </g>
        <g transform="matrix(0.844168,-0.536079,0.536079,0.844168,939.968,560.338)">
            <rect x="157.396" y="853.35" width="41.719" height="87.231" style="fill:white;stroke:rgb(50,51,62);stroke-width:1.99px;stroke-dasharray:1.99,1.99;"/>
        </g>
        <g transform="matrix(-0.859407,0.511293,-0.511293,-0.859407,1913.8,1779.71)">
            <rect x="157.396" y="853.35" width="41.719" height="87.231" style="fill:rgb(69,225,146);stroke:rgb(50,51,62);stroke-width:1.99px;stroke-dasharray:1.99,1.99;"/>
        </g>
        <g transform="matrix(0.553586,-0.432024,0.424587,0.536388,1008.57,1040.22)">
            <rect x="157.396" y="853.35" width="41.719" height="87.231" style="fill:rgb(131,213,255);stroke:rgb(50,51,62);stroke-width:2.87px;stroke-dasharray:2.87,2.87;"/>
        </g>
        <g transform="matrix(0.676131,0.185646,-0.190733,0.658097,1261.83,632.614)">
            <rect x="157.396" y="853.35" width="41.719" height="87.231" style="fill:rgb(131,213,255);stroke:rgb(50,51,62);stroke-width:2.9px;stroke-dasharray:2.9,2.9;"/>
        </g>
        <g transform="matrix(-0.552539,0.422286,-0.433858,-0.537801,1842.14,1286.55)">
            <rect x="157.396" y="853.35" width="41.719" height="87.231" style="fill:rgb(131,213,255);stroke:rgb(50,51,62);stroke-width:2.84px;stroke-dasharray:2.84,2.84;"/>
        </g>
        <g transform="matrix(0.610489,0.346995,-0.333933,0.597055,1432.27,831.767)">
            <rect x="157.396" y="853.35" width="41.719" height="87.231" style="fill:rgb(207,85,81);stroke:rgb(50,51,62);stroke-width:2.87px;stroke-dasharray:2.87,2.87;"/>
        </g>
        <g transform="matrix(0.598003,-0.366072,0.34944,0.589375,215.065,814.128)">
            <rect x="157.396" y="853.35" width="41.719" height="87.231" style="fill:rgb(207,85,81);stroke:rgb(50,51,62);stroke-width:2.9px;stroke-dasharray:2.9,2.9;"/>
        </g>
        <g transform="matrix(-0.968417,0.249335,-0.249335,-0.968417,989.835,1923.45)">
            <rect x="157.396" y="853.35" width="41.719" height="87.231" style="fill:rgb(69,225,146);stroke:rgb(50,51,62);stroke-width:1.99px;stroke-dasharray:1.99,1.99;"/>
        </g>
        <g transform="matrix(0.928165,0.37217,-0.37217,0.928165,1332.54,91.4136)">
            <rect x="157.396" y="853.35" width="41.719" height="87.231" style="fill:rgb(255,239,133);stroke:rgb(50,51,62);stroke-width:1.99px;stroke-dasharray:1.99,1.99;"/>
        </g>
        <g transform="matrix(0.968322,0.249707,-0.249707,0.968322,1468.88,354.821)">
            <rect x="157.396" y="853.35" width="41.719" height="87.231" style="fill:rgb(255,239,133);stroke:rgb(50,51,62);stroke-width:1.99px;stroke-dasharray:1.99,1.99;"/>
        </g>
        <g transform="matrix(0.999953,0.00974484,0.00974484,-0.999953,846.043,2175.45)">
            <rect x="157.396" y="853.35" width="41.719" height="87.231" style="fill:white;stroke:rgb(50,51,62);stroke-width:1.99px;stroke-dasharray:1.99,1.99;"/>
        </g>
        <g transform="matrix(-0.859407,-0.511293,-0.511293,0.859407,1604.09,773.16)">
            <rect x="157.396" y="853.35" width="41.719" height="87.231" style="fill:rgb(69,225,146);stroke:rgb(50,51,62);stroke-width:1.99px;stroke-dasharray:1.99,1.99;"/>
        </g>
        <g transform="matrix(-0.548397,-0.42765,-0.439078,0.533548,1311.55,884.629)">
            <rect x="157.396" y="853.35" width="41.719" height="87.231" style="fill:rgb(131,213,255);stroke:rgb(50,51,62);stroke-width:2.84px;stroke-dasharray:2.84,2.84;"/>
        </g>
        <g transform="matrix(0.590755,0.377657,0.36086,-0.582452,578.859,1625.26)">
            <rect x="157.396" y="853.35" width="41.719" height="87.231" style="fill:rgb(207,85,81);stroke:rgb(50,51,62);stroke-width:2.9px;stroke-dasharray:2.9,2.9;"/>
        </g>
        <g transform="matrix(-0.963374,-0.268161,-0.268161,0.963374,1382.5,550.281)">
            <rect x="157.396" y="853.35" width="41.719" height="87.231" style="fill:rgb(69,225,146);stroke:rgb(50,51,62);stroke-width:1.99px;stroke-dasharray:1.99,1.99;"/>
        </g>
        <g transform="matrix(-0.552539,-0.422286,-0.433858,0.537801,1418.8,348.533)">
            <rect x="157.396" y="853.35" width="41.719" height="87.231" style="fill:rgb(207,85,81);stroke:rgb(50,51,62);stroke-width:2.84px;stroke-dasharray:2.84,2.84;"/>
        </g>
        <g transform="matrix(-0.636744,-0.296074,-0.292706,0.618311,1506.83,876.597)">
            <rect x="157.396" y="853.35" width="41.719" height="87.231" style="fill:rgb(207,85,81);stroke:rgb(50,51,62);stroke-width:2.87px;stroke-dasharray:2.87,2.87;"/>
        </g>
        <g transform="matrix(0.928165,-0.37217,-0.37217,-0.928165,1072.98,2263.09)">
            <rect x="157.396" y="853.35" width="41.719" height="87.231" style="fill:rgb(255,239,133);stroke:rgb(50,51,62);stroke-width:1.99px;stroke-dasharray:1.99,1.99;"/>
        </g>
        <g transform="matrix(0.733955,-0.679198,-0.679198,-0.733955,816.405,1832.67)">
            <rect x="157.396" y="853.35" width="41.719" height="87.231" style="fill:rgb(69,225,146);stroke:rgb(50,51,62);stroke-width:1.99px;stroke-dasharray:1.99,1.99;"/>
        </g>
        <g transform="matrix(0.920802,-0.390031,0.390031,0.920802,672.539,740.069)">
            <rect x="157.396" y="853.35" width="41.719" height="87.231" style="fill:white;stroke:rgb(50,51,62);stroke-width:1.99px;stroke-dasharray:1.99,1.99;"/>
        </g>
        <g transform="matrix(0.34124,-0.613724,0.600168,0.328304,748.503,1144.73)">
            <rect x="157.396" y="853.35" width="41.719" height="87.231" style="fill:rgb(131,213,255);stroke:rgb(50,51,62);stroke-width:2.87px;stroke-dasharray:2.87,2.87;"/>
        </g>
        <g transform="matrix(0.697478,0.081404,-0.0746156,0.680013,1057.34,787.528)">
            <rect x="157.396" y="853.35" width="41.719" height="87.231" style="fill:rgb(207,85,81);stroke:rgb(50,51,62);stroke-width:2.87px;stroke-dasharray:2.87,2.87;"/>
        </g>
        <g transform="matrix(0.402286,-0.574268,0.555573,0.40101,652.516,640.857)">
            <rect x="157.396" y="853.35" width="41.719" height="87.231" style="fill:rgb(207,85,81);stroke:rgb(50,51,62);stroke-width:2.9px;stroke-dasharray:2.9,2.9;"/>
        </g>
        <g transform="matrix(-0.788516,0.615014,-0.615014,-0.788516,1805.55,1348.93)">
            <rect x="157.396" y="853.35" width="41.719" height="87.231" style="fill:rgb(69,225,146);stroke:rgb(50,51,62);stroke-width:1.99px;stroke-dasharray:1.99,1.99;"/>
        </g>
        <g transform="matrix(0.989025,-0.147745,0.147745,0.989025,905.033,334.075)">
            <rect x="157.396" y="853.35" width="41.719" height="87.231" style="fill:rgb(255,239,133);stroke:rgb(50,51,62);stroke-width:1.99px;stroke-dasharray:1.99,1.99;"/>
        </g>
        <g transform="matrix(0.999349,0.0697005,-0.0610418,1.0106,1121.86,442.019)">
            <rect x="157.396" y="853.35" width="41.719" height="87.231" style="fill:white;stroke:rgb(50,51,62);stroke-width:1.97px;stroke-dasharray:1.97,1.97;"/>
        </g>
        <g transform="matrix(0.449784,-0.543136,0.529431,0.443849,748.733,322.98)">
            <rect x="157.396" y="853.35" width="41.719" height="87.231" style="fill:rgb(131,213,255);stroke:rgb(50,51,62);stroke-width:2.87px;stroke-dasharray:2.87,2.87;"/>
        </g>
        <g transform="matrix(0.956675,-0.291159,-0.295293,-0.970258,1261.74,1616.66)">
            <rect x="157.396" y="853.35" width="41.719" height="87.231" style="fill:white;stroke:rgb(50,51,62);stroke-width:1.98px;stroke-dasharray:1.98,1.98;"/>
        </g>
        <g transform="matrix(-0.653298,-0.24885,-0.256252,0.648128,1622.18,-31.079)">
            <rect x="157.396" y="853.35" width="41.719" height="87.231" style="fill:rgb(131,213,255);stroke:rgb(50,51,62);stroke-width:2.84px;stroke-dasharray:2.84,2.84;"/>
        </g>
        <g transform="matrix(-1.0005,0.030179,0.0376872,1.01255,1575.16,-392.039)">
            <rect x="157.396" y="853.35" width="41.719" height="87.231" style="fill:rgb(69,225,146);stroke:rgb(50,51,62);stroke-width:1.99px;stroke-dasharray:1.99,1.99;"/>
        </g>
    </g>
    <g transform="matrix(4.01523,0,0,4.09845,-203.756,-507.358)">
        <g id="Transparent-Layer" serif:id="Transparent Layer">
            <rect x="50.746" y="123.793" width="89.659" height="87.838" style="fill:rgb(235,235,235);fill-opacity:0;"/>
        </g>
    </g>
</svg>
