<?xml version="1.0" encoding="UTF-8" standalone="no"?>
<svg version="1.1" xmlns="http://www.w3.org/2000/svg" xmlns:xlink="http://www.w3.org/1999/xlink" xmlns:i="http://ns.adobe.com/AdobeIllustrator/10.0/" width="360" height="360">
	<g id="dp_dp001" transform="matrix(1,0,0,1,-7673.96,-2505.37)">
		<path id="dp_path002" fill="white" fill-rule="evenodd" d="M 7676.41,2507.51 L 8036.41,2507.51 L 8036.41,2867.51 L 7676.41,2867.51 Z "/>
		<path id="dp_path003" fill="#31323d" fill-rule="evenodd" fill-opacity="0.294118" d="M 7847.32,2760.03 C 7901.13,2760.03 7944.75,2772.33 7944.75,2787.5 C 7944.75,2802.67 7901.13,2814.97 7847.32,2814.97 C 7793.51,2814.97 7749.89,2802.67 7749.89,2787.5 C 7749.89,2772.33 7793.51,2760.03 7847.32,2760.03 Z "/>
		<path id="dp_path004" fill="#fcdf35" fill-rule="evenodd" stroke="black" stroke-width="3.06667" stroke-linecap="round" d="M 7898.63,2765.19 C 7898.63,2748.79 7884.63,2735.5 7867.37,2735.5 C 7850.12,2735.5 7836.12,2748.79 7836.12,2765.19 C 7836.12,2781.58 7850.12,2794.88 7867.37,2794.88 C 7884.63,2794.88 7898.63,2781.58 7898.63,2765.19 Z M 7882.69,2765.19 C 7882.69,2757.15 7875.83,2750.64 7867.37,2750.64 C 7858.92,2750.64 7852.06,2757.15 7852.06,2765.19 C 7852.06,2773.22 7858.92,2779.73 7867.37,2779.73 C 7875.83,2779.73 7882.69,2773.22 7882.69,2765.19 Z "/>
		<path id="dp_path005" fill="#ffef85" fill-rule="evenodd" d="M 7863.46,2739.84 C 7870.31,2731.38 7900.36,2749.55 7892.69,2758.86 C 7898.43,2754.75 7869.5,2735.25 7863.46,2739.84 Z "/>
		<path id="dp_path006" fill="none" fill-rule="evenodd" stroke="#000001" stroke-width="4" stroke-linejoin="round" stroke-linecap="round" d="M 7830.56,2564.95 L 7841.78,2627.31 L 7794.71,2656.48 Z "/>
		<path id="dp_path007" fill="none" fill-rule="evenodd" stroke="#000001" stroke-width="4" stroke-linejoin="round" stroke-linecap="round" d="M 7795.61,2661.49 L 7842.18,2629.54 L 7853.47,2682.7 Z "/>
		<path id="dp_path008" fill="none" fill-rule="evenodd" stroke="#000001" stroke-width="4" stroke-linejoin="round" stroke-linecap="round" d="M 7831.64,2560.97 L 7843.14,2626.45 L 7794.34,2659.64 Z "/>
		<path id="dp_path009" fill="none" fill-rule="evenodd" stroke="#000001" stroke-width="4" stroke-linejoin="round" stroke-linecap="round" d="M 7793.69,2659.19 L 7843.83,2630.3 L 7855.1,2685.03 Z "/>
		<path id="dp_path010" fill="none" fill-rule="evenodd" stroke="#000001" stroke-width="4" stroke-linejoin="round" stroke-linecap="round" d="M 7834.73,2564.15 L 7847.85,2626.14 L 7902.44,2635.41 Z "/>
		<path id="dp_path011" fill="none" fill-rule="evenodd" stroke="#000001" stroke-width="4" stroke-linejoin="round" stroke-linecap="round" d="M 7903.5,2640.39 L 7848.32,2628.36 L 7857.91,2681.85 Z "/>
		<path id="dp_path012" fill="none" fill-rule="evenodd" stroke="#000001" stroke-width="4" stroke-linejoin="round" stroke-linecap="round" d="M 7831.97,2561.2 L 7846.26,2625.86 L 7904.68,2637.23 Z "/>
		<path id="dp_path013" fill="none" fill-rule="evenodd" stroke="#000001" stroke-width="4" stroke-linejoin="round" stroke-linecap="round" d="M 7904.83,2638.05 L 7847.07,2629.68 L 7856.1,2684.28 Z "/>
		<path id="dp_path014" fill="none" fill-rule="evenodd" stroke="#000001" stroke-width="4" stroke-linejoin="round" stroke-linecap="round" d="M 7864.42,2738.41 L 7855.15,2696.37 L 7797.74,2673.78 Z "/>
		<path id="dp_path015" fill="none" fill-rule="evenodd" stroke="#000001" stroke-width="4" stroke-linejoin="round" stroke-linecap="round" d="M 7864.49,2737.44 L 7858.25,2694.85 L 7903.93,2653.37 Z "/>
		<path id="dp_path016" fill="#6ac1e3" fill-rule="evenodd" d="M 7831.48,2567.97 L 7842.11,2627.02 L 7796.85,2654.76 Z "/>
		<path id="dp_path017" fill="#4f90a9" fill-rule="evenodd" d="M 7798.43,2660.27 L 7843.31,2631.99 L 7851.95,2682.3 Z "/>
		<path id="dp_path018" fill="#8ad4eb" fill-rule="evenodd" d="M 7836.05,2567.08 L 7848.66,2626.63 L 7900.53,2635.65 Z "/>
		<path id="dp_path019" fill="#6ac1e3" fill-rule="evenodd" d="M 7901.26,2640.22 L 7848.99,2630.5 L 7859.56,2680.56 Z "/>
		<path id="dp_path020" fill="#8ad4eb" fill-rule="evenodd" d="M 7865.4,2732.11 L 7857.52,2697.42 L 7900.76,2658.06 Z "/>
		<path id="dp_path021" fill="#4f90a9" fill-rule="evenodd" d="M 7861.79,2733.57 L 7853.71,2697.32 L 7804.13,2677.93 Z "/>
		<path id="dp_path022" fill="white" fill-rule="evenodd" stroke="white" stroke-opacity="0.705882" stroke-width="2.53333" stroke-linecap="round" d="M 7850.14,2590.12 C 7850.13,2590.11 7850.13,2590.09 7850.14,2590.07 L 7850.15,2590.07 C 7850.16,2590.06 7850.18,2590.06 7850.19,2590.07 L 7873.85,2615.81 C 7873.86,2615.82 7873.86,2615.84 7873.84,2615.85 L 7873.84,2615.85 C 7873.83,2615.87 7873.81,2615.87 7873.79,2615.85 Z "/>
		<path id="dp_path023" fill="none" fill-rule="evenodd" stroke="#000001" stroke-width="4" stroke-linejoin="round" stroke-linecap="round" d="M 7830.56,2564.95 L 7841.78,2627.31 L 7794.71,2656.48 Z "/>
		<path id="dp_path024" fill="none" fill-rule="evenodd" stroke="#000001" stroke-width="4" stroke-linejoin="round" stroke-linecap="round" d="M 7795.61,2661.49 L 7842.18,2629.54 L 7853.47,2682.7 Z "/>
		<path id="dp_path025" fill="none" fill-rule="evenodd" stroke="#000001" stroke-width="4" stroke-linejoin="round" stroke-linecap="round" d="M 7831.64,2560.97 L 7843.14,2626.45 L 7794.34,2659.64 Z "/>
		<path id="dp_path026" fill="none" fill-rule="evenodd" stroke="#000001" stroke-width="4" stroke-linejoin="round" stroke-linecap="round" d="M 7793.69,2659.19 L 7843.83,2630.3 L 7855.1,2685.03 Z "/>
		<path id="dp_path027" fill="none" fill-rule="evenodd" stroke="#000001" stroke-width="4" stroke-linejoin="round" stroke-linecap="round" d="M 7834.73,2564.15 L 7847.85,2626.14 L 7902.44,2635.41 Z "/>
		<path id="dp_path028" fill="none" fill-rule="evenodd" stroke="#000001" stroke-width="4" stroke-linejoin="round" stroke-linecap="round" d="M 7903.5,2640.39 L 7848.32,2628.36 L 7857.91,2681.85 Z "/>
		<path id="dp_path029" fill="none" fill-rule="evenodd" stroke="#000001" stroke-width="4" stroke-linejoin="round" stroke-linecap="round" d="M 7831.97,2561.2 L 7846.26,2625.86 L 7904.68,2637.23 Z "/>
		<path id="dp_path030" fill="none" fill-rule="evenodd" stroke="#000001" stroke-width="4" stroke-linejoin="round" stroke-linecap="round" d="M 7904.83,2638.05 L 7847.07,2629.68 L 7856.1,2684.28 Z "/>
		<path id="dp_path031" fill="none" fill-rule="evenodd" stroke="#000001" stroke-width="4" stroke-linejoin="round" stroke-linecap="round" d="M 7864.42,2738.41 L 7855.15,2696.37 L 7797.74,2673.78 Z "/>
		<path id="dp_path032" fill="none" fill-rule="evenodd" stroke="#000001" stroke-width="4" stroke-linejoin="round" stroke-linecap="round" d="M 7864.49,2737.44 L 7858.25,2694.85 L 7903.93,2653.37 Z "/>
		<path id="dp_path033" fill="#6ac1e3" fill-rule="evenodd" d="M 7831.48,2567.97 L 7842.11,2627.02 L 7796.85,2654.76 Z "/>
		<path id="dp_path034" fill="#4f90a9" fill-rule="evenodd" d="M 7798.43,2660.27 L 7843.31,2631.99 L 7851.95,2682.3 Z "/>
		<path id="dp_path035" fill="#8ad4eb" fill-rule="evenodd" d="M 7836.05,2567.08 L 7848.66,2626.63 L 7900.53,2635.65 Z "/>
		<path id="dp_path036" fill="#6ac1e3" fill-rule="evenodd" d="M 7901.26,2640.22 L 7848.99,2630.5 L 7859.56,2680.56 Z "/>
		<path id="dp_path037" fill="#8ad4eb" fill-rule="evenodd" d="M 7865.4,2732.11 L 7857.52,2697.42 L 7900.76,2658.06 Z "/>
		<path id="dp_path038" fill="#4f90a9" fill-rule="evenodd" d="M 7861.79,2733.57 L 7853.71,2697.32 L 7804.13,2677.93 Z "/>
		<path id="dp_path039" fill="white" fill-rule="evenodd" stroke="white" stroke-opacity="0.705882" stroke-width="2.53333" stroke-linecap="round" d="M 7850.14,2590.12 C 7850.13,2590.11 7850.13,2590.09 7850.14,2590.07 L 7850.15,2590.07 C 7850.16,2590.06 7850.18,2590.06 7850.19,2590.07 L 7873.85,2615.81 C 7873.86,2615.82 7873.86,2615.84 7873.84,2615.85 L 7873.84,2615.85 C 7873.83,2615.87 7873.81,2615.87 7873.79,2615.85 Z "/>
	</g>
</svg>