<?xml version="1.0" encoding="UTF-8" standalone="no"?>
<!DOCTYPE svg PUBLIC "-//W3C//DTD SVG 1.1//EN" "http://www.w3.org/Graphics/SVG/1.1/DTD/svg11.dtd">
<svg width="100%" height="100%" viewBox="0 0 360 360" version="1.1" xmlns="http://www.w3.org/2000/svg" xmlns:xlink="http://www.w3.org/1999/xlink" xml:space="preserve" xmlns:serif="http://www.serif.com/" style="fill-rule:evenodd;clip-rule:evenodd;">
    <g id="Hearts2">
        <g transform="matrix(0.934551,0,1.249e-16,0.82716,14.941,30.4481)">
            <ellipse cx="176.131" cy="263.059" rx="149.507" ry="36.865" style="fill:rgb(0,0,1);fill-opacity:0.305882;"/>
        </g>
        <g id="dp_path014" transform="matrix(0.677771,-0.0347219,0.0340515,0.664685,-3314.69,-2194.03)">
            <path d="M4949.49,3754.45C4966.4,3704.34 5019.83,3692.47 5051.46,3708.63C5083.08,3724.79 5092.89,3768.98 5075.99,3819.1C5064.64,3856.39 5023.91,3900.21 4988.74,3931.2C4943.76,3918.01 4888.31,3895.55 4862.24,3866.56C4825.71,3828.31 4815.9,3784.12 4837.71,3756.09C4859.53,3728.07 4912.96,3716.2 4949.49,3754.45Z" style="fill:rgb(255,204,216);stroke:rgb(49,50,61);stroke-width:8.4px;"/>
        </g>
        <g id="dp_path016" transform="matrix(0.513244,0.0787937,-0.0787937,0.513244,-1925.44,-2379.28)">
            <path d="M4632.39,4315.84C4604.97,4294.98 4568,4307.23 4553.98,4326.84C4539.96,4346.45 4548.89,4373.43 4576.31,4394.29C4595.95,4410.24 4635.93,4419.46 4668.12,4423.77C4691.39,4401.09 4717.96,4369.84 4724.2,4345.32C4733.76,4312.22 4724.82,4285.24 4701.87,4277.87C4678.92,4270.5 4641.94,4282.74 4632.39,4315.84Z" style="fill:rgb(231,95,90);stroke:rgb(49,50,61);stroke-width:8.4px;"/>
        </g>
        <g id="dp_path008" transform="matrix(0.519257,0,2.77556e-17,0.519257,-2531.04,-1322.09)">
            <path d="M5377.37,2821.05C5386.31,2806.32 5404.21,2806.32 5413.16,2813.68C5422.1,2821.05 5422.1,2835.79 5413.16,2850.53C5406.89,2861.58 5390.79,2872.63 5377.37,2880C5363.95,2872.63 5347.84,2861.58 5341.58,2850.53C5332.63,2835.79 5332.63,2821.05 5341.58,2813.68C5350.52,2806.32 5368.42,2806.32 5377.37,2821.05Z" style="fill:rgb(255,123,123);stroke:rgb(49,50,61);stroke-width:8.4px;"/>
        </g>
    </g>
    <g transform="matrix(4.01523,0,0,4.09845,-203.756,-507.358)">
        <rect x="50.746" y="123.793" width="89.659" height="87.838" style="fill:rgb(235,235,235);fill-opacity:0;"/>
    </g>
</svg>
