<?xml version="1.0" encoding="UTF-8" standalone="no"?>
<svg version="1.1" xmlns="http://www.w3.org/2000/svg" xmlns:xlink="http://www.w3.org/1999/xlink" xmlns:i="http://ns.adobe.com/AdobeIllustrator/10.0/" width="364.8" height="364.8">
	<g id="dp_dp001" transform="matrix(1,0,0,1,-7673.96,-2504.36)">
		<path id="dp_path002" fill="white" fill-rule="evenodd" d="M 7676.41,2507.15 L 8036.41,2507.15 L 8036.41,2867.15 L 7676.41,2867.15 Z "/>
		<path id="dp_path003" fill="#31323d" fill-rule="evenodd" fill-opacity="0.294118" d="M 7853.57,2750.65 C 7926.37,2750.65 7985.38,2764.35 7985.38,2781.25 C 7985.38,2798.14 7926.37,2811.84 7853.57,2811.84 C 7780.78,2811.84 7721.77,2798.14 7721.77,2781.25 C 7721.77,2764.35 7780.78,2750.65 7853.57,2750.65 Z "/>
		<path id="dp_path004" fill="#e75f5a" fill-rule="evenodd" stroke="#31323d" stroke-width="8" stroke-linejoin="round" stroke-linecap="round" d="M 7854.72,2558.25 L 7960.02,2665.33 L 7749.42,2665.33 Z "/>
		<path id="dp_path005" fill="#e75f5a" fill-rule="evenodd" stroke="#31323d" stroke-width="8" stroke-linejoin="round" stroke-linecap="round" d="M 7749.93,2665.97 L 7960.02,2665.97 L 7960.02,2783.14 L 7749.93,2783.14 Z "/>
		<path id="dp_path006" fill="#31323d" fill-rule="evenodd" fill-opacity="0.25098" d="M 7839.16,2722.7 L 7881.53,2722.7 L 7881.53,2739.18 L 7839.16,2739.18 Z "/>
		<path id="dp_path007" fill="white" fill-rule="evenodd" stroke="#31323d" stroke-width="8" stroke-linecap="round" d="M 7764.97,2725.13 L 7764.97,2577.97 L 7943.67,2577.97 L 7943.67,2725.13 Z "/>
		<path id="dp_path008" fill="#e75f5a" fill-rule="evenodd" stroke="#31323d" stroke-width="8" stroke-linejoin="round" stroke-linecap="round" d="M 7960.02,2665.97 L 7749.93,2783.14 L 7960.02,2783.14 Z "/>
		<path id="dp_path009" fill="#e75f5a" fill-rule="evenodd" stroke="#31323d" stroke-width="8" stroke-linejoin="round" stroke-linecap="round" d="M 7749.93,2665.97 L 7960.02,2783.14 L 7749.93,2783.14 Z "/>
		<path id="dp_path010" fill="#31323d" fill-rule="evenodd" fill-opacity="0.501961" d="M 7862.48,2778.76 L 7756.07,2778.76 C 7756.07,2778.76 7756.07,2778.76 7756.07,2778.76 L 7756.07,2666.3 L 7750.47,2666.3 L 7750.47,2778.76 C 7750.47,2781.35 7752.57,2783.44 7755.15,2783.44 L 7862.48,2783.44 Z "/>
		<path id="dp_path011" fill="#e75f5a" fill-rule="evenodd" stroke="#e75f5a" stroke-width="2.26667" d="M 7846.64,2637.77 C 7846.35,2640.36 7846.16,2641.82 7846.07,2642.14 C 7845.58,2643.81 7844.62,2644.74 7843.19,2644.94 C 7842.41,2645.04 7841.36,2644.77 7840.04,2644.12 C 7838.72,2643.47 7837.73,2643.18 7837.06,2643.27 C 7836.64,2643.33 7836.23,2643.51 7835.83,2643.82 C 7834.73,2643.6 7833.53,2643.58 7832.24,2643.75 C 7831.37,2643.87 7830.07,2644.16 7828.37,2644.61 C 7826.67,2645.06 7825.38,2645.35 7824.5,2645.47 C 7823.59,2645.59 7822.88,2645.65 7822.37,2645.64 C 7821.97,2646.37 7821.36,2646.8 7820.54,2646.91 C 7820.12,2646.97 7819.49,2646.93 7818.66,2646.8 C 7817.83,2646.67 7817.21,2646.63 7816.81,2646.69 C 7816.53,2646.73 7816.26,2646.82 7816.01,2646.97 C 7815.54,2646.65 7815.06,2646.52 7814.59,2646.58 C 7814.21,2646.63 7813.69,2646.86 7813.05,2647.25 C 7812.41,2647.65 7811.9,2647.87 7811.54,2647.92 C 7811.18,2647.97 7810.83,2647.9 7810.49,2647.71 L 7810.11,2648.32 L 7809.52,2647.85 C 7807.79,2648.63 7806.06,2649.4 7804.34,2650.18 C 7802.31,2651.04 7800.5,2651.59 7798.93,2651.84 C 7798.59,2651.35 7798.24,2650.84 7797.91,2650.33 C 7797.5,2649.78 7797.04,2649.39 7796.52,2649.15 C 7796.51,2649.15 7796.49,2648.99 7796.46,2648.66 C 7796.28,2647.35 7796.55,2646.22 7797.27,2645.27 C 7798,2644.33 7799.03,2643.76 7800.36,2643.58 C 7800.67,2643.54 7800.82,2643.52 7800.82,2643.52 C 7801.76,2643.89 7802.83,2644 7804.03,2643.83 C 7804.49,2643.77 7805.16,2643.63 7806.06,2643.42 C 7806.94,2643.2 7807.62,2643.06 7808.08,2643 C 7808.63,2642.92 7809.35,2642.94 7810.22,2643.04 C 7811.1,2643.14 7811.76,2643.16 7812.19,2643.1 C 7815.01,2642.72 7816.12,2640.33 7815.52,2635.93 C 7815.5,2635.76 7815.4,2635.44 7815.22,2635 C 7815.04,2634.55 7814.94,2634.26 7814.9,2634.13 C 7814.64,2633.11 7814.41,2631.81 7814.19,2630.22 C 7814.13,2629.78 7814.05,2629.12 7813.95,2628.22 C 7813.84,2627.33 7813.76,2626.65 7813.7,2626.19 C 7813.67,2626.01 7813.59,2625.49 7813.43,2624.64 C 7813.33,2624.52 7812.71,2623.38 7811.57,2621.24 C 7810.84,2619.88 7809.94,2619 7808.85,2618.58 C 7808.32,2618.39 7807.87,2618.31 7807.51,2618.36 C 7807.38,2618.38 7806.39,2618.67 7804.55,2619.23 C 7800.71,2620.43 7796.74,2622 7792.62,2623.95 C 7791.4,2623.22 7790.7,2622.21 7790.52,2620.89 C 7790.32,2619.47 7790.38,2618.22 7790.68,2617.13 C 7790.85,2616.43 7791.27,2616.04 7791.94,2615.95 C 7792.3,2615.9 7792.83,2616 7793.53,2616.24 C 7794.24,2616.48 7794.76,2616.58 7795.1,2616.53 C 7795.16,2616.52 7795.66,2616.36 7796.6,2616.04 C 7798.68,2615.31 7800.05,2614.91 7800.72,2614.82 C 7801.52,2614.71 7802.28,2614.75 7803,2614.94 C 7804.01,2614.27 7805.7,2613.63 7808.06,2613.02 C 7810.42,2612.42 7812.12,2611.77 7813.15,2611.07 C 7814.28,2611.23 7815.51,2611.22 7816.84,2611.04 C 7819.47,2610.68 7821.63,2609.72 7823.34,2608.15 C 7823.62,2608.15 7823.85,2608.14 7824.07,2608.11 C 7824.81,2608.01 7825.89,2607.67 7827.31,2607.07 C 7828.73,2606.47 7829.83,2606.12 7830.61,2606.02 C 7831.26,2605.93 7831.77,2605.9 7832.14,2605.92 C 7833.24,2608.16 7833.82,2609.45 7833.86,2609.79 C 7833.96,2610.47 7833.65,2611.24 7832.96,2612.09 C 7831.85,2613.39 7831.28,2614.06 7831.26,2614.13 C 7830.7,2614.57 7829.92,2614.86 7828.93,2615 C 7828,2615.12 7826.6,2615.12 7824.72,2614.97 C 7822.85,2614.83 7821.45,2614.82 7820.51,2614.94 C 7818.25,2615.25 7817.29,2616.67 7817.63,2619.2 C 7817.76,2620.11 7817.88,2620.7 7817.99,2620.97 C 7818.58,2622.34 7818.92,2623.29 7818.99,2623.82 C 7819.02,2624.03 7819.05,2624.35 7819.09,2624.76 C 7819.13,2625.17 7819.16,2625.47 7819.19,2625.68 C 7819.33,2626.69 7819.6,2627.56 7820.01,2628.3 C 7819.95,2628.75 7819.95,2629.18 7820.01,2629.58 C 7820.09,2630.16 7820.33,2631.03 7820.72,2632.16 C 7821.12,2633.3 7821.36,2634.17 7821.45,2634.78 C 7821.56,2635.63 7821.49,2636.43 7821.22,2637.18 C 7822.06,2638.93 7823.03,2639.8 7824.14,2639.81 C 7824.14,2639.81 7824.38,2639.77 7824.85,2639.71 C 7825.18,2639.67 7825.67,2639.61 7826.31,2639.54 C 7826.96,2639.47 7827.45,2639.41 7827.77,2639.37 C 7829.22,2639.17 7830.31,2638.85 7831.05,2638.41 L 7831.7,2638.32 C 7832.05,2638.27 7832.57,2638.21 7833.29,2638.13 C 7834.01,2638.05 7834.55,2637.99 7834.91,2637.94 C 7836.58,2637.72 7837.91,2637.33 7838.89,2636.79 C 7839.05,2636.57 7839.3,2636.45 7839.65,2636.4 C 7839.87,2636.37 7840.22,2636.38 7840.7,2636.43 C 7841.17,2636.48 7841.52,2636.49 7841.75,2636.46 C 7842.2,2636.4 7842.56,2636.18 7842.79,2635.8 C 7843.39,2635.77 7844.07,2636 7844.84,2636.48 C 7845.44,2636.92 7846.04,2637.35 7846.64,2637.77 Z "/>
		<path id="dp_path012" fill="#e75f5a" fill-rule="evenodd" stroke="#e75f5a" stroke-width="2.26667" d="M 7877.44,2678.55 C 7877.44,2678.92 7877.27,2679.26 7876.91,2679.58 C 7877.01,2680.06 7877.06,2680.55 7877.07,2681.06 C 7877.1,2682.71 7876.8,2684.49 7876.2,2686.41 C 7876.08,2686.71 7875.92,2687.16 7875.73,2687.75 C 7875.53,2688.5 7875.07,2689.59 7874.35,2691.03 C 7873.19,2692.63 7871.29,2693.79 7868.64,2694.51 C 7867.41,2694.85 7865.14,2695.22 7861.82,2695.63 C 7860.43,2695.79 7859.06,2695.99 7857.7,2696.22 C 7857.48,2696.26 7857.28,2696.28 7857.11,2696.29 C 7855.52,2696.31 7853.69,2695.96 7851.6,2695.21 C 7849.84,2694.57 7848.07,2693.93 7846.32,2693.3 C 7846.22,2693.34 7846.07,2693.36 7845.88,2693.36 C 7845.51,2693.37 7844.98,2693.25 7844.28,2693 C 7843.35,2692.67 7842.82,2692.49 7842.68,2692.45 L 7842.67,2692.3 C 7842.67,2691.76 7842.21,2691.5 7841.3,2691.52 C 7840.8,2691.53 7840.47,2691.39 7840.33,2691.12 L 7834.84,2687.57 C 7833.45,2685.34 7832.37,2683.55 7831.58,2682.19 C 7830.91,2681.09 7830.56,2679.47 7830.53,2677.31 C 7830.46,2673.71 7831.77,2669.73 7834.44,2665.4 C 7834.34,2665.18 7834.29,2664.94 7834.29,2664.67 C 7834.28,2664.05 7834.72,2663.61 7835.6,2663.35 C 7836.78,2663 7837.43,2662.76 7837.57,2662.64 C 7838.2,2662.8 7838.61,2663.34 7838.81,2664.25 C 7839.01,2665.17 7839.37,2665.68 7839.87,2665.8 C 7839.93,2665.92 7839.96,2666.04 7839.96,2666.16 C 7839.97,2666.7 7839.58,2667.28 7838.79,2667.9 C 7837.88,2668.64 7837.36,2669.17 7837.22,2669.46 C 7837.13,2669.86 7836.98,2670.44 7836.79,2671.19 C 7835.94,2674.29 7835.53,2676.61 7835.55,2678.13 C 7835.58,2679.63 7835.76,2680.66 7836.1,2681.22 C 7836.73,2682.29 7837.73,2683.44 7839.09,2684.69 C 7844.12,2689.21 7851.65,2691.38 7861.69,2691.2 C 7861.9,2690.54 7862.46,2690.22 7863.37,2690.23 C 7864.36,2690.27 7865,2690.11 7865.29,2689.76 L 7865.77,2690.22 C 7869.97,2687.5 7872.01,2682.95 7871.89,2676.57 C 7871.86,2674.79 7871.68,2673.12 7871.33,2671.55 C 7871.07,2670.41 7870.07,2669.24 7868.34,2668.04 C 7866.74,2666.9 7865.93,2665.88 7865.91,2664.98 C 7865.9,2664.36 7866.3,2663.39 7867.09,2662.1 C 7867.53,2661.36 7868.04,2660.89 7868.63,2660.69 C 7869.36,2660.42 7869.88,2660.12 7870.21,2659.8 C 7873.09,2661.17 7875.04,2663.39 7876.07,2666.44 C 7876.69,2668.27 7877.11,2671.29 7877.33,2675.51 C 7877,2675.81 7876.85,2676.15 7876.85,2676.53 C 7876.86,2676.77 7876.96,2677.11 7877.15,2677.54 C 7877.34,2677.97 7877.43,2678.31 7877.44,2678.55 Z "/>
		<path id="dp_path013" fill="#e75f5a" fill-rule="evenodd" stroke="#e75f5a" stroke-width="2.26667" d="M 7890.1,2612.29 C 7898.77,2604.48 7912.29,2609.81 7917.29,2616.13 C 7922.29,2622.45 7918.78,2629.75 7910.11,2637.57 C 7903.92,2643.51 7890.87,2647.69 7880.31,2649.99 S 7862.83,2632.91 7860.3,2624.71 C 7856.52,2613.69 7861.1,2605.55 7868.55,2602.45 C 7876,2599.34 7886.32,2601.26 7890.1,2612.29 Z "/>
	</g>
</svg>