<?xml version="1.0" encoding="UTF-8" standalone="no"?>
<svg version="1.1" xmlns="http://www.w3.org/2000/svg" xmlns:xlink="http://www.w3.org/1999/xlink" xmlns:i="http://ns.adobe.com/AdobeIllustrator/10.0/" width="393.817" height="403.636">
	<g id="dp_dp001" transform="matrix(1,0,0,1,-7644.62,-2504.52)">
		<path id="dp_path002" fill="white" fill-rule="evenodd" d="M 7676.41,2507.15 L 8036.41,2507.15 L 8036.41,2867.15 L 7676.41,2867.15 Z "/>
		<path id="dp_path003" fill="#e5e5e5" fill-rule="evenodd" stroke="#e5e5e5" stroke-width="8" d="M 7860,2751.37 C 7935.11,2751.37 7996,2766.71 7996,2785.62 C 7996,2804.54 7935.11,2819.87 7860,2819.87 C 7784.89,2819.87 7724,2804.54 7724,2785.62 C 7724,2766.71 7784.89,2751.37 7860,2751.37 Z "/>
		<path id="dp_path004" fill="#e75f5a" fill-rule="evenodd" stroke="#31323d" stroke-width="6" stroke-linejoin="round" stroke-linecap="round" d="M 7858.91,2568.75 L 7962.31,2674.21 L 7755.52,2674.21 Z "/>
		<path id="dp_path005" fill="#e75f5a" fill-rule="evenodd" stroke="#31323d" stroke-width="6" stroke-linejoin="round" stroke-linecap="round" d="M 7756.02,2674.85 L 7962.31,2674.85 L 7962.31,2790.24 L 7756.02,2790.24 Z "/>
		<path id="dp_path006" fill="white" fill-rule="evenodd" stroke="#31323d" stroke-width="6" stroke-linecap="round" d="M 7770.79,2733.11 L 7770.79,2588.18 L 7946.26,2588.18 L 7946.26,2733.11 Z "/>
		<path id="dp_path007" fill="#e75f5a" fill-rule="evenodd" stroke="#31323d" stroke-width="6" stroke-linejoin="round" stroke-linecap="round" d="M 7961.53,2673.59 C 7900.49,2673.59 7850.83,2725.13 7850.19,2789.15 L 7961.53,2790.37 Z "/>
		<path id="dp_path008" fill="#e75f5a" fill-rule="evenodd" stroke="#31323d" stroke-width="6" stroke-linejoin="round" stroke-linecap="round" d="M 7755.59,2674.22 C 7816.63,2674.22 7866.29,2725.77 7866.93,2789.79 L 7755.59,2791.01 Z "/>
	</g>
	<text id="dp_text001" transform="matrix(0.996821,-0.0796769,0.0796771,0.996821,149.667,154.551)" xml:space="preserve" fill="#e75f5a" font-family="Undercurrent BTN" font-size="60" font-weight="700" x="0" y="0">I</text>
	<text id="dp_text002" transform="matrix(0.944216,0,0,1,183.268,200.579)" xml:space="preserve" fill="#e75f5a" font-family="Undercurrent BTN" font-size="58" font-weight="700" x="0" y="0">U</text>
	<image id="dp_image011" transform="matrix(1,0,0,1,-7635.27,-2501.45)" fill="none" x="7843.64" y="2599.64" width="81.8187" height="69.8187" xlink:href="Draw793F_images/Draw793F_001.png"/>
</svg>