<?xml version="1.0" encoding="UTF-8" standalone="no"?>
<!DOCTYPE svg PUBLIC "-//W3C//DTD SVG 1.1//EN" "http://www.w3.org/Graphics/SVG/1.1/DTD/svg11.dtd">
<svg width="100%" height="100%" viewBox="0 0 360 360" version="1.1" xmlns="http://www.w3.org/2000/svg" xmlns:xlink="http://www.w3.org/1999/xlink" xml:space="preserve" xmlns:serif="http://www.serif.com/" style="fill-rule:evenodd;clip-rule:evenodd;stroke-linecap:round;stroke-linejoin:round;stroke-miterlimit:1.5;">
    <g transform="matrix(0.204109,-0.0217875,0.0217875,0.204109,-138.7,-22.2917)">
        <g id="oversized-glasses" serif:id="oversized glasses">
            <g>
                <g transform="matrix(4.0704,0.434491,-0.308813,2.89301,783.184,537.716)">
                    <ellipse cx="176.131" cy="263.059" rx="149.507" ry="36.865" style="fill:rgb(0,0,1);fill-opacity:0.305882;"/>
                </g>
                <g transform="matrix(0.910785,-0.011296,0.0117078,0.943989,120.713,69.2407)">
                    <path d="M644.321,940.3C737.708,873.755 1117.08,839.878 1374.32,982.3C1415.35,972.862 1466.63,968.4 1502.32,980.3C1738.82,830.367 2076.28,875.643 2216.32,940.3C2243.67,952.924 2227.65,1009.63 2224.32,1030.3C2221.98,1044.79 2200.82,1050.86 2196.32,1064.3C2130.04,1293.97 2049.81,1390.9 1930.32,1398.3C1612.53,1417.99 1476.15,1230.65 1472.32,1042.3C1448.32,1022.97 1424.32,1023.63 1400.32,1044.3C1383.66,1292.44 1208.23,1386.03 988.321,1398.3C846.503,1406.21 741.43,1308.08 686.321,1090.3C679.229,1071.71 648.581,1058.66 642.321,1036.3C635.321,1011.3 626.947,952.68 644.321,940.3ZM1026.18,926.844C1178.93,932.844 1320.32,973.567 1320.32,1098.3C1320.32,1223.03 1182.88,1338.5 1026.62,1351.89C824.618,1369.21 744.321,1191.03 744.321,1066.3C744.321,941.567 869.562,920.691 1026.18,926.844ZM1847.33,925.06C1694.52,928.89 1552.71,965.492 1550.94,1090.21C1549.16,1214.93 1680.02,1317.68 1834.61,1343.63C2042.87,1378.6 2125.56,1191.12 2127.33,1066.4C2129.11,941.678 2004.03,921.133 1847.33,925.06Z" style="fill:rgb(176,248,82);stroke:rgb(49,50,61);stroke-width:6.4px;"/>
                </g>
                <g transform="matrix(0.995501,-1.38154e-17,-1.38154e-17,0.995501,14.5835,-21.4036)">
                    <path d="M1768.32,910.3C1852.06,899.685 2009.82,912.216 2084.06,940.505C2106.12,948.908 2128.78,955.154 2150.32,964.3C2163.32,993.698 2154.7,1019.01 2146.32,1048.3C2102.15,941.12 1897.11,929.872 1768.32,910.3Z" style="fill:white;fill-opacity:0.4;stroke:rgb(202,210,210);stroke-opacity:0.47451;stroke-width:4.8px;"/>
                </g>
                <g transform="matrix(0.11981,-0.0144488,0.0187025,0.155082,1999.48,715.26)">
                    <g transform="matrix(1.17373,5.09024e-19,0,1.00943,-151.659,-40.8322)">
                        <ellipse cx="700.366" cy="1743.17" rx="236" ry="212" style="fill:white;stroke:rgb(49,50,61);stroke-width:31.86px;"/>
                    </g>
                    <path d="M946.96,1720.67L931.96,1711.67C918.215,1731.23 900.87,1748.44 878.96,1762.67C881.66,1791.38 881.363,1820.04 879.96,1848.67C909.213,1843.98 942.254,1774.67 946.96,1720.67Z" style="fill:rgb(49,50,61);stroke:rgb(49,50,61);stroke-width:34.21px;"/>
                    <path d="M741.96,1520.67C765.804,1534.14 786.117,1550.11 799.96,1570.67C829.24,1573.68 862.068,1584.43 896.96,1599.67C864.041,1550.59 816.561,1518.97 750.969,1515.96C747.361,1515.79 745.692,1520.7 741.96,1520.67Z" style="fill:rgb(49,50,61);stroke:rgb(49,50,61);stroke-width:34.21px;"/>
                    <path d="M393.96,1717.67L417.96,1698.67L465.96,1749.67L463.96,1821.67L431.96,1824.67C415.374,1800.1 403.188,1765.01 393.96,1717.67Z" style="fill:rgb(49,50,61);stroke:rgb(49,50,61);stroke-width:34.21px;"/>
                    <path d="M458.96,1582.67C485.578,1567.73 513.489,1559.54 543.96,1564.67C557.526,1543.81 582.21,1524.32 612.96,1508.67C547.158,1510.79 458.96,1582.67 458.96,1582.67Z" style="fill:rgb(49,50,61);stroke:rgb(49,50,61);stroke-width:34.21px;"/>
                    <path d="M610.96,1638.67L728.96,1638.67L765.96,1721.67L674.96,1777.67L577.96,1724.67L610.96,1638.67Z" style="fill:rgb(49,50,61);stroke:rgb(49,50,61);stroke-width:34.21px;"/>
                    <g transform="matrix(1,0,0,-1,-3.51746,3664.32)">
                        <path d="M599.065,1743.7C648.571,1732.87 698.926,1733.72 748.373,1743.41L674.96,1777.67L599.065,1743.7Z" style="fill:rgb(49,50,61);stroke:rgb(49,50,61);stroke-width:34.21px;"/>
                    </g>
                </g>
                <g transform="matrix(0.11981,-0.0144488,0.0187025,0.155082,650.903,730.541)">
                    <g transform="matrix(1.17373,5.09024e-19,0,1.00943,-151.659,-40.8322)">
                        <ellipse cx="700.366" cy="1743.17" rx="236" ry="212" style="fill:white;stroke:rgb(49,50,61);stroke-width:31.86px;"/>
                    </g>
                    <path d="M946.96,1720.67L931.96,1711.67C918.215,1731.23 900.87,1748.44 878.96,1762.67C881.66,1791.38 881.363,1820.04 879.96,1848.67C909.213,1843.98 942.254,1774.67 946.96,1720.67Z" style="fill:rgb(49,50,61);stroke:rgb(49,50,61);stroke-width:34.21px;"/>
                    <path d="M741.96,1520.67C765.804,1534.14 786.117,1550.11 799.96,1570.67C829.24,1573.68 862.068,1584.43 896.96,1599.67C864.041,1550.59 816.561,1518.97 750.969,1515.96C747.361,1515.79 745.692,1520.7 741.96,1520.67Z" style="fill:rgb(49,50,61);stroke:rgb(49,50,61);stroke-width:34.21px;"/>
                    <path d="M393.96,1717.67L417.96,1698.67L465.96,1749.67L463.96,1821.67L431.96,1824.67C415.374,1800.1 403.188,1765.01 393.96,1717.67Z" style="fill:rgb(49,50,61);stroke:rgb(49,50,61);stroke-width:34.21px;"/>
                    <path d="M458.96,1582.67C485.578,1567.73 513.489,1559.54 543.96,1564.67C557.526,1543.81 582.21,1524.32 612.96,1508.67C547.158,1510.79 458.96,1582.67 458.96,1582.67Z" style="fill:rgb(49,50,61);stroke:rgb(49,50,61);stroke-width:34.21px;"/>
                    <path d="M610.96,1638.67L728.96,1638.67L765.96,1721.67L674.96,1777.67L577.96,1724.67L610.96,1638.67Z" style="fill:rgb(49,50,61);stroke:rgb(49,50,61);stroke-width:34.21px;"/>
                    <g transform="matrix(1,0,0,-1,-3.51746,3664.32)">
                        <path d="M599.065,1743.7C648.571,1732.87 698.926,1733.72 748.373,1743.41L674.96,1777.67L599.065,1743.7Z" style="fill:rgb(49,50,61);stroke:rgb(49,50,61);stroke-width:34.21px;"/>
                    </g>
                </g>
                <g transform="matrix(0.915984,0.081626,-0.0637286,0.715145,932.847,270.482)">
                    <path d="M815.602,1298.97C876.135,1406 1123.2,1416.48 1173.99,1387.88C1173.99,1387.88 1063.87,1416.42 979.236,1403.64C866.704,1386.63 815.602,1298.97 815.602,1298.97Z" style="fill:rgb(49,50,61);fill-opacity:0.2;stroke:rgb(202,210,210);stroke-opacity:0.47451;stroke-width:5.79px;"/>
                </g>
            </g>
        </g>
    </g>
    <g transform="matrix(4.01523,0,0,4.09845,-203.756,-507.358)">
        <g id="Transparent-Layer" serif:id="Transparent Layer">
            <rect x="50.746" y="123.793" width="89.659" height="87.838" style="fill:rgb(235,235,235);fill-opacity:0;"/>
        </g>
    </g>
</svg>
