<?xml version="1.0" encoding="UTF-8" standalone="no"?>
<!DOCTYPE svg PUBLIC "-//W3C//DTD SVG 1.1//EN" "http://www.w3.org/Graphics/SVG/1.1/DTD/svg11.dtd">
<svg width="100%" height="100%" viewBox="0 0 360 360" version="1.1" xmlns="http://www.w3.org/2000/svg" xmlns:xlink="http://www.w3.org/1999/xlink" xml:space="preserve" xmlns:serif="http://www.serif.com/" style="fill-rule:evenodd;clip-rule:evenodd;">
    <g id="pearlnecklace" transform="matrix(0.320227,0,0,0.320227,-1672.54,-1116.21)">
        <g id="dp_path002" transform="matrix(10.0126,-8.66746e-17,0,1.92719,-56453.1,-3569.56)">
            <path d="M6216.4,4053.87C6193.21,4055.48 6175.72,4074.59 6177.35,4096.54C6178.97,4118.49 6199.1,4134.97 6222.29,4133.36C6245.49,4131.74 6262.97,4112.63 6261.35,4090.68C6259.72,4068.73 6239.6,4052.25 6216.4,4053.87Z" style="fill:rgb(0,0,1);fill-opacity:0.305882;"/>
        </g>
        <g id="dp_path003" transform="matrix(0.999766,-0.0216359,0.0216359,0.999766,-95.4418,127.748)">
            <path d="M6218.58,4044.15C6195.39,4045.76 6177.9,4064.87 6179.53,4086.82C6181.16,4108.77 6201.28,4125.25 6224.47,4123.64C6247.67,4122.02 6265.15,4102.91 6263.53,4080.96C6261.9,4059.01 6241.78,4042.53 6218.58,4044.15Z" style="fill:rgb(249,249,228);stroke:rgb(49,50,61);stroke-width:7px;"/>
        </g>
        <g id="dp_path007" transform="matrix(0.999766,-0.0216359,0.0216359,0.999766,-95.4418,127.748)">
            <path d="M5373.45,4057.66C5350.2,4057.74 5331.45,4075.64 5331.57,4097.65C5331.7,4119.66 5350.65,4137.43 5373.9,4137.35C5397.16,4137.27 5415.91,4119.37 5415.78,4097.36C5415.66,4075.35 5396.71,4057.58 5373.45,4057.66Z" style="fill:rgb(249,249,228);stroke:rgb(49,50,61);stroke-width:7px;"/>
        </g>
        <g id="dp_path010" transform="matrix(0.999766,-0.0216359,0.0216359,0.999766,-95.4418,127.748)">
            <path d="M5394.29,4087.5C5401.68,4091.2 5405.78,4097.99 5403.44,4102.67C5401.1,4107.34 5393.21,4108.13 5385.81,4104.42C5378.41,4100.72 5374.31,4093.93 5376.65,4089.25C5379,4084.58 5386.89,4083.79 5394.29,4087.5Z" style="fill:white;"/>
        </g>
        <g id="dp_path0071" serif:id="dp_path007" transform="matrix(0.998123,-0.0612358,0.0612358,0.998123,-252.997,264.473)">
            <path d="M5373.45,4057.66C5350.2,4057.74 5331.45,4075.64 5331.57,4097.65C5331.7,4119.66 5350.65,4137.43 5373.9,4137.35C5397.16,4137.27 5415.91,4119.37 5415.78,4097.36C5415.66,4075.35 5396.71,4057.58 5373.45,4057.66Z" style="fill:rgb(249,249,228);stroke:rgb(49,50,61);stroke-width:7px;"/>
        </g>
        <g id="dp_path0072" serif:id="dp_path007" transform="matrix(0.998123,-0.0612358,0.0612358,0.998123,-183.385,214.469)">
            <path d="M5373.45,4057.66C5350.2,4057.74 5331.45,4075.64 5331.57,4097.65C5331.7,4119.66 5350.65,4137.43 5373.9,4137.35C5397.16,4137.27 5415.91,4119.37 5415.78,4097.36C5415.66,4075.35 5396.71,4057.58 5373.45,4057.66Z" style="fill:rgb(249,249,228);stroke:rgb(49,50,61);stroke-width:7px;"/>
        </g>
        <g id="dp_path0073" serif:id="dp_path007" transform="matrix(0.998123,-0.0612358,0.0612358,0.998123,-99.8374,183.713)">
            <path d="M5373.45,4057.66C5350.2,4057.74 5331.45,4075.64 5331.57,4097.65C5331.7,4119.66 5350.65,4137.43 5373.9,4137.35C5397.16,4137.27 5415.91,4119.37 5415.78,4097.36C5415.66,4075.35 5396.71,4057.58 5373.45,4057.66Z" style="fill:rgb(249,249,228);stroke:rgb(49,50,61);stroke-width:7px;"/>
        </g>
        <g id="dp_path0074" serif:id="dp_path007" transform="matrix(0.998123,-0.0612358,0.0612358,0.998123,-11.2506,165.463)">
            <path d="M5373.45,4057.66C5350.2,4057.74 5331.45,4075.64 5331.57,4097.65C5331.7,4119.66 5350.65,4137.43 5373.9,4137.35C5397.16,4137.27 5415.91,4119.37 5415.78,4097.36C5415.66,4075.35 5396.71,4057.58 5373.45,4057.66Z" style="fill:rgb(249,249,228);stroke:rgb(49,50,61);stroke-width:7px;"/>
        </g>
        <g id="dp_path0075" serif:id="dp_path007" transform="matrix(0.998123,-0.0612358,0.0612358,0.998123,74.7603,151.642)">
            <path d="M5373.45,4057.66C5350.2,4057.74 5331.45,4075.64 5331.57,4097.65C5331.7,4119.66 5350.65,4137.43 5373.9,4137.35C5397.16,4137.27 5415.91,4119.37 5415.78,4097.36C5415.66,4075.35 5396.71,4057.58 5373.45,4057.66Z" style="fill:rgb(249,249,228);stroke:rgb(49,50,61);stroke-width:7px;"/>
        </g>
        <g id="dp_path0076" serif:id="dp_path007" transform="matrix(0.999232,-0.0391932,0.0391932,0.999232,245.134,23.3857)">
            <path d="M5373.45,4057.66C5350.2,4057.74 5331.45,4075.64 5331.57,4097.65C5331.7,4119.66 5350.65,4137.43 5373.9,4137.35C5397.16,4137.27 5415.91,4119.37 5415.78,4097.36C5415.66,4075.35 5396.71,4057.58 5373.45,4057.66Z" style="fill:rgb(249,249,228);stroke:rgb(49,50,61);stroke-width:7px;"/>
        </g>
        <g id="dp_path0077" serif:id="dp_path007" transform="matrix(-0.999766,0.0216359,0.0216359,0.999766,11487.1,-219.576)">
            <path d="M5373.45,4057.66C5350.2,4057.74 5331.45,4075.64 5331.57,4097.65C5331.7,4119.66 5350.65,4137.43 5373.9,4137.35C5397.16,4137.27 5415.91,4119.37 5415.78,4097.36C5415.66,4075.35 5396.71,4057.58 5373.45,4057.66Z" style="fill:rgb(249,249,228);stroke:rgb(49,50,61);stroke-width:7px;"/>
        </g>
        <g id="dp_path0078" serif:id="dp_path007" transform="matrix(-0.999766,0.0216359,0.0216359,0.999766,11409.4,-261.963)">
            <path d="M5373.45,4057.66C5350.2,4057.74 5331.45,4075.64 5331.57,4097.65C5331.7,4119.66 5350.65,4137.43 5373.9,4137.35C5397.16,4137.27 5415.91,4119.37 5415.78,4097.36C5415.66,4075.35 5396.71,4057.58 5373.45,4057.66Z" style="fill:rgb(249,249,228);stroke:rgb(49,50,61);stroke-width:7px;"/>
        </g>
        <g id="dp_path0079" serif:id="dp_path007" transform="matrix(-0.999766,0.0216359,0.0216359,0.999766,11323.6,-285.695)">
            <path d="M5373.45,4057.66C5350.2,4057.74 5331.45,4075.64 5331.57,4097.65C5331.7,4119.66 5350.65,4137.43 5373.9,4137.35C5397.16,4137.27 5415.91,4119.37 5415.78,4097.36C5415.66,4075.35 5396.71,4057.58 5373.45,4057.66Z" style="fill:rgb(249,249,228);stroke:rgb(49,50,61);stroke-width:7px;"/>
        </g>
        <g id="dp_path00710" serif:id="dp_path007" transform="matrix(-0.999766,0.0216359,0.0216359,0.999766,11233.8,-296.545)">
            <path d="M5373.45,4057.66C5350.2,4057.74 5331.45,4075.64 5331.57,4097.65C5331.7,4119.66 5350.65,4137.43 5373.9,4137.35C5397.16,4137.27 5415.91,4119.37 5415.78,4097.36C5415.66,4075.35 5396.71,4057.58 5373.45,4057.66Z" style="fill:rgb(249,249,228);stroke:rgb(49,50,61);stroke-width:7px;"/>
        </g>
        <g id="dp_path00711" serif:id="dp_path007" transform="matrix(-0.999766,0.0216359,0.0216359,0.999766,11146.9,-303.195)">
            <path d="M5373.45,4057.66C5350.2,4057.74 5331.45,4075.64 5331.57,4097.65C5331.7,4119.66 5350.65,4137.43 5373.9,4137.35C5397.16,4137.27 5415.91,4119.37 5415.78,4097.36C5415.66,4075.35 5396.71,4057.58 5373.45,4057.66Z" style="fill:rgb(249,249,228);stroke:rgb(49,50,61);stroke-width:7px;"/>
        </g>
        <g id="dp_path012" transform="matrix(0.999766,-0.0216359,0.0216359,0.999766,-95.4418,127.748)">
            <path d="M5446.07,4103.1C5422.82,4103.18 5404.07,4121.09 5404.19,4143.09C5404.32,4165.1 5423.27,4182.88 5446.52,4182.8C5469.78,4182.72 5488.53,4164.81 5488.4,4142.8C5488.28,4120.79 5469.33,4103.02 5446.07,4103.1Z" style="fill:rgb(249,249,228);stroke:rgb(49,50,61);stroke-width:7px;"/>
        </g>
        <g id="dp_path016" transform="matrix(0.999766,-0.0216359,0.0216359,0.999766,-95.4418,127.748)">
            <path d="M5521.95,4144.1C5498.7,4144.18 5479.95,4162.09 5480.07,4184.1C5480.2,4206.11 5499.15,4223.88 5522.41,4223.8C5545.66,4223.72 5564.41,4205.81 5564.29,4183.81C5564.16,4161.8 5545.21,4144.02 5521.95,4144.1Z" style="fill:rgb(249,249,228);stroke:rgb(49,50,61);stroke-width:7px;"/>
        </g>
        <g id="dp_path020" transform="matrix(0.999766,-0.0216359,0.0216359,0.999766,-95.4418,127.748)">
            <path d="M5603.73,4171.32C5580.47,4171.4 5561.72,4189.31 5561.85,4211.31C5561.97,4233.32 5580.92,4251.1 5604.18,4251.02C5627.43,4250.94 5646.18,4233.03 5646.06,4211.02C5645.93,4189.01 5626.98,4171.24 5603.73,4171.32Z" style="fill:rgb(249,249,228);stroke:rgb(49,50,61);stroke-width:7px;"/>
        </g>
        <g id="dp_path024" transform="matrix(0.999766,-0.0216359,0.0216359,0.999766,-95.4418,127.748)">
            <path d="M6146.49,4085.82C6123.23,4085.9 6104.49,4103.81 6104.61,4125.82C6104.73,4147.83 6123.69,4165.6 6146.94,4165.52C6170.19,4165.44 6188.94,4147.53 6188.82,4125.53C6188.69,4103.52 6169.74,4085.74 6146.49,4085.82Z" style="fill:rgb(249,249,228);stroke:rgb(49,50,61);stroke-width:7px;"/>
        </g>
        <g id="dp_path028" transform="matrix(0.999766,-0.0216359,0.0216359,0.999766,-95.4418,127.748)">
            <path d="M6068.53,4124.87C6045.27,4124.95 6026.52,4142.85 6026.65,4164.86C6026.77,4186.87 6045.72,4204.65 6068.98,4204.56C6092.23,4204.48 6110.98,4186.58 6110.86,4164.57C6110.73,4142.56 6091.78,4124.79 6068.53,4124.87Z" style="fill:rgb(249,249,228);stroke:rgb(49,50,61);stroke-width:7px;"/>
        </g>
        <g id="dp_path032" transform="matrix(0.999766,-0.0216359,0.0216359,0.999766,-95.4418,127.748)">
            <path d="M5985.71,4158.22C5962.46,4158.3 5943.71,4176.2 5943.83,4198.21C5943.96,4220.22 5962.91,4237.99 5986.16,4237.91C6009.42,4237.83 6028.17,4219.93 6028.04,4197.92C6027.92,4175.91 6008.97,4158.14 5985.71,4158.22Z" style="fill:rgb(249,249,228);stroke:rgb(49,50,61);stroke-width:7px;"/>
        </g>
        <g id="dp_path036" transform="matrix(0.999766,-0.0216359,0.0216359,0.999766,-95.4418,127.748)">
            <path d="M5796.51,4201.77C5769.6,4201.87 5747.89,4222.59 5748.04,4248.07C5748.18,4273.54 5770.12,4294.12 5797.03,4294.03C5823.95,4293.93 5845.65,4273.21 5845.51,4247.73C5845.36,4222.26 5823.43,4201.68 5796.51,4201.77Z" style="fill:rgb(249,249,228);stroke:rgb(49,50,61);stroke-width:7px;"/>
        </g>
        <g id="dp_path039" transform="matrix(0.999766,-0.0216359,0.0216359,0.999766,-95.4418,127.748)">
            <path d="M6236.04,4063.97C6243.44,4067.68 6247.54,4074.47 6245.19,4079.14C6242.85,4083.82 6234.96,4084.61 6227.56,4080.9C6220.17,4077.2 6216.07,4070.41 6218.41,4065.73C6220.75,4061.06 6228.64,4060.27 6236.04,4063.97Z" style="fill:white;"/>
        </g>
        <g id="dp_path040" transform="matrix(0.999766,-0.0216359,0.0216359,0.999766,-95.4418,127.748)">
            <path d="M6159.83,4101.87C6167.23,4105.57 6171.33,4112.37 6168.99,4117.04C6166.65,4121.71 6158.75,4122.5 6151.36,4118.8C6143.96,4115.09 6139.86,4108.3 6142.2,4103.63C6144.55,4098.95 6152.44,4098.17 6159.83,4101.87Z" style="fill:white;"/>
        </g>
        <g id="dp_path041" transform="matrix(0.999766,-0.0216359,0.0216359,0.999766,-95.4418,127.748)">
            <path d="M6082.54,4141.53C6089.94,4145.23 6094.04,4152.02 6091.7,4156.7C6089.35,4161.37 6081.46,4162.16 6074.07,4158.46C6066.67,4154.75 6062.57,4147.96 6064.91,4143.29C6067.25,4138.61 6075.15,4137.83 6082.54,4141.53Z" style="fill:white;"/>
        </g>
        <g id="dp_path042" transform="matrix(0.999766,-0.0216359,0.0216359,0.999766,-95.4418,127.748)">
            <path d="M6000.32,4183.01C6007.71,4186.71 6011.81,4193.5 6009.47,4198.18C6007.13,4202.85 5999.24,4203.64 5991.84,4199.93C5984.44,4196.23 5980.35,4189.44 5982.69,4184.77C5985.03,4180.09 5992.92,4179.3 6000.32,4183.01Z" style="fill:white;"/>
        </g>
        <g id="dp_path043" transform="matrix(0.999766,-0.0216359,0.0216359,0.999766,-95.4418,127.748)">
            <path d="M5818.17,4225.69C5827.76,4230.49 5832.74,4239.97 5829.29,4246.87C5825.84,4253.76 5815.26,4255.45 5805.67,4250.65C5796.07,4245.84 5791.09,4236.36 5794.55,4229.47C5798,4222.58 5808.57,4220.88 5818.17,4225.69Z" style="fill:white;"/>
        </g>
        <g id="dp_path044" transform="matrix(0.999766,-0.0216359,0.0216359,0.999766,-95.4418,127.748)">
            <path d="M5618.56,4193.87C5625.96,4197.57 5630.05,4204.36 5627.71,4209.04C5625.37,4213.71 5617.48,4214.5 5610.08,4210.79C5602.69,4207.09 5598.59,4200.3 5600.93,4195.62C5603.27,4190.95 5611.16,4190.16 5618.56,4193.87Z" style="fill:white;"/>
        </g>
        <g id="dp_path045" transform="matrix(0.999766,-0.0216359,0.0216359,0.999766,-95.4418,127.748)">
            <path d="M5540.94,4166.29C5548.33,4170 5552.43,4176.79 5550.09,4181.46C5547.75,4186.14 5539.86,4186.92 5532.46,4183.22C5525.07,4179.51 5520.97,4172.72 5523.31,4168.05C5525.65,4163.37 5533.54,4162.59 5540.94,4166.29Z" style="fill:white;"/>
        </g>
        <g id="dp_path046" transform="matrix(0.999766,-0.0216359,0.0216359,0.999766,-95.4418,127.748)">
            <path d="M5463.05,4130.87C5470.45,4134.57 5474.55,4141.37 5472.21,4146.04C5469.87,4150.71 5461.97,4151.5 5454.58,4147.8C5447.18,4144.09 5443.08,4137.3 5445.42,4132.63C5447.76,4127.95 5455.66,4127.17 5463.05,4130.87Z" style="fill:white;"/>
        </g>
        <g id="dp_path048" transform="matrix(0.999766,-0.0216359,0.0216359,0.999766,-95.4418,127.748)">
            <path d="M5894.68,4183C5867.77,4183.09 5846.06,4203.82 5846.21,4229.29C5846.35,4254.77 5868.29,4275.34 5895.2,4275.25C5922.12,4275.16 5943.82,4254.43 5943.68,4228.95C5943.53,4203.48 5921.6,4182.9 5894.68,4183Z" style="fill:rgb(249,249,228);stroke:rgb(49,50,61);stroke-width:7px;"/>
        </g>
        <g id="dp_path051" transform="matrix(0.999766,-0.0216359,0.0216359,0.999766,-95.4418,127.748)">
            <path d="M5818.17,4225.69C5827.76,4230.49 5832.74,4239.97 5829.29,4246.87C5825.84,4253.76 5815.26,4255.45 5805.67,4250.65C5796.07,4245.84 5791.09,4236.36 5794.55,4229.47C5798,4222.58 5808.57,4220.88 5818.17,4225.69Z" style="fill:white;"/>
        </g>
        <g id="dp_path053" transform="matrix(0.999766,-0.0216359,0.0216359,0.999766,-95.4418,127.748)">
            <path d="M5695.58,4188.61C5668.66,4188.71 5646.96,4209.43 5647.1,4234.91C5647.25,4260.38 5669.18,4280.96 5696.1,4280.87C5723.01,4280.77 5744.72,4260.05 5744.57,4234.57C5744.43,4209.1 5722.49,4188.52 5695.58,4188.61Z" style="fill:rgb(249,249,228);stroke:rgb(49,50,61);stroke-width:7px;"/>
        </g>
        <g id="dp_path056" transform="matrix(0.999766,-0.0216359,0.0216359,0.999766,-95.4418,127.748)">
            <path d="M5916.28,4204.14C5925.87,4208.95 5930.85,4218.43 5927.4,4225.32C5923.95,4232.21 5913.37,4233.91 5903.78,4229.1C5894.19,4224.3 5889.21,4214.81 5892.66,4207.92C5896.11,4201.03 5906.69,4199.34 5916.28,4204.14Z" style="fill:white;"/>
        </g>
        <g id="dp_path057" transform="matrix(0.999766,-0.0216359,0.0216359,0.999766,-95.4418,127.748)">
            <path d="M5717.15,4213.6C5726.74,4218.41 5731.72,4227.89 5728.27,4234.78C5724.82,4241.67 5714.24,4243.37 5704.65,4238.56C5695.05,4233.76 5690.07,4224.28 5693.53,4217.38C5696.98,4210.49 5707.55,4208.8 5717.15,4213.6Z" style="fill:white;"/>
        </g>
        <g id="dp_path0101" serif:id="dp_path010" transform="matrix(0.999766,-0.0216359,0.0216359,0.999766,-31.6726,-12.9464)">
            <path d="M5394.29,4087.5C5401.68,4091.2 5405.78,4097.99 5403.44,4102.67C5401.1,4107.34 5393.21,4108.13 5385.81,4104.42C5378.41,4100.72 5374.31,4093.93 5376.65,4089.25C5379,4084.58 5386.89,4083.79 5394.29,4087.5Z" style="fill:white;"/>
        </g>
        <g id="dp_path0102" serif:id="dp_path010" transform="matrix(0.999766,-0.0216359,0.0216359,0.999766,51.546,-43.1788)">
            <path d="M5394.29,4087.5C5401.68,4091.2 5405.78,4097.99 5403.44,4102.67C5401.1,4107.34 5393.21,4108.13 5385.81,4104.42C5378.41,4100.72 5374.31,4093.93 5376.65,4089.25C5379,4084.58 5386.89,4083.79 5394.29,4087.5Z" style="fill:white;"/>
        </g>
        <g id="dp_path0103" serif:id="dp_path010" transform="matrix(0.999766,-0.0216359,0.0216359,0.999766,140.664,-63.5879)">
            <path d="M5394.29,4087.5C5401.68,4091.2 5405.78,4097.99 5403.44,4102.67C5401.1,4107.34 5393.21,4108.13 5385.81,4104.42C5378.41,4100.72 5374.31,4093.93 5376.65,4089.25C5379,4084.58 5386.89,4083.79 5394.29,4087.5Z" style="fill:white;"/>
        </g>
        <g id="dp_path0104" serif:id="dp_path010" transform="matrix(0.999766,-0.0216359,0.0216359,0.999766,225.672,-76.8001)">
            <path d="M5394.29,4087.5C5401.68,4091.2 5405.78,4097.99 5403.44,4102.67C5401.1,4107.34 5393.21,4108.13 5385.81,4104.42C5378.41,4100.72 5374.31,4093.93 5376.65,4089.25C5379,4084.58 5386.89,4083.79 5394.29,4087.5Z" style="fill:white;"/>
        </g>
        <g id="dp_path0105" serif:id="dp_path010" transform="matrix(0.999766,-0.0216359,0.0216359,0.999766,-107.387,35.6041)">
            <path d="M5394.29,4087.5C5401.68,4091.2 5405.78,4097.99 5403.44,4102.67C5401.1,4107.34 5393.21,4108.13 5385.81,4104.42C5378.41,4100.72 5374.31,4093.93 5376.65,4089.25C5379,4084.58 5386.89,4083.79 5394.29,4087.5Z" style="fill:white;"/>
        </g>
        <g id="dp_path0106" serif:id="dp_path010" transform="matrix(0.999766,-0.0216359,0.0216359,0.999766,739.198,4.489)">
            <path d="M5394.29,4087.5C5401.68,4091.2 5405.78,4097.99 5403.44,4102.67C5401.1,4107.34 5393.21,4108.13 5385.81,4104.42C5378.41,4100.72 5374.31,4093.93 5376.65,4089.25C5379,4084.58 5386.89,4083.79 5394.29,4087.5Z" style="fill:white;"/>
        </g>
        <g id="dp_path0107" serif:id="dp_path010" transform="matrix(0.999766,-0.0216359,0.0216359,0.999766,662.967,-36.5085)">
            <path d="M5394.29,4087.5C5401.68,4091.2 5405.78,4097.99 5403.44,4102.67C5401.1,4107.34 5393.21,4108.13 5385.81,4104.42C5378.41,4100.72 5374.31,4093.93 5376.65,4089.25C5379,4084.58 5386.89,4083.79 5394.29,4087.5Z" style="fill:white;"/>
        </g>
        <g id="dp_path0108" serif:id="dp_path010" transform="matrix(0.999766,-0.0216359,0.0216359,0.999766,571.537,-57.2751)">
            <path d="M5394.29,4087.5C5401.68,4091.2 5405.78,4097.99 5403.44,4102.67C5401.1,4107.34 5393.21,4108.13 5385.81,4104.42C5378.41,4100.72 5374.31,4093.93 5376.65,4089.25C5379,4084.58 5386.89,4083.79 5394.29,4087.5Z" style="fill:white;"/>
        </g>
        <g id="dp_path0109" serif:id="dp_path010" transform="matrix(0.999766,-0.0216359,0.0216359,0.999766,483.102,-70.9986)">
            <path d="M5394.29,4087.5C5401.68,4091.2 5405.78,4097.99 5403.44,4102.67C5401.1,4107.34 5393.21,4108.13 5385.81,4104.42C5378.41,4100.72 5374.31,4093.93 5376.65,4089.25C5379,4084.58 5386.89,4083.79 5394.29,4087.5Z" style="fill:white;"/>
        </g>
        <g id="dp_path01010" serif:id="dp_path010" transform="matrix(0.999766,-0.0216359,0.0216359,0.999766,396.181,-80.4901)">
            <path d="M5394.29,4087.5C5401.68,4091.2 5405.78,4097.99 5403.44,4102.67C5401.1,4107.34 5393.21,4108.13 5385.81,4104.42C5378.41,4100.72 5374.31,4093.93 5376.65,4089.25C5379,4084.58 5386.89,4083.79 5394.29,4087.5Z" style="fill:white;"/>
        </g>
        <g id="dp_path01011" serif:id="dp_path010" transform="matrix(0.999766,-0.0216359,0.0216359,0.999766,309.413,-82.8771)">
            <path d="M5394.29,4087.5C5401.68,4091.2 5405.78,4097.99 5403.44,4102.67C5401.1,4107.34 5393.21,4108.13 5385.81,4104.42C5378.41,4100.72 5374.31,4093.93 5376.65,4089.25C5379,4084.58 5386.89,4083.79 5394.29,4087.5Z" style="fill:white;"/>
        </g>
    </g>
    <g transform="matrix(4.01523,0,0,4.09845,-203.756,-507.358)">
        <rect x="50.746" y="123.793" width="89.659" height="87.838" style="fill:rgb(235,235,235);fill-opacity:0;"/>
    </g>
</svg>
