<?xml version="1.0" encoding="UTF-8" standalone="no"?>
<!DOCTYPE svg PUBLIC "-//W3C//DTD SVG 1.1//EN" "http://www.w3.org/Graphics/SVG/1.1/DTD/svg11.dtd">
<svg width="100%" height="100%" viewBox="0 0 360 360" version="1.1" xmlns="http://www.w3.org/2000/svg" xmlns:xlink="http://www.w3.org/1999/xlink" xml:space="preserve" xmlns:serif="http://www.serif.com/" style="fill-rule:evenodd;clip-rule:evenodd;stroke-linecap:round;stroke-linejoin:round;stroke-miterlimit:1.5;">
    <g transform="matrix(0.949448,-0.0154771,0.00698393,0.428431,13.6995,132.91)">
        <ellipse cx="176.131" cy="263.059" rx="149.507" ry="36.865" style="fill:rgb(0,0,1);fill-opacity:0.305882;"/>
    </g>
    <g transform="matrix(0.22379,-0.0042315,0.0042315,0.22379,-162.325,-157.061)">
        <g id="Layer26">
            <g>
                <g transform="matrix(-0.0309748,1.63815,-1.09475,-0.0207,3081.21,226.9)">
                    <path d="M793.207,1309.03C754.161,1349.93 737.673,1371.25 736.207,1414.97C734.131,1476.9 775.866,1522.01 809.207,1523.95C803.411,1517.49 817.67,1529.66 809.207,1523.95C791.666,1512.11 747.581,1463.11 748.874,1414.97C749.916,1376.18 781.227,1339.18 798.207,1319.62C804.137,1312.79 805.094,1319.69 793.207,1309.03Z" style="fill:rgb(244,230,93);stroke:rgb(49,50,61);stroke-width:6.41px;"/>
                </g>
                <g transform="matrix(0.929189,0.07421,-0.132728,1.63313,106.642,-434.105)">
                    <path d="M942.874,1123.22C942.874,1120.88 939.528,1118.97 935.407,1118.97L929.007,1118.97C924.886,1118.97 921.541,1120.88 921.541,1123.22L921.541,1145.39C921.541,1147.74 924.886,1149.64 929.007,1149.64L935.407,1149.64C939.528,1149.64 942.874,1147.74 942.874,1145.39L942.874,1123.22Z" style="fill:rgb(244,230,93);stroke:rgb(49,50,61);stroke-width:6.71px;"/>
                </g>
                <g transform="matrix(2.04488,0.377214,-0.346537,1.84039,-1050.7,-1030.32)">
                    <ellipse cx="1250.21" cy="1125.27" rx="128.667" ry="141.333" style="fill:rgb(244,103,154);fill-opacity:0.529412;stroke:rgb(49,50,61);stroke-width:11.75px;"/>
                </g>
                <g transform="matrix(0.0872926,0.0967864,-1.63646,1.47594,3094.32,-382.667)">
                    <path d="M968.451,1130.47C911.37,1129.69 859.526,1129.44 812.919,1129.72L817.43,1355.97L958.86,1354.93L968.451,1130.47Z" style="fill:rgb(223,223,250);fill-opacity:0.537255;"/>
                </g>
                <g transform="matrix(0.415963,0.461202,-1.63646,1.47594,2742.45,-772.784)">
                    <path d="M960.801,1129.18C914.089,1128.5 869.457,1133.14 826.056,1137.91L822.66,1348.34C876.867,1353.57 922.547,1357.34 960.827,1356.22L960.801,1129.18Z" style="fill:rgb(223,223,250);fill-opacity:0.537255;"/>
                </g>
                <g transform="matrix(2.11462,0.390079,-0.358356,1.90316,-1124.59,-1117.03)">
                    <ellipse cx="1250.21" cy="1125.27" rx="128.667" ry="141.333" style="fill:none;stroke:rgb(49,50,61);stroke-width:12.14px;"/>
                </g>
                <g transform="matrix(2.0798,0.383656,-0.352455,1.87182,-1087.7,-1073.74)">
                    <ellipse cx="1250.21" cy="1125.27" rx="128.667" ry="141.333" style="fill:none;stroke:rgb(244,230,93);stroke-width:7.6px;"/>
                </g>
                <g transform="matrix(-2.02885,0.452409,0.417375,1.82629,3958.67,-1108.54)">
                    <ellipse cx="1250.21" cy="1125.27" rx="128.667" ry="141.333" style="fill:rgb(244,103,154);fill-opacity:0.529412;stroke:rgb(49,50,61);stroke-width:11.76px;"/>
                </g>
                <g transform="matrix(0.548504,0.608158,-1.63646,1.47594,3454.05,-851.758)">
                    <path d="M957.806,1135.51C918.363,1131.99 871.763,1129.06 825.403,1132.05L820.55,1357.58C874.757,1362.82 957.31,1353.14 960.037,1353.55L957.806,1135.51Z" style="fill:rgb(223,223,250);fill-opacity:0.537255;"/>
                </g>
                <g transform="matrix(0.0862521,0.0956326,-1.61667,1.45809,3767.51,-440.333)">
                    <path d="M970.205,1130.54C911.612,1131.22 860.117,1131.64 826.605,1133.42L827.722,1348.94C869.594,1350.08 929.2,1351.17 976.829,1351.73L970.205,1130.54Z" style="fill:rgb(223,223,250);fill-opacity:0.537255;"/>
                </g>
                <g transform="matrix(-2.09805,0.467839,0.43161,1.88857,4029.16,-1197.92)">
                    <ellipse cx="1250.21" cy="1125.27" rx="128.667" ry="141.333" style="fill:none;stroke:rgb(49,50,61);stroke-width:12.15px;"/>
                </g>
                <g transform="matrix(-2.0635,0.460135,0.424502,1.85747,3993.97,-1153.29)">
                    <ellipse cx="1250.21" cy="1125.27" rx="128.667" ry="141.333" style="fill:none;stroke:rgb(244,230,93);stroke-width:7.61px;"/>
                </g>
                <g transform="matrix(-0.927583,0.0910546,0.164439,1.63044,2861.44,-435.757)">
                    <path d="M942.874,1123.22C942.874,1120.88 939.528,1118.97 935.407,1118.97L929.007,1118.97C924.886,1118.97 921.541,1120.88 921.541,1123.22L921.541,1145.39C921.541,1147.74 924.886,1149.64 929.007,1149.64L935.407,1149.64C939.528,1149.64 942.874,1147.74 942.874,1145.39L942.874,1123.22Z" style="fill:rgb(244,230,93);stroke:rgb(49,50,61);stroke-width:6.71px;"/>
                </g>
            </g>
        </g>
    </g>
    <g transform="matrix(4.01523,0,0,4.09845,-203.756,-507.358)">
        <g id="Transparent-Layer" serif:id="Transparent Layer">
            <rect x="50.746" y="123.793" width="89.659" height="87.838" style="fill:rgb(235,235,235);fill-opacity:0;"/>
        </g>
    </g>
</svg>
