<?xml version="1.0" encoding="UTF-8" standalone="no"?>
<!DOCTYPE svg PUBLIC "-//W3C//DTD SVG 1.1//EN" "http://www.w3.org/Graphics/SVG/1.1/DTD/svg11.dtd">
<svg width="100%" height="100%" viewBox="0 0 360 360" version="1.1" xmlns="http://www.w3.org/2000/svg" xmlns:xlink="http://www.w3.org/1999/xlink" xml:space="preserve" xmlns:serif="http://www.serif.com/" style="fill-rule:evenodd;clip-rule:evenodd;">
    <g transform="matrix(0.98698,-0.0320167,0.0590452,1.14566,-8.44255,-31.6243)">
        <ellipse cx="176.131" cy="263.059" rx="149.507" ry="36.865" style="fill:rgb(0,0,1);fill-opacity:0.305882;"/>
    </g>
    <g id="red-yellow-scarf" serif:id="red yellow scarf" transform="matrix(0.263967,0,0,0.263967,29.3755,-305.281)">
        <g transform="matrix(0.964265,0,0,1,3.467,-1.13572)">
            <g id="dp_path004" transform="matrix(1.0817,0,0,1.0817,-869.91,-410.884)">
                <path d="M1635.97,1986C1612.57,2054.92 1613.1,2138.15 1631.38,2205.07C1638.29,2230.35 1660.55,2294.5 1664.41,2342.65C1667.85,2385.76 1661.05,2424.36 1651.78,2468.4C1646.49,2493.53 1643.44,2522.11 1632.82,2540.92C1627.78,2549.83 1619.58,2556.4 1609.53,2558.76C1569.73,2568.09 1524.54,2554.89 1489.72,2556.09C1477.07,2556.52 1468.5,2567.03 1451.58,2566.02C1406.57,2563.34 1253.66,2531.47 1241.41,2513.6C1228.9,2495.37 1262.15,2414.71 1265.71,2403.31C1282.84,2348.37 1269.06,2312.8 1273.7,2241.86C1276.82,2194.11 1305.46,2067.14 1334.86,2044.11C1364.69,2020.75 1571.18,1995.43 1634.48,1986.22C1634.98,1986.15 1635.47,1986.07 1635.97,1986Z" style="fill:rgb(255,206,108);stroke:rgb(49,50,61);stroke-width:12.01px;"/>
            </g>
            <g id="dp_path005" transform="matrix(1.09554,0,0,1.0817,-888.004,-410.884)">
                <path d="M1313.02,2115.01C1311.38,2133.84 1605.95,2151.56 1604.12,2139.19C1602.86,2130.64 1601.47,2058 1615.12,2034.49C1617.25,2030.84 1605.33,2051.66 1600.36,2049.68C1578.5,2040.96 1520.48,2050.68 1471.99,2039.81C1428.24,2030 1326.28,1996.23 1336.12,2003.09C1366.06,2023.97 1315.42,2087.53 1313.02,2115.01Z" style="fill:rgb(176,72,68);stroke:rgb(176,72,68);stroke-width:14.67px;"/>
            </g>
            <g id="dp_path020" transform="matrix(1.1051,0,0,1.0817,-907.41,-410.884)">
                <path d="M1294.11,2338.15C1294.11,2338.15 1354.43,2328.53 1396.12,2330.67C1505.57,2336.29 1643.7,2346.1 1649.46,2336C1654.1,2327.85 1640.47,2283.56 1632.12,2256.8C1628.45,2245.03 1623.78,2234.8 1623.32,2227.2C1623.01,2222.06 1528.71,2240.47 1470.12,2232.19C1417.25,2224.72 1294.55,2247 1294.55,2247C1292.46,2245.83 1291.3,2269.38 1294.11,2338.15Z" style="fill:rgb(176,72,68);stroke:rgb(176,72,68);stroke-width:14.67px;stroke-linecap:round;"/>
            </g>
            <g id="dp_path021" transform="matrix(1.09283,0,0,1.0817,-888.101,-410.884)">
                <path d="M1253.37,2504C1256.16,2513.33 1373.5,2548.26 1455.08,2552.8C1470.64,2553.67 1477.95,2541.87 1489.83,2543.2C1529.76,2547.67 1572.22,2550.7 1601.57,2548C1633.84,2545.03 1638.92,2491.32 1642.73,2476C1643.92,2471.23 1514.82,2481.07 1451.96,2460.36C1395.23,2441.68 1273.68,2425.57 1268.12,2438.4C1261.09,2454.66 1252.52,2501.14 1253.37,2504Z" style="fill:rgb(176,72,68);stroke:rgb(176,72,68);stroke-width:14.67px;"/>
            </g>
            <g id="Layer27" transform="matrix(1.12178,-2.40185e-16,3.11358e-17,1.0817,-1043.23,-163.024)">
                <g transform="matrix(1,0,0,1,-19,0)">
                    <path d="M1462.09,1845.95C1446.81,1902.53 1430.25,1956.55 1425.09,2014.96C1421.95,2050.47 1426.17,2085.37 1426.37,2120.93C1426.53,2149.97 1416.59,2178.59 1409.4,2206.2C1401.24,2237.55 1398.94,2260.49 1384.09,2289.62" style="fill:none;stroke:rgb(57,58,67);stroke-opacity:0.109804;stroke-width:10.86px;stroke-linecap:round;stroke-linejoin:round;stroke-miterlimit:1.5;"/>
                </g>
                <g transform="matrix(1,0,0,1,1,0)">
                    <path d="M1462.09,1845.95C1446.81,1902.53 1430.25,1956.55 1425.09,2014.96C1421.95,2050.47 1426.17,2085.37 1426.37,2120.93C1426.53,2149.97 1416.59,2178.59 1409.4,2206.2C1401.24,2237.55 1394.94,2269.82 1380.09,2298.95" style="fill:none;stroke:rgb(57,58,67);stroke-opacity:0.109804;stroke-width:10.86px;stroke-linecap:round;stroke-linejoin:round;stroke-miterlimit:1.5;"/>
                </g>
                <g transform="matrix(1,0,0,1,3,0)">
                    <path d="M1500.09,1847.76C1485.91,1912.54 1467.48,1978.13 1463.09,2044.76C1460.7,2081.07 1464.3,2099.51 1462.99,2135.83C1461.62,2174.11 1458.24,2186.34 1450.78,2224.76C1445.14,2253.8 1441.19,2281.96 1426.09,2307.76" style="fill:none;stroke:rgb(57,58,67);stroke-opacity:0.109804;stroke-width:10.86px;stroke-linecap:round;stroke-linejoin:round;stroke-miterlimit:1.5;"/>
                </g>
                <g transform="matrix(1,0,0,1,-19,0)">
                    <path d="M1500.09,1847.76C1485.91,1912.54 1467.48,1978.13 1463.09,2044.76C1460.7,2081.07 1464.3,2099.51 1462.99,2135.83C1461.62,2174.11 1458.24,2186.34 1450.78,2224.76C1445.14,2253.8 1441.19,2281.96 1426.09,2307.76" style="fill:none;stroke:rgb(57,58,67);stroke-opacity:0.109804;stroke-width:10.86px;stroke-linecap:round;stroke-linejoin:round;stroke-miterlimit:1.5;"/>
                </g>
                <g transform="matrix(1,0,0,1,3,0)">
                    <path d="M1549.09,1845.76C1534.51,1902.25 1518.46,1959.49 1512.09,2017.76C1509.36,2042.78 1512.45,2043.71 1511.09,2068.76C1508.29,2120.34 1506.65,2178.52 1497.09,2230.76C1491.62,2260.66 1482.04,2292.65 1471.09,2320.76" style="fill:none;stroke:rgb(57,58,67);stroke-opacity:0.109804;stroke-width:10.86px;stroke-linecap:round;stroke-linejoin:round;stroke-miterlimit:1.5;"/>
                </g>
                <g transform="matrix(1,0,0,1,-20,0)">
                    <path d="M1549.09,1845.76C1534.51,1902.25 1518.46,1959.49 1512.09,2017.76C1509.36,2042.78 1512.45,2043.71 1511.09,2068.76C1508.29,2120.34 1506.65,2178.52 1497.09,2230.76C1491.62,2260.66 1482.04,2286.65 1471.09,2314.76" style="fill:none;stroke:rgb(57,58,67);stroke-opacity:0.109804;stroke-width:10.86px;stroke-linecap:round;stroke-linejoin:round;stroke-miterlimit:1.5;"/>
                </g>
                <path d="M1602.09,1837.76C1596.2,1862.52 1590.18,1887.26 1584.68,1912.12C1584.09,1914.77 1568.97,1975.5 1567.56,2000.62C1567.13,2008.23 1568.13,2041.48 1568.09,2042.76C1566.47,2094.98 1565,2149.34 1558.78,2201.46C1553.69,2244.1 1541.16,2285.01 1528.09,2325.76" style="fill:none;stroke:rgb(57,58,67);stroke-opacity:0.109804;stroke-width:10.86px;stroke-linecap:round;stroke-linejoin:round;stroke-miterlimit:1.5;"/>
                <g transform="matrix(1,0,0,1,-29,0)">
                    <path d="M1602.09,1837.76C1596.2,1862.52 1590.18,1887.26 1584.68,1912.12C1584.09,1914.77 1568.97,1975.5 1567.56,2000.62C1567.13,2008.23 1568.13,2041.48 1568.09,2042.76C1566.47,2094.98 1565,2149.34 1558.78,2201.46C1553.69,2244.1 1541.16,2285.01 1528.09,2325.76" style="fill:none;stroke:rgb(57,58,67);stroke-opacity:0.109804;stroke-width:10.86px;stroke-linecap:round;stroke-linejoin:round;stroke-miterlimit:1.5;"/>
                </g>
                <path d="M1654.09,1824.76C1644.47,1871.97 1629.12,1947.04 1622.09,1994.76C1615.8,2037.46 1626.11,2079.97 1623.09,2122.76C1618.34,2190.17 1604.92,2257.42 1588.09,2322.76" style="fill:none;stroke:rgb(57,58,67);stroke-opacity:0.109804;stroke-width:10.86px;stroke-linecap:round;stroke-linejoin:round;stroke-miterlimit:1.5;"/>
                <g transform="matrix(1,0,0,1,-30,0)">
                    <path d="M1653.42,1832.76C1643.8,1879.97 1629.12,1947.04 1622.09,1994.76C1615.8,2037.46 1626.11,2079.97 1623.09,2122.76C1618.34,2190.17 1604.92,2257.42 1588.09,2322.76" style="fill:none;stroke:rgb(57,58,67);stroke-opacity:0.109804;stroke-width:10.86px;stroke-linecap:round;stroke-linejoin:round;stroke-miterlimit:1.5;"/>
                </g>
                <path d="M1699.09,1812.76C1694.1,1849.55 1685.09,1908.21 1680.63,1949.56C1679.38,1961.16 1674.98,2005.81 1674.99,2022.69C1675.01,2048.78 1682.97,2073.8 1683.09,2099.76C1683.45,2176.47 1668.21,2251.59 1650.09,2325.76" style="fill:none;stroke:rgb(57,58,67);stroke-opacity:0.109804;stroke-width:10.86px;stroke-linecap:round;stroke-linejoin:round;stroke-miterlimit:1.5;"/>
                <g transform="matrix(1,0,0,1,-35,0)">
                    <path d="M1699.09,1822.09C1694.1,1858.89 1685.09,1908.21 1680.63,1949.56C1679.38,1961.16 1674.98,2005.81 1674.99,2022.69C1675.01,2048.78 1682.97,2073.8 1683.09,2099.76C1683.45,2176.47 1668.21,2251.59 1650.09,2325.76" style="fill:none;stroke:rgb(57,58,67);stroke-opacity:0.109804;stroke-width:10.86px;stroke-linecap:round;stroke-linejoin:round;stroke-miterlimit:1.5;"/>
                </g>
                <g transform="matrix(1,0,0,1,4,0)">
                    <path d="M1730.09,2013.76C1724.34,2047.65 1719.67,2081.33 1721.74,2115.78C1723.37,2142.92 1728.42,2169.43 1726.09,2196.76C1722.36,2240.52 1708.8,2283.85 1697.09,2325.76" style="fill:none;stroke:rgb(57,58,67);stroke-opacity:0.109804;stroke-width:10.86px;stroke-linecap:round;stroke-linejoin:round;stroke-miterlimit:1.5;"/>
                </g>
                <g transform="matrix(1,0,0,1,-21,0)">
                    <path d="M1744.09,1969.09C1738.34,2002.98 1719.67,2081.33 1721.74,2115.78C1723.37,2142.92 1728.42,2169.43 1726.09,2196.76C1722.36,2240.52 1708.8,2283.85 1697.09,2325.76" style="fill:none;stroke:rgb(57,58,67);stroke-opacity:0.109804;stroke-width:10.86px;stroke-linecap:round;stroke-linejoin:round;stroke-miterlimit:1.5;"/>
                </g>
                <path d="M1401.09,1929.76C1425.42,1902.09 1449.76,1874.42 1474.09,1846.76" style="fill:none;stroke:rgb(57,58,67);stroke-opacity:0.109804;stroke-width:10.86px;stroke-linecap:round;stroke-linejoin:round;stroke-miterlimit:1.5;"/>
                <g transform="matrix(1,0,0,1,0,-18)">
                    <path d="M1388.09,2006.76C1428.42,1958.65 1468.76,1910.54 1509.09,1862.42" style="fill:none;stroke:rgb(57,58,67);stroke-opacity:0.109804;stroke-width:10.86px;stroke-linecap:round;stroke-linejoin:round;stroke-miterlimit:1.5;"/>
                </g>
                <g transform="matrix(1,0,0,1,-32,-20)">
                    <path d="M1416.09,2037.76C1430.09,2023.48 1458.09,1994.92 1477.09,1975.76C1494.68,1958.01 1513.59,1941.04 1530.09,1922.76C1546.39,1904.7 1566.19,1878.96 1576.09,1866.09" style="fill:none;stroke:rgb(57,58,67);stroke-opacity:0.109804;stroke-width:10.86px;stroke-linecap:round;stroke-linejoin:round;stroke-miterlimit:1.5;"/>
                </g>
                <g transform="matrix(1,0,0,1,-71,-26)">
                    <path d="M1453.76,2079.09C1465.76,2066.06 1489.69,2038.41 1502.09,2025.76C1504.9,2022.9 1538.18,1997.47 1541.09,1994.76C1555.34,1981.49 1578.96,1955.01 1591.09,1939.76C1603.89,1923.66 1615.94,1906.99 1628.4,1890.63C1643.67,1870.59 1637.8,1890.92 1646.76,1865.42" style="fill:none;stroke:rgb(57,58,67);stroke-opacity:0.109804;stroke-width:10.86px;stroke-linecap:round;stroke-linejoin:round;stroke-miterlimit:1.5;"/>
                </g>
                <g transform="matrix(1,0,0,1,-80,-32)">
                    <path d="M1463.09,2126.76C1480.92,2112.69 1492.36,2092.84 1508.09,2076.76C1531.83,2052.49 1556.89,2029.56 1581.09,2005.76C1631.05,1956.6 1669.41,1927.82 1699.42,1863.42" style="fill:none;stroke:rgb(57,58,67);stroke-opacity:0.109804;stroke-width:10.86px;stroke-linecap:round;stroke-linejoin:round;stroke-miterlimit:1.5;"/>
                </g>
                <g transform="matrix(1,0,0,1,-56,-24)">
                    <path d="M1442.42,2144.76C1460.25,2130.69 1492.36,2092.84 1508.09,2076.76C1531.83,2052.49 1556.89,2029.56 1581.09,2005.76C1631.05,1956.6 1678.08,1912.48 1708.09,1848.09" style="fill:none;stroke:rgb(57,58,67);stroke-opacity:0.109804;stroke-width:10.86px;stroke-linecap:round;stroke-linejoin:round;stroke-miterlimit:1.5;"/>
                </g>
                <g transform="matrix(1,0,0,1,-32,-12)">
                    <path d="M1413.76,2162.09C1441.88,2147.27 1437.92,2146.62 1463.09,2126.76C1480.92,2112.69 1492.36,2092.84 1508.09,2076.76C1531.83,2052.49 1556.89,2029.56 1581.09,2005.76C1631.05,1956.6 1682.08,1905.15 1712.09,1840.76" style="fill:none;stroke:rgb(57,58,67);stroke-opacity:0.109804;stroke-width:10.86px;stroke-linecap:round;stroke-linejoin:round;stroke-miterlimit:1.5;"/>
                </g>
                <g transform="matrix(1,0,0,1,-4.54747e-13,-8)">
                    <path d="M1375.09,2186.76C1403.21,2171.93 1437.92,2146.62 1463.09,2126.76C1480.92,2112.69 1492.36,2092.84 1508.09,2076.76C1531.83,2052.49 1556.89,2029.56 1581.09,2005.76C1631.05,1956.6 1682.08,1905.15 1712.09,1840.76" style="fill:none;stroke:rgb(57,58,67);stroke-opacity:0.109804;stroke-width:10.86px;stroke-linecap:round;stroke-linejoin:round;stroke-miterlimit:1.5;"/>
                </g>
                <g transform="matrix(1,0,0,1,8,16)">
                    <path d="M1356.42,2201.42C1384.55,2186.6 1437.92,2146.62 1463.09,2126.76C1480.92,2112.69 1492.36,2092.84 1508.09,2076.76C1531.83,2052.49 1556.89,2029.56 1581.09,2005.76C1631.05,1956.6 1676.08,1912.48 1706.09,1848.09" style="fill:none;stroke:rgb(57,58,67);stroke-opacity:0.109804;stroke-width:10.86px;stroke-linecap:round;stroke-linejoin:round;stroke-miterlimit:1.5;"/>
                </g>
                <g transform="matrix(1,0,0,1,0,-12)">
                    <path d="M1714.09,1914.76C1704.39,1929.74 1694.61,1944.67 1685.09,1959.76C1677.14,1972.36 1663.27,1996.93 1654.09,2008.76C1648.15,2016.41 1634.42,2027.61 1627.09,2033.76C1595.09,2060.57 1562.11,2086.32 1533,2116.37C1512.8,2137.24 1493.9,2161.35 1471.09,2179.76C1452.61,2194.67 1451.12,2192.28 1432.09,2206.76C1418.71,2216.94 1420.68,2218.96 1407.28,2228.97C1391.89,2240.47 1372.24,2245.17 1354.09,2249.76" style="fill:none;stroke:rgb(57,58,67);stroke-opacity:0.109804;stroke-width:10.86px;stroke-linecap:round;stroke-linejoin:round;stroke-miterlimit:1.5;"/>
                </g>
                <g transform="matrix(1,0,0,1,9,17)">
                    <path d="M1710.09,1924.09C1700.39,1939.07 1694.61,1944.67 1685.09,1959.76C1677.14,1972.36 1663.27,1996.93 1654.09,2008.76C1648.15,2016.41 1634.42,2027.61 1627.09,2033.76C1595.09,2060.57 1562.11,2086.32 1533,2116.37C1512.8,2137.24 1493.9,2161.35 1471.09,2179.76C1452.61,2194.67 1451.12,2192.28 1432.09,2206.76C1418.71,2216.94 1420.68,2218.96 1407.28,2228.97C1391.89,2240.47 1362.24,2248.5 1344.09,2253.09" style="fill:none;stroke:rgb(57,58,67);stroke-opacity:0.109804;stroke-width:10.86px;stroke-linecap:round;stroke-linejoin:round;stroke-miterlimit:1.5;"/>
                </g>
                <path d="M1726.09,1979.76C1704.74,2018.43 1701.98,2019.07 1674.09,2053.76C1667.03,2062.54 1656.42,2076.08 1648.09,2083.76C1632.26,2098.35 1626.36,2099.68 1610.09,2113.76C1583.19,2137.04 1585.19,2138.93 1558.09,2161.76C1541.05,2176.11 1523.7,2190.1 1506.09,2203.76C1473.26,2229.22 1472.34,2227.52 1437.09,2249.76C1414.65,2263.92 1398.58,2282.67 1376.09,2296.76" style="fill:none;stroke:rgb(57,58,67);stroke-opacity:0.109804;stroke-width:10.86px;stroke-linecap:round;stroke-linejoin:round;stroke-miterlimit:1.5;"/>
                <g transform="matrix(1,0,0,1,8,24)">
                    <path d="M1726.09,1979.76C1704.74,2018.43 1701.98,2019.07 1674.09,2053.76C1667.03,2062.54 1656.42,2076.08 1648.09,2083.76C1632.26,2098.35 1626.36,2099.68 1610.09,2113.76C1583.19,2137.04 1585.19,2138.93 1558.09,2161.76C1541.05,2176.11 1523.7,2190.1 1506.09,2203.76C1473.26,2229.22 1472.34,2227.52 1437.09,2249.76C1414.65,2263.92 1419.25,2266.67 1396.76,2280.76" style="fill:none;stroke:rgb(57,58,67);stroke-opacity:0.109804;stroke-width:10.86px;stroke-linecap:round;stroke-linejoin:round;stroke-miterlimit:1.5;"/>
                </g>
                <path d="M1743.09,2046.76C1737.42,2058.16 1730.02,2072.66 1722.09,2082.76C1705.71,2103.63 1681.28,2116.37 1661.09,2132.76C1647.16,2144.06 1633.88,2156.14 1620.55,2168.14C1607.21,2180.14 1594.04,2192.34 1581.09,2204.76C1571.53,2213.93 1552.22,2235.17 1542.09,2243.76C1533.93,2250.68 1523.68,2254.51 1515.09,2260.76C1477.55,2288.09 1479.2,2290.08 1441.09,2316.76" style="fill:none;stroke:rgb(57,58,67);stroke-opacity:0.109804;stroke-width:10.86px;stroke-linecap:round;stroke-linejoin:round;stroke-miterlimit:1.5;"/>
                <g transform="matrix(1,0,0,1,6,33)">
                    <path d="M1743.09,2046.76C1737.42,2058.16 1730.02,2072.66 1722.09,2082.76C1705.71,2103.63 1681.28,2116.37 1661.09,2132.76C1647.16,2144.06 1633.88,2156.14 1620.55,2168.14C1607.21,2180.14 1594.04,2192.34 1581.09,2204.76C1571.53,2213.93 1552.22,2235.17 1542.09,2243.76C1533.93,2250.68 1523.68,2254.51 1515.09,2260.76C1477.55,2288.09 1512.53,2264.75 1474.42,2291.42" style="fill:none;stroke:rgb(57,58,67);stroke-opacity:0.109804;stroke-width:10.86px;stroke-linecap:round;stroke-linejoin:round;stroke-miterlimit:1.5;"/>
                </g>
                <path d="M1512.09,2327.76C1529.48,2316.53 1564.26,2294.09 1585.09,2276.76C1604.12,2260.93 1618.37,2239.95 1637.09,2223.76C1658.09,2205.59 1691.26,2184.42 1711.09,2167.76C1727.15,2154.26 1746.44,2133.93 1756.09,2123.76" style="fill:none;stroke:rgb(57,58,67);stroke-opacity:0.109804;stroke-width:10.86px;stroke-linecap:round;stroke-linejoin:round;stroke-miterlimit:1.5;"/>
                <g transform="matrix(1,0,0,1,2,29)">
                    <path d="M1548.09,2307.09C1556.54,2300.61 1573.45,2287.66 1585.09,2276.76C1599.92,2262.87 1618.37,2239.95 1637.09,2223.76C1658.09,2205.59 1691.26,2184.42 1711.09,2167.76C1727.15,2154.26 1746.44,2133.93 1756.09,2123.76" style="fill:none;stroke:rgb(57,58,67);stroke-opacity:0.109804;stroke-width:10.86px;stroke-linecap:round;stroke-linejoin:round;stroke-miterlimit:1.5;"/>
                </g>
                <path d="M1753.09,2196.76C1740.59,2212.8 1726.19,2228.64 1707.93,2238.31C1703.24,2240.8 1682.5,2252.66 1678.09,2255.76C1671.5,2260.39 1659.14,2271.51 1653.65,2277.21C1636.47,2295.07 1620.25,2315.13 1596.09,2323.76" style="fill:none;stroke:rgb(57,58,67);stroke-opacity:0.109804;stroke-width:10.86px;stroke-linecap:round;stroke-linejoin:round;stroke-miterlimit:1.5;"/>
                <g transform="matrix(1,0,0,1,3.33333,2.66667)">
                    <path d="M1738.09,2268.76C1712.42,2288.76 1686.76,2308.76 1661.09,2328.76" style="fill:none;stroke:rgb(57,58,67);stroke-opacity:0.109804;stroke-width:10.86px;stroke-linecap:round;stroke-linejoin:round;stroke-miterlimit:1.5;"/>
                </g>
                <g transform="matrix(1,0,0,1,10.6667,-32.6667)">
                    <path d="M1738.09,2268.76C1715.09,2286.52 1698.41,2296.23 1677.47,2312.69C1659.67,2326.66 1637.31,2347.55 1621.09,2360.76" style="fill:none;stroke:rgb(57,58,67);stroke-opacity:0.109804;stroke-width:10.86px;stroke-linecap:round;stroke-linejoin:round;stroke-miterlimit:1.5;"/>
                </g>
            </g>
            <g id="dp_path0041" serif:id="dp_path004" transform="matrix(1.0817,0,3.89197e-18,1.0817,-869.91,-410.884)">
                <path d="M1635.97,1986C1612.57,2054.92 1613.1,2138.15 1631.38,2205.07C1638.29,2230.35 1660.55,2294.5 1664.41,2342.65C1667.85,2385.76 1661.05,2424.36 1651.78,2468.4C1646.49,2493.53 1643.44,2522.11 1632.82,2540.92C1627.78,2549.83 1619.58,2556.4 1609.53,2558.76C1569.73,2568.09 1524.54,2554.89 1489.72,2556.09C1477.07,2556.52 1468.5,2567.03 1451.58,2566.02C1406.57,2563.34 1253.66,2531.47 1241.41,2513.6C1228.9,2495.37 1262.15,2414.71 1265.71,2403.31C1282.84,2348.37 1269.06,2312.8 1273.7,2241.86C1276.82,2194.11 1305.46,2067.14 1334.86,2044.11C1364.69,2020.75 1571.18,1995.43 1634.48,1986.22C1634.98,1986.15 1635.47,1986.07 1635.97,1986Z" style="fill:none;stroke:rgb(49,50,61);stroke-width:12.01px;"/>
            </g>
            <g id="dp_path022" transform="matrix(1.0817,0,0,1.0817,-861.099,-415.211)">
                <path d="M1588.81,2389.61C1592.78,2369.69 1600.71,2329.84 1600.33,2307.7C1600.02,2290.17 1591.9,2272.9 1586.51,2256.79C1581.31,2241.23 1573.75,2226.47 1568,2211.08C1561.16,2192.74 1551.45,2148.32 1545.45,2146.76C1539.45,2145.2 1529.89,2183.01 1532,2201.72C1534.44,2223.43 1552.37,2255.23 1560.12,2280.85C1569.59,2312.16 1582.41,2362.53 1588.81,2389.61Z" style="fill:rgb(49,50,61);fill-opacity:0.235294;"/>
            </g>
        </g>
        <g transform="matrix(1.02324,0.153753,-0.153753,1.02324,115.828,-136.472)">
            <g id="dp_path003" transform="matrix(1.0817,0,0,1.0817,-869.91,-410.884)">
                <path d="M1386.6,1827.77C1441.08,1796.43 1474.95,1774.01 1532.12,1748C1565.63,1732.75 1621.64,1723.53 1655.98,1709.28C1692.41,1694.18 1713.34,1664.22 1732.83,1654.3C1762.65,1639.13 1807.19,1609.83 1830.43,1608.8C1849.54,1607.95 1871.67,1618.69 1872.23,1648.12C1872.37,1656.04 1861.52,1672.02 1865.45,1681.28C1871.61,1695.8 1879.4,1683.04 1887.14,1695.15C1900.52,1716.06 1887.18,1787.7 1878.33,1799.5C1862.25,1820.96 1449.65,1826.47 1388.04,1827.74C1387.56,1827.75 1387.08,1827.76 1386.6,1827.77Z" style="fill:rgb(176,72,68);stroke:rgb(49,50,61);stroke-width:11.4px;"/>
            </g>
            <g id="dp_path006" transform="matrix(1.0817,0,0,1.0817,-862.106,-415.229)">
                <path d="M1851.55,1670.86C1851.48,1671.34 1851.73,1667.75 1851.55,1670.86C1851.18,1677.49 1851.48,1687.95 1856.12,1693C1863.58,1701.12 1875.28,1701.55 1876.12,1703C1893.91,1733.57 1866.1,1842.15 1838.47,1858.69C1834.16,1861.27 1837.75,1851.7 1834.93,1848.97C1822.57,1836.98 1837.5,1782.55 1820.74,1749.79C1805.66,1720.3 1779.3,1658.14 1780.58,1643.9C1782.44,1623.14 1864.69,1600.23 1851.55,1670.86Z" style="fill:rgb(255,206,108);stroke:rgb(255,206,108);stroke-width:14.67px;"/>
            </g>
            <g id="dp_path007" transform="matrix(1.0817,0,0,1.0817,-869.91,-410.884)">
                <path d="M1694.96,1698.68C1694.96,1698.68 1760.81,1884.36 1753.89,1895.23C1745.74,1908.03 1695.14,1941.7 1670.91,1955.02C1666.51,1957.44 1670.59,1948 1667.93,1945.12C1656.27,1932.45 1659.32,1881.41 1642.21,1848.83C1626.76,1819.43 1610.72,1737.4 1623.98,1732.73C1640.23,1727.01 1694.96,1698.68 1694.96,1698.68Z" style="fill:rgb(255,206,108);stroke:rgb(255,206,108);stroke-width:14.67px;stroke-linejoin:round;"/>
            </g>
            <g id="dp_path008" transform="matrix(1.0817,0,0,1.0817,-869.91,-410.884)">
                <path d="M1517.12,1770C1535.4,1815.48 1579.81,1961.36 1572.89,1972.23C1564.74,1985.03 1514.14,2018.7 1489.91,2032.02C1485.51,2034.44 1489.59,2025 1486.93,2022.12C1475.27,2009.45 1478.32,1958.41 1461.21,1925.83C1445.76,1896.43 1433.63,1812.5 1446.19,1806.18C1460.81,1798.83 1516.83,1769.27 1517.12,1770Z" style="fill:rgb(255,206,108);stroke:rgb(255,206,108);stroke-width:14.67px;"/>
            </g>
            <g id="topoknit2" transform="matrix(1.03379,-0.155338,0.155338,1.03379,-1072.76,134.135)">
                <g transform="matrix(1,0,0,1,4,-1.5)">
                    <path d="M1870.09,1448.43C1875.09,1463.77 1880.09,1479.1 1885.09,1494.43" style="fill:none;stroke:rgb(57,58,67);stroke-opacity:0.101961;stroke-width:10.86px;stroke-linecap:round;stroke-linejoin:round;stroke-miterlimit:1.5;"/>
                </g>
                <g transform="matrix(1,0,0,1,28.5,-0.5)">
                    <path d="M1870.09,1448.43C1875.09,1463.77 1880.09,1479.1 1885.09,1494.43" style="fill:none;stroke:rgb(57,58,67);stroke-opacity:0.101961;stroke-width:10.86px;stroke-linecap:round;stroke-linejoin:round;stroke-miterlimit:1.5;"/>
                </g>
                <path d="M1837.09,1461.43C1838.42,1474.77 1839.76,1488.1 1841.09,1501.43" style="fill:none;stroke:rgb(57,58,67);stroke-opacity:0.101961;stroke-width:10.86px;stroke-linecap:round;stroke-linejoin:round;stroke-miterlimit:1.5;"/>
                <g transform="matrix(1,0,0,1,20,-5.5)">
                    <path d="M1834.59,1457.43C1836.76,1472.1 1838.92,1486.77 1841.09,1501.43" style="fill:none;stroke:rgb(57,58,67);stroke-opacity:0.101961;stroke-width:10.86px;stroke-linecap:round;stroke-linejoin:round;stroke-miterlimit:1.5;"/>
                </g>
                <path d="M1785.09,1479.43C1787.42,1492.1 1789.76,1504.77 1792.09,1517.43" style="fill:none;stroke:rgb(57,58,67);stroke-opacity:0.101961;stroke-width:10.86px;stroke-linecap:round;stroke-linejoin:round;stroke-miterlimit:1.5;"/>
                <g transform="matrix(1,0,0,1,-23,12)">
                    <path d="M1785.09,1479.43C1787.42,1492.1 1789.76,1504.77 1792.09,1517.43" style="fill:none;stroke:rgb(57,58,67);stroke-opacity:0.101961;stroke-width:10.86px;stroke-linecap:round;stroke-linejoin:round;stroke-miterlimit:1.5;"/>
                </g>
                <g transform="matrix(1,0,0,1,25,-7.5)">
                    <path d="M1785.09,1479.43C1787.42,1492.1 1789.76,1504.77 1792.09,1517.43" style="fill:none;stroke:rgb(57,58,67);stroke-opacity:0.101961;stroke-width:10.86px;stroke-linecap:round;stroke-linejoin:round;stroke-miterlimit:1.5;"/>
                </g>
                <path d="M1737.09,1507.43C1739.42,1517.43 1741.76,1527.43 1744.09,1537.43" style="fill:none;stroke:rgb(57,58,67);stroke-opacity:0.101961;stroke-width:10.86px;stroke-linecap:round;stroke-linejoin:round;stroke-miterlimit:1.5;"/>
                <path d="M1686.09,1524.43C1686.42,1534.1 1686.76,1543.77 1687.09,1553.43" style="fill:none;stroke:rgb(57,58,67);stroke-opacity:0.101961;stroke-width:10.86px;stroke-linecap:round;stroke-linejoin:round;stroke-miterlimit:1.5;"/>
                <g transform="matrix(1,0,0,1,25,-5.5)">
                    <path d="M1686.09,1524.43C1686.42,1534.1 1686.76,1543.77 1687.09,1553.43" style="fill:none;stroke:rgb(57,58,67);stroke-opacity:0.101961;stroke-width:10.86px;stroke-linecap:round;stroke-linejoin:round;stroke-miterlimit:1.5;"/>
                </g>
                <path d="M1649.09,1528.43C1647.09,1540.43 1645.09,1552.43 1643.09,1564.43" style="fill:none;stroke:rgb(57,58,67);stroke-opacity:0.101961;stroke-width:10.86px;stroke-linecap:round;stroke-linejoin:round;stroke-miterlimit:1.5;"/>
                <g transform="matrix(1,0,0,1,19.5,-2.5)">
                    <path d="M1649.09,1528.43C1647.09,1540.43 1645.09,1552.43 1643.09,1564.43" style="fill:none;stroke:rgb(57,58,67);stroke-opacity:0.101961;stroke-width:10.86px;stroke-linecap:round;stroke-linejoin:round;stroke-miterlimit:1.5;"/>
                </g>
                <path d="M1569.09,1542.43C1573.09,1552.1 1577.09,1561.77 1581.09,1571.43" style="fill:none;stroke:rgb(57,58,67);stroke-opacity:0.101961;stroke-width:10.86px;stroke-linecap:round;stroke-linejoin:round;stroke-miterlimit:1.5;"/>
                <g transform="matrix(1,0,0,1,22.6667,-4)">
                    <path d="M1569.09,1542.43C1573.09,1552.1 1577.09,1561.77 1581.09,1571.43" style="fill:none;stroke:rgb(57,58,67);stroke-opacity:0.101961;stroke-width:10.86px;stroke-linecap:round;stroke-linejoin:round;stroke-miterlimit:1.5;"/>
                </g>
                <g transform="matrix(1,0,0,1,47.1667,-6)">
                    <path d="M1569.09,1542.43C1573.09,1552.1 1577.09,1561.77 1581.09,1571.43" style="fill:none;stroke:rgb(57,58,67);stroke-opacity:0.101961;stroke-width:10.86px;stroke-linecap:round;stroke-linejoin:round;stroke-miterlimit:1.5;"/>
                </g>
                <path d="M1537.09,1555.43C1539.76,1560.43 1542.42,1565.43 1545.09,1570.43" style="fill:none;stroke:rgb(57,58,67);stroke-opacity:0.101961;stroke-width:10.86px;stroke-linecap:round;stroke-linejoin:round;stroke-miterlimit:1.5;"/>
                <g transform="matrix(1,0,0,1,-18,3)">
                    <path d="M1604.76,1570.43C1613.2,1557.1 1621.65,1543.77 1630.09,1530.43" style="fill:none;stroke:rgb(57,58,67);stroke-opacity:0.101961;stroke-width:10.86px;stroke-linecap:round;stroke-linejoin:round;stroke-miterlimit:1.5;"/>
                </g>
                <g transform="matrix(1,0,0,1,-52.6667,3)">
                    <path d="M1604.76,1570.43C1613.2,1557.93 1621.65,1545.43 1630.09,1532.93" style="fill:none;stroke:rgb(57,58,67);stroke-opacity:0.101961;stroke-width:10.86px;stroke-linecap:round;stroke-linejoin:round;stroke-miterlimit:1.5;"/>
                </g>
                <g transform="matrix(1,0,0,1,18,-2.33333)">
                    <path d="M1598.09,1574.43C1608.76,1559.77 1619.42,1545.1 1630.09,1530.43" style="fill:none;stroke:rgb(57,58,67);stroke-opacity:0.101961;stroke-width:10.86px;stroke-linecap:round;stroke-linejoin:round;stroke-miterlimit:1.5;"/>
                </g>
                <g transform="matrix(0.990779,-0.135491,0.135491,0.990779,-192.259,240.599)">
                    <path d="M1643.07,1566C1660.41,1551.14 1677.75,1536.29 1695.09,1521.43" style="fill:none;stroke:rgb(57,58,67);stroke-opacity:0.101961;stroke-width:10.86px;stroke-linecap:round;stroke-linejoin:round;stroke-miterlimit:1.5;"/>
                </g>
                <g transform="matrix(0.990779,-0.135491,0.135491,0.990779,-157.593,231.266)">
                    <path d="M1643.07,1566C1662.27,1549.88 1681.46,1533.77 1700.65,1517.65" style="fill:none;stroke:rgb(57,58,67);stroke-opacity:0.101961;stroke-width:10.86px;stroke-linecap:round;stroke-linejoin:round;stroke-miterlimit:1.5;"/>
                </g>
                <path d="M1765.09,1485.43C1755.42,1503.77 1745.76,1522.1 1736.09,1540.43" style="fill:none;stroke:rgb(57,58,67);stroke-opacity:0.101961;stroke-width:10.86px;stroke-linecap:round;stroke-linejoin:round;stroke-miterlimit:1.5;"/>
                <g transform="matrix(1,0,0,1,26.6667,-9.33333)">
                    <path d="M1767.09,1480.43C1756.76,1500.43 1746.42,1520.43 1736.09,1540.43" style="fill:none;stroke:rgb(57,58,67);stroke-opacity:0.101961;stroke-width:10.86px;stroke-linecap:round;stroke-linejoin:round;stroke-miterlimit:1.5;"/>
                </g>
                <path d="M1800.09,1517.43C1810.42,1498.77 1820.76,1480.1 1831.09,1461.43" style="fill:none;stroke:rgb(57,58,67);stroke-opacity:0.101961;stroke-width:10.86px;stroke-linecap:round;stroke-linejoin:round;stroke-miterlimit:1.5;"/>
                <g transform="matrix(1,0,0,1,36,-10.6667)">
                    <path d="M1800.09,1517.43C1812.26,1496.43 1824.42,1475.43 1836.59,1454.43" style="fill:none;stroke:rgb(57,58,67);stroke-opacity:0.101961;stroke-width:10.86px;stroke-linecap:round;stroke-linejoin:round;stroke-miterlimit:1.5;"/>
                </g>
                <path d="M1870.09,1501.43C1880.09,1484.1 1890.09,1466.77 1900.09,1449.43" style="fill:none;stroke:rgb(57,58,67);stroke-opacity:0.101961;stroke-width:10.86px;stroke-linecap:round;stroke-linejoin:round;stroke-miterlimit:1.5;"/>
                <g transform="matrix(1,0,0,1,25.3333,4)">
                    <path d="M1870.09,1497.93C1879.42,1483.27 1888.76,1468.6 1898.09,1453.93" style="fill:none;stroke:rgb(57,58,67);stroke-opacity:0.101961;stroke-width:10.86px;stroke-linecap:round;stroke-linejoin:round;stroke-miterlimit:1.5;"/>
                </g>
                <g transform="matrix(0.833333,0,0,0.571429,323.682,645.185)">
                    <path d="M1912.09,1498.43C1916.09,1493.77 1920.09,1489.1 1924.09,1484.43" style="fill:none;stroke:rgb(57,58,67);stroke-opacity:0.101961;stroke-width:15.2px;stroke-linecap:round;stroke-linejoin:round;stroke-miterlimit:1.5;"/>
                </g>
            </g>
            <g id="dp_path0031" serif:id="dp_path003" transform="matrix(1.0817,0,0,1.0817,-869.91,-410.884)">
                <path d="M1386.6,1827.77C1441.08,1796.43 1474.95,1774.01 1532.12,1748C1565.63,1732.75 1621.64,1723.53 1655.98,1709.28C1692.41,1694.18 1713.34,1664.22 1732.83,1654.3C1762.65,1639.13 1807.19,1609.83 1830.43,1608.8C1849.54,1607.95 1871.67,1618.69 1872.23,1648.12C1872.37,1656.04 1861.52,1672.02 1865.45,1681.28C1871.61,1695.8 1879.4,1683.04 1887.14,1695.15C1900.52,1716.06 1887.18,1787.7 1878.33,1799.5C1862.25,1820.96 1449.65,1826.47 1388.04,1827.74C1387.56,1827.75 1387.08,1827.76 1386.6,1827.77Z" style="fill:none;stroke:rgb(49,50,61);stroke-width:11.4px;"/>
            </g>
        </g>
        <g transform="matrix(0.96809,-0.0376882,0.038901,0.999243,-53.8626,35.6046)">
            <g id="dp_path012" transform="matrix(1.0817,0,0,1.0817,-869.16,-421.677)">
                <path d="M869.065,1657.76C896.593,1656.42 948.579,1677.4 988.09,1688.15C1049.35,1704.82 1152.37,1740.35 1236.61,1757.8C1329.63,1777.07 1454.02,1820.98 1546.17,1803.75C1629.09,1788.24 1736.84,1738.1 1798.91,1744.23C1839.79,1748.27 1887.46,1749.33 1895.59,1773.76C1903.23,1796.73 1875.92,1834.99 1878,1866.03C1880.08,1897.07 1921.57,1938.22 1908.09,1960C1894.62,1981.78 1834.98,1987.41 1797.15,1996.72C1723.31,2014.89 1549.23,2057.87 1465.06,2069C1407.88,2076.56 1349.19,2071.84 1292.12,2063.51C1232.66,2054.83 1161.49,2026.92 1108.33,2016.91C1063.83,2008.53 1017.35,2013.31 973.152,2003.47C918.696,1991.35 807.763,1974.54 781.595,1944.17C755.427,1913.8 811.98,1851.99 816.143,1821.27C818.925,1800.74 805.451,1780.55 806.571,1759.86C807.7,1739.01 812.504,1713.16 822.92,1696.14C833.336,1679.12 849.081,1658.72 869.065,1657.76Z" style="fill:rgb(255,206,108);stroke:rgb(49,50,61);stroke-width:11.99px;"/>
            </g>
            <g id="dp_path013" transform="matrix(1.03628,2.17939e-17,-3.96996e-17,1.11686,-829.447,-481.809)">
                <path d="M944.108,1682.55C942.355,1755.14 878.186,1969.41 864.703,1966.78C848.337,1963.6 829.253,1955.29 803.381,1942.28C756.176,1918.55 811.5,1862.36 818.21,1841.45C829.337,1806.76 829.443,1815.03 823.457,1797.7C808.439,1754.21 821.415,1716.91 828.797,1708.38C830.468,1706.45 846.04,1673.17 867.527,1671.49C882.691,1670.3 944.324,1673.59 944.108,1682.55Z" style="fill:rgb(176,72,68);stroke:rgb(176,72,68);stroke-width:14.67px;"/>
            </g>
            <g id="dp_path014" transform="matrix(1.0817,-5.93775e-17,-5.99671e-17,1.07865,-869.91,-404.988)">
                <path d="M1184.52,1747.91C1173.34,1810.88 1143.6,2002.44 1130.32,2004.88C1124.39,2005.97 1121.78,1992.11 1103.53,1993.64C1078.3,1995.76 1019.39,1995.97 1003.31,1994.63C998.222,1994.21 1047.48,1907.39 1052.16,1859.13C1056.39,1815.57 1056.5,1725.26 1064.86,1710.12C1074.31,1693.01 1092.05,1722.05 1109.02,1725.25C1141.18,1731.32 1184.64,1747.24 1184.52,1747.91Z" style="fill:rgb(176,72,68);stroke:rgb(176,72,68);stroke-width:14.67px;"/>
            </g>
            <g id="dp_path015" transform="matrix(1.0817,-1.50116e-17,0,1.09724,-869.91,-442.779)">
                <path d="M1402.29,1799.64C1365.27,1868.52 1379.4,2056.78 1366.71,2055.17C1357.64,2054.03 1322.84,2045.43 1299.2,2041.51C1281.71,2038.61 1266.51,2044.59 1253.3,2041.67C1247.97,2040.5 1294.45,1944.45 1290.53,1896.12C1287.01,1852.71 1308.9,1781.18 1325.75,1784.33C1343.73,1787.68 1405.68,1793.33 1402.29,1799.64Z" style="fill:rgb(176,72,68);stroke:rgb(176,72,68);stroke-width:14.67px;stroke-linejoin:round;"/>
            </g>
            <g id="dp_path016" transform="matrix(1.0817,-1.50116e-17,-1.50116e-17,1.09809,-869.185,-454.97)">
                <path d="M1649.64,1781.44C1649.64,1781.44 1622.2,2032.6 1607.94,2035.29C1596,2037.55 1492.17,2062.48 1492.17,2062.48C1492.17,2062.48 1532.54,1973.86 1524.12,1940C1518.28,1900.63 1534.25,1808.63 1553.75,1812.42C1572.49,1816.06 1649.64,1781.44 1649.64,1781.44Z" style="fill:rgb(176,72,68);stroke:rgb(176,72,68);stroke-width:14.67px;stroke-linejoin:bevel;"/>
            </g>
            <g id="dp_path017" transform="matrix(1.0817,-3.00231e-17,-1.50116e-17,1.04686,-873.465,-354.378)">
                <path d="M1820.95,1747.65C1820.67,1755.41 1856.75,1969.27 1852.34,1982.57C1851.03,1986.55 1837.44,1974.83 1811.97,1983.56C1789.2,1991.35 1757.94,2009.94 1752.29,2007.58C1735.1,2000.4 1775.68,1926.54 1760.75,1891.94C1747.27,1860.7 1720,1769.65 1728.82,1757.18C1740.13,1741.17 1785.29,1751.59 1802.77,1751.02C1810.23,1750.78 1821.15,1742.15 1820.95,1747.65Z" style="fill:rgb(176,72,68);stroke:rgb(176,72,68);stroke-width:14.67px;"/>
            </g>
            <g id="top-knit" serif:id="top knit" transform="matrix(1.11566,0.0420791,-0.0434332,1.08088,-970.388,-236.516)">
                <g transform="matrix(1,0,0,1,-2,1.38778e-17)">
                    <path d="M1012.09,1454.43C990.57,1492.77 971.088,1544.18 976.091,1574.43C982.929,1585.85 996.4,1608.03 992.091,1620.43C987.181,1684.74 961.578,1706.12 941.091,1748.43" style="fill:none;stroke:rgb(57,58,67);stroke-opacity:0.109804;stroke-width:10.73px;stroke-linecap:round;stroke-linejoin:round;stroke-miterlimit:1.5;"/>
                </g>
                <g transform="matrix(1,0,0,1,-23,1.59595e-16)">
                    <path d="M1012.09,1454.43C990.57,1492.77 971.088,1544.18 976.091,1574.43C982.929,1585.85 996.4,1608.03 992.091,1620.43C987.181,1684.74 959.578,1696.12 939.091,1738.43" style="fill:none;stroke:rgb(57,58,67);stroke-opacity:0.109804;stroke-width:10.73px;stroke-linecap:round;stroke-linejoin:round;stroke-miterlimit:1.5;"/>
                </g>
                <g transform="matrix(1,0,0,1,23,2)">
                    <path d="M1051.09,1467.43C1041.81,1490.27 1023.26,1535.93 1020.09,1560.43C1017.73,1578.72 1032.61,1596 1032.09,1614.43C1031.42,1638.1 1024.42,1677.1 1016.09,1702.43C1008.54,1725.38 990.908,1752.75 982.091,1766.43" style="fill:none;stroke:rgb(57,58,67);stroke-opacity:0.109804;stroke-width:10.73px;stroke-linecap:round;stroke-linejoin:round;stroke-miterlimit:1.5;"/>
                </g>
                <g transform="matrix(1,0,0,1,3,2)">
                    <path d="M1051.09,1467.43C1041.81,1490.27 1023.26,1535.93 1020.09,1560.43C1017.73,1578.72 1032.61,1596 1032.09,1614.43C1031.42,1638.1 1024.42,1677.1 1016.09,1702.43C1008.54,1725.38 990.908,1752.75 982.091,1766.43" style="fill:none;stroke:rgb(57,58,67);stroke-opacity:0.109804;stroke-width:10.73px;stroke-linecap:round;stroke-linejoin:round;stroke-miterlimit:1.5;"/>
                </g>
                <g transform="matrix(1,0,0,1,-21,-4)">
                    <path d="M1051.09,1467.43C1041.81,1490.27 1023.26,1535.93 1020.09,1560.43C1017.73,1578.72 1032.61,1596 1032.09,1614.43C1031.42,1638.1 1024.42,1677.1 1016.09,1702.43C1008.54,1725.38 990.908,1752.75 982.091,1766.43" style="fill:none;stroke:rgb(57,58,67);stroke-opacity:0.109804;stroke-width:10.73px;stroke-linecap:round;stroke-linejoin:round;stroke-miterlimit:1.5;"/>
                </g>
                <g transform="matrix(1,0,0,1,-2,6)">
                    <path d="M1127.42,1476.77C1120.89,1496.01 1107.81,1534.49 1105.09,1557.43C1102.84,1576.4 1109.93,1595.36 1111.09,1614.43C1112.26,1633.6 1114.81,1653.29 1112.09,1672.43C1109.09,1693.6 1100.26,1724.27 1093.09,1741.43C1087.75,1754.23 1075.31,1768.37 1069.09,1775.43" style="fill:none;stroke:rgb(57,58,67);stroke-opacity:0.109804;stroke-width:10.73px;stroke-linecap:round;stroke-linejoin:round;stroke-miterlimit:1.5;"/>
                </g>
                <g transform="matrix(1,0,0,1,109,18)">
                    <path d="M1047.76,1471.43C1039.41,1493.15 1022.7,1536.6 1020.09,1560.43C1018.08,1578.76 1032.61,1596 1032.09,1614.43C1031.42,1638.1 1024.42,1677.1 1016.09,1702.43C1008.54,1725.38 990.908,1752.75 982.091,1766.43" style="fill:none;stroke:rgb(57,58,67);stroke-opacity:0.109804;stroke-width:10.73px;stroke-linecap:round;stroke-linejoin:round;stroke-miterlimit:1.5;"/>
                </g>
                <g transform="matrix(1,0,0,1,-34,6)">
                    <path d="M1130.76,1470.77C1123.3,1491.67 1108.37,1533.49 1105.09,1557.43C1102.5,1576.36 1109.93,1595.36 1111.09,1614.43C1112.26,1633.6 1114.81,1653.29 1112.09,1672.43C1109.09,1693.6 1100.26,1725.15 1093.09,1741.43C1088.07,1752.84 1075.42,1764.35 1069.09,1770.1" style="fill:none;stroke:rgb(57,58,67);stroke-opacity:0.109804;stroke-width:10.73px;stroke-linecap:round;stroke-linejoin:round;stroke-miterlimit:1.5;"/>
                </g>
                <g transform="matrix(1,0,0,1,31,2)">
                    <path d="M1163.09,1498.43C1157.76,1513.21 1147.09,1542.77 1145.09,1565.43C1143.09,1588.1 1149.92,1613.43 1151.09,1634.43C1152.14,1653.41 1154.64,1672.6 1152.09,1691.43C1149.42,1711.1 1140.92,1735.93 1135.09,1752.43C1130.42,1765.65 1121.53,1782.17 1117.09,1790.43" style="fill:none;stroke:rgb(57,58,67);stroke-opacity:0.109804;stroke-width:10.73px;stroke-linecap:round;stroke-linejoin:round;stroke-miterlimit:1.5;"/>
                </g>
                <g transform="matrix(1,0,0,1,51,1.49011e-07)">
                    <path d="M1161.09,1505.77C1156.29,1518.81 1146.69,1544.9 1145.09,1565.43C1143.42,1586.88 1149.92,1613.43 1151.09,1634.43C1152.14,1653.41 1154.64,1672.6 1152.09,1691.43C1149.42,1711.1 1140.92,1735.93 1135.09,1752.43C1130.42,1765.65 1121.53,1782.17 1117.09,1790.43" style="fill:none;stroke:rgb(57,58,67);stroke-opacity:0.109804;stroke-width:10.73px;stroke-linecap:round;stroke-linejoin:round;stroke-miterlimit:1.5;"/>
                </g>
                <g transform="matrix(1,0,0,1,99,8)">
                    <path d="M1159.09,1509.77C1154.83,1521.96 1146.32,1546.34 1145.09,1565.43C1143.76,1586.21 1149.92,1613.43 1151.09,1634.43C1152.14,1653.41 1154.64,1672.6 1152.09,1691.43C1149.42,1711.1 1140.48,1736.71 1135.09,1752.43C1131.13,1764 1123.55,1778.51 1119.76,1785.77" style="fill:none;stroke:rgb(57,58,67);stroke-opacity:0.109804;stroke-width:10.73px;stroke-linecap:round;stroke-linejoin:round;stroke-miterlimit:1.5;"/>
                </g>
                <g transform="matrix(1,0,0,1,121,14)">
                    <path d="M1157.76,1508.43C1153.88,1520.95 1146.12,1546 1145.09,1565.43C1143.98,1586.43 1149.92,1613.43 1151.09,1634.43C1152.14,1653.41 1154.64,1672.6 1152.09,1691.43C1149.42,1711.1 1140.48,1736.82 1135.09,1752.43C1131.17,1763.8 1123.56,1778 1119.76,1785.1" style="fill:none;stroke:rgb(57,58,67);stroke-opacity:0.109804;stroke-width:10.73px;stroke-linecap:round;stroke-linejoin:round;stroke-miterlimit:1.5;"/>
                </g>
                <g transform="matrix(1,0,0,1,9,2)">
                    <path d="M1163.09,1498.43C1157.76,1513.21 1147.09,1542.77 1145.09,1565.43C1143.09,1588.1 1149.92,1613.43 1151.09,1634.43C1152.14,1653.41 1154.64,1672.6 1152.09,1691.43C1149.42,1711.1 1140.92,1735.93 1135.09,1752.43C1130.42,1765.65 1121.53,1782.17 1117.09,1790.43" style="fill:none;stroke:rgb(57,58,67);stroke-opacity:0.109804;stroke-width:10.73px;stroke-linecap:round;stroke-linejoin:round;stroke-miterlimit:1.5;"/>
                </g>
                <g transform="matrix(1,0,0,1,33,4)">
                    <path d="M1206.09,1512.43C1199.26,1525.93 1185.59,1552.93 1184.09,1574.43C1182.59,1595.93 1195.76,1620.43 1197.09,1641.43C1198.34,1661.13 1195.85,1681.06 1192.09,1700.43C1187.92,1721.93 1176.92,1755.77 1172.09,1770.43C1169.99,1776.8 1165.39,1784.56 1163.09,1788.43" style="fill:none;stroke:rgb(57,58,67);stroke-opacity:0.109804;stroke-width:10.73px;stroke-linecap:round;stroke-linejoin:round;stroke-miterlimit:1.5;"/>
                </g>
                <path d="M951.091,1487.43C981.531,1475.05 1013.18,1466.13 1043.42,1461.1" style="fill:none;stroke:rgb(57,58,67);stroke-opacity:0.109804;stroke-width:10.73px;stroke-linecap:round;stroke-linejoin:round;stroke-miterlimit:1.5;"/>
                <g transform="matrix(1,0,0,1,-8,-12)">
                    <path d="M943.758,1533.1C953.533,1527.16 973.084,1515.29 989.091,1509.43C1007.15,1502.82 1034.48,1497.77 1052.09,1493.43C1066.28,1489.94 1085.26,1485.6 1094.76,1483.43" style="fill:none;stroke:rgb(57,58,67);stroke-opacity:0.109804;stroke-width:10.73px;stroke-linecap:round;stroke-linejoin:round;stroke-miterlimit:1.5;"/>
                </g>
                <path d="M944.091,1585.43C947.367,1581.92 953.918,1574.91 960.091,1571.43C969.258,1566.27 986.258,1558.77 999.091,1554.43C1011.42,1550.27 1024.58,1549.03 1037.09,1545.43C1051.59,1541.27 1070.46,1536.56 1086.09,1529.43C1105.09,1520.77 1135.76,1502.54 1151.09,1493.43" style="fill:none;stroke:rgb(57,58,67);stroke-opacity:0.109804;stroke-width:10.73px;stroke-linecap:round;stroke-linejoin:round;stroke-miterlimit:1.5;"/>
                <g transform="matrix(1,0,0,1,-30,-34)">
                    <path d="M964.091,1574.77C971.702,1569.62 986.925,1559.32 999.091,1554.43C1011.17,1549.58 1024.58,1549.03 1037.09,1545.43C1051.59,1541.27 1071.42,1535.43 1086.09,1529.43C1099.61,1523.9 1116.6,1514.26 1125.09,1509.43" style="fill:none;stroke:rgb(57,58,67);stroke-opacity:0.109804;stroke-width:10.73px;stroke-linecap:round;stroke-linejoin:round;stroke-miterlimit:1.5;"/>
                </g>
                <g transform="matrix(1,0,0,1,-18,-16)">
                    <path d="M952.091,1579.43C953.648,1577.36 956.762,1573.2 960.091,1571.43C967.925,1567.27 986.258,1558.77 999.091,1554.43C1011.42,1550.27 1024.58,1549.03 1037.09,1545.43C1051.59,1541.27 1070.32,1536.25 1086.09,1529.43C1104.09,1521.65 1131.42,1506.39 1145.09,1498.77" style="fill:none;stroke:rgb(57,58,67);stroke-opacity:0.109804;stroke-width:10.73px;stroke-linecap:round;stroke-linejoin:round;stroke-miterlimit:1.5;"/>
                </g>
                <path d="M946.091,1629.43C952.344,1627.29 964.849,1623.01 974.091,1619.43C984.425,1615.43 996.464,1609.31 1008.09,1605.43C1020.09,1601.43 1033.43,1598.79 1046.09,1595.43C1059.92,1591.77 1077.09,1588.93 1091.09,1583.43C1104.83,1578.03 1118.23,1571.22 1130.09,1562.43C1148.09,1549.1 1182.09,1518.65 1199.09,1503.43" style="fill:none;stroke:rgb(57,58,67);stroke-opacity:0.109804;stroke-width:10.73px;stroke-linecap:round;stroke-linejoin:round;stroke-miterlimit:1.5;"/>
                <g transform="matrix(1,0,0,1,-8,28)">
                    <path d="M946.091,1629.43C952.344,1627.29 964.849,1623.01 974.091,1619.43C984.425,1615.43 996.464,1609.31 1008.09,1605.43C1020.09,1601.43 1033.43,1598.79 1046.09,1595.43C1059.92,1591.77 1077.09,1588.93 1091.09,1583.43C1104.83,1578.03 1117.97,1570.86 1130.09,1562.43C1154.54,1545.43 1210.02,1502.77 1237.76,1481.43" style="fill:none;stroke:rgb(57,58,67);stroke-opacity:0.109804;stroke-width:10.73px;stroke-linecap:round;stroke-linejoin:round;stroke-miterlimit:1.5;"/>
                </g>
                <g transform="matrix(1,0,0,1,-12,-22)">
                    <path d="M958.091,1625.43C961.662,1624.14 968.803,1621.55 974.091,1619.43C982.425,1616.1 996.464,1609.31 1008.09,1605.43C1020.09,1601.43 1033.43,1598.79 1046.09,1595.43C1059.92,1591.77 1077.09,1588.93 1091.09,1583.43C1104.83,1578.03 1118.16,1571.13 1130.09,1562.43C1145.65,1551.1 1171.5,1527.32 1184.42,1515.43" style="fill:none;stroke:rgb(57,58,67);stroke-opacity:0.109804;stroke-width:10.73px;stroke-linecap:round;stroke-linejoin:round;stroke-miterlimit:1.5;"/>
                </g>
                <g transform="matrix(1,0,0,0.982456,-5,21.7269)">
                    <path d="M923.091,1694.43C939.21,1683.33 950.842,1675.13 970.65,1670.78C982.687,1668.13 997.122,1662.37 1009.09,1659.43C1042,1651.35 1081.25,1639.74 1114.32,1627.45C1138.16,1618.59 1157.68,1610.45 1180.09,1598.43C1197.04,1589.34 1209.41,1573.28 1224.09,1561.43C1240.38,1548.29 1255.29,1538.97 1272.09,1526.49" style="fill:none;stroke:rgb(57,58,67);stroke-opacity:0.109804;stroke-width:10.83px;stroke-linecap:round;stroke-linejoin:round;stroke-miterlimit:1.5;"/>
                </g>
                <g transform="matrix(1,0,0,0.982456,-19,57.7269)">
                    <path d="M930.425,1693.75C946.543,1682.65 950.842,1675.13 970.65,1670.78C982.687,1668.13 997.122,1662.37 1009.09,1659.43C1042,1651.35 1081.25,1639.74 1114.32,1627.45C1138.16,1618.59 1157.68,1610.45 1180.09,1598.43C1197.04,1589.34 1209.41,1573.28 1224.09,1561.43C1240.38,1548.29 1299.29,1510.47 1316.09,1497.99" style="fill:none;stroke:rgb(57,58,67);stroke-opacity:0.109804;stroke-width:10.83px;stroke-linecap:round;stroke-linejoin:round;stroke-miterlimit:1.5;"/>
                </g>
                <g transform="matrix(1,0,0,1,-6,4.16334e-17)">
                    <path d="M1317.09,1534.43C1312.2,1544.32 1302.42,1564.1 1299.09,1578.43C1295.92,1592.08 1296.77,1606.42 1297.09,1620.43C1297.42,1634.93 1299.65,1650.44 1301.09,1665.43C1302.76,1682.77 1308.09,1705.43 1307.09,1724.43C1306.11,1743.17 1298.59,1765.93 1295.09,1779.43C1292.79,1788.31 1288.32,1799.73 1286.09,1805.43" style="fill:none;stroke:rgb(57,58,67);stroke-opacity:0.109804;stroke-width:10.73px;stroke-linecap:round;stroke-linejoin:round;stroke-miterlimit:1.5;"/>
                </g>
                <g transform="matrix(1,0,0,1,18,4)">
                    <path d="M1317.09,1534.43C1312.2,1544.32 1302.42,1564.1 1299.09,1578.43C1295.92,1592.08 1296.77,1606.42 1297.09,1620.43C1297.42,1634.93 1299.65,1650.44 1301.09,1665.43C1302.76,1682.77 1308.09,1705.43 1307.09,1724.43C1306.11,1743.17 1298.59,1765.93 1295.09,1779.43C1292.79,1788.31 1288.32,1799.73 1286.09,1805.43" style="fill:none;stroke:rgb(57,58,67);stroke-opacity:0.109804;stroke-width:10.73px;stroke-linecap:round;stroke-linejoin:round;stroke-miterlimit:1.5;"/>
                </g>
                <g transform="matrix(1,0,0,1,38,6)">
                    <path d="M1317.09,1534.43C1312.2,1544.32 1302.42,1564.1 1299.09,1578.43C1295.92,1592.08 1296.77,1606.42 1297.09,1620.43C1297.42,1634.93 1299.65,1650.44 1301.09,1665.43C1302.76,1682.77 1308.09,1705.43 1307.09,1724.43C1306.11,1743.17 1298.7,1765.27 1295.09,1779.43C1292.5,1789.61 1287.78,1802.83 1285.42,1809.43" style="fill:none;stroke:rgb(57,58,67);stroke-opacity:0.109804;stroke-width:10.73px;stroke-linecap:round;stroke-linejoin:round;stroke-miterlimit:1.5;"/>
                </g>
                <g transform="matrix(1,0,0,1,11,-7.63278e-17)">
                    <path d="M1366.09,1546.43C1356.26,1571.93 1344.45,1587.68 1344.09,1615.43C1343.92,1628.53 1348.31,1665.46 1350.09,1678.43C1352,1692.3 1356.88,1706.22 1356.09,1720.43C1355.17,1736.95 1348.48,1752.43 1345.09,1768.43C1341.65,1784.68 1338.92,1807.07 1336.09,1823.43" style="fill:none;stroke:rgb(57,58,67);stroke-opacity:0.109804;stroke-width:10.73px;stroke-linecap:round;stroke-linejoin:round;stroke-miterlimit:1.5;"/>
                </g>
                <g transform="matrix(1,0,0,1,37,2)">
                    <path d="M1366.09,1546.43C1356.26,1571.93 1344.45,1587.68 1344.09,1615.43C1343.92,1628.53 1348.31,1665.46 1350.09,1678.43C1352,1692.3 1356.88,1706.22 1356.09,1720.43C1355.17,1736.95 1348.48,1752.43 1345.09,1768.43C1341.65,1784.68 1334.25,1812.4 1331.42,1828.77" style="fill:none;stroke:rgb(57,58,67);stroke-opacity:0.109804;stroke-width:10.73px;stroke-linecap:round;stroke-linejoin:round;stroke-miterlimit:1.5;"/>
                </g>
                <g transform="matrix(1,0,0,1,14,-9.71445e-17)">
                    <path d="M1412.09,1556.43C1407.98,1572.99 1399.76,1606.1 1397.09,1625.43C1394.95,1640.95 1395.09,1658.27 1396.09,1672.43C1397,1685.28 1402.83,1697.56 1403.09,1710.43C1403.42,1726.6 1400.59,1749.85 1398.09,1769.43C1395.42,1790.32 1389.87,1820.62 1387.09,1835.77" style="fill:none;stroke:rgb(57,58,67);stroke-opacity:0.109804;stroke-width:10.73px;stroke-linecap:round;stroke-linejoin:round;stroke-miterlimit:1.5;"/>
                </g>
                <g transform="matrix(1,0,0,1,36,2)">
                    <path d="M1412.09,1556.43C1407.98,1572.99 1399.76,1606.1 1397.09,1625.43C1394.95,1640.95 1395.09,1658.27 1396.09,1672.43C1397,1685.28 1402.83,1697.56 1403.09,1710.43C1403.42,1726.6 1400.34,1749.82 1398.09,1769.43C1395.76,1789.77 1391.31,1818.21 1389.09,1832.43" style="fill:none;stroke:rgb(57,58,67);stroke-opacity:0.109804;stroke-width:10.73px;stroke-linecap:round;stroke-linejoin:round;stroke-miterlimit:1.5;"/>
                </g>
                <g transform="matrix(1,0,0,1,62,2)">
                    <path d="M1410.09,1561.77C1406.54,1576.84 1399.42,1606.99 1397.09,1625.43C1395.13,1640.98 1395.09,1658.27 1396.09,1672.43C1397,1685.28 1402.83,1697.56 1403.09,1710.43C1403.42,1726.6 1400.37,1749.83 1398.09,1769.43C1395.65,1790.43 1390.83,1821.1 1388.42,1836.43" style="fill:none;stroke:rgb(57,58,67);stroke-opacity:0.109804;stroke-width:10.73px;stroke-linecap:round;stroke-linejoin:round;stroke-miterlimit:1.5;"/>
                </g>
                <g transform="matrix(1,0,0,1,-14,9.71445e-17)">
                    <path d="M1505.09,1573.43C1502.86,1587.39 1498.39,1615.3 1497.09,1636.43C1495.42,1663.6 1495.42,1703.09 1495.09,1736.43C1494.76,1770.27 1494.98,1816.38 1495.09,1839.43" style="fill:none;stroke:rgb(57,58,67);stroke-opacity:0.109804;stroke-width:10.73px;stroke-linecap:round;stroke-linejoin:round;stroke-miterlimit:1.5;"/>
                </g>
                <g transform="matrix(1,0,0,1,6,-4.16334e-17)">
                    <path d="M1505.09,1573.43C1502.86,1587.39 1498.39,1615.3 1497.09,1636.43C1495.42,1663.6 1495.42,1703.09 1495.09,1736.43C1494.76,1770.38 1494.98,1816.86 1495.09,1840.1" style="fill:none;stroke:rgb(57,58,67);stroke-opacity:0.109804;stroke-width:10.73px;stroke-linecap:round;stroke-linejoin:round;stroke-miterlimit:1.5;"/>
                </g>
                <path d="M1557.09,1576.43C1553,1596.8 1544.81,1637.54 1544.09,1664.43C1543.43,1689.04 1551.76,1714.6 1552.76,1737.77C1553.7,1759.65 1550.04,1786.32 1550.09,1803.43C1550.13,1815.81 1552.11,1832.22 1553.09,1840.43" style="fill:none;stroke:rgb(57,58,67);stroke-opacity:0.109804;stroke-width:10.73px;stroke-linecap:round;stroke-linejoin:round;stroke-miterlimit:1.5;"/>
                <g transform="matrix(1,0,0,1,-22,1.52656e-16)">
                    <path d="M1557.09,1576.43C1553.33,1596.99 1545.81,1638.1 1544.09,1664.43C1542.57,1687.73 1545.76,1711.27 1546.76,1734.43C1547.75,1757.44 1549.04,1785.77 1550.09,1803.43C1550.83,1815.78 1552.34,1832.22 1553.09,1840.43" style="fill:none;stroke:rgb(57,58,67);stroke-opacity:0.109804;stroke-width:10.73px;stroke-linecap:round;stroke-linejoin:round;stroke-miterlimit:1.5;"/>
                </g>
                <g transform="matrix(1,0,0,1,-45,3.26128e-16)">
                    <path d="M1664.09,1577.43C1661.76,1590.43 1657.09,1616.43 1656.09,1634.43C1655.15,1651.42 1654.92,1669.43 1658.09,1685.43C1661.2,1701.16 1672.26,1717.93 1675.09,1730.43C1677.3,1740.18 1675.93,1750.47 1675.09,1760.43C1673.76,1776.32 1669.31,1809.28 1667.09,1825.77" style="fill:none;stroke:rgb(57,58,67);stroke-opacity:0.109804;stroke-width:10.73px;stroke-linecap:round;stroke-linejoin:round;stroke-miterlimit:1.5;"/>
                </g>
                <g transform="matrix(1,0,0,1,-65,4.64906e-16)">
                    <path d="M1664.09,1577.43C1661.76,1590.43 1657.09,1616.43 1656.09,1634.43C1655.15,1651.42 1654.92,1669.43 1658.09,1685.43C1661.2,1701.16 1672.26,1717.93 1675.09,1730.43C1677.3,1740.18 1676,1750.47 1675.09,1760.43C1673.54,1777.43 1668.35,1814.1 1665.76,1832.43" style="fill:none;stroke:rgb(57,58,67);stroke-opacity:0.109804;stroke-width:10.73px;stroke-linecap:round;stroke-linejoin:round;stroke-miterlimit:1.5;"/>
                </g>
                <g transform="matrix(1,0,0,1,-21,-6)">
                    <path d="M1664.09,1577.43C1661.76,1590.43 1657.09,1616.43 1656.09,1634.43C1655.15,1651.42 1654.92,1669.43 1658.09,1685.43C1661.2,1701.16 1672.26,1717.93 1675.09,1730.43C1677.3,1740.18 1676.03,1750.48 1675.09,1760.43C1673.54,1776.99 1668.35,1812.17 1665.76,1829.77" style="fill:none;stroke:rgb(57,58,67);stroke-opacity:0.109804;stroke-width:10.73px;stroke-linecap:round;stroke-linejoin:round;stroke-miterlimit:1.5;"/>
                </g>
                <g transform="matrix(1,0,0,1,-89,4)">
                    <path d="M1664.09,1577.43C1661.76,1590.43 1657.09,1616.43 1656.09,1634.43C1655.15,1651.42 1655.59,1669.43 1658.09,1685.43C1660.5,1700.86 1668.26,1717.93 1671.09,1730.43C1673.32,1740.27 1675.62,1750.36 1675.09,1760.43C1674.2,1777.43 1668.57,1814.1 1665.76,1832.43" style="fill:none;stroke:rgb(57,58,67);stroke-opacity:0.109804;stroke-width:10.73px;stroke-linecap:round;stroke-linejoin:round;stroke-miterlimit:1.5;"/>
                </g>
                <g transform="matrix(1,0,0,1,-20,-1)">
                    <path d="M1709.09,1563.43C1706.37,1579.77 1700.92,1612.43 1700.09,1631.43C1699.42,1646.81 1700.92,1662.37 1704.09,1677.43C1707.42,1693.27 1718.62,1709.31 1720.09,1726.43C1721.92,1747.77 1717.37,1786.21 1715.09,1805.43" style="fill:none;stroke:rgb(57,58,67);stroke-opacity:0.109804;stroke-width:10.73px;stroke-linecap:round;stroke-linejoin:round;stroke-miterlimit:1.5;"/>
                </g>
                <g transform="matrix(1,0,0,1,-42,-1)">
                    <path d="M1709.09,1568.1C1706.37,1583.14 1700.92,1613.21 1700.09,1631.43C1699.39,1646.81 1700.92,1662.37 1704.09,1677.43C1707.42,1693.27 1719.48,1709.26 1720.09,1726.43C1720.92,1749.88 1713.04,1795.36 1709.09,1818.1" style="fill:none;stroke:rgb(57,58,67);stroke-opacity:0.109804;stroke-width:10.73px;stroke-linecap:round;stroke-linejoin:round;stroke-miterlimit:1.5;"/>
                </g>
                <g transform="matrix(1,0,0,1,2,-7)">
                    <path d="M1709.09,1563.43C1706.37,1579.77 1700.92,1612.43 1700.09,1631.43C1699.42,1646.81 1700.92,1662.37 1704.09,1677.43C1707.42,1693.27 1718.62,1709.31 1720.09,1726.43C1721.92,1747.77 1717.37,1786.21 1715.09,1805.43" style="fill:none;stroke:rgb(57,58,67);stroke-opacity:0.109804;stroke-width:10.73px;stroke-linecap:round;stroke-linejoin:round;stroke-miterlimit:1.5;"/>
                </g>
                <g transform="matrix(1,0,0,1,30,-9)">
                    <path d="M1709.09,1553.43C1706.37,1572.54 1700.92,1610.77 1700.09,1631.43C1699.47,1646.81 1700.92,1662.37 1704.09,1677.43C1707.42,1693.27 1718.62,1709.31 1720.09,1726.43C1721.92,1747.77 1717.37,1786.21 1715.09,1805.43" style="fill:none;stroke:rgb(57,58,67);stroke-opacity:0.109804;stroke-width:10.73px;stroke-linecap:round;stroke-linejoin:round;stroke-miterlimit:1.5;"/>
                </g>
                <g transform="matrix(1,0,0,1,3,-5)">
                    <path d="M1752.09,1540.43C1751.65,1557.82 1750.76,1592.6 1752.09,1616.43C1753.35,1638.89 1758.84,1660.98 1760.09,1683.43C1761.42,1707.43 1760.09,1741.54 1760.09,1760.43C1760.09,1772.54 1760.09,1788.69 1760.09,1796.77" style="fill:none;stroke:rgb(57,58,67);stroke-opacity:0.109804;stroke-width:10.73px;stroke-linecap:round;stroke-linejoin:round;stroke-miterlimit:1.5;"/>
                </g>
                <g transform="matrix(1,0,0,1,21,-7)">
                    <path d="M1748.76,1541.1C1748.72,1557.91 1748.65,1591.53 1752.09,1616.43C1755.65,1642.15 1768.76,1671.43 1770.09,1695.43C1771.31,1717.32 1761.42,1744.1 1760.09,1760.43C1759.19,1771.42 1761.13,1786.09 1762.09,1793.43" style="fill:none;stroke:rgb(57,58,67);stroke-opacity:0.109804;stroke-width:10.73px;stroke-linecap:round;stroke-linejoin:round;stroke-miterlimit:1.5;"/>
                </g>
                <g transform="matrix(1,0,0,1,-8,7.63278e-17)">
                    <path d="M1808.09,1524.43C1809.81,1544.71 1813.26,1585.27 1818.09,1604.43C1821.34,1617.3 1832.16,1627.11 1837.09,1639.43C1842.09,1651.93 1848.23,1665.6 1848.09,1679.43C1847.87,1701.77 1839.8,1749.54 1835.76,1773.43" style="fill:none;stroke:rgb(57,58,67);stroke-opacity:0.109804;stroke-width:10.73px;stroke-linecap:round;stroke-linejoin:round;stroke-miterlimit:1.5;"/>
                </g>
                <g transform="matrix(1,0,0,1,24,-8)">
                    <path d="M1808.09,1524.43C1809.81,1544.71 1813.26,1585.27 1818.09,1604.43C1821.34,1617.3 1832.16,1627.11 1837.09,1639.43C1842.09,1651.93 1847.66,1665.61 1848.09,1679.43C1848.76,1700.99 1843.65,1746.17 1841.09,1768.77" style="fill:none;stroke:rgb(57,58,67);stroke-opacity:0.109804;stroke-width:10.73px;stroke-linecap:round;stroke-linejoin:round;stroke-miterlimit:1.5;"/>
                </g>
                <g transform="matrix(1,6.16298e-33,4.93038e-32,1,72,-28)">
                    <path d="M1824.76,1530.43C1821.85,1549.04 1816.04,1586.27 1818.09,1604.43C1819.58,1617.62 1832.16,1627.11 1837.09,1639.43C1842.09,1651.93 1847.41,1665.62 1848.09,1679.43C1849.2,1701.99 1845.57,1750.51 1843.76,1774.77" style="fill:none;stroke:rgb(57,58,67);stroke-opacity:0.109804;stroke-width:10.73px;stroke-linecap:round;stroke-linejoin:round;stroke-miterlimit:1.5;"/>
                </g>
                <g transform="matrix(1,0,0,1,-30,2)">
                    <path d="M1808.09,1524.43C1809.81,1544.71 1813.26,1585.27 1818.09,1604.43C1821.34,1617.3 1832.16,1627.11 1837.09,1639.43C1842.09,1651.93 1848.09,1665.6 1848.09,1679.43C1848.09,1702.54 1840.76,1752.91 1837.09,1778.1" style="fill:none;stroke:rgb(57,58,67);stroke-opacity:0.109804;stroke-width:10.73px;stroke-linecap:round;stroke-linejoin:round;stroke-miterlimit:1.5;"/>
                </g>
                <path d="M1867.09,1506.43C1864.6,1534.11 1858.91,1565.44 1865.09,1593.43C1868.43,1608.55 1884.25,1615.36 1891.09,1628.43C1910.09,1664.73 1892.39,1715.65 1889.76,1755.1" style="fill:none;stroke:rgb(57,58,67);stroke-opacity:0.109804;stroke-width:10.73px;stroke-linecap:round;stroke-linejoin:round;stroke-miterlimit:1.5;"/>
                <path d="M917.091,1733.43C939.529,1726.08 961.965,1718.68 984.091,1710.43C1002.9,1703.42 1001.26,1700.25 1020.09,1693.43C1046.6,1683.84 1074.73,1680.05 1101.62,1671.81C1128.83,1663.47 1151.41,1649.05 1177.09,1637.43C1194.96,1629.35 1215.66,1629.62 1233.09,1620.43C1269.51,1601.24 1302.37,1563.83 1330.42,1534.43" style="fill:none;stroke:rgb(57,58,67);stroke-opacity:0.109804;stroke-width:10.73px;stroke-linecap:round;stroke-linejoin:round;stroke-miterlimit:1.5;"/>
                <g transform="matrix(1,0,0,1,12,22)">
                    <path d="M922.425,1729.43C944.863,1722.08 961.965,1718.68 984.091,1710.43C1002.9,1703.42 1001.26,1700.25 1020.09,1693.43C1046.6,1683.84 1074.73,1680.05 1101.62,1671.81C1128.83,1663.47 1151.41,1649.05 1177.09,1637.43C1194.96,1629.35 1215.66,1629.62 1233.09,1620.43C1269.51,1601.24 1316.37,1547.16 1344.42,1517.77" style="fill:none;stroke:rgb(57,58,67);stroke-opacity:0.109804;stroke-width:10.73px;stroke-linecap:round;stroke-linejoin:round;stroke-miterlimit:1.5;"/>
                </g>
                <path d="M973.091,1762.43C1010.48,1750.54 1048.65,1741.19 1086.05,1729.32C1132.94,1714.43 1177.67,1692.98 1223.09,1674.43C1251.72,1662.74 1252.4,1664.81 1280.09,1651.43C1293.25,1645.07 1301.95,1632.28 1313.09,1623.43C1324.51,1614.37 1338.52,1608.65 1349.09,1598.43C1365.39,1582.67 1380.73,1565.33 1395.42,1548.1" style="fill:none;stroke:rgb(57,58,67);stroke-opacity:0.109804;stroke-width:10.73px;stroke-linecap:round;stroke-linejoin:round;stroke-miterlimit:1.5;"/>
                <g transform="matrix(1,0,0,1,38,8)">
                    <path d="M973.091,1762.43C1010.48,1750.54 1048.65,1741.19 1086.05,1729.32C1132.94,1714.43 1177.67,1692.98 1223.09,1674.43C1251.72,1662.74 1252.4,1664.81 1280.09,1651.43C1293.25,1645.07 1301.95,1632.28 1313.09,1623.43C1324.51,1614.37 1338.52,1608.65 1349.09,1598.43C1365.39,1582.67 1378.73,1563.33 1393.42,1546.1" style="fill:none;stroke:rgb(57,58,67);stroke-opacity:0.109804;stroke-width:10.73px;stroke-linecap:round;stroke-linejoin:round;stroke-miterlimit:1.5;"/>
                </g>
                <path d="M1064.59,1780.6C1103.42,1772.53 1142.85,1765.17 1180.59,1752.6C1206.37,1744.02 1229.68,1729.86 1253.92,1717.93C1268.84,1710.59 1282.8,1700.03 1297.67,1692.6C1339.21,1671.85 1347.27,1665.92 1385.48,1639.6C1401.32,1628.69 1420.19,1621.42 1431.43,1605.21C1439.47,1593.61 1447.42,1574.07 1453.26,1561.27" style="fill:none;stroke:rgb(57,58,67);stroke-opacity:0.109804;stroke-width:10.73px;stroke-linecap:round;stroke-linejoin:round;stroke-miterlimit:1.5;"/>
                <g transform="matrix(1,0,0,1,36,6)">
                    <path d="M1064.59,1780.6C1103.42,1772.53 1142.85,1765.17 1180.59,1752.6C1206.37,1744.02 1229.68,1729.86 1253.92,1717.93C1268.84,1710.59 1282.8,1700.03 1297.67,1692.6C1339.21,1671.85 1347.27,1665.92 1385.48,1639.6C1401.32,1628.69 1420.19,1621.42 1431.43,1605.21C1439.47,1593.61 1445.42,1581.4 1451.26,1568.6" style="fill:none;stroke:rgb(57,58,67);stroke-opacity:0.109804;stroke-width:10.73px;stroke-linecap:round;stroke-linejoin:round;stroke-miterlimit:1.5;"/>
                </g>
                <path d="M1207.26,1792.6C1222.44,1786.3 1252.81,1773.71 1271.26,1764.6C1287.32,1756.66 1302.2,1746.51 1317.92,1737.93C1337.48,1727.27 1370.15,1712.15 1388.59,1700.6C1403.06,1691.53 1415.88,1680 1428.59,1668.6C1443.7,1655.04 1465.04,1634.82 1479.26,1619.27C1491.86,1605.49 1506.57,1585.34 1513.92,1575.27" style="fill:none;stroke:rgb(57,58,67);stroke-opacity:0.109804;stroke-width:10.73px;stroke-linecap:round;stroke-linejoin:round;stroke-miterlimit:1.5;"/>
                <g transform="matrix(1,0,0,1,32,4)">
                    <path d="M1207.26,1792.6C1222.44,1786.3 1252.81,1773.71 1271.26,1764.6C1287.32,1756.66 1302.2,1746.51 1317.92,1737.93C1337.48,1727.27 1370.15,1712.15 1388.59,1700.6C1403.06,1691.53 1415.88,1680 1428.59,1668.6C1443.7,1655.04 1465.04,1634.82 1479.26,1619.27C1491.86,1605.49 1506.57,1585.34 1513.92,1575.27" style="fill:none;stroke:rgb(57,58,67);stroke-opacity:0.109804;stroke-width:10.73px;stroke-linecap:round;stroke-linejoin:round;stroke-miterlimit:1.5;"/>
                </g>
                <path d="M1296.59,1811.93C1313.49,1805.33 1336.91,1791.26 1352.59,1781.93C1369.59,1771.82 1385.04,1757.97 1400.59,1745.93C1414.16,1735.42 1442.64,1715 1455.26,1703.27C1471.37,1688.29 1485.57,1671.31 1501.92,1656.6C1514.75,1645.06 1529,1638.26 1542.05,1627.58C1557.81,1614.67 1568.4,1598.4 1577.92,1580.6" style="fill:none;stroke:rgb(57,58,67);stroke-opacity:0.109804;stroke-width:10.73px;stroke-linecap:round;stroke-linejoin:round;stroke-miterlimit:1.5;"/>
                <g transform="matrix(1,0,0,1,34,4)">
                    <path d="M1294.59,1814.6C1311.49,1808 1336.91,1791.26 1352.59,1781.93C1369.59,1771.82 1385.04,1757.97 1400.59,1745.93C1414.16,1735.42 1442.64,1715 1455.26,1703.27C1471.37,1688.29 1485.57,1671.31 1501.92,1656.6C1514.75,1645.06 1529,1638.26 1542.05,1627.58C1557.81,1614.67 1568.4,1593.07 1577.92,1575.27" style="fill:none;stroke:rgb(57,58,67);stroke-opacity:0.109804;stroke-width:10.73px;stroke-linecap:round;stroke-linejoin:round;stroke-miterlimit:1.5;"/>
                </g>
                <path d="M1380.59,1828.6C1415.25,1805.82 1450.2,1782.52 1479.26,1752.6C1489.06,1742.51 1523.61,1702.44 1533.92,1692.6C1557.63,1670 1559.63,1672.6 1583.88,1650.5C1608.72,1627.86 1628.32,1600.15 1647.26,1572.6" style="fill:none;stroke:rgb(57,58,67);stroke-opacity:0.109804;stroke-width:10.73px;stroke-linecap:round;stroke-linejoin:round;stroke-miterlimit:1.5;"/>
                <g transform="matrix(1,0,0,1,24,-1.66533e-16)">
                    <path d="M1381.92,1835.93C1416.58,1813.15 1450.2,1782.52 1479.26,1752.6C1489.06,1742.51 1523.61,1702.44 1533.92,1692.6C1557.63,1670 1559.63,1672.6 1583.88,1650.5C1608.72,1627.86 1628.32,1594.15 1647.26,1566.6" style="fill:none;stroke:rgb(57,58,67);stroke-opacity:0.109804;stroke-width:10.73px;stroke-linecap:round;stroke-linejoin:round;stroke-miterlimit:1.5;"/>
                </g>
                <path d="M1448.59,1836.6C1461.02,1826.54 1485.89,1806.43 1503.26,1789.93C1521.04,1773.04 1537.37,1752.94 1555.26,1735.27C1574.37,1716.38 1599.7,1696.6 1617.92,1676.6C1635.23,1657.61 1651.92,1634.6 1664.59,1615.27C1675.92,1597.97 1687.92,1573.06 1693.92,1560.6" style="fill:none;stroke:rgb(57,58,67);stroke-opacity:0.109804;stroke-width:10.73px;stroke-linecap:round;stroke-linejoin:round;stroke-miterlimit:1.5;"/>
                <g transform="matrix(1,0,0,1,32,-8)">
                    <path d="M1454.59,1849.93C1465.15,1835.78 1486.26,1807.49 1503.26,1789.93C1519.49,1773.17 1540,1761 1556.59,1744.6C1575.7,1725.71 1599.92,1698.15 1617.92,1676.6C1634.39,1656.88 1651.92,1634.93 1664.59,1615.27C1676.11,1597.38 1687.99,1571.53 1693.92,1558.6" style="fill:none;stroke:rgb(57,58,67);stroke-opacity:0.109804;stroke-width:10.73px;stroke-linecap:round;stroke-linejoin:round;stroke-miterlimit:1.5;"/>
                </g>
                <path d="M1519.26,1839.27C1527.61,1828.18 1542.43,1808.84 1552.59,1799.27C1569.12,1783.7 1588.93,1771.81 1604.59,1755.27C1618.01,1741.09 1625.71,1722.62 1639.26,1708.6C1651.93,1695.48 1666.78,1684.56 1679.26,1671.27C1690.51,1659.28 1703.38,1640.8 1712.59,1627.27C1730.11,1601.53 1753.41,1573.3 1756.59,1540.6" style="fill:none;stroke:rgb(57,58,67);stroke-opacity:0.109804;stroke-width:10.73px;stroke-linecap:round;stroke-linejoin:round;stroke-miterlimit:1.5;"/>
                <path d="M1588.59,1835.27C1619.07,1809.76 1648.95,1784.14 1674.08,1753.18C1692.66,1730.29 1720.85,1687.98 1735.26,1668.6C1752.05,1646.01 1772.43,1625.59 1785.92,1600.6C1796.2,1581.56 1798.83,1559.41 1805.92,1539.27C1808.76,1531.23 1813.48,1522.37 1817.92,1515.27" style="fill:none;stroke:rgb(57,58,67);stroke-opacity:0.109804;stroke-width:10.73px;stroke-linecap:round;stroke-linejoin:round;stroke-miterlimit:1.5;"/>
                <g transform="matrix(1,0,0,1,-26,1.80411e-16)">
                    <path d="M1588.59,1835.27C1619.07,1809.76 1648.95,1784.14 1674.08,1753.18C1692.66,1730.29 1720.85,1687.98 1735.26,1668.6C1752.05,1646.01 1772.43,1625.59 1785.92,1600.6C1796.2,1581.56 1798.83,1559.41 1805.92,1539.27C1808.76,1531.23 1809.48,1531.03 1813.92,1523.93" style="fill:none;stroke:rgb(57,58,67);stroke-opacity:0.109804;stroke-width:10.73px;stroke-linecap:round;stroke-linejoin:round;stroke-miterlimit:1.5;"/>
                </g>
                <g transform="matrix(1,0,0,1,-12,8.32667e-17)">
                    <path d="M1689.26,1813.93C1699.18,1798.18 1709.9,1775.84 1720.59,1760.6C1740.93,1731.61 1743.7,1733.89 1763.26,1704.6C1772.79,1690.33 1795.45,1650.47 1803.26,1635.27C1825.4,1592.14 1846.15,1553.09 1861.92,1507.27" style="fill:none;stroke:rgb(57,58,67);stroke-opacity:0.109804;stroke-width:10.73px;stroke-linecap:round;stroke-linejoin:round;stroke-miterlimit:1.5;"/>
                </g>
                <g transform="matrix(1,0,0,1,-32,8)">
                    <path d="M1752.59,1791.27C1790.06,1735.33 1789.56,1735.23 1824.59,1677.93C1834.37,1661.93 1844.76,1646.29 1853.92,1629.93C1855.26,1627.55 1868.66,1595 1869.92,1592.6C1875.79,1581.45 1886.35,1574.11 1893.89,1564.3C1907.19,1547.02 1915.21,1514.57 1920.59,1493.93" style="fill:none;stroke:rgb(57,58,67);stroke-opacity:0.109804;stroke-width:10.73px;stroke-linecap:round;stroke-linejoin:round;stroke-miterlimit:1.5;"/>
                </g>
                <g transform="matrix(1,0,0,1,-4,6)">
                    <path d="M1752.59,1791.27C1790.06,1735.33 1789.56,1735.23 1824.59,1677.93C1834.37,1661.93 1844.76,1646.29 1853.92,1629.93C1855.26,1627.55 1868.66,1595 1869.92,1592.6C1875.79,1581.45 1886.35,1574.11 1893.89,1564.3C1907.19,1547.02 1912.54,1523.9 1917.92,1503.27" style="fill:none;stroke:rgb(57,58,67);stroke-opacity:0.109804;stroke-width:10.73px;stroke-linecap:round;stroke-linejoin:round;stroke-miterlimit:1.5;"/>
                </g>
                <g transform="matrix(1,0,0,1,28,4)">
                    <path d="M1753.26,1781.93C1790.73,1725.99 1789.56,1735.23 1824.59,1677.93C1834.37,1661.93 1844.76,1646.29 1853.92,1629.93C1855.26,1627.55 1868.66,1595 1869.92,1592.6C1875.79,1581.45 1886.35,1574.11 1893.89,1564.3C1907.19,1547.02 1912.54,1523.9 1917.92,1503.27" style="fill:none;stroke:rgb(57,58,67);stroke-opacity:0.109804;stroke-width:10.73px;stroke-linecap:round;stroke-linejoin:round;stroke-miterlimit:1.5;"/>
                </g>
                <path d="M1827.26,1773.27C1850.97,1745.25 1871.24,1711.13 1884.59,1676.6C1891.72,1658.15 1894.27,1636.59 1904.59,1619.27C1910.16,1609.92 1922.49,1609.29 1928.59,1600.6C1939.44,1585.16 1939.08,1580.83 1948.59,1564.6C1958.07,1548.42 1968.03,1532.53 1977.92,1516.6" style="fill:none;stroke:rgb(57,58,67);stroke-opacity:0.109804;stroke-width:10.73px;stroke-linecap:round;stroke-linejoin:round;stroke-miterlimit:1.5;"/>
                <g transform="matrix(1,0,0,1,18,12)">
                    <path d="M1911.26,1733.93C1917.64,1724.63 1915.08,1725.91 1919.26,1715.27C1924.3,1702.42 1925.2,1688.23 1929.92,1675.27C1939.16,1649.9 1941.64,1643.75 1957.26,1622.6" style="fill:none;stroke:rgb(57,58,67);stroke-opacity:0.109804;stroke-width:10.73px;stroke-linecap:round;stroke-linejoin:round;stroke-miterlimit:1.5;"/>
                </g>
                <g transform="matrix(1.16071,0,1.2326e-32,1.21622,-311.024,-372.652)">
                    <path d="M1897.92,1751.27C1904.31,1741.96 1915.08,1725.91 1919.26,1715.27C1924.3,1702.42 1925.2,1688.23 1929.92,1675.27C1939.16,1649.9 1956.98,1624.42 1972.59,1603.27" style="fill:none;stroke:rgb(57,58,67);stroke-opacity:0.109804;stroke-width:9.03px;stroke-linecap:round;stroke-linejoin:round;stroke-miterlimit:1.5;"/>
                </g>
                <g transform="matrix(1,0,0,1,18,14)">
                    <path d="M1951.26,1720.6C1955.88,1703.58 1961.38,1693.15 1971.96,1678.57C1976.9,1671.76 1978.16,1673.45 1983.92,1667.93" style="fill:none;stroke:rgb(57,58,67);stroke-opacity:0.109804;stroke-width:10.73px;stroke-linecap:round;stroke-linejoin:round;stroke-miterlimit:1.5;"/>
                </g>
                <g transform="matrix(1,0,0,1,2,2)">
                    <path d="M1952.59,1728.6C1957.21,1711.58 1961.38,1693.15 1971.96,1678.57C1976.9,1671.76 1984.16,1664.78 1989.92,1659.27" style="fill:none;stroke:rgb(57,58,67);stroke-opacity:0.109804;stroke-width:10.73px;stroke-linecap:round;stroke-linejoin:round;stroke-miterlimit:1.5;"/>
                </g>
                <path d="M1961.59,1515.7C1953.12,1560.64 1944.2,1609.44 1952.83,1655.07C1957.33,1678.89 1970.98,1701.75 1983.59,1721.7" style="fill:none;stroke:rgb(57,58,67);stroke-opacity:0.109804;stroke-width:10.73px;stroke-linecap:round;stroke-linejoin:round;stroke-miterlimit:1.5;"/>
                <path d="M1933.59,1509.7C1931.04,1524.81 1925.92,1555.04 1923.59,1573.7C1921.6,1589.63 1918.92,1607.7 1919.59,1621.7C1920.18,1633.98 1924.67,1645.76 1927.59,1657.7C1931.26,1672.7 1939.26,1698.37 1941.59,1711.7C1943.09,1720.24 1942.09,1731.88 1941.59,1737.7" style="fill:none;stroke:rgb(57,58,67);stroke-opacity:0.109804;stroke-width:10.73px;stroke-linecap:round;stroke-linejoin:round;stroke-miterlimit:1.5;"/>
            </g>
            <g id="dp_path018" transform="matrix(1.0817,7.79202e-18,1.50116e-17,0.966716,-874.667,-190.143)">
                <path d="M840.123,1827C874.345,1820.5 942.789,1807.5 984.123,1810C1020.33,1812.19 1053.79,1832.5 1088.12,1842C1121.86,1851.34 1156.47,1857.37 1190.12,1867C1227.96,1877.83 1310.96,1897.83 1315.12,1907C1319.29,1916.17 1248.77,1924.02 1215.12,1922C1173.46,1919.5 1111.79,1902 1065.12,1892C1021.64,1882.68 972.623,1872.83 935.123,1862C902.701,1852.63 860.983,1835.55 840.123,1827Z" style="fill:rgb(49,50,61);fill-opacity:0.235294;"/>
            </g>
            <g id="dp_path019" transform="matrix(1.0817,0,0,1.0817,-869.91,-410.884)">
                <path d="M1498.87,1933.13C1527,1938.51 1583.25,1949.27 1614.5,1948.75C1639.25,1948.34 1663.64,1937.31 1686.37,1930C1708.35,1922.93 1729.17,1912.67 1750.9,1904.87C1776.79,1895.59 1839.5,1882.41 1841.71,1874.27C1843.91,1866.12 1790.54,1853.14 1764.12,1856C1733.47,1859.32 1693.94,1883.66 1657.77,1894.18C1613.57,1907.03 1537.1,1924.43 1498.87,1933.13Z" style="fill:rgb(49,50,61);fill-opacity:0.235294;"/>
            </g>
            <g id="dp_path0121" serif:id="dp_path012" transform="matrix(1.0817,0,-3.46945e-17,1.0817,-869.16,-421.677)">
                <path d="M869.065,1657.76C896.593,1656.42 948.579,1677.4 988.09,1688.15C1049.35,1704.82 1152.37,1740.35 1236.61,1757.8C1329.63,1777.07 1454.02,1820.98 1546.17,1803.75C1629.09,1788.24 1736.84,1738.1 1798.91,1744.23C1839.79,1748.27 1887.46,1749.33 1895.59,1773.76C1903.23,1796.73 1875.92,1834.99 1878,1866.03C1880.08,1897.07 1921.57,1938.22 1908.09,1960C1894.62,1981.78 1834.98,1987.41 1797.15,1996.72C1723.31,2014.89 1549.23,2057.87 1465.06,2069C1407.88,2076.56 1349.19,2071.84 1292.12,2063.51C1232.66,2054.83 1161.49,2026.92 1108.33,2016.91C1063.83,2008.53 1017.35,2013.31 973.152,2003.47C918.696,1991.35 807.763,1974.54 781.595,1944.17C755.427,1913.8 811.98,1851.99 816.143,1821.27C818.925,1800.74 805.451,1780.55 806.571,1759.86C807.7,1739.01 812.504,1713.16 822.92,1696.14C833.336,1679.12 849.081,1658.72 869.065,1657.76Z" style="fill:none;stroke:rgb(49,50,61);stroke-width:11.99px;"/>
            </g>
        </g>
    </g>
    <g transform="matrix(4.01523,0,0,4.09845,-203.756,-507.358)">
        <g id="Transparent-Layer" serif:id="Transparent Layer">
            <rect x="50.746" y="123.793" width="89.659" height="87.838" style="fill:rgb(235,235,235);fill-opacity:0;"/>
        </g>
    </g>
</svg>
