<?xml version="1.0" encoding="UTF-8" standalone="no"?>
<!DOCTYPE svg PUBLIC "-//W3C//DTD SVG 1.1//EN" "http://www.w3.org/Graphics/SVG/1.1/DTD/svg11.dtd">
<svg width="100%" height="100%" viewBox="0 0 360 360" version="1.1" xmlns="http://www.w3.org/2000/svg" xmlns:xlink="http://www.w3.org/1999/xlink" xml:space="preserve" xmlns:serif="http://www.serif.com/" style="fill-rule:evenodd;clip-rule:evenodd;stroke-linecap:round;stroke-linejoin:round;stroke-miterlimit:1.5;">
    <g id="SoccerJester2" transform="matrix(0.15625,-0.00359457,0.00310725,0.135068,-46.3399,71.1169)">
        <g transform="matrix(6.06949,0.0665208,-0.0499337,6.09718,404.48,-462.756)">
            <ellipse cx="176.131" cy="263.059" rx="149.507" ry="36.865" style="fill:rgb(0,0,1);fill-opacity:0.305882;"/>
        </g>
        <g transform="matrix(0.84729,0.0464062,-0.0607764,1.18258,199.224,-32.5271)">
            <path d="M1118.14,565.134L998.143,673.134C735.755,785.032 611.297,695.056 594.143,521.134L470.938,509.202C425.763,771.944 643.687,917.252 1014.14,881.134L1118.14,565.134Z" style="fill:rgb(253,211,1);stroke:rgb(49,50,61);stroke-width:9.77px;"/>
        </g>
        <g transform="matrix(-1.28679,-0.00257173,-0.00198009,1.32589,3355.49,-103.381)">
            <path d="M1884.84,723.188C1964.85,755.662 2054.32,721.148 2068.84,644.188C2078.2,653.742 2092.88,633.115 2102.49,639.577C2076.43,725.204 1950.11,788.526 1880.95,753.325C1875.38,742.646 1884.09,736.008 1884.84,723.188Z" style="fill:rgb(238,233,232);fill-opacity:0.419608;"/>
        </g>
        <g transform="matrix(0.913012,0.0500058,-0.0582349,1.13313,123.485,7.27443)">
            <path d="M1118.14,565.134L998.143,673.134C973.635,683.586 928.204,699.302 928.204,699.302L935.747,886.233C935.747,886.233 987.042,883.776 1014.14,881.134L1118.14,565.134Z" style="fill:rgb(0,52,105);stroke:rgb(49,50,61);stroke-width:9.68px;"/>
        </g>
        <g transform="matrix(0.913465,0.0372341,-0.046821,1.12783,127.28,23.9289)">
            <path d="M1118.14,565.134L1012.16,665.931C1012.16,665.931 963.32,873.262 974.312,874.585C998.61,877.51 1008.27,865.388 1023.68,863.115L1118.14,565.134Z" style="fill:rgb(49,50,61);fill-opacity:0.4;stroke:black;stroke-width:9.72px;"/>
        </g>
        <g transform="matrix(-1.15885,0.18794,0.140436,1.15885,3005.34,-164.461)">
            <g transform="matrix(0.724066,0.0396572,-0.0519375,1.01059,331.879,-35.9305)">
                <path d="M1118.14,565.134L998.143,673.134C735.755,785.032 611.297,695.056 594.143,521.134L470.938,509.202C425.763,771.944 643.687,917.252 1014.14,881.134L1118.14,565.134Z" style="fill:rgb(253,211,1);stroke:rgb(49,50,61);stroke-width:9.77px;"/>
            </g>
            <g transform="matrix(-0.966586,0.183073,0.158254,1.11818,2662.68,-435.984)">
                <path d="M1884.84,723.188C1964.83,736.531 2054.3,707.09 2068.84,644.188C2078.2,653.742 2112.63,621.383 2122.24,627.845C2093.25,708.762 1938.49,793.752 1872.84,764.188C1867.28,753.509 1884.09,736.008 1884.84,723.188Z" style="fill:rgb(238,233,232);fill-opacity:0.419608;"/>
            </g>
            <g transform="matrix(0.78023,0.0427333,-0.0497656,0.968333,267.154,-1.91739)">
                <path d="M1118.14,565.134L998.143,673.134C973.635,683.586 928.204,699.302 928.204,699.302L935.747,886.233C935.747,886.233 987.042,883.776 1014.14,881.134L1118.14,565.134Z" style="fill:rgb(0,52,105);stroke:rgb(49,50,61);stroke-width:9.68px;"/>
            </g>
            <g transform="matrix(0.780618,0.0318191,-0.0400117,0.963808,270.398,12.315)">
                <path d="M1118.14,565.134L1012.16,665.931C1012.16,665.931 962.622,870.191 973.614,871.515C997.912,874.439 1008.27,865.388 1023.68,863.115L1118.14,565.134Z" style="fill:rgb(49,50,61);fill-opacity:0.403922;stroke:black;stroke-width:9.72px;"/>
            </g>
        </g>
        <g transform="matrix(1.14584,0.0304944,-0.0263602,1.32554,-139.956,-171.446)">
            <path d="M1860.27,985.141C1782.58,1024.27 903.737,1014.86 982.133,990.673L1860.27,985.141Z" style="fill:rgb(49,50,61);stroke:rgb(49,50,61);stroke-width:7.96px;"/>
        </g>
        <g transform="matrix(1.19691,-0.0214775,0.0224084,1.14832,-226.588,71.23)">
            <path d="M966.671,995.134C972.697,992.569 993.758,400.811 1402.45,423.132C1815.51,445.691 1825.05,1031.93 1809.98,1020.66C1798.19,1011.85 953.343,1000.81 966.671,995.134Z" style="fill:rgb(49,50,61);fill-opacity:0.305882;"/>
        </g>
        <g transform="matrix(1.19691,-0.0214775,0.0224084,1.14832,-226.219,52.6724)">
            <path d="M966.671,995.134C972.697,992.569 993.758,400.811 1402.45,423.132C1815.51,445.691 1825.05,1031.93 1809.98,1020.66C1798.19,1011.85 953.343,1000.81 966.671,995.134Z" style="fill:rgb(0,52,105);stroke:rgb(49,50,61);stroke-width:16.73px;"/>
        </g>
        <g transform="matrix(1.19691,-0.0214775,0.0224084,1.14832,-226.219,52.6724)">
            <path d="M975.827,989.511C964.873,965.73 1017.03,406.599 1402.22,429.17C1415.8,429.965 1410.16,465.633 1410.97,478.429C1415.27,546.338 1407.7,1002.07 1404.14,1001.93C1377.41,1000.82 976.848,991.728 975.827,989.511Z" style="fill:rgb(51,111,27);"/>
        </g>
        <g transform="matrix(1.04858,0.000516906,0.000375791,1.00129,0.585991,97.4586)">
            <ellipse cx="1410.14" cy="743.134" rx="96" ry="70" style="fill:white;stroke:rgb(49,50,61);stroke-width:9.49px;"/>
        </g>
        <g transform="matrix(0.759785,0.0167579,-0.0118552,0.53864,418.482,223.18)">
            <ellipse cx="1410.14" cy="743.134" rx="96" ry="70" style="fill:white;stroke:rgb(49,50,61);stroke-width:14.52px;"/>
        </g>
        <g transform="matrix(0.194205,-0.669687,0.578898,0.224662,-998.024,414.699)">
            <g transform="matrix(1.106,-0.0792114,0.080872,1.12918,-399.735,-329.483)">
                <ellipse cx="813.567" cy="2586.07" rx="324.667" ry="318" style="fill:white;stroke:rgb(49,50,61);stroke-width:13.34px;"/>
            </g>
            <g transform="matrix(0.997445,-0.071437,0.071437,0.997445,-227.542,65.4473)">
                <g transform="matrix(1,0,0,1,1.04124,0.956981)">
                    <path d="M560.901,2280.07C587.5,2271.39 643.541,2272.52 690.234,2276.07L711.567,2399.4L584.901,2485.4L494.234,2410.07C510.634,2364.99 533.264,2321.44 560.901,2280.07Z" style="fill:rgb(49,50,61);stroke:rgb(49,50,61);stroke-width:14.95px;"/>
                </g>
                <path d="M861.567,2467.4L976.901,2406.73C1008.99,2442 1038.13,2478.22 1062.23,2516.07C1046.04,2562.08 1025.71,2606.14 1000.9,2648.07C958.943,2643.79 917.212,2634.25 875.567,2622.73L861.567,2467.4Z" style="fill:rgb(49,50,61);stroke:rgb(49,50,61);stroke-width:14.95px;"/>
                <path d="M528.901,2717.4C553.519,2693.05 577.958,2670.43 602.234,2649.4C648.134,2677.48 694.92,2698.28 742.234,2714.73C744.636,2749.43 744.775,2784.4 743.567,2817.4C727.883,2826.79 683.02,2827.98 613.567,2824.73C576.449,2789.28 548.296,2753.49 528.901,2717.4Z" style="fill:rgb(49,50,61);stroke:rgb(49,50,61);stroke-width:14.95px;"/>
                <path d="M403.567,2460.07C406.608,2470.97 410.165,2481.14 415.567,2488.73C415.188,2537.24 419.536,2587.47 431.567,2634.07L423.567,2650.73C401.113,2584.73 395.168,2521.29 403.567,2460.07Z" style="fill:rgb(49,50,61);stroke:rgb(49,50,61);stroke-width:14.95px;"/>
                <path d="M801.567,2164.73L818.234,2210.07L951.567,2272.73C969.678,2267.8 989.451,2267.14 1006.9,2262.73C947.226,2203.74 876.998,2176.43 801.567,2164.73Z" style="fill:rgb(49,50,61);stroke:rgb(49,50,61);stroke-width:14.95px;"/>
                <path d="M867.567,2864.07L867.567,2845.4L994.901,2758.73C1011.62,2755.4 1027.76,2749.2 1043.57,2741.4C996.226,2796.62 938.04,2838.12 867.567,2864.07Z" style="fill:rgb(49,50,61);stroke:rgb(49,50,61);stroke-width:14.95px;"/>
            </g>
            <g transform="matrix(1.106,-0.0792114,0.080872,1.12918,-399.735,-329.483)">
                <ellipse cx="813.567" cy="2586.07" rx="324.667" ry="318" style="fill:none;stroke:rgb(49,50,61);stroke-width:13.34px;"/>
            </g>
        </g>
        <g transform="matrix(0.747942,0.350103,-0.391735,1.11996,2431.68,-1648.05)">
            <g transform="matrix(1.17373,5.09024e-19,0,1.00943,-151.659,-40.8322)">
                <ellipse cx="700.366" cy="1743.17" rx="236" ry="212" style="fill:white;stroke:rgb(49,50,61);stroke-width:9.11px;"/>
            </g>
            <path d="M946.96,1720.67L931.96,1711.67C918.215,1731.23 900.87,1748.44 878.96,1762.67C881.66,1791.38 881.363,1820.04 879.96,1848.67C909.213,1843.98 942.254,1774.67 946.96,1720.67Z" style="fill:rgb(49,50,61);stroke:rgb(49,50,61);stroke-width:9.78px;"/>
            <path d="M741.96,1520.67C765.804,1534.14 786.117,1550.11 799.96,1570.67C829.24,1573.68 862.068,1584.43 896.96,1599.67C866.438,1560.34 819.718,1531.82 750.969,1515.96C747.449,1515.14 745.692,1520.7 741.96,1520.67Z" style="fill:rgb(49,50,61);stroke:rgb(49,50,61);stroke-width:9.78px;"/>
            <path d="M393.96,1717.67L417.96,1698.67L465.96,1749.67L463.96,1821.67L431.96,1824.67C415.374,1800.1 403.188,1765.01 393.96,1717.67Z" style="fill:rgb(49,50,61);stroke:rgb(49,50,61);stroke-width:9.78px;"/>
            <path d="M458.96,1582.67C485.578,1567.73 513.489,1559.54 543.96,1564.67C557.526,1543.81 582.82,1525.7 613.57,1510.06C547.767,1512.18 458.96,1582.67 458.96,1582.67Z" style="fill:rgb(49,50,61);stroke:rgb(49,50,61);stroke-width:9.78px;"/>
            <path d="M610.96,1638.67L728.96,1638.67L765.96,1721.67L674.96,1777.67L577.96,1724.67L610.96,1638.67Z" style="fill:rgb(49,50,61);stroke:rgb(49,50,61);stroke-width:9.78px;"/>
            <g transform="matrix(1,0,0,-1,-3.51746,3664.32)">
                <path d="M599.065,1743.7C648.571,1732.87 698.926,1733.72 748.373,1743.41L674.96,1777.67L599.065,1743.7Z" style="fill:rgb(49,50,61);stroke:rgb(49,50,61);stroke-width:9.78px;"/>
            </g>
        </g>
        <g transform="matrix(1.14584,0.0304944,-0.0263602,1.32554,-140.223,-177.2)">
            <path d="M1581.06,522.633C1746.74,595.721 1845.28,754.581 1856.89,980.633L1830.39,979.8C1835.53,806.795 1754.71,650.829 1581.06,522.633Z" style="fill:white;fill-opacity:0.305882;"/>
        </g>
        <g transform="matrix(1.14584,0.0304944,-0.0263602,1.32554,-137.932,-177.139)">
            <path d="M1211.06,538.3C1067.87,609.753 988.081,808.901 983.059,992.3L1153.06,992.3C1150.93,992.736 1148.85,993.194 1146.78,993.481C951.22,1020.54 1018.03,741.711 1211.06,538.3Z" style="fill:rgb(49,50,61);fill-opacity:0.294118;"/>
        </g>
        <g transform="matrix(1.14584,0.0304944,-0.0263602,1.32554,-141.527,-169.278)">
            <path d="M1894.34,719.688L2046.34,671.688L1894.34,719.688Z" style="fill:none;"/>
        </g>
    </g>
    <g transform="matrix(4.01523,0,0,4.09845,-203.756,-507.358)">
        <g id="Transparent-Layer" serif:id="Transparent Layer">
            <rect x="50.746" y="123.793" width="89.659" height="87.838" style="fill:rgb(235,235,235);fill-opacity:0;"/>
        </g>
    </g>
</svg>
