<?xml version="1.0" encoding="UTF-8" standalone="no"?>
<!DOCTYPE svg PUBLIC "-//W3C//DTD SVG 1.1//EN" "http://www.w3.org/Graphics/SVG/1.1/DTD/svg11.dtd">
<svg width="100%" height="100%" viewBox="0 0 360 360" version="1.1" xmlns="http://www.w3.org/2000/svg" xmlns:xlink="http://www.w3.org/1999/xlink" xml:space="preserve" xmlns:serif="http://www.serif.com/" style="fill-rule:evenodd;clip-rule:evenodd;stroke-linecap:round;stroke-linejoin:round;stroke-miterlimit:1.5;">
    <g id="SoccerJester-1" serif:id="SoccerJester 1" transform="matrix(0.297519,0,0,0.297519,-246.282,-47.3117)">
        <g transform="matrix(3.23216,0.0791433,-0.0823369,3.36258,867.872,102.783)">
            <ellipse cx="176.131" cy="263.059" rx="149.507" ry="36.865" style="fill:rgb(0,0,1);fill-opacity:0.305882;"/>
        </g>
        <g transform="matrix(0.921882,0,0,1.098,93.7393,-61.996)">
            <path d="M1642.26,703.214C1807.98,613.798 1798.74,533.905 1648,465.881L1650.67,428.547C2003.64,498.321 2055.62,641.573 1824.84,821.081L1642.26,703.214Z" style="fill:rgb(195,4,35);stroke:rgb(49,50,61);stroke-width:8.19px;"/>
        </g>
        <g transform="matrix(0.274525,0,0,1.00005,1217.27,14.9101)">
            <path d="M1558.48,674.216C1962.46,585.266 1915.48,515.263 1582.43,446.882C2063.66,553.814 1962.59,570.051 1595.51,692.533L1558.48,674.216Z" style="fill:rgb(49,50,61);fill-opacity:0.294118;stroke:rgb(49,50,61);stroke-opacity:0.301961;stroke-width:4.49px;"/>
        </g>
        <g transform="matrix(1,0,0,1.06796,27,-37.5809)">
            <path d="M1064,855.956C762.604,670.396 820.553,504.884 1178.67,420.547C1172.06,424.964 1181.96,441.771 1175.52,445.7C1019.32,541.111 986.676,614.437 1153.33,688.547L1064,855.956Z" style="fill:rgb(195,4,35);stroke:rgb(49,50,61);stroke-width:8.02px;"/>
        </g>
        <g transform="matrix(-0.274525,0,0,1.00005,1581.27,15.9101)">
            <path d="M1500.2,675.216C2093.12,605.649 1887.56,506.237 1433.08,429.883L1363.87,415.883C1973.1,522.687 2074.78,574.536 1526.3,697.2L1500.2,675.216Z" style="fill:rgb(49,50,61);fill-opacity:0.376471;stroke:rgb(49,50,61);stroke-opacity:0.305882;stroke-width:11.32px;"/>
        </g>
        <g transform="matrix(0.812274,0,0,1,869.845,-1249)">
            <g transform="matrix(1.17373,0,0,1.00943,-151.674,-44.445)">
                <ellipse cx="700.366" cy="1743.17" rx="236" ry="212" style="fill:white;stroke:rgb(49,50,61);stroke-width:8.45px;"/>
            </g>
            <path d="M946.96,1720.67L931.96,1711.67C918.215,1731.23 900.87,1748.44 878.96,1762.67C881.66,1791.38 881.363,1820.04 879.96,1848.67C909.213,1843.98 942.254,1774.67 946.96,1720.67Z" style="fill:rgb(49,50,61);stroke:rgb(49,50,61);stroke-width:9.11px;"/>
            <path d="M741.96,1520.67C765.804,1534.14 786.117,1550.11 799.96,1570.67C829.24,1573.68 862.068,1584.43 896.96,1599.67C864.041,1550.59 816.561,1518.97 750.969,1515.96C747.361,1515.79 745.692,1520.7 741.96,1520.67Z" style="fill:rgb(49,50,61);stroke:rgb(49,50,61);stroke-width:9.11px;"/>
            <path d="M393.96,1717.67L417.96,1698.67L465.96,1749.67L463.96,1821.67L431.96,1824.67C415.374,1800.1 403.188,1765.01 393.96,1717.67Z" style="fill:rgb(49,50,61);stroke:rgb(49,50,61);stroke-width:9.11px;"/>
            <path d="M458.96,1582.67C485.578,1567.73 513.489,1559.54 543.96,1564.67C557.526,1543.81 582.21,1524.32 612.96,1508.67C547.158,1510.79 458.96,1582.67 458.96,1582.67Z" style="fill:rgb(49,50,61);stroke:rgb(49,50,61);stroke-width:9.11px;"/>
            <path d="M610.96,1638.67L728.96,1638.67L765.96,1721.67L674.96,1777.67L577.96,1724.67L610.96,1638.67Z" style="fill:rgb(49,50,61);stroke:rgb(49,50,61);stroke-width:9.11px;"/>
        </g>
        <g transform="matrix(0.970071,0.0406391,-0.0418562,0.999124,78.6832,-48.7674)">
            <g transform="matrix(-1.43422,0.0546694,-0.0440691,-1.1538,2179.82,3399.73)">
                <path d="M173.878,2232.07C187.882,2328.88 284.866,2403.75 355.266,2465.54C364.465,2473.61 426.217,2469.81 457.728,2469.81C504.857,2469.81 555.069,2469.82 572.352,2466.64C604.686,2460.71 737.259,2331.21 745.878,2232.07L459.878,2232.07L173.878,2232.07Z" style="fill:rgb(5,46,152);stroke:rgb(49,50,61);stroke-width:6.49px;"/>
            </g>
            <g transform="matrix(-1.43422,0.0546694,-0.0427526,-1.11933,2176.98,3325.21)">
                <path d="M196.902,2203.57C210.905,2300.38 291.441,2407.57 361.841,2469.36C371.04,2477.43 435.278,2472.76 457.693,2471C504.722,2467.32 459.878,2232.07 459.878,2232.07L196.902,2203.57Z" style="fill:white;stroke:white;stroke-width:6.57px;"/>
            </g>
            <g transform="matrix(-1.48478,0.0565967,-0.0424422,-1.1112,2198.67,3304.12)">
                <path d="M459.878,2232.07C450.153,2310.97 451.659,2393.3 459.546,2472.88C459.546,2472.88 550.19,2474.36 567.473,2471.18C599.808,2465.25 667.239,2329 675.859,2229.85L459.878,2232.07Z" style="fill:rgb(195,4,35);stroke:rgb(195,4,35);stroke-width:6.45px;"/>
            </g>
        </g>
        <g transform="matrix(1.07733,-0.0406865,0.0366913,0.971545,394.798,-1437.14)">
            <path d="M1163.38,2436.68C1163.38,2423.2 1193.35,2425.84 1180.13,2414.95C1179.1,2414.11 1220.47,2419.6 1219.43,2418.82C1219.43,2418.82 1086.57,2341.06 891.183,2340.56C651.377,2339.96 637.268,2397.17 637.268,2397.17C624.28,2406 550.867,2418.14 550.867,2432.66C541.724,2477.42 495.06,2469.12 503.183,2514.56C503.183,2529.09 530.667,2557.97 543.506,2556.47C581.635,2552.03 590.569,2501.7 880.137,2505.7C1177.69,2509.79 1182.42,2562.91 1210.29,2564.65C1223.04,2565.45 1192.53,2530.14 1192.53,2515.62C1200.38,2478.53 1172.27,2490.89 1163.38,2436.68Z" style="fill:rgb(49,50,61);fill-opacity:0.301961;"/>
        </g>
        <path d="M1845.2,1004.84C1842.05,1033.16 1062.59,1066.79 1010.4,1038.91C1042.68,921.479 1778.94,933.38 1733.4,982.309C1730.73,985.186 1729.67,972.925 1726.87,971.507L1845.2,1004.84Z" style="fill:rgb(49,50,61);stroke:rgb(49,50,61);stroke-width:8.3px;"/>
        <g transform="matrix(1.07733,-0.0406865,0.0366913,0.971545,394.798,-1449.14)">
            <path d="M1282.77,2419.72C1282.77,2406.24 1282.22,2396.62 1269,2385.74C1267.97,2384.89 1255.33,2377.14 1254.3,2376.37C1254.3,2376.37 1076.94,2296.74 881.554,2296.24C641.748,2295.64 483.251,2377 483.251,2377C470.264,2385.83 454.773,2405.19 454.773,2419.72C445.63,2464.48 446.65,2509.64 454.773,2555.08C454.773,2569.61 470.412,2582.9 483.251,2581.4C521.38,2576.95 590.569,2501.7 880.137,2505.7C1177.69,2509.79 1225.26,2577.05 1253.12,2578.8C1265.87,2579.6 1282.77,2569.61 1282.77,2555.08C1290.62,2517.99 1291.66,2473.94 1282.77,2419.72Z" style="fill:rgb(5,46,152);stroke:rgb(49,50,61);stroke-width:8.08px;"/>
        </g>
        <path d="M1139.05,683.668C1092.64,723.572 1058.19,770.363 1035.05,823.668L987.047,851.668C963.012,923.113 962.703,994.001 999.047,1043.67L1069.05,1013.67C1058.11,895.305 1089.67,784.599 1139.05,683.668Z" style="fill:rgb(49,50,61);fill-opacity:0.447059;"/>
        <path d="M1577.05,600.668C1661.29,668.46 1736.77,715.03 1799.05,804.668C1824.67,809.937 1842.18,818.39 1855.05,828.668C1873.41,898.349 1875.88,941.926 1860.05,991.668L1844.59,998.686L1793.05,983.668C1818.59,920.54 1809.41,858.804 1762.03,792.351C1718.51,731.295 1648.87,667.946 1577.05,600.668Z" style="fill:white;fill-opacity:0.145098;"/>
    </g>
    <g transform="matrix(4.01523,0,0,4.09845,-203.756,-507.358)">
        <g id="Transparent-Layer" serif:id="Transparent Layer">
            <rect x="50.746" y="123.793" width="89.659" height="87.838" style="fill:rgb(235,235,235);fill-opacity:0;"/>
        </g>
    </g>
</svg>
