<?xml version="1.0" encoding="UTF-8" standalone="no"?>
<!DOCTYPE svg PUBLIC "-//W3C//DTD SVG 1.1//EN" "http://www.w3.org/Graphics/SVG/1.1/DTD/svg11.dtd">
<svg width="100%" height="100%" viewBox="0 0 360 360" version="1.1" xmlns="http://www.w3.org/2000/svg" xmlns:xlink="http://www.w3.org/1999/xlink" xml:space="preserve" xmlns:serif="http://www.serif.com/" style="fill-rule:evenodd;clip-rule:evenodd;">
    <g id="spikedcuffs2" transform="matrix(0.467942,0,0,0.467942,-2465.11,-2036.09)">
        <g transform="matrix(2.22484,0,3.04759e-16,2.01829,5266.6,4260.32)">
            <ellipse cx="176.131" cy="263.059" rx="149.507" ry="36.865" style="fill:rgb(0,0,1);fill-opacity:0.305882;"/>
        </g>
        <g transform="matrix(1.17095,-0.123728,0.123728,1.17095,-1471.96,-101.283)">
            <g id="dp_path022" transform="matrix(0.999572,-0.0292656,0.0292656,0.999572,-135.428,158.955)">
                <path d="M5376.43,4645.26C5376.98,4639.71 5416.96,4646.8 5469.3,4651.7C5521.64,4656.6 5566.53,4657.45 5565.97,4663L5556.14,4761.16C5555.58,4766.71 5512.7,4767.24 5460.36,4762.34C5408.02,4757.44 5366.04,4748.97 5366.59,4743.42L5376.43,4645.26Z" style="fill:rgb(49,50,61);stroke:rgb(52,53,64);stroke-width:7px;"/>
            </g>
            <g id="dp_path023" transform="matrix(0.999572,-0.0292656,0.0292656,0.999572,-135.428,158.955)">
                <path d="M5565.97,4663C5565.42,4668.55 5522.53,4669.08 5470.19,4664.18C5417.85,4659.28 5375.87,4650.81 5376.43,4645.26" style="fill:rgb(49,50,61);stroke:rgb(52,53,64);stroke-width:1.33px;"/>
            </g>
            <g id="dp_path021" transform="matrix(-0.228417,-0.0422897,-0.169517,0.915606,7578.76,565.467)">
                <path d="M5335.89,4719.58C5317.12,4720.78 5295.29,4811.89 5305.72,4805.42C5303.55,4790.68 5470.07,4716.15 5677.63,4730.18C5678.58,4730.24 5367.73,4717.55 5335.89,4719.58Z" style="fill:rgb(250,235,235);fill-opacity:0.0588235;"/>
            </g>
            <g transform="matrix(0.999809,-0.0195255,0.0195255,0.999809,-752.211,118.544)">
                <g id="dp_path030" transform="matrix(1.07546,-0.157064,0.163808,1.12164,-518.365,283.643)">
                    <path d="M5461.41,4676.81C5479.2,4676.63 5493.8,4690.29 5494.02,4707.35C5494.25,4724.4 5480.01,4738.37 5462.23,4738.56C5444.44,4738.75 5429.84,4725.08 5429.62,4708.03C5429.39,4690.98 5443.63,4677 5461.41,4676.81Z" style="fill:url(#_Radial1);stroke:rgb(52,53,64);stroke-width:6.3px;"/>
                </g>
                <g id="dp_path033" transform="matrix(0.577432,-0.00908528,0.00946853,0.60179,2928.35,1921.68)">
                    <path d="M5461.74,4701.87C5465.09,4701.84 5467.84,4704.41 5467.88,4707.62C5467.92,4710.83 5465.24,4713.46 5461.9,4713.5C5458.55,4713.53 5455.8,4710.96 5455.76,4707.75C5455.71,4704.54 5458.39,4701.91 5461.74,4701.87Z" style="fill:rgb(176,179,179);"/>
                </g>
            </g>
            <g transform="matrix(0.990298,0.138959,-0.138959,0.990298,57.198,-804.783)">
                <g id="dp_path036" transform="matrix(-0.994249,-0.107091,-0.107091,0.994249,12055.7,615.413)">
                    <path d="M5609.54,4725.18L5537.5,4742.27C5536.27,4722.4 5538.91,4702.82 5546.9,4683.64L5609.54,4725.18Z" style="fill:url(#_Linear2);stroke:rgb(52,53,64);stroke-width:3.63px;"/>
                </g>
                <g id="dp_path013" transform="matrix(1.04135,-0.00623729,0.0059895,0.999982,872.688,-1090.32)">
                    <path d="M4924.62,5811.98C4924.02,5810.23 4922.17,5809.43 4920.49,5810.2L4898.55,5820.33C4896.87,5821.11 4896,5823.16 4896.6,5824.92C4897.2,5826.67 4899.05,5827.47 4900.73,5826.7L4922.67,5816.57C4924.35,5815.79 4925.22,5813.74 4924.62,5811.98Z" style="fill:rgb(176,179,179);"/>
                </g>
            </g>
            <g transform="matrix(0.989477,0.144688,-0.144688,0.989477,87.4769,-839.323)">
                <g id="dp_path0361" serif:id="dp_path036" transform="matrix(0.975929,-0.21809,0.21809,0.975929,-235.555,1311.07)">
                    <path d="M5609.54,4725.18L5537.5,4742.27C5536.27,4722.4 5538.91,4702.82 5546.9,4683.64L5609.54,4725.18Z" style="fill:url(#_Linear3);stroke:rgb(52,53,64);stroke-width:3.63px;"/>
                </g>
                <g id="dp_path0131" serif:id="dp_path013" transform="matrix(-1.03565,0.108953,0.104625,0.994512,10696.1,-1632)">
                    <path d="M4924.62,5811.98C4924.02,5810.23 4922.17,5809.43 4920.49,5810.2L4898.55,5820.33C4896.87,5821.11 4896,5823.16 4896.6,5824.92C4897.2,5826.67 4899.05,5827.47 4900.73,5826.7L4922.67,5816.57C4924.35,5815.79 4925.22,5813.74 4924.62,5811.98Z" style="fill:rgb(176,179,179);"/>
                </g>
            </g>
        </g>
        <g transform="matrix(1.17733,0.0180066,-0.0180066,1.17733,-1024.86,-847.607)">
            <g id="dp_path0221" serif:id="dp_path022" transform="matrix(0.989503,-0.144511,0.144511,0.989503,-219.58,818.467)">
                <path d="M5376.43,4645.26C5376.98,4639.71 5416.96,4646.8 5469.3,4651.7C5521.64,4656.6 5566.53,4657.45 5565.97,4663L5556.14,4761.16C5555.58,4766.71 5512.7,4767.24 5460.36,4762.34C5408.02,4757.44 5366.04,4748.97 5366.59,4743.42L5376.43,4645.26Z" style="fill:rgb(52,53,64);stroke:rgb(52,53,64);stroke-width:7px;"/>
            </g>
            <g id="dp_path0231" serif:id="dp_path023" transform="matrix(0.989503,-0.144511,0.144511,0.989503,-219.58,818.467)">
                <path d="M5565.97,4663C5565.42,4668.55 5522.53,4669.08 5470.19,4664.18C5417.85,4659.28 5375.87,4650.81 5376.43,4645.26" style="fill:rgb(52,53,64);stroke:rgb(52,53,64);stroke-width:1.33px;"/>
            </g>
            <g id="dp_path0211" serif:id="dp_path021" transform="matrix(-0.221726,-0.0165781,-0.0648229,0.866981,7447.22,629.44)">
                <path d="M5335.89,4719.58C5317.12,4720.78 5295.29,4811.89 5305.72,4805.42C5303.55,4790.68 5470.07,4716.15 5677.63,4730.18C5678.58,4730.24 5367.73,4717.55 5335.89,4719.58Z" style="fill:rgb(250,235,235);fill-opacity:0.0588235;"/>
            </g>
            <g transform="matrix(1,0,0,1,-254.848,-18.4794)">
                <g id="dp_path0301" serif:id="dp_path030" transform="matrix(1.07546,-0.157064,0.163808,1.12164,-518.365,283.643)">
                    <path d="M5461.41,4676.81C5479.2,4676.63 5493.8,4690.29 5494.02,4707.35C5494.25,4724.4 5480.01,4738.37 5462.23,4738.56C5444.44,4738.75 5429.84,4725.08 5429.62,4708.03C5429.39,4690.98 5443.63,4677 5461.41,4676.81Z" style="fill:url(#_Radial4);stroke:rgb(52,53,64);stroke-width:6.3px;"/>
                </g>
                <g id="dp_path0331" serif:id="dp_path033" transform="matrix(0.577432,-0.00908528,0.00946853,0.60179,2928.33,1921.68)">
                    <path d="M5461.74,4701.87C5465.09,4701.84 5467.84,4704.41 5467.88,4707.62C5467.92,4710.83 5465.24,4713.46 5461.9,4713.5C5458.55,4713.53 5455.8,4710.96 5455.76,4707.75C5455.71,4704.54 5458.39,4701.91 5461.74,4701.87Z" style="fill:rgb(176,179,179);"/>
                </g>
            </g>
            <g transform="matrix(1,0,0,1,-253.848,-18.4794)">
                <g id="dp_path0362" serif:id="dp_path036" transform="matrix(-0.994249,-0.107091,-0.107091,0.994249,12055.7,615.413)">
                    <path d="M5609.54,4725.18L5537.5,4742.27C5536.27,4722.4 5538.91,4702.82 5546.9,4683.64L5609.54,4725.18Z" style="fill:url(#_Linear5);stroke:rgb(52,53,64);stroke-width:3.63px;"/>
                </g>
                <g id="dp_path0132" serif:id="dp_path013" transform="matrix(1.04135,-0.00623729,0.0059895,0.999982,872.688,-1090.32)">
                    <path d="M4924.62,5811.98C4924.02,5810.23 4922.17,5809.43 4920.49,5810.2L4898.55,5820.33C4896.87,5821.11 4896,5823.16 4896.6,5824.92C4897.2,5826.67 4899.05,5827.47 4900.73,5826.7L4922.67,5816.57C4924.35,5815.79 4925.22,5813.74 4924.62,5811.98Z" style="fill:rgb(176,179,179);"/>
                </g>
            </g>
            <g transform="matrix(1,0,0,1,-253.848,-18.4794)">
                <g id="dp_path0363" serif:id="dp_path036" transform="matrix(0.975929,-0.21809,0.21809,0.975929,-235.555,1311.07)">
                    <path d="M5609.54,4725.18L5537.5,4742.27C5536.27,4722.4 5538.91,4702.82 5546.9,4683.64L5609.54,4725.18Z" style="fill:url(#_Linear6);stroke:rgb(52,53,64);stroke-width:3.63px;"/>
                </g>
                <g id="dp_path0133" serif:id="dp_path013" transform="matrix(-1.03565,0.108953,0.104625,0.994512,10696.1,-1632)">
                    <path d="M4924.62,5811.98C4924.02,5810.23 4922.17,5809.43 4920.49,5810.2L4898.55,5820.33C4896.87,5821.11 4896,5823.16 4896.6,5824.92C4897.2,5826.67 4899.05,5827.47 4900.73,5826.7L4922.67,5816.57C4924.35,5815.79 4925.22,5813.74 4924.62,5811.98Z" style="fill:rgb(176,179,179);"/>
                </g>
            </g>
        </g>
    </g>
    <g transform="matrix(4.01523,0,0,4.09845,-203.756,-507.358)">
        <rect x="50.746" y="123.793" width="89.659" height="87.838" style="fill:rgb(235,235,235);fill-opacity:0;"/>
    </g>
    <defs>
        <radialGradient id="_Radial1" cx="0" cy="0" r="1" gradientUnits="userSpaceOnUse" gradientTransform="matrix(27.2159,-5.61913,5.5354,26.6843,5462.52,4708.64)"><stop offset="0" style="stop-color:rgb(166,170,184);stop-opacity:1"/><stop offset="1" style="stop-color:rgb(109,115,137);stop-opacity:1"/></radialGradient>
        <linearGradient id="_Linear2" x1="0" y1="0" x2="1" y2="0" gradientUnits="userSpaceOnUse" gradientTransform="matrix(2.11016,-18.547,-18.547,-2.11016,5556.84,4726.06)"><stop offset="0" style="stop-color:rgb(109,115,137);stop-opacity:1"/><stop offset="1" style="stop-color:rgb(166,170,184);stop-opacity:1"/></linearGradient>
        <linearGradient id="_Linear3" x1="0" y1="0" x2="1" y2="0" gradientUnits="userSpaceOnUse" gradientTransform="matrix(2.11016,-18.547,-18.547,-2.11016,5556.84,4726.06)"><stop offset="0" style="stop-color:rgb(109,115,137);stop-opacity:1"/><stop offset="1" style="stop-color:rgb(166,170,184);stop-opacity:1"/></linearGradient>
        <radialGradient id="_Radial4" cx="0" cy="0" r="1" gradientUnits="userSpaceOnUse" gradientTransform="matrix(27.2159,-5.61913,5.5354,26.6843,5462.52,4708.64)"><stop offset="0" style="stop-color:rgb(166,170,184);stop-opacity:1"/><stop offset="1" style="stop-color:rgb(109,115,137);stop-opacity:1"/></radialGradient>
        <linearGradient id="_Linear5" x1="0" y1="0" x2="1" y2="0" gradientUnits="userSpaceOnUse" gradientTransform="matrix(2.11016,-18.547,-18.547,-2.11016,5556.84,4726.06)"><stop offset="0" style="stop-color:rgb(109,115,137);stop-opacity:1"/><stop offset="1" style="stop-color:rgb(166,170,184);stop-opacity:1"/></linearGradient>
        <linearGradient id="_Linear6" x1="0" y1="0" x2="1" y2="0" gradientUnits="userSpaceOnUse" gradientTransform="matrix(2.11016,-18.547,-18.547,-2.11016,5556.84,4726.06)"><stop offset="0" style="stop-color:rgb(109,115,137);stop-opacity:1"/><stop offset="1" style="stop-color:rgb(166,170,184);stop-opacity:1"/></linearGradient>
    </defs>
</svg>
