<?xml version="1.0" encoding="UTF-8" standalone="no"?>
<!DOCTYPE svg PUBLIC "-//W3C//DTD SVG 1.1//EN" "http://www.w3.org/Graphics/SVG/1.1/DTD/svg11.dtd">
<svg width="100%" height="100%" viewBox="0 0 360 360" version="1.1" xmlns="http://www.w3.org/2000/svg" xmlns:xlink="http://www.w3.org/1999/xlink" xml:space="preserve" xmlns:serif="http://www.serif.com/" style="fill-rule:evenodd;clip-rule:evenodd;stroke-linejoin:round;">
    <g id="Stars">
        <g transform="matrix(0.981735,0,1.16511e-16,0.771605,10.4989,97.6289)">
            <ellipse cx="176.131" cy="263.059" rx="149.507" ry="36.865" style="fill:rgb(0,0,1);fill-opacity:0.305882;"/>
        </g>
        <g id="dp_path002" transform="matrix(0.551686,0,0,0.551686,-47.8959,-2030.52)">
            <path d="M379.604,3890.51C357.495,3874.7 471.667,3906.65 495.476,3890.52C519.285,3874.38 513.201,3793.69 522.461,3793.69C531.721,3793.69 529.075,3872 551.032,3890.51C572.989,3909.03 651.276,3896.41 654.207,3904.8C657.645,3914.65 581.024,3927.52 568.492,3947.66C553.644,3971.52 616.951,4055.07 611.349,4061.94C604.331,4070.56 550.768,3990.78 522.461,3988.93C494.155,3987.08 449.709,4056.92 441.508,4050.83C433.307,4044.75 486.427,3976.11 473.255,3952.42C462.448,3932.98 402.577,3906.95 379.604,3890.51Z" style="fill:url(#_Radial1);stroke:rgb(49,50,61);stroke-width:9.06px;"/>
        </g>
        <g id="dp_path011" transform="matrix(0.551686,0,0,0.551686,-315.8,-2886.27)">
            <path d="M715.405,5375.74C706.656,5369.49 751.839,5382.13 761.261,5375.74C770.684,5369.36 768.276,5337.44 771.941,5337.44C775.605,5337.44 774.559,5368.42 783.248,5375.74C791.937,5383.07 822.92,5378.07 824.08,5381.4C825.44,5385.29 795.117,5390.38 790.157,5398.35C784.281,5407.79 809.336,5440.85 807.119,5443.57C804.341,5446.98 783.144,5415.41 771.941,5414.68C760.739,5413.95 743.149,5441.58 739.904,5439.17C736.659,5436.76 757.68,5409.61 752.468,5400.23C748.191,5392.55 724.497,5382.25 715.405,5375.74Z" style="fill:rgb(250,221,16);stroke:rgb(49,50,61);stroke-width:9.06px;"/>
        </g>
        <g id="dp_path016" transform="matrix(0.551686,0,0,0.551686,-60.1662,-2251.23)">
            <path d="M428.455,4482.53C442.343,4472.58 362.793,4485.31 346.024,4470.3C329.253,4455.3 333.653,4392.5 327.836,4392.5C322.019,4392.5 328.776,4454.41 311.123,4470.3C293.471,4486.19 223.763,4482.54 221.921,4487.83C219.761,4494.02 292.283,4493.58 300.156,4506.25C309.483,4521.25 255.472,4594.71 258.992,4599.04C263.401,4604.46 308.916,4536.85 329.072,4532.21C349.228,4527.56 374.775,4574.97 379.927,4571.14C385.079,4567.32 351.708,4524.14 359.983,4509.24C366.772,4497.01 414.023,4492.87 428.455,4482.53Z" style="fill:rgb(250,221,16);stroke:rgb(49,50,61);stroke-width:9.06px;"/>
        </g>
    </g>
    <g transform="matrix(4.01523,0,0,4.09845,-203.756,-507.358)">
        <rect x="50.746" y="123.793" width="89.659" height="87.838" style="fill:rgb(235,235,235);fill-opacity:0;"/>
    </g>
    <defs>
        <radialGradient id="_Radial1" cx="0" cy="0" r="1" gradientUnits="userSpaceOnUse" gradientTransform="matrix(274.992,0,0,274.992,515.549,3928.14)"><stop offset="0" style="stop-color:rgb(252,223,54);stop-opacity:1"/><stop offset="1" style="stop-color:rgb(255,240,159);stop-opacity:1"/></radialGradient>
    </defs>
</svg>
