<?xml version="1.0" encoding="UTF-8" standalone="no"?>
<svg version="1.1" xmlns="http://www.w3.org/2000/svg" xmlns:xlink="http://www.w3.org/1999/xlink" xmlns:i="http://ns.adobe.com/AdobeIllustrator/10.0/" width="360" height="360">
	<g id="dp_dp001" transform="matrix(1,0,0,1,-7673.96,-2504.36)">
		<path id="dp_path002" fill="white" fill-rule="evenodd" d="M 7676.41,2507.15 L 8036.41,2507.15 L 8036.41,2867.15 L 7676.41,2867.15 Z "/>
		<path id="dp_path003" fill="#e5e5e5" fill-rule="evenodd" stroke="#e5e5e5" stroke-width="8" d="M 7858.63,2766.37 C 7933.74,2766.37 7994.63,2781.71 7994.63,2800.62 C 7994.63,2819.54 7933.74,2834.87 7858.63,2834.87 C 7783.52,2834.87 7722.63,2819.54 7722.63,2800.62 C 7722.63,2781.71 7783.52,2766.37 7858.63,2766.37 Z "/>
		<path id="dp_path004" fill="#f7ebda" fill-rule="evenodd" stroke="#31323d" stroke-width="3.33333" d="M 7822.86,2663.52 C 7784.55,2773.54 7801.71,2798.66 7854.41,2805.85 S 7941.24,2737.69 7894.79,2670.27 C 7867.31,2669.08 7850.25,2664.71 7822.86,2663.52 Z "/>
		<path id="dp_path005" fill="#31323d" fill-rule="evenodd" fill-opacity="0.282353" d="M 7824.36,2709.5 C 7785.41,2753.79 7803.21,2802.38 7847.49,2805.06 S 7866.17,2805.89 7842.66,2782.24 C 7814.73,2781.76 7852.2,2709.97 7824.36,2709.5 Z "/>
		<path id="dp_path006" fill="white" fill-rule="evenodd" stroke="#31323d" stroke-width="3.33333" d="M 7834.13,2664.18 C 7805.45,2755.96 7838.84,2780.55 7860.69,2782.67 S 7932.79,2753.61 7897.54,2658.01 C 7874.57,2656.45 7857.03,2665.73 7834.13,2664.18 Z "/>
		<path id="dp_path007" fill="#f7ebda" fill-rule="evenodd" stroke="#31323d" stroke-width="3.33333" d="M 7876.89,2655.7 C 7871.74,2646.18 7871.51,2637.95 7881.02,2632.79 C 7890.54,2627.64 7898.57,2631.71 7903.73,2641.23 C 7918.02,2661.78 7934.46,2683.08 7943.69,2707.38 C 7948.85,2716.9 7945.31,2728.8 7935.79,2733.95 C 7926.27,2739.1 7914.38,2735.56 7909.22,2726.05 Z "/>
		<path id="dp_path008" fill="#e75f5a" fill-rule="evenodd" stroke="#31323d" stroke-width="3.33333" stroke-linejoin="round" stroke-linecap="round" d="M 7859.54,2685.55 C 7876.21,2662.46 7915.79,2661.47 7931.35,2676.82 S 7945.56,2713.83 7928.89,2736.92 C 7917.24,2754.22 7879.99,2795.01 7862.98,2795.79 S 7804.88,2756.07 7792.7,2739.15 C 7775.31,2716.62 7775.41,2695.4 7790.07,2680.39 S 7842.16,2663.01 7859.54,2685.55 Z "/>
		<path id="dp_path009" fill="#31323d" fill-rule="evenodd" fill-opacity="0.501961" d="M 7862.98,2795.79 C 7863.89,2800.9 7804.24,2761.22 7792.7,2739.15 C 7768.59,2706.93 7786.57,2684.17 7790.07,2680.39 S 7779.49,2693.89 7792.9,2718.72 C 7811.94,2753.99 7862.07,2790.69 7862.98,2795.79 Z "/>
		<path id="dp_path010" fill="#f7ebda" fill-rule="evenodd" stroke="#31323d" stroke-width="3.33333" d="M 7808.74,2643.49 C 7813.19,2648.56 7822.1,2658.69 7825.97,2662.62 C 7827.68,2664.37 7832.06,2664.73 7831.91,2667.11 C 7831.71,2670.41 7829.13,2678.85 7824.75,2682.41 C 7820.38,2685.97 7811.14,2685.82 7805.66,2688.47 C 7800.52,2690.96 7795.56,2696.64 7791.89,2698.31 C 7789.39,2699.45 7785.64,2700.16 7783.6,2698.5 C 7781.19,2696.53 7777.49,2690.96 7777.42,2686.5 C 7777.33,2680.87 7778.53,2670.96 7783.07,2664.71 C 7788.29,2657.55 7801.92,2648.18 7808.74,2643.49 Z "/>
		<path id="dp_path011" fill="#f7ebda" fill-rule="evenodd" stroke="#31323d" stroke-width="3.33333" stroke-linejoin="round" stroke-linecap="round" d="M 7922.65,2569.85 C 7920.38,2580.23 7909.24,2599.68 7907.72,2604.65 S 7869.64,2579.65 7867.18,2574.47 S 7874.63,2567.58 7887.56,2564.48 C 7903.72,2560.61 7924.97,2559.26 7922.65,2569.85 Z "/>
		<path id="dp_path012" fill="white" fill-rule="evenodd" stroke="#31323d" stroke-width="3.33333" stroke-linejoin="round" stroke-linecap="round" d="M 7916.51,2573.11 C 7914.96,2580.07 7907.6,2593.16 7906.57,2596.5 S 7900.57,2591.67 7894.11,2585.63 C 7888.51,2580.4 7881.12,2578.15 7880.39,2576.55 S 7885.29,2571.89 7893.71,2569.74 C 7904.25,2567.04 7918.08,2566.01 7916.51,2573.11 Z "/>
		<path id="dp_path013" fill="#f7ebda" fill-rule="evenodd" stroke="#31323d" stroke-width="3.33333" stroke-linejoin="round" stroke-linecap="round" d="M 7772.97,2585.47 C 7783.29,2582.91 7805.66,2584.26 7810.79,2583.42 S 7805.27,2628.64 7801.73,2633.14 S 7792.24,2629.52 7783.73,2619.31 C 7773.09,2606.54 7762.46,2588.09 7772.97,2585.47 Z "/>
		<path id="dp_path014" fill="#f7ebda" fill-rule="evenodd" stroke="#31323d" stroke-width="3.33333" d="M 7844.29,2566.15 C 7874.43,2561.03 7902.73,2579.6 7907.5,2607.64 C 7912.27,2635.69 7891.7,2662.57 7861.56,2667.7 C 7831.42,2672.82 7803.12,2654.24 7798.36,2626.2 C 7793.59,2598.16 7814.16,2571.28 7844.29,2566.15 Z "/>
		<path id="dp_path015" fill="white" fill-rule="evenodd" stroke="#31323d" stroke-width="3.33333" d="M 7856.9,2620.94 C 7874.02,2618.03 7889.79,2626.76 7892.12,2640.45 C 7894.45,2654.13 7882.45,2667.59 7865.32,2670.5 C 7848.2,2673.41 7832.43,2664.68 7830.1,2650.99 C 7827.77,2637.31 7839.77,2623.85 7856.9,2620.94 Z "/>
		<path id="dp_path016" fill="#31323d" fill-rule="evenodd" stroke="#31323d" stroke-width="3.33333" d="M 7839.92,2624.14 C 7843.95,2623.45 7847.68,2625.62 7848.25,2628.98 C 7848.82,2632.34 7846.02,2635.61 7841.99,2636.3 C 7837.96,2636.98 7834.23,2634.82 7833.66,2631.46 C 7833.09,2628.1 7835.89,2624.83 7839.92,2624.14 Z "/>
		<path id="dp_path017" fill="#31323d" fill-rule="evenodd" stroke="#31323d" stroke-width="3.33333" d="M 7873.11,2617.87 C 7877.06,2617.2 7880.72,2619.38 7881.29,2622.74 C 7881.86,2626.09 7879.13,2629.36 7875.18,2630.03 C 7871.23,2630.7 7867.57,2628.52 7867,2625.17 C 7866.43,2621.81 7869.17,2618.54 7873.11,2617.87 Z "/>
		<path id="dp_path018" fill="white" fill-rule="evenodd" stroke="#31323d" stroke-width="3.33333" stroke-linejoin="round" stroke-linecap="round" d="M 7778.55,2592.05 C 7785.48,2590.35 7800.48,2591.15 7803.92,2590.58 S 7802.26,2598.11 7799.71,2606.58 C 7797.51,2613.91 7798.77,2621.53 7797.66,2622.89 S 7791.31,2620.58 7785.64,2613.98 C 7778.55,2605.73 7771.49,2593.79 7778.55,2592.05 Z "/>
		<path id="dp_path019" fill="none" fill-rule="evenodd" stroke="#31323d" stroke-width="3.33333" stroke-linejoin="round" stroke-linecap="round" d="M 7864.11,2656 C 7863.8,2653.55 7863.17,2648.65 7863.17,2648.65"/>
		<path id="dp_path020" fill="none" fill-rule="evenodd" stroke="#31323d" stroke-width="3.33333" stroke-linejoin="round" stroke-linecap="round" d="M 7873.65,2658.76 C 7870.8,2659.18 7864.67,2657.43 7864.47,2656.25"/>
		<path id="dp_path021" fill="none" fill-rule="evenodd" stroke="#31323d" stroke-width="3.33333" stroke-linejoin="round" stroke-linecap="round" d="M 7858.52,2660.71 C 7860.39,2660.39 7863.78,2657.72 7863.66,2657.02"/>
		<path id="dp_path022" fill="#ffccd8" fill-rule="evenodd" stroke="#31323d" stroke-width="3.33333" d="M 7862.1,2640.71 C 7867.03,2639.71 7871.54,2641.47 7872.18,2644.64 C 7872.83,2647.81 7869.36,2651.19 7864.43,2652.19 C 7859.51,2653.19 7855,2651.43 7854.35,2648.26 C 7853.71,2645.08 7857.18,2641.7 7862.1,2640.71 Z "/>
		<path id="dp_path023" fill="white" fill-rule="evenodd" stroke="white" stroke-width="3.33333" d="M 7875.66,2620.6 C 7878.17,2621.48 7878.78,2621.48 7879.21,2622.01 C 7880.31,2623.21 7876.15,2624.49 7876.39,2622.87 C 7876.45,2622.19 7876.95,2621.86 7875.66,2620.6 Z "/>
		<path id="dp_path024" fill="white" fill-rule="evenodd" stroke="white" stroke-width="3.33333" d="M 7875.66,2620.6 C 7878.17,2621.48 7878.78,2621.48 7879.21,2622.01 C 7880.31,2623.21 7876.15,2624.49 7876.39,2622.87 C 7876.45,2622.19 7876.95,2621.86 7875.66,2620.6 Z "/>
		<path id="dp_path025" fill="white" fill-rule="evenodd" stroke="white" stroke-width="3.33333" d="M 7842.66,2626.64 C 7845.17,2627.52 7845.77,2627.52 7846.2,2628.05 C 7847.3,2629.25 7843.14,2630.52 7843.39,2628.91 C 7843.45,2628.23 7843.94,2627.9 7842.66,2626.64 Z "/>
		<path id="dp_path026" fill="#f7ebda" fill-rule="evenodd" stroke="#31323d" stroke-width="3.33333" d="M 7933.85,2767.52 C 7943.29,2779.02 7937.93,2793.61 7926.57,2809.43 C 7914.38,2826.42 7888.11,2829.15 7877.19,2815.95 C 7867.71,2804.49 7872.79,2784.29 7888.43,2770.91 C 7904.08,2757.54 7924.41,2756.02 7933.85,2767.52 Z "/>
		<path id="dp_path027" fill="white" fill-rule="evenodd" stroke="white" stroke-width="3.33333" d="M 7927.9,2773.01 C 7934.89,2781.81 7931.43,2793.29 7922.59,2805.02 C 7914.61,2815.61 7895.27,2819.77 7886.12,2809.91 C 7878.48,2801.66 7882.81,2785.71 7894.35,2775.52 C 7905.88,2765.33 7920.9,2764.21 7927.9,2773.01 Z "/>
		<path id="dp_path028" fill="#ffccd8" fill-rule="evenodd" stroke="#ffccd8" stroke-width="3.33333" d="M 7902.72,2785.33 C 7910.08,2784.98 7914.06,2788.36 7914.4,2795.44 C 7914.74,2802.52 7908.5,2814.75 7905.66,2807.9 C 7903.73,2803.23 7897.96,2794.71 7890.65,2794.08 C 7883.65,2793.49 7895.37,2785.69 7902.72,2785.33 Z "/>
		<path id="dp_path029" fill="#ffccd8" fill-rule="evenodd" stroke="#ffccd8" stroke-width="3.33333" d="M 7906.49,2772.63 C 7907.84,2773.13 7908.27,2775.37 7907.44,2777.64 C 7906.61,2779.9 7904.83,2781.33 7903.47,2780.84 C 7902.11,2780.34 7901.69,2778.1 7902.52,2775.83 C 7903.35,2773.57 7905.13,2772.13 7906.49,2772.63 Z "/>
		<path id="dp_path030" fill="#ffccd8" fill-rule="evenodd" stroke="#ffccd8" stroke-width="3.33333" d="M 7915.13,2774.6 C 7916.37,2775.34 7916.37,2777.62 7915.13,2779.69 C 7913.89,2781.76 7911.88,2782.84 7910.64,2782.09 C 7909.4,2781.35 7909.39,2779.07 7910.63,2777 C 7911.87,2774.93 7913.88,2773.85 7915.13,2774.6 Z "/>
		<path id="dp_path031" fill="#ffccd8" fill-rule="evenodd" stroke="#ffccd8" stroke-width="3.33333" d="M 7923.21,2780.1 C 7924.17,2781.18 7923.48,2783.36 7921.67,2784.96 C 7919.86,2786.55 7917.62,2786.97 7916.66,2785.89 C 7915.7,2784.8 7916.39,2782.63 7918.2,2781.03 C 7920.01,2779.43 7922.25,2779.01 7923.21,2780.1 Z "/>
		<path id="dp_path032" fill="#ffccd8" fill-rule="evenodd" stroke="#ffccd8" stroke-width="3.33333" d="M 7925.6,2788.94 C 7926.36,2790.17 7925.29,2792.19 7923.23,2793.45 C 7921.17,2794.7 7918.89,2794.71 7918.14,2793.48 C 7917.39,2792.24 7918.45,2790.22 7920.51,2788.97 C 7922.57,2787.71 7924.85,2787.7 7925.6,2788.94 Z "/>
		<path id="dp_path033" fill="#f7ebda" fill-rule="evenodd" stroke="#31323d" stroke-width="3.33333" d="M 7788.99,2766.39 C 7799.17,2755.54 7814.33,2758.96 7831.49,2768.18 C 7849.92,2778.06 7856.03,2803.75 7844.35,2816.29 C 7834.22,2827.18 7813.53,2824.76 7798.24,2810.98 C 7782.95,2797.2 7778.81,2777.24 7788.99,2766.39 Z "/>
		<path id="dp_path034" fill="white" fill-rule="evenodd" stroke="white" stroke-width="3.33333" d="M 7796.45,2772.54 C 7804.14,2764.6 7815.78,2766.51 7828.34,2773.64 C 7839.69,2780.07 7846.21,2798.4 7837.76,2808.57 C 7830.69,2817.08 7814.58,2814.89 7803.18,2804.94 C 7791.77,2794.99 7788.76,2780.49 7796.45,2772.54 Z "/>
		<path id="dp_path035" fill="#ffccd8" fill-rule="evenodd" stroke="#ffccd8" stroke-width="3.33333" d="M 7810.69,2794.94 C 7809.38,2787.7 7812.22,2783.31 7819.2,2782.05 C 7826.17,2780.79 7839.11,2785.4 7832.68,2789.1 C 7828.31,2791.63 7820.6,2798.45 7820.93,2805.78 C 7821.25,2812.8 7811.99,2802.19 7810.69,2794.94 Z "/>
		<path id="dp_path036" fill="#ffccd8" fill-rule="evenodd" stroke="#ffccd8" stroke-width="3.33333" d="M 7797.61,2792.86 C 7797.93,2791.45 7800.09,2790.73 7802.45,2791.27 C 7804.8,2791.8 7806.45,2793.37 7806.13,2794.78 C 7805.81,2796.2 7803.65,2796.91 7801.29,2796.38 C 7798.94,2795.85 7797.29,2794.27 7797.61,2792.86 Z "/>
		<path id="dp_path037" fill="#ffccd8" fill-rule="evenodd" stroke="#ffccd8" stroke-width="3.33333" d="M 7798.43,2784.04 C 7799.01,2782.71 7801.27,2782.41 7803.48,2783.37 C 7805.7,2784.33 7807.02,2786.19 7806.45,2787.51 C 7805.87,2788.84 7803.61,2789.14 7801.4,2788.18 C 7799.19,2787.22 7797.86,2785.37 7798.43,2784.04 Z "/>
		<path id="dp_path038" fill="#ffccd8" fill-rule="evenodd" stroke="#ffccd8" stroke-width="3.33333" d="M 7802.84,2775.31 C 7803.79,2774.21 7806.04,2774.62 7807.86,2776.2 C 7809.68,2777.79 7810.38,2779.96 7809.43,2781.05 C 7808.48,2782.14 7806.23,2781.74 7804.41,2780.15 C 7802.59,2778.57 7801.89,2776.4 7802.84,2775.31 Z "/>
		<path id="dp_path039" fill="#ffccd8" fill-rule="evenodd" stroke="#ffccd8" stroke-width="3.33333" d="M 7811.3,2771.79 C 7812.43,2770.88 7814.57,2771.67 7816.08,2773.55 C 7817.59,2775.44 7817.9,2777.7 7816.77,2778.6 C 7815.64,2779.51 7813.5,2778.72 7811.99,2776.84 C 7810.48,2774.95 7810.17,2772.69 7811.3,2771.79 Z "/>
		<path id="dp_path040" fill="white" fill-rule="evenodd" fill-opacity="0.290196" d="M 7895.45,2682.8 C 7906.34,2674.59 7921.27,2676.01 7928.79,2685.97 C 7936.3,2695.94 7933.56,2710.68 7922.66,2718.89 C 7928.96,2714.15 7927.98,2702.22 7920.46,2692.25 C 7912.94,2682.28 7901.75,2678.05 7895.45,2682.8 Z "/>
	</g>
</svg>