<?xml version="1.0" encoding="UTF-8" standalone="no"?>
<svg version="1.1" xmlns="http://www.w3.org/2000/svg" xmlns:xlink="http://www.w3.org/1999/xlink" xmlns:i="http://ns.adobe.com/AdobeIllustrator/10.0/" width="360" height="360">
	<g id="dp_dp001" transform="matrix(1,0,0,1,-7673.96,-2504.36)">
		<path id="dp_path002" fill="white" fill-rule="evenodd" d="M 7676.41,2507.15 L 8036.41,2507.15 L 8036.41,2867.15 L 7676.41,2867.15 Z "/>
		<path id="dp_path003" fill="#31323d" fill-rule="evenodd" fill-opacity="0.294118" d="M 7849.4,2729.87 C 7931.93,2729.87 7998.84,2740.61 7998.84,2753.85 C 7998.84,2767.1 7931.93,2777.84 7849.4,2777.84 C 7766.86,2777.84 7699.95,2767.1 7699.95,2753.85 C 7699.95,2740.61 7766.86,2729.87 7849.4,2729.87 Z "/>
		<path id="dp_path004" fill="#e75f5a" fill-rule="evenodd" stroke="#31323d" stroke-width="4" stroke-linejoin="round" stroke-linecap="round" d="M 7715.67,2609.89 L 7985.26,2609.89 L 7985.26,2765.18 L 7715.67,2765.18 Z "/>
		<path id="dp_path005" fill="#e75f5a" fill-rule="evenodd" stroke="#31323d" stroke-width="4" stroke-linejoin="round" stroke-linecap="round" d="M 7850.14,2706.61 L 7985.26,2608.27 L 7715.02,2608.27 Z "/>
		<path id="dp_path006" fill="#31323d" fill-rule="evenodd" fill-opacity="0.501961" d="M 7983.51,2760.93 L 7721.71,2760.93 C 7721.71,2760.93 7721.71,2760.93 7721.71,2760.93 L 7721.71,2610.32 L 7716.36,2610.32 L 7716.36,2760.93 C 7716.36,2763.5 7718.45,2765.58 7721.02,2765.58 L 7983.51,2765.58 Z "/>
		<path id="dp_path007" fill="#ffccd8" fill-rule="evenodd" stroke="#31323d" stroke-width="2.8" stroke-linejoin="round" stroke-linecap="round" d="M 7850.8,2684.67 C 7858.36,2671.91 7873.5,2671.91 7881.06,2677.23 C 7888.63,2682.54 7888.63,2693.18 7881.06,2703.81 C 7875.77,2711.79 7862.15,2719.77 7850.8,2725.08 C 7839.45,2719.77 7825.83,2711.79 7820.53,2703.81 C 7812.96,2693.18 7812.96,2682.54 7820.53,2677.23 C 7828.1,2671.91 7843.23,2671.91 7850.8,2684.67 Z "/>
		<path id="dp_path008" fill="white" fill-rule="evenodd" fill-opacity="0.494118" d="M 7868.19,2680.58 C 7872.33,2678.5 7877.72,2680.64 7880.23,2685.34 C 7882.75,2690.05 7881.42,2695.54 7877.28,2697.61 C 7878.93,2696.78 7878.24,2692.3 7875.73,2687.59 C 7873.22,2682.89 7869.84,2679.75 7868.19,2680.58 Z "/>
		<path id="dp_path009" fill="#ffccd8" fill-rule="evenodd" stroke="#ffccd8" stroke-width="1.86667" d="M 7939.28,2727.48 C 7940.95,2721.33 7944.71,2718.98 7950.45,2720.64 C 7956.18,2722.31 7964.27,2730.81 7958.05,2731.27 C 7953.82,2731.57 7945.49,2733.98 7943.05,2739.83 C 7940.71,2745.43 7937.61,2733.63 7939.28,2727.48 Z "/>
		<path id="dp_path010" fill="#ffccd8" fill-rule="evenodd" stroke="#ffccd8" stroke-width="1.86667" d="M 7926.8,2722.99 C 7927.39,2721.56 7929.74,2721.23 7932.04,2722.25 C 7934.35,2723.27 7935.74,2725.26 7935.14,2726.69 C 7934.55,2728.12 7932.2,2728.45 7929.89,2727.43 C 7927.59,2726.41 7926.2,2724.42 7926.8,2722.99 Z "/>
		<path id="dp_path011" fill="#ffccd8" fill-rule="evenodd" stroke="#ffccd8" stroke-width="1.86667" d="M 7931.45,2713.24 C 7932.36,2712.01 7934.72,2712.27 7936.71,2713.84 C 7938.71,2715.41 7939.59,2717.69 7938.68,2718.92 C 7937.77,2720.16 7935.41,2719.89 7933.41,2718.32 C 7931.42,2716.75 7930.54,2714.48 7931.45,2713.24 Z "/>
		<path id="dp_path012" fill="#ffccd8" fill-rule="evenodd" stroke="#ffccd8" stroke-width="1.86667" d="M 7942.8,2706.43 C 7944.29,2706.21 7945.79,2708.1 7946.16,2710.66 C 7946.53,2713.22 7945.62,2715.48 7944.13,2715.71 C 7942.65,2715.94 7941.14,2714.05 7940.77,2711.49 C 7940.41,2708.93 7941.31,2706.66 7942.8,2706.43 Z "/>
		<path id="dp_path013" fill="#ffccd8" fill-rule="evenodd" stroke="#ffccd8" stroke-width="1.86667" d="M 7954.3,2707.83 C 7955.71,2708.38 7956.12,2710.79 7955.23,2713.21 C 7954.34,2715.64 7952.47,2717.15 7951.07,2716.59 C 7949.66,2716.04 7949.25,2713.63 7950.14,2711.21 C 7951.03,2708.79 7952.9,2707.27 7954.3,2707.83 Z "/>
	</g>
</svg>