<?xml version="1.0" encoding="UTF-8" standalone="no"?>
<svg version="1.1" xmlns="http://www.w3.org/2000/svg" xmlns:xlink="http://www.w3.org/1999/xlink" xmlns:i="http://ns.adobe.com/AdobeIllustrator/10.0/" width="404.329" height="406.588">
	<g id="dp_dp001" transform="matrix(1,0,0,1,-7634.8,-2504.6)">
		<path id="dp_path002" fill="white" fill-rule="evenodd" d="M 7676.41,2507.15 L 8036.41,2507.15 L 8036.41,2867.15 L 7676.41,2867.15 Z "/>
		<path id="dp_path003" fill="#e5e5e5" fill-rule="evenodd" stroke="#e5e5e5" stroke-width="8" d="M 7858.63,2751.37 C 7933.74,2751.37 7994.63,2766.71 7994.63,2785.62 C 7994.63,2804.54 7933.74,2819.87 7858.63,2819.87 C 7783.52,2819.87 7722.63,2804.54 7722.63,2785.62 C 7722.63,2766.71 7783.52,2751.37 7858.63,2751.37 Z "/>
		<path id="dp_path004" fill="#e75f5a" fill-rule="evenodd" stroke="#31323d" stroke-width="6.66667" stroke-linejoin="round" stroke-linecap="round" d="M 7861.84,2552.89 L 7971.22,2664.46 L 7752.46,2664.46 Z "/>
		<path id="dp_path005" fill="#e75f5a" fill-rule="evenodd" stroke="#31323d" stroke-width="6.66667" stroke-linejoin="round" stroke-linecap="round" d="M 7752.98,2665.13 L 7971.22,2665.13 L 7971.22,2787.21 L 7752.98,2787.21 Z "/>
		<path id="dp_path006" fill="#31323d" fill-rule="evenodd" fill-opacity="0.25098" d="M 7845.68,2724.24 L 7889.69,2724.24 L 7889.69,2741.42 L 7845.68,2741.42 Z "/>
		<path id="dp_path007" fill="white" fill-rule="evenodd" stroke="#31323d" stroke-width="6.66667" stroke-linecap="round" d="M 7768.61,2726.77 L 7768.61,2573.44 L 7954.25,2573.44 L 7954.25,2726.77 Z "/>
		<path id="dp_path008" fill="#e75f5a" fill-rule="evenodd" stroke="#31323d" stroke-width="6.66667" stroke-linejoin="round" stroke-linecap="round" d="M 7970.39,2663.8 C 7905.82,2663.8 7853.28,2718.33 7852.61,2786.05 L 7970.39,2787.35 Z "/>
		<path id="dp_path009" fill="#e75f5a" fill-rule="evenodd" stroke="#31323d" stroke-width="6.66667" stroke-linejoin="round" stroke-linecap="round" d="M 7752.53,2664.47 C 7817.1,2664.47 7869.64,2719 7870.32,2786.73 L 7752.53,2788.02 Z "/>
	</g>
	<text id="dp_text001" transform="matrix(0.996821,-0.0796771,0.0796769,0.996821,151.227,127.155)" xml:space="preserve" fill="#e75f5a" font-family="Undercurrent BTN" font-size="32" font-weight="700" x="0" y="0">U R an</text>
	<text id="dp_text002" transform="matrix(0.94452,0,0,1,194.776,173.026)" xml:space="preserve" fill="#e75f5a" font-family="Undercurrent BTN" font-size="43" font-weight="700" x="0" y="0">11!</text>
	<path id="dp_path012" transform="matrix(1,0,0,1,-7634.8,-2504.6)" fill="#31323d" fill-rule="evenodd" fill-opacity="0.501961" d="M 7869.9,2782.65 L 7759.36,2782.65 C 7759.36,2782.65 7759.36,2782.65 7759.36,2782.65 L 7759.36,2665.47 L 7753.55,2665.47 L 7753.55,2782.65 C 7753.55,2785.35 7755.73,2787.53 7758.43,2787.53 L 7869.9,2787.53 Z "/>
</svg>