<?xml version="1.0" encoding="UTF-8" standalone="no"?>
<svg version="1.1" xmlns="http://www.w3.org/2000/svg" xmlns:xlink="http://www.w3.org/1999/xlink" xmlns:i="http://ns.adobe.com/AdobeIllustrator/10.0/" width="364.8" height="364.8">
	<g id="dp_dp001" transform="matrix(1,0,0,1,-7673.96,-2504.36)">
		<path id="dp_path002" fill="white" fill-rule="evenodd" d="M 7676.41,2507.15 L 8036.41,2507.15 L 8036.41,2867.15 L 7676.41,2867.15 Z "/>
		<path id="dp_path003" fill="#e5e5e5" fill-rule="evenodd" stroke="#e5e5e5" stroke-width="8" d="M 7858.63,2751.37 C 7933.74,2751.37 7994.63,2766.71 7994.63,2785.62 C 7994.63,2804.54 7933.74,2819.87 7858.63,2819.87 C 7783.52,2819.87 7722.63,2804.54 7722.63,2785.62 C 7722.63,2766.71 7783.52,2751.37 7858.63,2751.37 Z "/>
		<path id="dp_path004" fill="#e75f5a" fill-rule="evenodd" stroke="#31323d" stroke-width="6.66667" stroke-linejoin="round" stroke-linecap="round" d="M 7861.84,2552.89 L 7971.22,2664.46 L 7752.46,2664.46 Z "/>
		<path id="dp_path005" fill="#e75f5a" fill-rule="evenodd" stroke="#31323d" stroke-width="6.66667" stroke-linejoin="round" stroke-linecap="round" d="M 7752.98,2665.13 L 7971.22,2665.13 L 7971.22,2787.21 L 7752.98,2787.21 Z "/>
		<path id="dp_path006" fill="#31323d" fill-rule="evenodd" fill-opacity="0.25098" d="M 7845.68,2724.24 L 7889.69,2724.24 L 7889.69,2741.42 L 7845.68,2741.42 Z "/>
		<path id="dp_path007" fill="white" fill-rule="evenodd" stroke="#31323d" stroke-width="6.66667" stroke-linecap="round" d="M 7768.61,2726.77 L 7768.61,2573.44 L 7954.25,2573.44 L 7954.25,2726.77 Z "/>
		<path id="dp_path008" fill="#e75f5a" fill-rule="evenodd" d="M 7815.7,2620.29 C 7815.72,2620.61 7815.63,2620.86 7815.43,2621.04 C 7815.49,2621.23 7815.54,2621.48 7815.57,2621.79 C 7815.65,2622.81 7815.53,2623.93 7815.22,2625.17 C 7815.17,2625.34 7815.09,2625.6 7815,2625.95 C 7814.91,2626.41 7814.67,2627.1 7814.27,2628.03 C 7813.6,2629.1 7812.45,2629.91 7810.83,2630.46 C 7810.11,2630.71 7808.76,2631.02 7806.77,2631.39 C 7805.99,2631.53 7805.19,2631.69 7804.37,2631.89 C 7804.23,2631.92 7804.1,2631.94 7803.97,2631.95 C 7802.99,2632.03 7801.77,2631.85 7800.32,2631.41 C 7799.25,2631.08 7798.29,2630.79 7797.44,2630.57 C 7797.42,2630.59 7797.34,2630.61 7797.19,2630.62 C 7796.93,2630.64 7796.57,2630.58 7796.11,2630.45 C 7795.57,2630.3 7795.18,2630.2 7794.92,2630.15 L 7794.89,2629.8 C 7794.89,2629.7 7794.72,2629.66 7794.4,2629.69 C 7793.97,2629.72 7793.68,2629.63 7793.54,2629.41 L 7790.16,2627.5 C 7789.26,2626.23 7788.57,2625.22 7788.07,2624.48 C 7787.55,2623.72 7787.23,2622.67 7787.12,2621.32 C 7786.94,2619.12 7787.57,2616.7 7789,2614.05 C 7788.95,2613.98 7788.91,2613.84 7788.89,2613.65 C 7788.85,2613.13 7789.17,2612.75 7789.83,2612.51 C 7790.47,2612.27 7790.84,2612.1 7790.97,2611.97 C 7791.61,2612.09 7792,2612.41 7792.15,2612.95 C 7792.3,2613.49 7792.51,2613.77 7792.79,2613.82 C 7792.9,2614.02 7792.95,2614.17 7792.96,2614.27 C 7793,2614.7 7792.79,2615.11 7792.34,2615.51 C 7791.79,2616.03 7791.49,2616.34 7791.45,2616.46 C 7791.4,2616.73 7791.33,2617.07 7791.25,2617.48 C 7790.87,2619.32 7790.71,2620.69 7790.79,2621.57 C 7790.85,2622.42 7790.98,2622.98 7791.17,2623.25 C 7791.57,2623.84 7792.23,2624.59 7793.14,2625.51 C 7796.14,2627.73 7800.5,2628.61 7806.21,2628.15 C 7806.32,2627.73 7806.72,2627.51 7807.43,2627.49 C 7807.91,2627.47 7808.27,2627.34 7808.52,2627.11 L 7808.89,2627.36 C 7811.05,2625.72 7811.97,2623.06 7811.68,2619.36 C 7811.6,2618.33 7811.43,2617.39 7811.19,2616.52 C 7811,2615.89 7810.41,2615.27 7809.41,2614.66 C 7808.32,2613.99 7807.75,2613.32 7807.7,2612.68 C 7807.67,2612.25 7807.91,2611.55 7808.42,2610.58 C 7808.62,2610.18 7808.9,2609.91 7809.25,2609.77 C 7809.68,2609.57 7810.03,2609.35 7810.29,2609.09 C 7812.29,2609.87 7813.68,2611.32 7814.46,2613.45 C 7814.88,2614.27 7815.23,2615.99 7815.53,2618.62 C 7815.35,2618.81 7815.26,2618.98 7815.27,2619.11 C 7815.28,2619.22 7815.35,2619.4 7815.48,2619.65 C 7815.61,2619.89 7815.68,2620.11 7815.7,2620.29 Z "/>
		<path id="dp_path009" fill="#e75f5a" fill-rule="evenodd" d="M 7866.82,2625.46 C 7866.85,2625.82 7866.75,2626.21 7866.51,2626.6 C 7866.35,2626.69 7866.07,2626.94 7865.67,2627.35 C 7865.28,2627.76 7864.89,2627.98 7864.5,2628.01 C 7864.2,2628.03 7863.95,2628 7863.77,2627.91 C 7863.6,2627.79 7863.36,2627.65 7863.05,2627.46 C 7862.36,2627.06 7861.79,2626.75 7861.35,2626.53 C 7860.17,2626.29 7858.48,2626.07 7856.26,2625.87 C 7854.43,2625.7 7853.03,2625.45 7852.06,2625.11 C 7851.98,2625.16 7851.83,2625.19 7851.6,2625.21 C 7851.36,2625.23 7851.04,2625.19 7850.66,2625.11 C 7850.27,2625.03 7850,2624.99 7849.85,2625.01 C 7849.65,2625.02 7849.4,2625.13 7849.08,2625.35 C 7848.81,2625.18 7848.51,2625.11 7848.21,2625.14 C 7847.58,2625.19 7847.27,2625.21 7847.27,2625.21 C 7846.95,2625.36 7846.51,2625.89 7845.96,2626.77 C 7845.35,2627.93 7844.67,2628.54 7843.91,2628.6 C 7843.63,2628.62 7843.35,2628.49 7843.07,2628.22 C 7842.87,2628.03 7842.78,2627.94 7842.77,2627.95 C 7842.72,2627.34 7842.25,2626.64 7841.34,2625.83 C 7840.43,2625.03 7839.95,2624.32 7839.91,2623.71 C 7839.86,2623.16 7840.02,2622.63 7840.39,2622.13 C 7839.91,2621.11 7839.42,2619.57 7838.93,2617.52 C 7838.55,2616.06 7838.18,2614.69 7837.81,2613.42 C 7837.82,2613.31 7837.82,2613.19 7837.81,2613.06 C 7837.77,2612.63 7837.43,2612.45 7836.78,2612.5 C 7836.35,2612.53 7836.03,2612.63 7835.82,2612.79 C 7835.23,2613.19 7834.86,2613.46 7834.69,2613.59 C 7834.25,2613.95 7833.95,2614.28 7833.8,2614.58 C 7833.54,2614.67 7833.33,2614.72 7833.17,2614.74 C 7832.79,2614.77 7832.39,2614.69 7831.97,2614.51 C 7831.62,2614.34 7831.26,2614.16 7830.87,2613.97 C 7830.59,2613.5 7830.42,2612.9 7830.36,2612.17 C 7830.4,2611.18 7830.36,2610.74 7830.26,2610.85 C 7830.59,2610.38 7831.24,2609.98 7832.21,2609.67 C 7832.66,2609.5 7833.1,2609.39 7833.53,2609.36 C 7833.63,2609.35 7833.75,2609.35 7833.91,2609.37 C 7834.08,2609.39 7834.2,2609.4 7834.27,2609.39 C 7834.36,2609.39 7834.48,2609.32 7834.63,2609.2 C 7834.94,2608.94 7835.21,2608.77 7835.45,2608.69 C 7835.62,2608.9 7835.73,2609 7835.8,2608.99 C 7835.87,2608.99 7836.02,2608.88 7836.24,2608.69 C 7836.47,2608.5 7836.63,2608.39 7836.71,2608.37 C 7836.91,2608.07 7837.13,2607.75 7837.36,2607.39 C 7837.7,2606.87 7838.12,2606.59 7838.61,2606.55 C 7839.03,2606.52 7839.56,2606.78 7840.17,2607.34 C 7840.79,2607.9 7841.2,2608.17 7841.42,2608.15 C 7841.6,2608.14 7841.86,2607.96 7842.19,2607.61 C 7842.98,2607.84 7844.29,2607.97 7846.14,2608 C 7847.76,2608.02 7848.92,2608.24 7849.61,2608.65 L 7849.83,2608.34 C 7853.03,2608.98 7855.54,2609.91 7857.35,2611.14 C 7857.82,2611.46 7858.14,2611.72 7858.34,2611.93 C 7858.66,2612.26 7858.84,2612.72 7858.89,2613.32 C 7858.95,2614.01 7858.71,2614.79 7858.17,2615.67 C 7857.74,2616.29 7857.33,2616.9 7856.93,2617.49 C 7856.27,2618.52 7855.13,2619.37 7853.49,2620.03 C 7851.9,2620.67 7850.89,2621.15 7850.47,2621.49 C 7852.11,2621.72 7854.7,2622.01 7858.26,2622.38 C 7858.64,2622.64 7859.28,2622.82 7860.19,2622.9 C 7861.1,2622.99 7861.7,2623.15 7862,2623.38 C 7862.18,2623.21 7862.49,2623.11 7862.92,2623.07 C 7863.25,2623.04 7863.71,2623.1 7864.28,2623.23 C 7864.85,2623.36 7865.31,2623.42 7865.67,2623.41 C 7866.38,2624.16 7866.77,2624.84 7866.82,2625.46 Z M 7853.55,2613.7 L 7853.55,2613.77 C 7853.44,2613.73 7852.75,2613.39 7851.49,2612.74 C 7850.61,2612.3 7849.89,2612.06 7849.33,2612.04 C 7848.9,2612.04 7848.26,2612.04 7847.41,2612.03 C 7845.07,2611.95 7843.72,2611.91 7843.38,2611.94 C 7842.64,2612 7842.06,2612.11 7841.62,2612.27 C 7841.85,2612.8 7842.07,2613.67 7842.29,2614.88 C 7842.56,2616.41 7842.74,2617.36 7842.83,2617.74 C 7843.22,2617.89 7843.45,2618.31 7843.5,2618.98 C 7843.43,2619.44 7843.45,2619.71 7843.57,2619.81 C 7843.65,2619.94 7843.89,2619.99 7844.31,2619.96 C 7844.52,2619.94 7844.84,2619.87 7845.28,2619.74 C 7845.71,2619.61 7846.04,2619.54 7846.29,2619.52 C 7846.51,2619.5 7846.76,2619.33 7847.03,2618.99 C 7847.29,2618.66 7847.58,2618.48 7847.89,2618.45 C 7848.09,2618.44 7848.22,2618.45 7848.29,2618.51 C 7848.56,2618.27 7849.31,2617.85 7850.54,2617.25 C 7851.58,2616.75 7852.33,2616.28 7852.76,2615.86 C 7853.35,2615.27 7853.61,2614.56 7853.55,2613.7 Z "/>
		<path id="dp_path010" fill="#e75f5a" fill-rule="evenodd" d="M 7911.42,2618.27 C 7911.38,2619.05 7911.17,2619.63 7910.78,2620.04 C 7910.67,2620.16 7910.3,2620.45 7909.69,2620.93 C 7909.55,2621.07 7909.32,2621.26 7909.01,2621.51 C 7908.71,2621.75 7908.26,2621.89 7907.68,2621.94 C 7907.2,2621.98 7906.54,2621.89 7905.7,2621.67 C 7904.86,2621.45 7904.23,2621.36 7903.83,2621.39 C 7903.73,2621.4 7903.57,2621.44 7903.34,2621.51 C 7903.12,2621.58 7902.92,2621.62 7902.77,2621.63 C 7902.09,2621.69 7901.24,2621.41 7900.22,2620.81 C 7899.2,2620.22 7898.51,2619.93 7898.13,2619.96 C 7897.66,2620 7897.19,2620.37 7896.72,2621.09 C 7896.08,2622.33 7894.74,2623.09 7892.7,2623.36 C 7892.47,2623.38 7892.16,2623.41 7891.77,2623.46 C 7891.49,2623.55 7891.09,2623.66 7890.58,2623.79 C 7889.7,2623.88 7888.39,2624.09 7886.64,2624.42 C 7886.64,2624.42 7886.59,2624.43 7886.48,2624.43 C 7885.15,2624.54 7883.51,2623.91 7881.58,2622.54 C 7881.29,2621.92 7881.12,2621.27 7881.06,2620.58 C 7880.99,2619.69 7881.06,2619.04 7881.27,2618.64 C 7881.31,2618.57 7881.48,2618.39 7881.78,2618.11 C 7882.49,2617.21 7883.44,2616.33 7884.63,2615.46 C 7885.57,2614.81 7886.53,2614.13 7887.51,2613.44 C 7888.11,2613.27 7889.11,2612.77 7890.51,2611.94 C 7891.83,2611.16 7892.88,2610.74 7893.68,2610.67 C 7894.45,2610.61 7895.18,2610.82 7895.87,2611.29 C 7895.94,2611.33 7896.04,2611.4 7896.16,2611.51 C 7896.15,2611.53 7896.58,2612.16 7897.45,2613.4 C 7897.43,2613.65 7897.42,2613.84 7897.43,2613.97 C 7897.47,2614.5 7897.8,2615.01 7898.41,2615.49 C 7899.48,2616.32 7900.03,2616.76 7900.08,2616.81 C 7900.81,2617.04 7902.32,2617.25 7904.61,2617.45 C 7904.98,2616.85 7905.65,2616.4 7906.62,2616.1 C 7907.6,2615.87 7908.45,2615.65 7909.18,2615.45 C 7909.37,2615.92 7909.76,2616.36 7910.35,2616.78 C 7911.02,2617.24 7911.38,2617.73 7911.42,2618.26 C 7911.41,2618.27 7911.41,2618.27 7911.42,2618.27 Z M 7893.7,2618.53 C 7893.27,2618.41 7892.83,2618.07 7892.38,2617.5 C 7892.04,2616.99 7891.74,2616.53 7891.5,2616.14 C 7888.62,2617.05 7886.73,2618.45 7885.81,2620.34 C 7885.98,2620.48 7886.2,2620.54 7886.48,2620.52 C 7886.62,2620.51 7886.85,2620.45 7887.17,2620.35 C 7887.48,2620.25 7887.74,2620.2 7887.93,2620.18 C 7888.3,2620.15 7888.59,2620.2 7888.79,2620.33 C 7889.26,2620.11 7889.82,2619.97 7890.49,2619.91 C 7890.56,2619.91 7890.76,2619.9 7891.09,2619.88 C 7891.42,2619.87 7891.69,2619.85 7891.91,2619.83 C 7891.97,2619.81 7892.09,2619.75 7892.28,2619.65 C 7893.07,2619.28 7893.55,2618.9 7893.7,2618.53 Z "/>
		<path id="dp_path011" fill="#e75f5a" fill-rule="evenodd" d="M 7932.95,2617.65 C 7932.99,2618.25 7932.73,2618.87 7932.17,2619.51 C 7931.77,2619.96 7931.35,2620.21 7930.92,2620.24 C 7930.57,2620.27 7930.13,2620.2 7929.62,2620.02 C 7929.21,2619.86 7928.81,2619.7 7928.43,2619.56 C 7928.05,2618.78 7927.28,2617.83 7926.13,2616.69 C 7924.97,2615.55 7924.24,2614.63 7923.91,2613.92 C 7923.51,2613.71 7922.98,2613.19 7922.31,2612.37 C 7921.72,2611.65 7921.28,2611.19 7921.01,2611.01 C 7919.66,2612.69 7918.89,2615.58 7918.7,2619.66 C 7918.2,2620.75 7917.17,2621.72 7915.61,2622.57 C 7914.98,2622.24 7914.47,2621.64 7914.07,2620.77 C 7913.69,2619.96 7913.37,2619.43 7913.1,2619.21 C 7912.95,2619.24 7912.84,2618.74 7912.76,2617.68 C 7912.71,2617.04 7912.49,2616.52 7912.09,2616.14 C 7911.72,2612.96 7910.92,2609.67 7909.69,2606.25 C 7909.6,2605.99 7909.55,2605.79 7909.53,2605.63 C 7909.49,2605.12 7909.68,2604.59 7910.09,2604.06 C 7910.5,2603.53 7910.97,2603.24 7911.51,2603.2 C 7912.08,2603.15 7912.73,2603.68 7913.47,2604.79 C 7913.36,2605.05 7913.31,2605.26 7913.32,2605.39 C 7913.33,2605.57 7913.43,2605.83 7913.6,2606.16 C 7913.71,2606.33 7913.83,2606.55 7913.97,2606.82 C 7914,2606.86 7914.08,2607.13 7914.22,2607.64 C 7914.27,2607.77 7914.34,2607.95 7914.43,2608.21 C 7914.53,2608.57 7914.61,2609.07 7914.66,2609.73 L 7914.78,2611.18 C 7914.87,2612.34 7915.05,2613.12 7915.3,2613.52 C 7915.51,2613.35 7915.7,2612.99 7915.89,2612.45 C 7916.02,2611.91 7916.15,2611.37 7916.28,2610.82 C 7916.31,2610.65 7916.41,2610.39 7916.55,2610.04 C 7916.61,2609.96 7916.69,2609.85 7916.8,2609.71 C 7916.94,2609.51 7917.11,2609.23 7917.31,2608.87 C 7917.99,2607.64 7918.41,2606.91 7918.57,2606.7 C 7919.2,2605.87 7919.96,2605.42 7920.85,2605.35 C 7921.19,2605.33 7921.59,2605.37 7922.05,2605.47 C 7922.69,2605.98 7923.47,2606.8 7924.38,2607.93 C 7925.29,2609.05 7926.05,2609.89 7926.66,2610.44 C 7926.6,2610.67 7926.57,2610.83 7926.57,2610.91 C 7926.59,2611.06 7926.76,2611.34 7927.1,2611.75 C 7927.44,2612.16 7927.62,2612.42 7927.63,2612.54 C 7927.46,2612.55 7927.42,2612.55 7927.49,2612.55 C 7927.84,2612.52 7928.15,2612.78 7928.4,2613.32 C 7928.59,2613.68 7928.68,2613.87 7928.7,2613.89 C 7928.97,2614.14 7929.53,2614.28 7930.4,2614.33 C 7931.37,2614.38 7931.97,2614.66 7932.18,2615.16 C 7932.21,2615.3 7932.27,2615.54 7932.37,2615.89 C 7932.74,2616.93 7932.93,2617.52 7932.95,2617.65 Z "/>
		<path id="dp_path012" fill="#e75f5a" fill-rule="evenodd" d="M 7858.42,2677.78 C 7858.42,2678.9 7858.13,2679.71 7857.56,2680.19 C 7857.11,2680.59 7856.34,2680.79 7855.26,2680.79 C 7854.66,2680.79 7853.82,2680.71 7852.74,2680.54 C 7851.65,2680.36 7850.85,2680.28 7850.34,2680.28 C 7849.15,2680.28 7848.1,2680.63 7847.22,2681.33 C 7846.18,2681.05 7845.41,2680.92 7844.92,2680.92 C 7844.4,2680.92 7843.9,2681.02 7843.44,2681.21 C 7843.39,2681.49 7843.08,2681.89 7842.51,2682.39 C 7841.94,2682.89 7841.44,2683.13 7841,2683.13 C 7840.79,2683.13 7840.31,2683.04 7839.57,2682.85 C 7837.78,2682.47 7836.75,2681.45 7836.49,2679.79 C 7836.85,2678.97 7837.23,2678.14 7837.62,2677.3 C 7837.99,2676.46 7838.46,2675.76 7839.03,2675.19 C 7839.38,2675.07 7839.73,2675 7840.08,2675 C 7840.41,2675 7840.86,2675.08 7841.44,2675.24 C 7842.01,2675.4 7842.42,2675.48 7842.68,2675.48 C 7843.05,2675.48 7843.36,2675.34 7843.61,2675.07 C 7843.29,2673.78 7842.97,2672.44 7842.64,2671.04 C 7842.26,2669.41 7841.79,2668.04 7841.25,2666.94 C 7841.35,2666.6 7841.41,2666.3 7841.41,2666.05 C 7841.41,2665.7 7841.21,2665.17 7840.83,2664.47 C 7840.45,2663.77 7840.26,2663.21 7840.26,2662.79 C 7840.26,2662.41 7840.36,2662.09 7840.57,2661.83 L 7839.58,2659.41 C 7838.93,2660.63 7838.09,2661.23 7837.04,2661.23 C 7835.7,2661.23 7834.5,2660.53 7833.43,2659.12 C 7833.47,2657.89 7833.51,2656.69 7833.57,2655.53 C 7833.88,2654.06 7834.68,2653.38 7835.97,2653.51 C 7836.25,2652.91 7836.57,2652.22 7836.93,2651.44 C 7837.34,2650.54 7837.54,2649.77 7837.54,2649.14 C 7837.54,2648.52 7837.3,2647.88 7836.82,2647.23 C 7836.94,2646.51 7837.26,2646.11 7837.79,2646.03 C 7838.31,2645.95 7838.58,2645.87 7838.58,2645.77 C 7838.58,2645.59 7838.56,2645.29 7838.54,2644.86 C 7839.11,2644.97 7839.5,2645.02 7839.69,2645.02 C 7839.9,2645.02 7840.23,2644.96 7840.7,2644.83 C 7841.17,2644.7 7841.53,2644.64 7841.8,2644.64 C 7842.88,2644.64 7843.55,2645.28 7843.84,2646.57 C 7844.16,2647.97 7844.48,2648.86 7844.83,2649.24 C 7844.11,2650.23 7843.75,2651.54 7843.75,2653.16 C 7843.75,2653.64 7843.76,2654.23 7843.79,2654.95 C 7843.82,2655.66 7843.83,2656.14 7843.83,2656.39 C 7843.83,2656.85 7843.82,2657.19 7843.79,2657.4 L 7844.45,2658.09 C 7844.9,2662.23 7845.91,2666.63 7847.48,2671.3 C 7847.98,2671.59 7848.61,2672.19 7849.35,2673.1 C 7849.65,2673.37 7850.12,2673.83 7850.78,2674.49 C 7851.23,2674.67 7852.52,2674.76 7854.67,2674.76 C 7855.83,2674.76 7856.84,2674.94 7857.7,2675.32 C 7857.65,2675.62 7857.62,2675.81 7857.62,2675.87 C 7857.62,2675.96 7857.73,2676.1 7857.96,2676.31 C 7858.18,2676.51 7858.32,2676.72 7858.38,2676.93 C 7858.41,2677.12 7858.42,2677.4 7858.42,2677.78 Z "/>
		<path id="dp_path013" fill="#e75f5a" fill-rule="evenodd" d="M 7885.94,2677.78 C 7885.94,2678.9 7885.65,2679.71 7885.07,2680.19 C 7884.62,2680.59 7883.86,2680.79 7882.77,2680.79 C 7882.18,2680.79 7881.34,2680.71 7880.25,2680.54 C 7879.17,2680.36 7878.37,2680.28 7877.86,2680.28 C 7876.66,2680.28 7875.62,2680.63 7874.73,2681.33 C 7873.69,2681.05 7872.93,2680.92 7872.43,2680.92 C 7871.91,2680.92 7871.42,2681.02 7870.95,2681.21 C 7870.91,2681.49 7870.6,2681.89 7870.03,2682.39 C 7869.45,2682.89 7868.95,2683.13 7868.51,2683.13 C 7868.3,2683.13 7867.83,2683.04 7867.09,2682.85 C 7865.3,2682.47 7864.27,2681.45 7864.01,2679.79 C 7864.36,2678.97 7864.74,2678.14 7865.13,2677.3 C 7865.5,2676.46 7865.97,2675.76 7866.54,2675.19 C 7866.89,2675.07 7867.25,2675 7867.6,2675 C 7867.93,2675 7868.38,2675.08 7868.95,2675.24 C 7869.52,2675.4 7869.94,2675.48 7870.19,2675.48 C 7870.57,2675.48 7870.88,2675.34 7871.13,2675.07 C 7870.8,2673.78 7870.48,2672.44 7870.16,2671.04 C 7869.77,2669.41 7869.31,2668.04 7868.76,2666.94 C 7868.87,2666.6 7868.92,2666.3 7868.92,2666.05 C 7868.92,2665.7 7868.73,2665.17 7868.35,2664.47 C 7867.96,2663.77 7867.77,2663.21 7867.77,2662.79 C 7867.77,2662.41 7867.88,2662.09 7868.08,2661.83 L 7867.09,2659.41 C 7866.45,2660.63 7865.6,2661.23 7864.55,2661.23 C 7863.21,2661.23 7862.01,2660.53 7860.94,2659.12 C 7860.98,2657.89 7861.03,2656.69 7861.08,2655.53 C 7861.39,2654.06 7862.19,2653.38 7863.48,2653.51 C 7863.76,2652.91 7864.09,2652.22 7864.45,2651.44 C 7864.86,2650.54 7865.06,2649.77 7865.06,2649.14 C 7865.06,2648.52 7864.82,2647.88 7864.34,2647.23 C 7864.45,2646.51 7864.78,2646.11 7865.3,2646.03 C 7865.83,2645.95 7866.09,2645.87 7866.09,2645.77 C 7866.09,2645.59 7866.08,2645.29 7866.05,2644.86 C 7866.63,2644.97 7867.01,2645.02 7867.21,2645.02 C 7867.41,2645.02 7867.75,2644.96 7868.21,2644.83 C 7868.68,2644.7 7869.05,2644.64 7869.31,2644.64 C 7870.39,2644.64 7871.07,2645.28 7871.35,2646.57 C 7871.67,2647.97 7872,2648.86 7872.34,2649.24 C 7871.63,2650.23 7871.27,2651.54 7871.27,2653.16 C 7871.27,2653.64 7871.28,2654.23 7871.3,2654.95 C 7871.33,2655.66 7871.34,2656.14 7871.34,2656.39 C 7871.34,2656.85 7871.33,2657.19 7871.3,2657.4 L 7871.97,2658.09 C 7872.42,2662.23 7873.43,2666.63 7875,2671.3 C 7875.5,2671.59 7876.12,2672.19 7876.87,2673.1 C 7877.17,2673.37 7877.64,2673.83 7878.29,2674.49 C 7878.74,2674.67 7880.04,2674.76 7882.19,2674.76 C 7883.35,2674.76 7884.35,2674.94 7885.21,2675.32 C 7885.16,2675.62 7885.14,2675.81 7885.14,2675.87 C 7885.14,2675.96 7885.25,2676.1 7885.47,2676.31 C 7885.7,2676.51 7885.84,2676.72 7885.89,2676.93 C 7885.92,2677.12 7885.94,2677.4 7885.94,2677.78 Z "/>
		<path id="dp_path014" fill="#e75f5a" fill-rule="evenodd" d="M 7910.51,2644.83 C 7910.51,2646.21 7910.15,2647.66 7909.43,2649.17 C 7909.24,2649.55 7908.6,2650.59 7907.53,2652.29 C 7907.33,2652.67 7906.9,2653.4 7906.25,2654.48 C 7905.05,2656.57 7904.15,2658.22 7903.56,2659.41 C 7901.84,2662.86 7900.72,2665.01 7900.21,2665.87 C 7898.82,2668.26 7897.31,2670.22 7895.68,2671.74 C 7895.68,2671.74 7895.55,2671.74 7895.29,2671.74 C 7894.45,2671.74 7894.03,2671.38 7894.03,2670.65 L 7894.07,2670.51 C 7894.19,2669.31 7894.73,2667.71 7895.71,2665.72 C 7896.71,2663.7 7897.3,2662.15 7897.48,2661.07 C 7898.08,2660.5 7898.5,2659.76 7898.76,2658.83 C 7899.12,2657.49 7899.39,2656.66 7899.58,2656.33 C 7899.74,2656.08 7899.97,2655.73 7900.25,2655.27 C 7900.82,2654.33 7901.47,2653.04 7902.17,2651.42 C 7903.17,2649.11 7903.75,2647.82 7903.9,2647.53 C 7903.84,2647.4 7903.82,2647.14 7903.82,2646.75 C 7903.82,2645.13 7904.64,2643.7 7906.29,2642.48 C 7907.01,2642.72 7907.63,2643.04 7908.16,2643.45 C 7909.31,2644.12 7910.1,2644.58 7910.51,2644.83 Z M 7894.58,2678.5 C 7893.66,2680.4 7892.81,2681.75 7892.03,2682.54 C 7890.88,2683.73 7889.48,2684.32 7887.83,2684.32 L 7887.43,2684.32 C 7886.82,2683.03 7886.52,2681.74 7886.52,2680.46 C 7886.52,2679.45 7886.67,2678.35 7886.97,2677.15 C 7887.07,2677.11 7887.79,2676.38 7889.15,2674.99 C 7889.7,2674.26 7890.55,2673.83 7891.69,2673.73 C 7891.93,2674.2 7892.45,2674.96 7893.24,2676.01 C 7893.89,2676.89 7894.34,2677.72 7894.58,2678.5 Z "/>
		<path id="dp_path015" fill="#e75f5a" fill-rule="evenodd" stroke="#31323d" stroke-width="6.66667" stroke-linejoin="round" stroke-linecap="round" d="M 7971.23,2665.13 L 7752.98,2787.21 L 7971.23,2787.21 Z "/>
		<path id="dp_path016" fill="#e75f5a" fill-rule="evenodd" stroke="#31323d" stroke-width="6.66667" stroke-linejoin="round" stroke-linecap="round" d="M 7752.98,2665.13 L 7971.22,2787.21 L 7752.98,2787.21 Z "/>
		<path id="dp_path017" fill="#31323d" fill-rule="evenodd" fill-opacity="0.501961" d="M 7869.9,2782.65 L 7759.36,2782.65 C 7759.36,2782.65 7759.36,2782.65 7759.36,2782.65 L 7759.36,2665.47 L 7753.55,2665.47 L 7753.55,2782.65 C 7753.55,2785.35 7755.73,2787.53 7758.43,2787.53 L 7869.9,2787.53 Z "/>
	</g>
</svg>