<?xml version="1.0" encoding="UTF-8" standalone="no"?>
<svg version="1.1" xmlns="http://www.w3.org/2000/svg" xmlns:xlink="http://www.w3.org/1999/xlink" xmlns:i="http://ns.adobe.com/AdobeIllustrator/10.0/" width="3005" height="3005">
	<g id="dp_dp001" transform="matrix(1,0,0,1,-4343.79,-2504.34)">
		<path id="dp_path002" fill="#31323d" fill-rule="evenodd" fill-opacity="0.294118" d="M 5029,5061 C 5095.27,5061 5149,5073.54 5149,5089 C 5149,5104.46 5095.27,5117 5029,5117 C 4962.73,5117 4909,5104.46 4909,5089 C 4909,5073.54 4962.73,5061 5029,5061 Z "/>
		<path id="dp_path003" fill="#31323d" fill-rule="evenodd" fill-opacity="0.294118" d="M 4590,5142 C 4656.27,5142 4710,5154.54 4710,5170 C 4710,5185.46 4656.27,5198 4590,5198 C 4523.73,5198 4470,5185.46 4470,5170 C 4470,5154.54 4523.73,5142 4590,5142 Z "/>
		<path id="dp_path004" fill="#31323d" fill-rule="evenodd" fill-opacity="0.294118" d="M 4771,4903 C 4837.27,4903 4891,4921.13 4891,4943.5 C 4891,4965.87 4837.27,4984 4771,4984 C 4704.73,4984 4651,4965.87 4651,4943.5 C 4651,4921.13 4704.73,4903 4771,4903 Z "/>
		<path id="dp_path005" fill="#ffccd8" fill-rule="evenodd" stroke="#31323d" stroke-width="13.3333" stroke-linejoin="round" stroke-linecap="round" d="M 4823.35,4676.94 C 4863.66,4621.11 4959.62,4618.57 4997.43,4655.57 S 5032.04,4744.89 4991.73,4800.72 C 4963.56,4842.56 4873.42,4941.22 4832.16,4943.18 S 4691.11,4847.47 4661.49,4806.67 C 4619.24,4752.33 4619.37,4701.07 4654.86,4664.78 S 4781.1,4622.59 4823.35,4676.94 Z "/>
		<path id="dp_path006" fill="#31323d" fill-rule="evenodd" fill-opacity="0.501961" d="M 4832.16,4943.18 C 4834.39,4952.97 4689.59,4857.91 4661.49,4806.67 C 4602.88,4728.96 4646.39,4673.92 4654.86,4664.78 S 4629.27,4697.41 4661.89,4757.33 C 4708.21,4842.42 4829.93,4933.39 4832.16,4943.18 Z "/>
		<path id="dp_path007" fill="#31323d" fill-rule="evenodd" fill-opacity="0.501961" d="M 4843.04,4931.99 C 4885.44,4862.04 4932.26,4844.58 4915.36,4849.31 C 4900.96,4853.34 4899.87,4922.83 4857.76,4930.64 C 4851.7,4931.76 4839.85,4937.23 4843.04,4931.99 Z "/>
	</g>
	<text id="dp_text001" transform="matrix(1,0,0,1,393.501,2273.34)" xml:space="preserve" fill="#e75f5a" font-family="Accord Heavy SF" font-size="70" font-weight="700" x="-28.1133" y="-0.00133333">QT CAT</text>
	<path id="dp_path009" transform="matrix(1,0,0,1,-4343.79,-2504.34)" fill="#9eeec5" fill-rule="evenodd" stroke="#31323d" stroke-width="13.3333" stroke-linejoin="round" stroke-linecap="round" d="M 5054.35,4825.94 C 5094.66,4770.11 5190.62,4767.57 5228.43,4804.57 S 5263.04,4893.89 5222.73,4949.72 C 5194.56,4991.56 5104.42,5090.22 5063.16,5092.18 S 4922.11,4996.47 4892.49,4955.67 C 4850.24,4901.33 4850.37,4850.07 4885.86,4813.78 S 5012.1,4771.59 5054.35,4825.94 Z "/>
	<g id="dp_dp010" transform="matrix(1,0,0,1,628.501,2402.34)">
		<text id="dp_text002" xml:space="preserve" fill="#e75f5a" font-family="Accord Heavy SF" font-size="70" font-weight="700" x="50.9013" y="-0.00133333">BE</text>
		<text id="dp_text003" xml:space="preserve" fill="#e75f5a" font-family="Accord Heavy SF" font-size="70" font-weight="700" x="-2.33467" y="70.9813">MINE</text>
	</g>
	<g id="dp_dp013" transform="matrix(1,0,0,1,-4343.79,-2504.34)">
		<path id="dp_path014" fill="#31323d" fill-rule="evenodd" fill-opacity="0.501961" d="M 5063.16,5092.18 C 5065.39,5101.97 4920.59,5006.91 4892.49,4955.67 C 4833.88,4877.96 4877.39,4822.92 4885.86,4813.78 S 4860.27,4846.41 4892.89,4906.33 C 4939.21,4991.42 5060.93,5082.39 5063.16,5092.18 Z "/>
		<path id="dp_path015" fill="#afd0f7" fill-rule="evenodd" stroke="#31323d" stroke-width="13.3333" stroke-linejoin="round" stroke-linecap="round" d="M 4606.72,4907.29 C 4647.03,4851.46 4742.99,4848.92 4780.81,4885.92 S 4815.41,4975.24 4775.1,5031.07 C 4746.93,5072.91 4656.79,5171.57 4615.53,5173.53 S 4474.48,5077.82 4444.86,5037.02 C 4402.61,4982.68 4402.74,4931.42 4438.24,4895.13 S 4564.47,4852.94 4606.72,4907.29 Z "/>
	</g>
	<g id="dp_dp016" transform="matrix(1,0,0,1,179.873,2476.69)">
		<text id="dp_text004" xml:space="preserve" fill="#e75f5a" font-family="Accord Heavy SF" font-size="70" font-weight="700" x="24.8453" y="-0.00133333">HOT</text>
		<text id="dp_text005" xml:space="preserve" fill="#e75f5a" font-family="Accord Heavy SF" font-size="70" font-weight="700" x="-12.3267" y="70.9813">STUFF</text>
	</g>
	<path id="dp_path019" transform="matrix(1,0,0,1,-4343.79,-2504.34)" fill="#31323d" fill-rule="evenodd" fill-opacity="0.501961" d="M 4615.53,5173.53 C 4617.76,5183.32 4472.96,5088.25 4444.86,5037.02 C 4386.25,4959.31 4429.76,4904.27 4438.24,4895.13 S 4412.64,4927.76 4445.26,4987.68 C 4491.59,5072.77 4613.3,5163.74 4615.53,5173.53 Z "/>
</svg>