<?xml version="1.0" encoding="UTF-8" standalone="no"?>
<svg version="1.1" xmlns="http://www.w3.org/2000/svg" xmlns:xlink="http://www.w3.org/1999/xlink" xmlns:i="http://ns.adobe.com/AdobeIllustrator/10.0/" width="3056" height="3005">
	<g id="dp_dp001" transform="matrix(1,0,0,1,-4292.72,-2504.34)">
		<path id="dp_path002" fill="#e75f5a" fill-rule="evenodd" stroke="#31323d" stroke-width="13.3333" d="M 4655.19,4762.59 C 4638.02,4614.95 4753.18,4533.3 4848.14,4545.89 C 4943.1,4558.48 5017.85,4665.3 5035.02,4812.94 C 5050.78,4921.64 5003.2,5075.23 4954.21,5189.88 C 4830.46,5197.7 4670.75,5191.07 4574.38,5139.53 C 4442.04,5073.53 4367.29,4966.71 4387.49,4872.48 C 4407.69,4778.24 4522.85,4696.6 4655.19,4762.59 Z "/>
		<path id="dp_path003" fill="#31323d" fill-rule="evenodd" fill-opacity="0.215686" d="M 4655.19,4762.59 C 4638.02,4614.95 4753.18,4533.3 4848.14,4545.89 C 4943.1,4558.48 5017.85,4665.3 5035.02,4812.94 C 5050.78,4921.64 5003.2,5075.23 4954.21,5189.88 C 4830.46,5197.7 4670.75,5191.07 4574.38,5139.53 C 4442.04,5073.53 4367.29,4966.71 4387.49,4872.48 C 4407.69,4778.24 4522.85,4696.6 4655.19,4762.59 Z "/>
		<path id="dp_path004" fill="#e75f5a" fill-rule="evenodd" stroke="#31323d" stroke-width="13.3333" d="M 4673.42,4728.91 C 4658.16,4588.36 4769.13,4511.49 4859.98,4524.12 C 4950.83,4536.75 5021.57,4638.88 5036.83,4779.44 C 5051.05,4882.94 5004.24,5028.71 4956.39,5137.42 C 4837.8,5144 4684.87,5136.59 4592.98,5086.89 C 4466.76,5023.2 4396.01,4921.07 4416.13,4831.58 C 4436.24,4742.08 4547.2,4665.22 4673.42,4728.91 Z "/>
		<path id="dp_path005" fill="none" fill-rule="evenodd" stroke="#31323d" stroke-width="9.33333" d="M 4958.32,5138.69 C 4955.63,5155.65 4950.26,5189.55 4950.26,5189.55"/>
		<path id="dp_path006" fill="white" fill-rule="evenodd" stroke="#31323d" stroke-width="9.33333" d="M 4584.52,5078.22 L 4936.48,4557.38 C 4957.81,4575.75 4973.03,4591.31 4983.22,4610.89 L 4652.62,5107.42 C 4630.36,5101.8 4607.58,5091.26 4584.52,5078.22 Z "/>
		<path id="dp_path007" fill="white" fill-rule="evenodd" stroke="#31323d" stroke-width="9.33333" d="M 4585.1,5083.41 C 4609.81,5091.68 4627.85,5103.08 4652.15,5109.77 L 4650.65,5164.88 C 4624.61,5161.49 4608.78,5156.76 4584,5143.4 Z "/>
		<path id="dp_path008" fill="#31323d" fill-rule="evenodd" fill-opacity="0.388235" d="M 4999.73,4792.62 C 4956.49,4789.47 4918.4,4810.43 4867.81,4821.75 C 4853.97,4824.85 4827.8,4824.93 4823.45,4842.44 C 4821.43,4850.55 4822.96,4859.09 4827.26,4866.74 C 4834.97,4880.46 4869.89,4910.03 4888.82,4919.95 C 4907.66,4929.83 4981.27,4950.77 5003.8,4950.94 C 5020.35,4951.06 5006.87,4931.54 5005.92,4929.24 C 5003.7,4923.87 4992.45,4898.95 4997.23,4889.46 C 5008.38,4867.33 5070.58,4832.32 5071.04,4816.69 C 5071.5,4801.59 5017.07,4793.82 4999.73,4792.62 Z "/>
		<path id="dp_path009" fill="#31323d" fill-rule="evenodd" fill-opacity="0.360784" d="M 4800.36,4865.11 C 4799.94,4875.15 4799.09,4895.24 4796.54,4910.05 C 4793.91,4925.34 4788.77,4941.29 4784.57,4956.82 C 4779.62,4975.08 4774.22,4999.62 4766.89,5019.61 C 4759.67,5039.29 4753.72,5075.52 4740.61,5076.73 C 4727.51,5077.95 4701.34,5043.92 4688.26,5026.9 C 4680.94,5017.39 4651.38,5030.1 4634.36,5026.9 C 4617.36,5023.7 4592.59,5014.04 4586.15,5007.68 C 4581.12,5002.71 4592.39,4994.99 4595.71,4988.75 C 4599.85,4981.01 4602.31,4967.18 4610.94,4961.22 C 4626.9,4950.18 4664.92,4936.03 4691.48,4922.55 C 4723.05,4906.53 4774.59,4878.92 4800.36,4865.11 Z "/>
		<path id="dp_path010" fill="white" fill-rule="evenodd" stroke="#31323d" stroke-width="8.66667" d="M 4810.23,4855.88 C 4809.81,4865.92 4808.97,4886.01 4806.42,4900.83 C 4803.79,4916.11 4798.65,4932.06 4794.44,4947.59 C 4789.5,4965.85 4784.09,4990.39 4776.76,5010.38 C 4769.55,5030.06 4763.59,5066.29 4750.48,5067.51 C 4737.38,5068.72 4711.21,5034.69 4698.13,5017.67 C 4690.82,5008.16 4661.26,5020.87 4644.24,5017.67 C 4627.23,5014.47 4602.46,5004.81 4596.02,4998.45 C 4590.99,4993.48 4602.26,4985.76 4605.59,4979.52 C 4609.72,4971.78 4612.18,4957.95 4620.81,4951.99 C 4636.77,4940.95 4674.79,4926.8 4701.35,4913.32 C 4732.92,4897.31 4784.46,4869.69 4810.23,4855.88 Z "/>
		<path id="dp_path011" fill="#31323d" fill-rule="evenodd" fill-opacity="0.360784" d="M 4761.74,4804.55 C 4737.54,4794.58 4714.78,4787.79 4684.29,4783.83 C 4654.77,4780 4563.98,4781.14 4562.5,4809.92 C 4561.19,4835.33 4580.48,4863.49 4592.57,4873.83 C 4606.88,4886.07 4617.64,4891.63 4622.19,4903.28 C 4625.61,4912.04 4624.11,4921.42 4624.73,4929.83 C 4626.38,4951.85 4631.57,4990.25 4648.53,5001.56 C 4656.09,5006.6 4662.44,5003.99 4665.76,5003.76 C 4700.15,5001.35 4752.58,4955.62 4777.07,4893.28 C 4782.88,4878.47 4788.03,4866.21 4786.52,4851.4 C 4784.63,4832.8 4774.25,4821.15 4761.74,4804.55 Z "/>
		<path id="dp_path012" fill="white" fill-rule="evenodd" stroke="#31323d" stroke-width="8.66667" d="M 5007.22,4783.31 C 4963.98,4780.16 4925.88,4801.13 4875.3,4812.44 C 4861.45,4815.53 4835.29,4815.62 4830.93,4833.13 C 4828.92,4841.24 4830.45,4849.78 4834.75,4857.43 C 4842.46,4871.15 4877.38,4900.73 4896.3,4910.64 C 4915.15,4920.52 4988.76,4941.47 5011.29,4941.63 C 5027.84,4941.75 5014.36,4922.23 5013.41,4919.93 C 5011.19,4914.56 4999.93,4889.64 5004.71,4880.15 C 5015.86,4858.01 5078.06,4823.01 5078.53,4807.38 C 5078.98,4792.28 5024.55,4784.51 5007.22,4783.31 Z "/>
		<path id="dp_path013" fill="white" fill-rule="evenodd" stroke="#31323d" stroke-width="8.66667" d="M 4766.91,4792.78 C 4742.72,4782.81 4719.96,4776.01 4689.47,4772.05 C 4659.95,4768.22 4569.16,4769.36 4567.68,4798.15 C 4566.37,4823.55 4585.66,4851.71 4597.75,4862.05 C 4612.06,4874.29 4622.82,4879.85 4627.37,4891.5 C 4630.79,4900.26 4629.28,4909.64 4629.91,4918.05 C 4631.56,4940.07 4636.75,4978.47 4653.7,4989.78 C 4661.26,4994.82 4667.61,4992.22 4670.94,4991.98 C 4705.33,4989.57 4757.76,4943.84 4782.25,4881.5 C 4788.06,4866.7 4793.2,4854.44 4791.7,4839.63 C 4789.81,4821.02 4779.43,4809.37 4766.91,4792.78 Z "/>
		<path id="dp_path014" fill="white" fill-rule="evenodd" stroke="#31323d" stroke-width="8.66667" d="M 4793.72,4779.04 C 4800.02,4767.55 4803.34,4759.72 4807.67,4749.2 C 4810.51,4742.33 4813.11,4731.49 4817.79,4725.13 C 4825.66,4714.45 4838.58,4702.37 4846.22,4696.02 C 4864.05,4681.17 4919.92,4643.33 4937.51,4642.31 C 4943.54,4641.96 4946.98,4647.43 4947.05,4647.51 C 4961.5,4664.37 4967.8,4692.84 4960.77,4722.01 C 4959.28,4728.17 4954.03,4734.27 4955.12,4741.75 C 4956.63,4752.02 4980.93,4760.38 4985.52,4764.44 C 4997.59,4775.12 5006.23,4789.97 5012.74,4803.59 C 5013.68,4805.58 5022.59,4813.85 5015,4824.29 C 5000.98,4843.57 4900.47,4859.54 4890.78,4859.17 C 4871.89,4858.47 4845,4852.13 4829.42,4841.13 C 4811.46,4828.47 4802.89,4801.71 4793.72,4779.04 Z "/>
		<path id="dp_path015" fill="#31323d" fill-rule="evenodd" fill-opacity="0.356863" d="M 4785.02,4772.44 C 4791.84,4769.77 4799.53,4773.13 4802.2,4779.94 C 4824.33,4799.86 4836.49,4823.99 4831.73,4855.25 C 4834.4,4862.07 4831.04,4869.76 4824.23,4872.43 L 4801.27,4881.43 C 4794.45,4884.1 4786.77,4880.74 4784.09,4873.93 C 4756.4,4852.48 4748.61,4826.95 4754.57,4798.62 C 4751.89,4791.81 4755.25,4784.12 4762.07,4781.45 Z "/>
		<path id="dp_path016" fill="white" fill-rule="evenodd" stroke="#31323d" stroke-width="8.66667" d="M 4785.35,4762.89 C 4792.16,4760.22 4799.85,4763.58 4802.52,4770.39 C 4824.65,4790.31 4836.81,4814.44 4832.05,4845.7 C 4834.72,4852.52 4831.36,4860.21 4824.55,4862.88 L 4801.59,4871.88 C 4794.78,4874.55 4787.09,4871.19 4784.42,4864.38 C 4756.72,4842.93 4748.94,4817.4 4754.89,4789.07 C 4752.21,4782.25 4755.57,4774.57 4762.39,4771.89 Z "/>
	</g>
</svg>